<svg xmlns="http://www.w3.org/2000/svg" viewBox="0 0 253.45 397.79"><defs><style>.cls-1{fill:#291706;}.cls-2{fill:#8b6448;}.cls-3{fill:none;stroke:#291706;stroke-miterlimit:10;}.cls-4{fill:#fff;}</style></defs><title>abe</title><g id="hoved"><circle class="cls-1" cx="38.99" cy="102.53" r="38.99"/><circle class="cls-2" cx="39.17" cy="103" r="26"/><circle class="cls-1" cx="214.45" cy="102.53" r="38.99"/><circle class="cls-2" cx="217.17" cy="103" r="26"/><circle class="cls-1" cx="126.72" cy="107.4" r="92.61"/><path class="cls-1" d="M135.75-.5" transform="translate(0.17 3)"/><path class="cls-1" d="M124.6,11.8c-.57,7.83,2.14.88,2.38.25a.42.42,0,0,0,0-.1" transform="translate(0.17 3)"/></g><g id="armeben"><path class="cls-1" d="M77.93,180.06A13.66,13.66,0,0,0,63.47,182c-9.18,7.69-24.32,21.93-31.2,37.09-.72,1.6-1.2,3.28-1.92,4.88-2.88,6.37-9.92,24.28-7,41.05.05.28.1.56.13.85,0,.05,0,.1,0,.16,2.07,16.67,26.83,15.36,27.12-1.43,0-1.06,0-2.18-.11-3.37a13,13,0,0,1,0-1.53c.14-4.25,1.34-23.47,11.76-37.58a12.82,12.82,0,0,0,1.91-3.78c2.4-7.5,10.57-31.73,17.31-36.79h0S80,181,77.93,180.06Z" transform="translate(0.17 3)"/><path class="cls-1" d="M174.81,175.06A13.64,13.64,0,0,1,189.26,177c9.18,7.69,24.33,21.93,31.21,37.09.72,1.6,1.2,3.28,1.92,4.88,2.88,6.37,9.92,24.28,7,41.05-.05.28-.1.56-.13.85,0,.05,0,.1,0,.16-2.07,16.67-26.83,15.36-27.12-1.43,0-1.06,0-2.18.11-3.37a13,13,0,0,0,0-1.53c-.14-4.25-1.34-23.47-11.76-37.58a13.09,13.09,0,0,1-1.92-3.78c-2.4-7.5-10.56-31.73-17.3-36.79h0S172.74,176,174.81,175.06Z" transform="translate(0.17 3)"/><path class="cls-1" d="M77.56,334.38c7.23-3.38,14.37-6.94,21.5-10.51A36,36,0,0,1,107,322c-5.81-6.62-15.08-13.42-22.08-18.62-3.37-2.5-7.1-4.41-10.38-7-2.21-1.77-2.32-4.57-4.54-6.34-.61.89-4.27,3-6.39,3.69A50.52,50.52,0,0,0,44,306.07C32.45,317.61,33,330.84,38.27,344.94A90,90,0,0,0,55.39,374H48.47c-1.95,0-3.89-.05-5.84,0-6.24.21-10.66,4.22-10.93,9.87a9.78,9.78,0,0,0,9.61,10.48c12.45.47,24.94.66,37.37,0,7.87-.4,12.27-9.84,7.43-15.64-3.22-3.86-3.84-7.83-4.1-12.26a73.07,73.07,0,0,0-6.49-27C74.13,336.49,75.05,335.55,77.56,334.38Z" transform="translate(0.17 3)"/><path class="cls-1" d="M171.63,334.37c-7.23-3.37-14.37-6.93-21.5-10.5A29.56,29.56,0,0,0,143,322c5.81-6.62,14.27-13.42,21.27-18.62,3.37-2.5,7.1-4.41,10.38-7,2.21-1.77,2.13-3.57,4.35-5.34.61.89,4.46,2,6.58,2.69a50.52,50.52,0,0,1,19.58,12.38c11.58,11.54,11.07,24.77,5.76,38.87A90,90,0,0,1,193.8,374h6.92c1.94,0,3.89-.05,5.84,0,6.24.21,10.66,4.22,10.93,9.87a9.78,9.78,0,0,1-9.61,10.48c-12.45.47-24.94.66-37.37,0-7.87-.4-12.27-9.84-7.43-15.64,3.22-3.86,3.83-7.83,4.1-12.26a73.07,73.07,0,0,1,6.49-27C175.06,336.49,174.14,335.55,171.63,334.37Z" transform="translate(0.17 3)"/></g><g id="mave"><ellipse class="cls-1" cx="124.17" cy="242.5" rx="70" ry="86.5"/><ellipse class="cls-2" cx="124.17" cy="248.16" rx="46" ry="56.84"/><path class="cls-3" d="M124,253s-8,3-5,7a15.39,15.39,0,0,0,2.7,2.87,4.37,4.37,0,0,0,3.75.77l1-.26a3.38,3.38,0,0,0,2.2-1.77l.7-1.38a2.47,2.47,0,0,0-.19-2.53c-.77-1.07-2-2.31-3.2-1.7-2,1-4,1-4,3s3,2,3,2" transform="translate(0.17 3)"/></g><g id="Layer_5" data-name="Layer 5"><circle class="cls-2" cx="159.17" cy="93" r="40"/><circle class="cls-2" cx="96.17" cy="92" r="40"/><circle class="cls-2" cx="127.17" cy="138" r="47"/><circle class="cls-4" cx="151.17" cy="99" r="20"/><circle cx="152.84" cy="100.67" r="16.67"/><ellipse class="cls-4" cx="158.67" cy="97.33" rx="4.17" ry="8.33"/><ellipse class="cls-4" cx="151.17" cy="108.17" rx="5" ry="2.5"/><circle class="cls-1" cx="134.17" cy="152" r="10"/><circle class="cls-4" cx="104.17" cy="99" r="20"/><circle cx="105.84" cy="100.67" r="16.67"/><ellipse class="cls-4" cx="111.67" cy="97.33" rx="4.17" ry="8.33"/><ellipse class="cls-4" cx="104.17" cy="108.17" rx="5" ry="2.5"/><path class="cls-1" d="M151.53,16.67c-6.84-1.79-13.68-3.68-20.34-6.11-4.47-1.63-9-3.29-12.36-6.82-1.09-1.14-1.48-.84-2.16.26-1.7,2.71-1.7,5.63-1.06,8.73-7.07-2.49-11.88-7-14.08-14.09-.18-.57-.2-1.57-1-1.54-.49,0-1.07.71-1.43,1.23-2.22,3.26-2.44,7-2.15,10.73a41.22,41.22,0,0,0,1.54,8.14c-4.61-1.41-8.23-3.67-10.82-7.42A54.56,54.56,0,0,1,83.61,2a23.38,23.38,0,0,0-2.84-5c-3.84,6.59-6.57,13.25-5.06,20.94,1.15,5.9,4.5,10.56,8.54,14.77,1.07,1.12,1,1.67,0,2.74,2.13,2.51,4.14,5,6,7.54.46-.24,1-.12,1.75.46a24.49,24.49,0,0,0,9.19,4c8.72,2.12,17.53,1.72,26.27.35A125.48,125.48,0,0,0,169.27,33a2.8,2.8,0,0,1,.77-.31c.8-2,1.66-4,2.54-6.05A60.74,60.74,0,0,0,151.53,16.67Z" transform="translate(0.17 3)"/></g></svg>
