<svg xmlns="http://www.w3.org/2000/svg" width="1050" height="500" viewBox="0 0 1050 500"><defs><style>.cls-1{fill:#51301a;}.cls-2{fill:#d6995b;}.cls-3{fill:#d6985a;}.cls-4{fill:#dca167;}.cls-5{fill:#e9b584;}.cls-6{fill:#dea46c;}.cls-7{fill:#bf8558;}.cls-8{fill:#291706;}.cls-9{fill:#8b6448;}.cls-10{fill:#fff;}.cls-11,.cls-12,.cls-15,.cls-16{fill:none;stroke-miterlimit:10;}.cls-11,.cls-12,.cls-15{stroke:#291706;}.cls-11{stroke-width:2.92px;}.cls-12{stroke-width:0.67px;}.cls-13{fill:#b45948;}.cls-14{fill:#bc2025;}.cls-16{stroke:#000;stroke-width:1.29px;}.cls-17{fill:#200d04;}.cls-18{fill:#400501;}.cls-19{fill:#e31430;}</style></defs><title>abespriteudenfarver</title><g id="plasterabe"><path class="cls-1" d="M196.09,345.26c.29.12.58.24.87.38l.19.1c16.78,7.88,30.13-16,14.64-26.15-1-.65-2.06-1.28-3.24-1.91a12.48,12.48,0,0,1-1.41-.84c-3.16-2.15-21.67-22.35-28.49-29.83a15.93,15.93,0,0,1-3.17-5.21c-3.53-9.58-19.65-43.71-22.9-40h0s-1.36,1.11-3.46,2.48a15.09,15.09,0,0,0-6.76,14.64c1.76,13.11,4.42,35.22,14.48,50.56C166.89,323.37,180.26,335.11,196.09,345.26Z"/><path class="cls-2" d="M246.83,321.3c0,.22,0,.44,0,.66s0,.43,0,.65c0,1.77.08,3.54.09,5.32,0,.11,0,.23,0,.34v.23c0,.31,0,.63,0,.94a5.61,5.61,0,0,1,0,.71c0,.15,0,.29,0,.44s0,.41,0,.62a2.44,2.44,0,0,0,0,.27,2.17,2.17,0,0,1,0,.44c0,.05,0,.1,0,.16a2.85,2.85,0,0,1,0,.5.86.86,0,0,0,0,.16,1.46,1.46,0,0,1,0,.36v0l-.06.71-.06.59s0,.06,0,.09c0,.36-.08.72-.13,1.07l-.15,1.07c-.05.31-.12.62-.17.93s-.12.66-.2,1-.15.65-.22,1c-.12.52-.27,1-.43,1.56-.09.32-.2.63-.31.94a22.39,22.39,0,0,1-.81,2.11,20.41,20.41,0,0,1-1.07,2.08,16.94,16.94,0,0,1-1.79,2.52,9.35,9.35,0,0,1-.74.8c-.14.14-.28.29-.43.42l-.49.44a14.83,14.83,0,0,1-1.26.95,13.67,13.67,0,0,1-2,1.1,16.22,16.22,0,0,1-1.95.72,17.87,17.87,0,0,1-1.79.41c-.31.05-.62.1-.94.13l-.71.08-.81.07-.31,0-.39,0h-.12c-.83,0-1.66.06-2.49,0-.32,0-.63,0-1-.05l-.53-.05c-.27,0-.53,0-.79-.09-.51-.07-1-.16-1.51-.28a14.86,14.86,0,0,1-1.73-.5c-.36-.13-.72-.27-1.07-.43a13.58,13.58,0,0,1-1.88-1c-.36-.24-.71-.48-1-.75s-.43-.34-.63-.53a15.66,15.66,0,0,1-1.55-1.61c-.39-.48-.76-1-1.09-1.47s-.6-1-.86-1.43-.42-.81-.61-1.22c-.28-.59-.53-1.19-.76-1.8s-.36-1-.52-1.5c-.21-.7-.41-1.39-.57-2.09-.09-.36-.18-.72-.26-1.08s-.09-.45-.13-.67l-.15-.75c0-.16-.05-.31-.08-.47l-.09-.52c0-.18,0-.35-.08-.52s-.07-.47-.1-.71a.15.15,0,0,1,0-.07c0-.29-.06-.57-.11-.86v0c0-.28-.06-.55-.08-.83,0-.08,0-.16,0-.25l-.09-1.09a4,4,0,0,0,0-.5,2.06,2.06,0,0,1,0-.35,2.1,2.1,0,0,0-.05-.43c0-.06,0-.12,0-.18a5.52,5.52,0,0,0-.05-.71,3.15,3.15,0,0,1,0-.44,1.31,1.31,0,0,0,0-.34.78.78,0,0,1,0-.16c0-.15,0-.3,0-.46a.57.57,0,0,0,0-.13,4.72,4.72,0,0,1-.05-.64,2.71,2.71,0,0,0,0-.41.86.86,0,0,1,0-.16c0-.16,0-.32,0-.48s0-.1,0-.14a4.34,4.34,0,0,1-.06-.62,2.81,2.81,0,0,0,0-.5.86.86,0,0,1,0-.16l0-.5a1.15,1.15,0,0,0,0-.19,2.07,2.07,0,0,1,0-.5l.1,0,.06,0a.09.09,0,0,1,.1,0l.26.18a1.53,1.53,0,0,0,.21.14,3,3,0,0,1,.34.2l.26.18a3,3,0,0,0,.3.18c.12.07.26.14.38.22a2.3,2.3,0,0,0,.43.25c.26.13.5.29.76.42l.33.17.38.19c.14.08.3.14.45.22a3.62,3.62,0,0,0,.45.2l.23.11a1.54,1.54,0,0,0,.42.17,2.11,2.11,0,0,0,.43.2c.11,0,.22.08.33.12l.77.31h.05c.3.08.58.22.88.29a2.16,2.16,0,0,0,.41.13c.29.11.58.18.87.28s.47.12.71.18l.76.2h.08a1.59,1.59,0,0,1,.3.06l.12,0a.69.69,0,0,1,.25,0,.83.83,0,0,0,.15,0,3.1,3.1,0,0,1,.42.08l.5.08.33,0a.85.85,0,0,0,.32,0l.08,0a3.07,3.07,0,0,0,.53.06h0a1.54,1.54,0,0,0,.3,0,3.42,3.42,0,0,0,.46,0h0a.69.69,0,0,0,.25,0h.2a.89.89,0,0,0,.28,0h.15a1.25,1.25,0,0,0,.43,0l.18,0a.9.9,0,0,0,.23,0h.69a.65.65,0,0,1,.2,0,1.14,1.14,0,0,0,.26,0l1,0a.88.88,0,0,0,.33,0,.55.55,0,0,1,.18,0l.69,0a.5.5,0,0,0,.21,0,.56.56,0,0,1,.22,0h.36a.86.86,0,0,0,.28,0,.68.68,0,0,1,.15,0,.36.36,0,0,0,.15,0,.72.72,0,0,1,.25,0,1.65,1.65,0,0,0,.31,0,1.45,1.45,0,0,1,.3,0h0l.21,0a.39.39,0,0,0,.15,0,1.66,1.66,0,0,1,.22,0l.23-.05a3.7,3.7,0,0,1,.48-.06h0l.27-.07a1.4,1.4,0,0,1,.28-.06,2.56,2.56,0,0,0,.27-.05,1.46,1.46,0,0,0,.3-.07l.1,0c.26,0,.5-.14.76-.17l.07,0,.52-.14.51-.15.51-.15.69-.23.62-.23.59-.22c.22-.08.43-.16.63-.25l.16-.08A1.69,1.69,0,0,0,239,326c.58-.28,1.18-.53,1.75-.84.13-.07.28-.13.42-.22l.43-.24a2.2,2.2,0,0,0,.45-.26s0,0,.07,0l.15-.08c.51-.32,1-.63,1.52-1l.28-.2a1.46,1.46,0,0,0,.24-.17l.32-.23.37-.28a2.51,2.51,0,0,0,.44-.35l.06,0a.59.59,0,0,0,.2-.15.75.75,0,0,1,.13-.11,2,2,0,0,0,.32-.26l.3-.28.1-.08a.14.14,0,0,1,.14,0l.06.07A.12.12,0,0,0,246.83,321.3Z"/><path class="cls-3" d="M243.61,275.46c0,.09,0,.17,0,.26a1.34,1.34,0,0,1,0,.2.15.15,0,0,0-.14.09s0,0,0,.06a0,0,0,0,1-.07,0,5.36,5.36,0,0,1-.57-.34,4,4,0,0,0-.45-.25,4.48,4.48,0,0,0-.47-.28l-.29-.15-.1-.07c-.21-.09-.39-.21-.6-.31s-.33-.18-.51-.25-.4-.21-.61-.28l-.05,0a.76.76,0,0,0-.22-.11l-1-.44a.56.56,0,0,0-.16-.07,1.61,1.61,0,0,1-.33-.12l-.87-.35-.07,0c-.23-.05-.44-.15-.67-.22l-1-.31-1.3-.35-.39-.09c-.1,0-.18-.05-.27-.06a5.83,5.83,0,0,0-.7-.15,8.93,8.93,0,0,0-.9-.17,5.2,5.2,0,0,0-.67-.11.93.93,0,0,0-.23,0c-.15,0-.3-.06-.45-.05a.86.86,0,0,0-.28,0h-.07a.49.49,0,0,0-.2,0,.55.55,0,0,1-.18,0,.39.39,0,0,0-.15,0,2.93,2.93,0,0,0-.59,0H229a.75.75,0,0,0-.3,0,.55.55,0,0,1-.18,0,.82.82,0,0,0-.22,0H228a.39.39,0,0,1-.15,0,.71.71,0,0,0-.25,0h-.41a.92.92,0,0,1-.33,0,.42.42,0,0,0-.16,0l-1.51,0a1.13,1.13,0,0,0-.18,0,.83.83,0,0,1-.22,0h-.92a.89.89,0,0,1-.36,0,1,1,0,0,0-.35.05H223a1.07,1.07,0,0,0-.4,0,.29.29,0,0,1-.13,0,.59.59,0,0,0-.13,0,1,1,0,0,1-.3,0H222a.86.86,0,0,1-.28,0,.18.18,0,0,0-.1,0,.56.56,0,0,1-.22,0,.66.66,0,0,0-.15,0,.71.71,0,0,1-.2,0h-.11c-.2.06-.41.08-.62.13a1.16,1.16,0,0,1-.37.07l-.1,0a4,4,0,0,1-.47.11c-.19,0-.38.1-.57.13s-.68.15-1,.27a4.28,4.28,0,0,0-.51.15c-.18.05-.37.09-.54.15s-.45.16-.67.23l-.19.07-.45.16-.68.26a5.46,5.46,0,0,0-.7.3l-.09,0a1,1,0,0,0-.24.1l-1.54.72a.67.67,0,0,0-.12.06,2.82,2.82,0,0,1-.46.23l-.14.07-.62.36c-.21.11-.41.22-.61.35a3.48,3.48,0,0,0-.48.3h0a.74.74,0,0,0-.23.14l-.13.07-.13.08a2.44,2.44,0,0,1-.43.28.16.16,0,0,0-.08.06c-.11.1-.24.17-.36.26a6.38,6.38,0,0,0-.67.49l-.1.08-.12.08c-.1.1-.25.16-.35.27a.8.8,0,0,0-.23.18l-.08.06a.8.8,0,0,0-.23.18.87.87,0,0,1-.11.09,1.22,1.22,0,0,0-.25.2l-.08.05a.09.09,0,0,1-.11,0,.09.09,0,0,1,0,0c0-.09-.07-.13-.17-.13a.3.3,0,0,1,0-.16l0-.46a2.74,2.74,0,0,0,0-.5c0-.12,0-.23,0-.35a2.28,2.28,0,0,0,0-.45,1.15,1.15,0,0,1,0-.19l0-.55c0-.1,0-.21,0-.31s0-.13,0-.19,0-.3,0-.46a3.13,3.13,0,0,0,0-.43.61.61,0,0,1,0-.14c0-.33,0-.65-.06-1a5.44,5.44,0,0,1,0-.57c0-.14,0-.28,0-.41s0-.22,0-.33,0-.51,0-.77,0-.46,0-.69,0-.2,0-.3,0-.12,0-.18,0-.34,0-.5a2.58,2.58,0,0,0,0-.39c0-.08,0-.17,0-.25s0-.45,0-.67,0-.44,0-.66,0-.17,0-.25a.49.49,0,0,0,0-.12l0-.29c0-.67,0-1.33,0-2,0-.29,0-.6.06-.89s0-.41.06-.62.06-.48.1-.73.11-.6.16-.9.2-.89.32-1.32a16.36,16.36,0,0,1,.56-1.67,13,13,0,0,1,.62-1.44c.13-.28.27-.56.42-.83a18.31,18.31,0,0,1,4.32-5.33,14.83,14.83,0,0,1,1.62-1.21,17.58,17.58,0,0,1,2.7-1.47,15.29,15.29,0,0,1,1.75-.65,16.71,16.71,0,0,1,1.72-.45c.34-.08.69-.14,1-.19l.88-.11c.24,0,.48,0,.72,0l.33,0,.33,0h.75a3.1,3.1,0,0,1,.43,0H224c.32,0,.65,0,1,0s.44,0,.66.06c.41,0,.81.1,1.22.16s.8.15,1.2.24a17.14,17.14,0,0,1,1.89.56c.52.19,1,.4,1.51.63a15.22,15.22,0,0,1,1.49.81,14.16,14.16,0,0,1,1.21.81,17.51,17.51,0,0,1,1.47,1.24,12.74,12.74,0,0,1,1.24,1.31,16.57,16.57,0,0,1,1.62,2.22c.26.41.5.83.73,1.26s.43.87.63,1.31.38.93.56,1.4.33.94.47,1.42.25.91.36,1.36.13.6.19.9.09.41.13.61l.21,1c0,.19.09.38.13.56l.21.95c0,.2.08.4.13.61s.13.62.2.94l.21,1c0,.24.08.47.13.7l.09.5c0,.13,0,.27.07.41s.05.33.07.5.07.4.1.61,0,.42.07.64l.06.41a2.71,2.71,0,0,0,0,.4.62.62,0,0,1,0,.19,1.58,1.58,0,0,0,0,.38c0,.06,0,.11,0,.16s0,.26,0,.39v0c0,.25.05.51.08.76a2.42,2.42,0,0,0,0,.25s0,0,0,.06a4.48,4.48,0,0,0,.07.64v.14C243.56,275.42,243.56,275.42,243.61,275.46Z"/><path class="cls-4" d="M205.84,278.28c.1,0,.16,0,.17.13a.09.09,0,0,0,0,0,.09.09,0,0,0,.11,0l.08-.05a1.22,1.22,0,0,1,.25-.2.87.87,0,0,0,.11-.09.8.8,0,0,1,.23-.18l.08-.06a.8.8,0,0,1,.23-.18c.1-.11.25-.17.35-.27l.12-.08.1-.08a6.38,6.38,0,0,1,.67-.49c.12-.09.25-.16.36-.26a.16.16,0,0,1,.08-.06,2.44,2.44,0,0,0,.43-.28l.13-.08.13-.07a.74.74,0,0,1,.23-.14h0a3.48,3.48,0,0,1,.48-.3c.2-.13.4-.24.61-.35l.62-.36.14-.07a2.82,2.82,0,0,0,.46-.23.67.67,0,0,1,.12-.06l1.54-.72a1,1,0,0,1,.24-.1l.09,0a5.46,5.46,0,0,1,.7-.3l.68-.26.45-.16.19-.07c.22-.07.45-.14.67-.23s.36-.1.54-.15a4.28,4.28,0,0,1,.51-.15c.32-.12.67-.16,1-.27s.38-.1.57-.13a4,4,0,0,0,.47-.11l.1,0a1.16,1.16,0,0,0,.37-.07c.21,0,.42-.07.62-.13H221a.71.71,0,0,0,.2,0,.66.66,0,0,1,.15,0,.56.56,0,0,0,.22,0,.18.18,0,0,1,.1,0,.86.86,0,0,0,.28,0h.1a1,1,0,0,0,.3,0,.59.59,0,0,1,.13,0,.29.29,0,0,0,.13,0,1.07,1.07,0,0,1,.4,0h.13a1,1,0,0,1,.35-.05.89.89,0,0,0,.36,0h.92a.83.83,0,0,0,.22,0,1.13,1.13,0,0,1,.18,0l1.51,0a.42.42,0,0,1,.16,0,.92.92,0,0,0,.33,0h.41a.71.71,0,0,1,.25,0,.39.39,0,0,0,.15,0h.34a.82.82,0,0,1,.22,0,.55.55,0,0,0,.18,0,.75.75,0,0,1,.3,0h.05a2.93,2.93,0,0,1,.59,0,.39.39,0,0,1,.15,0,.55.55,0,0,0,.18,0,.49.49,0,0,1,.2,0h.07a.86.86,0,0,1,.28,0c.15,0,.3.05.45.05a.93.93,0,0,1,.23,0,5.2,5.2,0,0,1,.67.11,8.93,8.93,0,0,1,.9.17,5.83,5.83,0,0,1,.7.15c.09,0,.17,0,.27.06l.39.09,1.3.35,1,.31c.23.07.44.17.67.22l.07,0,.87.35a1.61,1.61,0,0,0,.33.12.56.56,0,0,1,.16.07l1,.44a.76.76,0,0,1,.22.11l.05,0c.21.07.4.19.61.28s.34.17.51.25.39.22.6.31l.1.07.29.15a4.48,4.48,0,0,1,.47.28,4,4,0,0,1,.45.25,5.36,5.36,0,0,0,.57.34,0,0,0,0,0,.07,0s0,0,0-.06a.15.15,0,0,1,.14-.09,3.33,3.33,0,0,1,.07.54l0,.21s0,0,0,.07c0,.27.07.54.08.82,0,.09,0,.18,0,.27s0,.09,0,.14a3.47,3.47,0,0,0,.06.45c0,.05,0,.11,0,.16a2.33,2.33,0,0,0,0,.37.65.65,0,0,1,0,.2,1.74,1.74,0,0,0,.05.39c0,.06,0,.14,0,.2a1,1,0,0,0,0,.35v0c0,.26.05.52.08.78a1.1,1.1,0,0,0,0,.31s0,0,0,0c0,.26,0,.52.07.78a2.48,2.48,0,0,0,0,.27,1.9,1.9,0,0,1,0,.25,1.92,1.92,0,0,0,0,.41s0,.07,0,.11a2.4,2.4,0,0,0,0,.46,1.41,1.41,0,0,1,0,.2,1.5,1.5,0,0,0,0,.37v0c0,.29.07.58.08.87s0,.33.06.5a2.58,2.58,0,0,0,0,.39,1.23,1.23,0,0,1,0,.27,1.84,1.84,0,0,0,0,.41.86.86,0,0,1,0,.16,1.54,1.54,0,0,0,0,.43v0c0,.3.07.61.08.91,0,.11,0,.21,0,.32s0,.08,0,.11c0,.35.06.69.08,1,0,0,0,.08,0,.12a4.48,4.48,0,0,1,.06.64.77.77,0,0,1,0,.15.5.5,0,0,1,0,.12c0,.35.05.7.08,1.05a.37.37,0,0,0,0,.11,4.62,4.62,0,0,1,.06.64,2.71,2.71,0,0,0,0,.41,2.64,2.64,0,0,1,0,.28,1.58,1.58,0,0,0,0,.38.62.62,0,0,1,0,.19c0,.18,0,.36,0,.55s0,.58.07.87,0,.64.06,1a1.5,1.5,0,0,0,0,.2,1.49,1.49,0,0,1,0,.21l0,.57a1.16,1.16,0,0,0,0,.32,1.09,1.09,0,0,1,0,.18l0,.55a1.73,1.73,0,0,0,0,.32,2.09,2.09,0,0,1,0,.25l0,.69a2,2,0,0,0,0,.34.49.49,0,0,1,0,.12l0,.71c0,.22,0,.44,0,.66a1.94,1.94,0,0,1,0,.34l0,.8c0,.16,0,.31,0,.46s0,.37,0,.55l0,.32a1.72,1.72,0,0,0,0,.32,2.09,2.09,0,0,1,0,.25l0,.83c0,.09,0,.18,0,.27a.88.88,0,0,1,0,.16c0,.39,0,.78,0,1.17v.11a6.8,6.8,0,0,1,.06.9c0,.19,0,.39,0,.59v.07a12.21,12.21,0,0,1,.07,1.35c0,.13,0,.26,0,.39a3.85,3.85,0,0,1,0,.48c0,.34,0,.69,0,1a1.79,1.79,0,0,0,0,.23c0,.06,0,.12,0,.18,0,.49,0,1,0,1.47a2.11,2.11,0,0,1,0,.25.09.09,0,0,1,0,.07,4.18,4.18,0,0,0,0,.5c0,.17,0,.34,0,.5s0,.34,0,.51a4.3,4.3,0,0,0,0,.62c0,.18,0,.36,0,.54s0,.36,0,.53c0,.36,0,.72,0,1.08,0,.11,0,.21,0,.32a2.23,2.23,0,0,1,0,.37l.06,2.36v.2a.12.12,0,0,1-.1,0l-.06-.07a.14.14,0,0,0-.14,0l-.1.08-.3.28a2,2,0,0,1-.32.26.75.75,0,0,0-.13.11.59.59,0,0,1-.2.15l-.06,0a2.51,2.51,0,0,1-.44.35l-.37.28-.32.23a1.46,1.46,0,0,1-.24.17l-.28.2c-.49.34-1,.65-1.52,1l-.15.08s-.06,0-.07,0a2.2,2.2,0,0,1-.45.26l-.43.24c-.14.09-.29.15-.42.22-.57.31-1.17.56-1.75.84a1.69,1.69,0,0,1-.37.15l-.16.08c-.2.09-.41.17-.63.25l-.59.22-.62.23-.69.23-.51.15-.51.15-.52.14-.07,0c-.26,0-.5.16-.76.17l-.1,0a1.46,1.46,0,0,1-.3.07,2.56,2.56,0,0,1-.27.05,1.4,1.4,0,0,0-.28.06l-.27.07h0a3.7,3.7,0,0,0-.48.06l-.23.05a1.66,1.66,0,0,0-.22,0,.39.39,0,0,1-.15,0l-.21,0h0a1.45,1.45,0,0,0-.3,0,1.65,1.65,0,0,1-.31,0,.72.72,0,0,0-.25,0,.36.36,0,0,1-.15,0,.68.68,0,0,0-.15,0,.86.86,0,0,1-.28,0h-.36a.56.56,0,0,0-.22,0,.5.5,0,0,1-.21,0l-.69,0a.55.55,0,0,0-.18,0,.88.88,0,0,1-.33,0l-1,0a1.14,1.14,0,0,1-.26,0,.65.65,0,0,0-.2,0h-.69a.9.9,0,0,1-.23,0l-.18,0a1.25,1.25,0,0,1-.43,0h-.15a.89.89,0,0,1-.28,0h-.2a.69.69,0,0,1-.25,0h0a3.42,3.42,0,0,1-.46,0,1.54,1.54,0,0,1-.3,0h0a3.07,3.07,0,0,1-.53-.06l-.08,0a.85.85,0,0,1-.32,0l-.33,0-.5-.08a3.1,3.1,0,0,0-.42-.08.83.83,0,0,1-.15,0,.69.69,0,0,0-.25,0l-.12,0a1.59,1.59,0,0,0-.3-.06h-.08l-.76-.2c-.24-.06-.48-.11-.71-.18s-.58-.17-.87-.28A2.16,2.16,0,0,1,217,327c-.3-.07-.58-.21-.88-.29H216l-.77-.31c-.11,0-.22-.09-.33-.12a2.11,2.11,0,0,1-.43-.2,1.54,1.54,0,0,1-.42-.17l-.23-.11a3.62,3.62,0,0,1-.45-.2c-.15-.08-.31-.14-.45-.22l-.38-.19-.33-.17c-.26-.13-.5-.29-.76-.42a2.3,2.3,0,0,1-.43-.25c-.12-.08-.26-.15-.38-.22a3,3,0,0,1-.3-.18l-.26-.18a3,3,0,0,0-.34-.2,1.53,1.53,0,0,1-.21-.14l-.26-.18a.09.09,0,0,0-.1,0l-.06,0-.1,0a6.38,6.38,0,0,1-.07-.87c0-.1,0-.21,0-.32a1.1,1.1,0,0,1,0-.18c0-.23,0-.46-.05-.69s0-.32,0-.48a2.34,2.34,0,0,0,0-.38.62.62,0,0,1,0-.19c0-.18,0-.36,0-.55a1.26,1.26,0,0,0,0-.27.45.45,0,0,1,0-.11v-.12c0-.23,0-.47,0-.71a4.91,4.91,0,0,1,0-.55,2.85,2.85,0,0,0,0-.29c0-.06,0-.11,0-.16a5.83,5.83,0,0,0-.06-.73c0-.16,0-.33,0-.49a2.92,2.92,0,0,0-.05-.5.37.37,0,0,1,0-.11c0-.09,0-.17,0-.25,0-.27,0-.54-.06-.8,0-.11,0-.22,0-.32a2.28,2.28,0,0,0,0-.26c0-.05,0-.1,0-.15,0-.29,0-.57-.06-.85a4.32,4.32,0,0,1,0-.5,3.08,3.08,0,0,0,0-.53,2.11,2.11,0,0,1,0-.25,5.46,5.46,0,0,0,0-.57c0-.16,0-.32,0-.48a1.72,1.72,0,0,0,0-.39.86.86,0,0,1,0-.16c0-.14,0-.28,0-.41a4.55,4.55,0,0,0,0-.53,1.67,1.67,0,0,1,0-.32c0-.17,0-.34,0-.5a4.71,4.71,0,0,1,0-.53,2.2,2.2,0,0,0,0-.36.43.43,0,0,1,0-.16l0-.55c0-.12,0-.23,0-.35s0-.38,0-.57a1.31,1.31,0,0,0,0-.34.86.86,0,0,1,0-.16c0-.18,0-.35,0-.53a1.87,1.87,0,0,0,0-.32.57.57,0,0,1,0-.13c0-.46-.08-.9-.09-1.35a1.38,1.38,0,0,0,0-.35.78.78,0,0,1,0-.16c0-.17,0-.35,0-.52a1.66,1.66,0,0,0,0-.32,1.77,1.77,0,0,1,0-.32,3.17,3.17,0,0,0-.05-.53.81.81,0,0,1,0-.16l0-.59a2.66,2.66,0,0,0,0-.28c0-.06,0-.12,0-.18s0-.37,0-.55c-.05-.35,0-.7-.07-1.05s0-.58-.07-.87,0-.58-.06-.87a1.31,1.31,0,0,0,0-.34,1.09,1.09,0,0,1,0-.18c0-.18,0-.36,0-.53,0-.33,0-.66-.07-1s0-.57-.06-.85,0-.75-.08-1.12,0-.61-.06-.92a.2.2,0,0,0,0-.07,3.14,3.14,0,0,1,0-.61,4,4,0,0,0,0-.5.31.31,0,0,1,0-.1c0-.38,0-.76-.07-1.14,0-.11,0-.21,0-.32a2.58,2.58,0,0,0,0-.39.81.81,0,0,1,0-.16c0-.17,0-.33,0-.5l0-.34c0-.15,0-.29,0-.44a2.38,2.38,0,0,0,0-.46.57.57,0,0,1,0-.13l0-.51a1.31,1.31,0,0,0,0-.34,1.09,1.09,0,0,1,0-.18l0-.55a1.66,1.66,0,0,0,0-.32c0-.08,0-.17,0-.25a5.52,5.52,0,0,0-.05-.71.74.74,0,0,1,0-.21,8.48,8.48,0,0,0-.06-.87,1.23,1.23,0,0,1,0-.2,8.08,8.08,0,0,0,0-.85c0-.14,0-.29,0-.43a1.12,1.12,0,0,0,0-.32.86.86,0,0,1,0-.16l0-.53a2.56,2.56,0,0,0,0-.39,1.5,1.5,0,0,1,0-.2c0-.29,0-.57-.05-.85Zm33.32,39.58a1.91,1.91,0,0,0,.48-.05.42.42,0,0,1,.16,0h.61a.93.93,0,0,0,.33,0,.53.53,0,0,1,.18,0l.69,0h.18a.78.78,0,0,1,.3,0,1.81,1.81,0,0,0,.23,0c.12,0,.22-.08.33-.11a2.09,2.09,0,0,0,.64-.35,2.32,2.32,0,0,0,.57-.64l.09-.17c0-.09.07-.18.1-.28a1.35,1.35,0,0,1,.06-.34,2,2,0,0,0-.05-.54.88.88,0,0,1,0-.16c0-.2,0-.4,0-.6a.7.7,0,0,0,0-.29.43.43,0,0,1,0-.16c0-.22,0-.45,0-.67a.43.43,0,0,0,0-.16.71.71,0,0,1,0-.29c0-.17,0-.34,0-.5a.78.78,0,0,0,0-.34.43.43,0,0,1,0-.16c0-.21,0-.42,0-.62a.71.71,0,0,0,0-.32.78.78,0,0,1,0-.16c0-.2,0-.39,0-.59a.78.78,0,0,0,0-.3.4.4,0,0,1,0-.16c0-.23,0-.47,0-.71a.44.44,0,0,0,0-.16.92.92,0,0,1,0-.29c0-.17,0-.34,0-.5a.78.78,0,0,0,0-.34.88.88,0,0,1,0-.16c0-.21,0-.41,0-.62a.88.88,0,0,0,0-.32.7.7,0,0,1,0-.16c0-.19,0-.39,0-.59a.78.78,0,0,0,0-.3.68.68,0,0,1,0-.15c0-.23,0-.45,0-.67a.44.44,0,0,0,0-.16.92.92,0,0,1,0-.29c0-.17,0-.34,0-.51a.8.8,0,0,0,0-.34.7.7,0,0,1,0-.16c0-.19,0-.38,0-.57a.65.65,0,0,0,0-.31.43.43,0,0,1,0-.16c0-.2,0-.4,0-.6a.7.7,0,0,0,0-.29.43.43,0,0,1,0-.16c0-.22,0-.45,0-.67a.37.37,0,0,0,0-.18.44.44,0,0,1,0-.2c0-.22,0-.44,0-.67a.55.55,0,0,0,0-.18.56.56,0,0,1,0-.22c0-.22,0-.43,0-.64a.4.4,0,0,0,0-.16,1,1,0,0,1-.05-.34c0-.17,0-.34,0-.51a.7.7,0,0,0,0-.29.43.43,0,0,1,0-.16c0-.22,0-.44,0-.67a.37.37,0,0,0,0-.18.44.44,0,0,1,0-.2c0-.2,0-.41,0-.62a.55.55,0,0,0,0-.18.56.56,0,0,1,0-.22c0-.22,0-.43,0-.65a.43.43,0,0,0,0-.16.75.75,0,0,1,0-.33c0-.17,0-.34,0-.51a.71.71,0,0,0,0-.29.43.43,0,0,1,0-.16c0-.22,0-.45,0-.67a.55.55,0,0,0,0-.18.64.64,0,0,1,0-.2c0-.21,0-.41,0-.62a1.13,1.13,0,0,0,0-.18.58.58,0,0,1,0-.23c0-.19,0-.39,0-.59a.41.41,0,0,0,0-.16.8.8,0,0,1,0-.34c0-.17,0-.34,0-.51a.75.75,0,0,0,0-.29.41.41,0,0,1,0-.16c0-.22,0-.44,0-.66a1,1,0,0,0,0-.18.76.76,0,0,1,0-.21c0-.2,0-.41,0-.62a.38.38,0,0,0,0-.18.83.83,0,0,1,0-.22c0-.22,0-.43,0-.64a.62.62,0,0,0,0-.19.51.51,0,0,1,0-.24c0-.22,0-.43,0-.65a.36.36,0,0,0,0-.15.66.66,0,0,1,0-.28c0-.1,0-.21,0-.32a.57.57,0,0,0,0-.13,2.1,2.1,0,0,0-.26-.64,1.06,1.06,0,0,0-.28-.35l-.05,0a.55.55,0,0,0-.18-.16,1.49,1.49,0,0,1-.2-.15,3.07,3.07,0,0,0-.55-.25,1.62,1.62,0,0,0-.54-.1l-1.36,0-.18,0a.86.86,0,0,1-.23,0l-.74,0a.65.65,0,0,0-.2,0,.77.77,0,0,1-.26,0h-.69a1.34,1.34,0,0,0-.35,0,.55.55,0,0,1-.18,0h-.67a.93.93,0,0,0-.33,0,.53.53,0,0,1-.18,0l-.74,0a.65.65,0,0,0-.2,0,.61.61,0,0,1-.23,0l-.74,0a.75.75,0,0,0-.21,0,1,1,0,0,1-.25,0h-.64a1.11,1.11,0,0,0-.36,0,.47.47,0,0,1-.17,0l-.67,0a.93.93,0,0,0-.33,0h-.18l-.79,0a.5.5,0,0,0-.21,0,.56.56,0,0,1-.22,0h-.75l-.2,0a1.09,1.09,0,0,1-.25,0h-.64a1.11,1.11,0,0,0-.36,0,.53.53,0,0,1-.18,0h-.61a1.24,1.24,0,0,0-.33,0,.52.52,0,0,1-.18,0h-.74a.75.75,0,0,0-.21,0,.56.56,0,0,1-.22,0l-.75,0a.68.68,0,0,0-.2,0,1.07,1.07,0,0,1-.25,0h-.64a1.47,1.47,0,0,0-.36,0,.52.52,0,0,1-.18,0h-.66a.93.93,0,0,0-.33,0,.55.55,0,0,1-.18,0l-.74,0a.5.5,0,0,0-.21,0,.56.56,0,0,1-.22,0h-.75a1.1,1.1,0,0,0-.18,0,1,1,0,0,1-.35,0h-.51a1.11,1.11,0,0,0-.36,0,.53.53,0,0,1-.18,0h-.66a1.86,1.86,0,0,0-.33,0,.55.55,0,0,1-.18,0H215a.75.75,0,0,0-.21,0,.85.85,0,0,1-.22,0h-.7a.68.68,0,0,0-.2,0,.72.72,0,0,1-.25,0l-.72,0a.65.65,0,0,0-.2,0,1.15,1.15,0,0,1-.26,0h-.69a.55.55,0,0,0-.18,0,1,1,0,0,1-.3,0,1.23,1.23,0,0,0-.2,0,2.05,2.05,0,0,0-.76.28,2,2,0,0,0-.55.4,1.66,1.66,0,0,0-.31.39,1.11,1.11,0,0,0-.09.19,1.24,1.24,0,0,0-.15.53.43.43,0,0,1,0,.11.52.52,0,0,0,0,.11.87.87,0,0,0,0,.39.42.42,0,0,1,0,.16c0,.22,0,.44,0,.66a.52.52,0,0,0,0,.18.76.76,0,0,1,0,.21c0,.19,0,.39,0,.59a1,1,0,0,0,0,.25.44.44,0,0,1,0,.16c0,.21,0,.43,0,.64a.89.89,0,0,0,.05.32.4.4,0,0,1,0,.16c0,.19,0,.39,0,.59a.79.79,0,0,0,0,.3.37.37,0,0,1,0,.15c0,.24,0,.48,0,.72a.37.37,0,0,0,0,.18.44.44,0,0,1,0,.2c0,.21,0,.43,0,.64a.69.69,0,0,0,0,.25.41.41,0,0,1,0,.16c0,.21,0,.43,0,.64a.89.89,0,0,0,.05.32.4.4,0,0,1,0,.16c0,.19,0,.39,0,.59a1,1,0,0,0,0,.3.37.37,0,0,1,0,.15c0,.23,0,.45,0,.67a.37.37,0,0,0,0,.18.46.46,0,0,1,0,.2c0,.22,0,.43,0,.64a.69.69,0,0,0,0,.25.44.44,0,0,1,0,.16c0,.2,0,.4,0,.6a.84.84,0,0,0,.05.31.43.43,0,0,1,0,.16c0,.2,0,.4,0,.6a.71.71,0,0,0,0,.29.43.43,0,0,1,0,.16c0,.22,0,.44,0,.67a.37.37,0,0,0,0,.18.44.44,0,0,1,0,.2c0,.21,0,.43,0,.64a1,1,0,0,0,0,.25.44.44,0,0,1,0,.16c0,.2,0,.4,0,.6a.84.84,0,0,0,.05.31.43.43,0,0,1,0,.16c0,.2,0,.4,0,.6a1,1,0,0,0,0,.29.3.3,0,0,1,0,.16c0,.22,0,.44,0,.66a.58.58,0,0,0,0,.19.44.44,0,0,1,0,.2c0,.2,0,.4,0,.59a.69.69,0,0,0,0,.25.44.44,0,0,1,0,.16c0,.2,0,.4,0,.6a.67.67,0,0,0,.05.31.43.43,0,0,1,0,.16c0,.2,0,.4,0,.6a.7.7,0,0,0,0,.29.44.44,0,0,1,0,.16c0,.22,0,.44,0,.67a.38.38,0,0,0,0,.18.44.44,0,0,1,0,.2c0,.22,0,.44,0,.66a.58.58,0,0,0,0,.19.78.78,0,0,1,0,.22c0,.18,0,.35,0,.53a.8.8,0,0,0,0,.31.44.44,0,0,1,0,.16c0,.19,0,.37,0,.55a.78.78,0,0,0,0,.3.41.41,0,0,1,0,.16c0,.22,0,.44,0,.66a.52.52,0,0,0,0,.18.76.76,0,0,1,0,.21c0,.22,0,.44,0,.66a.55.55,0,0,0,0,.18.62.62,0,0,1,0,.23c0,.17,0,.35,0,.52a.85.85,0,0,0,0,.32.88.88,0,0,1,0,.16c0,.2,0,.4,0,.6a.73.73,0,0,0,0,.29.88.88,0,0,1,0,.16c0,.2,0,.41,0,.62a.3.3,0,0,0,0,.16.92.92,0,0,1,0,.29v.34a.76.76,0,0,0,0,.16.57.57,0,0,1,0,.18.2.2,0,0,0,0,.11,2.34,2.34,0,0,0,.09.24,1.66,1.66,0,0,0,.44.59l.2.17a1.49,1.49,0,0,0,.42.26l.16.07a1.92,1.92,0,0,0,.79.16.44.44,0,0,1,.2,0h.1a.76.76,0,0,1,.26,0l.82,0,.2,0a.72.72,0,0,1,.25,0l.82,0a.53.53,0,0,0,.18,0,1.15,1.15,0,0,1,.41,0,.13.13,0,0,0,.14.13,1.18,1.18,0,0,1,.42.1l1,.41c.22.1.45.16.68.26l0,0,.41.13c.32.11.64.22,1,.31s.49.14.74.19.22.08.34.09a6.2,6.2,0,0,0,.72.16,4.86,4.86,0,0,0,.55.11l.19,0c.13,0,.26,0,.38.06s.27,0,.4.07.27.05.41,0l.1,0,.15,0a.83.83,0,0,1,.27,0,1.41,1.41,0,0,0,.29,0h0a.56.56,0,0,0,.22,0,.74.74,0,0,1,.21,0,1,1,0,0,0,.35,0,1,1,0,0,1,.3,0h.16l2.18,0h.15a.93.93,0,0,1,.33,0,1.2,1.2,0,0,0,.2,0l.25,0a.87.87,0,0,0,.23,0,.93.93,0,0,1,.33,0l.13,0,.12,0c.17,0,.32-.07.48-.06a2.84,2.84,0,0,1,.57-.1c.12,0,.25,0,.38-.09l.37-.07.52-.13a2.91,2.91,0,0,1,.51-.12l.15-.05.82-.26c.25-.08.5-.15.74-.25l.29-.11c.15-.06.32-.1.47-.17s.47-.18.7-.29l.36-.17c.48-.23,1-.45,1.41-.71.27-.16.56-.3.82-.46a1.67,1.67,0,0,1,.23-.12s.06,0,.09,0a1.81,1.81,0,0,0,.35-.07A.07.07,0,0,0,239.16,317.86Z"/><path class="cls-5" d="M243.61,275.46c-.05,0-.05,0,0-.09S243.64,275.41,243.61,275.46Z"/><path class="cls-5" d="M216.48,319.13a1.15,1.15,0,0,0-.41,0,.53.53,0,0,1-.18,0l-.82,0a.72.72,0,0,0-.25,0l-.2,0-.82,0a.76.76,0,0,0-.26,0h-.1a.44.44,0,0,0-.2,0,1.92,1.92,0,0,1-.79-.16l-.16-.07a1.49,1.49,0,0,1-.42-.26l-.2-.17a1.66,1.66,0,0,1-.44-.59,2.34,2.34,0,0,1-.09-.24.2.2,0,0,1,0-.11.57.57,0,0,0,0-.18.76.76,0,0,1,0-.16V317a.92.92,0,0,0,0-.29.3.3,0,0,1,0-.16c0-.21,0-.42,0-.62a.88.88,0,0,0,0-.16.73.73,0,0,1,0-.29c0-.2,0-.4,0-.6a.88.88,0,0,0,0-.16.85.85,0,0,1,0-.32c0-.17,0-.35,0-.52a.62.62,0,0,0,0-.23.55.55,0,0,1,0-.18c0-.22,0-.44,0-.66a.76.76,0,0,0,0-.21.52.52,0,0,1,0-.18c0-.22,0-.44,0-.66a.41.41,0,0,0,0-.16.78.78,0,0,1,0-.3c0-.18,0-.36,0-.55a.44.44,0,0,0,0-.16.8.8,0,0,1,0-.31c0-.18,0-.35,0-.53a.78.78,0,0,0,0-.22.58.58,0,0,1,0-.19c0-.22,0-.44,0-.66a.44.44,0,0,0,0-.2.38.38,0,0,1,0-.18c0-.23,0-.45,0-.67a.44.44,0,0,0,0-.16.7.7,0,0,1,0-.29c0-.2,0-.4,0-.6a.43.43,0,0,0,0-.16.67.67,0,0,1-.05-.31c0-.2,0-.4,0-.6a.44.44,0,0,0,0-.16.69.69,0,0,1,0-.25c0-.19,0-.39,0-.59a.44.44,0,0,0,0-.2.58.58,0,0,1,0-.19c0-.22,0-.44,0-.66a.3.3,0,0,0,0-.16,1,1,0,0,1,0-.29c0-.2,0-.4,0-.6a.43.43,0,0,0,0-.16.84.84,0,0,1-.05-.31c0-.2,0-.4,0-.6a.44.44,0,0,0,0-.16,1,1,0,0,1,0-.25c0-.21,0-.43,0-.64a.44.44,0,0,0,0-.2.37.37,0,0,1,0-.18c0-.23,0-.45,0-.67a.43.43,0,0,0,0-.16.71.71,0,0,1,0-.29c0-.2,0-.4,0-.6a.43.43,0,0,0,0-.16.84.84,0,0,1-.05-.31c0-.2,0-.4,0-.6a.44.44,0,0,0,0-.16.69.69,0,0,1,0-.25c0-.21,0-.42,0-.64a.46.46,0,0,0,0-.2.37.37,0,0,1,0-.18c0-.22,0-.44,0-.67a.37.37,0,0,0,0-.15,1,1,0,0,1,0-.3c0-.2,0-.4,0-.59a.4.4,0,0,0,0-.16.89.89,0,0,1-.05-.32c0-.21,0-.43,0-.64a.41.41,0,0,0,0-.16.69.69,0,0,1,0-.25c0-.21,0-.43,0-.64a.44.44,0,0,0,0-.2.37.37,0,0,1,0-.18c0-.24,0-.48,0-.72a.37.37,0,0,0,0-.15.79.79,0,0,1,0-.3c0-.2,0-.4,0-.59a.4.4,0,0,0,0-.16.89.89,0,0,1-.05-.32c0-.21,0-.43,0-.64a.44.44,0,0,0,0-.16,1,1,0,0,1,0-.25c0-.2,0-.4,0-.59a.76.76,0,0,0,0-.21.52.52,0,0,1,0-.18c0-.22,0-.44,0-.66a.42.42,0,0,0,0-.16.87.87,0,0,1,0-.39.52.52,0,0,1,0-.11.43.43,0,0,0,0-.11,1.24,1.24,0,0,1,.15-.53,1.11,1.11,0,0,1,.09-.19,1.66,1.66,0,0,1,.31-.39,2,2,0,0,1,.55-.4,2.05,2.05,0,0,1,.76-.28,1.23,1.23,0,0,1,.2,0,1,1,0,0,0,.3,0,.55.55,0,0,1,.18,0h.69a1.15,1.15,0,0,0,.26,0,.65.65,0,0,1,.2,0l.72,0a.72.72,0,0,0,.25,0,.68.68,0,0,1,.2,0h.7a.85.85,0,0,0,.22,0,.75.75,0,0,1,.21,0h.74a.55.55,0,0,0,.18,0,1.86,1.86,0,0,1,.33,0h.66a.53.53,0,0,0,.18,0,1.11,1.11,0,0,1,.36,0H218a1,1,0,0,0,.35,0,1.1,1.1,0,0,1,.18,0h.75a.56.56,0,0,0,.22,0,.5.5,0,0,1,.21,0l.74,0a.55.55,0,0,0,.18,0,.93.93,0,0,1,.33,0h.66a.52.52,0,0,0,.18,0,1.47,1.47,0,0,1,.36,0h.64a1.07,1.07,0,0,0,.25,0,.68.68,0,0,1,.2,0l.75,0a.56.56,0,0,0,.22,0,.75.75,0,0,1,.21,0h.74a.52.52,0,0,0,.18,0,1.24,1.24,0,0,1,.33,0h.61a.53.53,0,0,0,.18,0,1.11,1.11,0,0,1,.36,0h.64a1.09,1.09,0,0,0,.25,0l.2,0h.75a.56.56,0,0,0,.22,0,.5.5,0,0,1,.21,0l.79,0H230a.93.93,0,0,1,.33,0l.67,0a.47.47,0,0,0,.17,0,1.11,1.11,0,0,1,.36,0h.64a1,1,0,0,0,.25,0,.75.75,0,0,1,.21,0l.74,0a.61.61,0,0,0,.23,0,.65.65,0,0,1,.2,0l.74,0a.53.53,0,0,0,.18,0,.93.93,0,0,1,.33,0h.67a.55.55,0,0,0,.18,0,1.34,1.34,0,0,1,.35,0H237a.77.77,0,0,0,.26,0,.65.65,0,0,1,.2,0l.74,0a.86.86,0,0,0,.23,0l.18,0,1.36,0a1.62,1.62,0,0,1,.54.1,3.07,3.07,0,0,1,.55.25,1.49,1.49,0,0,0,.2.15.55.55,0,0,1,.18.16l.05,0a1.06,1.06,0,0,1,.28.35,2.1,2.1,0,0,1,.26.64.57.57,0,0,1,0,.13c0,.11,0,.22,0,.32a.66.66,0,0,0,0,.28.36.36,0,0,1,0,.15c0,.22,0,.43,0,.65a.51.51,0,0,0,0,.24.62.62,0,0,1,0,.19c0,.21,0,.42,0,.64a.83.83,0,0,0,0,.22.38.38,0,0,1,0,.18c0,.21,0,.42,0,.62a.76.76,0,0,0,0,.21,1,1,0,0,1,0,.18c0,.22,0,.44,0,.66a.41.41,0,0,0,0,.16.75.75,0,0,1,0,.29c0,.17,0,.34,0,.51a.8.8,0,0,0,0,.34.41.41,0,0,1,0,.16c0,.2,0,.4,0,.59a.58.58,0,0,0,0,.23,1.13,1.13,0,0,1,0,.18c0,.21,0,.41,0,.62a.64.64,0,0,0,0,.2.55.55,0,0,1,0,.18c0,.22,0,.45,0,.67a.43.43,0,0,0,0,.16.71.71,0,0,1,0,.29c0,.17,0,.34,0,.51a.75.75,0,0,0,0,.33.43.43,0,0,1,0,.16c0,.22,0,.43,0,.65a.56.56,0,0,0,0,.22.55.55,0,0,1,0,.18c0,.21,0,.42,0,.62a.44.44,0,0,0,0,.2.37.37,0,0,1,0,.18c0,.23,0,.45,0,.67a.43.43,0,0,0,0,.16.7.7,0,0,1,0,.29c0,.17,0,.34,0,.51a1,1,0,0,0,.05.34.4.4,0,0,1,0,.16c0,.21,0,.42,0,.64a.56.56,0,0,0,0,.22.55.55,0,0,1,0,.18c0,.23,0,.45,0,.67a.44.44,0,0,0,0,.2.37.37,0,0,1,0,.18c0,.22,0,.45,0,.67a.43.43,0,0,0,0,.16.7.7,0,0,1,0,.29c0,.2,0,.4,0,.6a.43.43,0,0,0,0,.16.65.65,0,0,1,0,.31c0,.19,0,.38,0,.57a.7.7,0,0,0,0,.16.8.8,0,0,1,0,.34c0,.17,0,.34,0,.51a.92.92,0,0,0,0,.29.44.44,0,0,1,0,.16c0,.22,0,.44,0,.67a.68.68,0,0,0,0,.15.78.78,0,0,1,0,.3c0,.2,0,.4,0,.59a.7.7,0,0,0,0,.16.88.88,0,0,1,0,.32c0,.21,0,.41,0,.62a.88.88,0,0,0,0,.16.78.78,0,0,1,0,.34c0,.16,0,.33,0,.5a.92.92,0,0,0,0,.29.44.44,0,0,1,0,.16c0,.24,0,.48,0,.71a.4.4,0,0,0,0,.16.78.78,0,0,1,0,.3c0,.2,0,.39,0,.59a.78.78,0,0,0,0,.16.71.71,0,0,1,0,.32c0,.2,0,.41,0,.62a.43.43,0,0,0,0,.16.78.78,0,0,1,0,.34c0,.16,0,.33,0,.5a.71.71,0,0,0,0,.29.43.43,0,0,1,0,.16c0,.22,0,.45,0,.67a.43.43,0,0,0,0,.16.7.7,0,0,1,0,.29c0,.2,0,.4,0,.6a.88.88,0,0,0,0,.16,2,2,0,0,1,.05.54,1.35,1.35,0,0,0-.06.34c0,.1-.07.19-.1.28l-.09.17a2.32,2.32,0,0,1-.57.64,2.09,2.09,0,0,1-.64.35c-.11,0-.21.08-.33.11a1.81,1.81,0,0,1-.23,0,.78.78,0,0,0-.3,0h-.18l-.69,0a.53.53,0,0,0-.18,0,.93.93,0,0,1-.33,0h-.61a.42.42,0,0,0-.16,0,1.91,1.91,0,0,1-.48.05h-.46a.82.82,0,0,0-.35,0h-.85a.93.93,0,0,0-.33,0,1,1,0,0,1-.18,0h-.74l-.2,0a.91.91,0,0,1-.23,0l-.74,0a.75.75,0,0,0-.21,0,1,1,0,0,1-.25,0h-.72a.55.55,0,0,0-.18,0,1.2,1.2,0,0,1-.38,0h-.56a.93.93,0,0,0-.33,0h-.18l-.69,0a.55.55,0,0,0-.18,0,.88.88,0,0,1-.33,0h-.56a1.2,1.2,0,0,0-.38,0,.37.37,0,0,1-.15,0l-.62,0a.82.82,0,0,0-.35,0h-.77a1.24,1.24,0,0,0-.43.05h-.9a.55.55,0,0,0-.18,0,1.12,1.12,0,0,1-.32,0l-.57,0a1,1,0,0,0-.38,0,.53.53,0,0,1-.18,0h-.66a.93.93,0,0,0-.33,0,1.1,1.1,0,0,1-.18,0h-.8a.71.71,0,0,0-.2,0,.58.58,0,0,1-.23,0l-.74,0a.65.65,0,0,0-.2,0,.74.74,0,0,1-.25,0H221a1.39,1.39,0,0,0-.35,0,.52.52,0,0,1-.18,0h-.67a.85.85,0,0,0-.32,0,.55.55,0,0,1-.18,0l-.8,0a.44.44,0,0,0-.2,0,.58.58,0,0,1-.23,0h-.69a1.2,1.2,0,0,0-.2,0l-.25,0Zm-.38-4A2.48,2.48,0,0,0,217,315a1.5,1.5,0,0,0,.38-.19,1.44,1.44,0,0,0,.37-.28,1.63,1.63,0,0,0,.17-.2,2,2,0,0,0,.33-.57,5,5,0,0,0,.11-.56.92.92,0,0,0,0-.16.65.65,0,0,1,0-.13.8.8,0,0,0-.07-.34,1.61,1.61,0,0,0-.47-.72l-.26-.22a.91.91,0,0,0-.16-.11,2.06,2.06,0,0,0-.95-.31h-.05a.69.69,0,0,0-.25,0,2.45,2.45,0,0,0-.38,0,2.72,2.72,0,0,0-.89.33,2.22,2.22,0,0,0-.62.6,2.12,2.12,0,0,0-.31.8,2,2,0,0,0,.07.77c0,.07,0,.15.08.21a1.81,1.81,0,0,0,.54.69,1.41,1.41,0,0,0,.23.18A2.53,2.53,0,0,0,216.1,315.14Zm7.35-8.38a1.38,1.38,0,0,0-.08-.51,1.62,1.62,0,0,0-.32-.59,2.13,2.13,0,0,0-.62-.53l-.22-.12a3.63,3.63,0,0,0-.54-.15l-.2,0a1.46,1.46,0,0,0-.51,0,3.27,3.27,0,0,0-.54.13c-.17.06-.32.15-.48.22s-.36.24-.47.42a1.82,1.82,0,0,0-.27.41,1.3,1.3,0,0,0-.17.57.5.5,0,0,1,0,.12.5.5,0,0,0,0,.27,1,1,0,0,1,.05.24.5.5,0,0,0,0,.12l.08.21a2.2,2.2,0,0,0,.55.74,1.48,1.48,0,0,0,.21.13,2.11,2.11,0,0,0,.83.34,1.57,1.57,0,0,0,.37.05,1.11,1.11,0,0,0,.48,0h.08a.79.79,0,0,0,.22-.05,2.07,2.07,0,0,0,.64-.29,2.22,2.22,0,0,0,.62-.6A1.85,1.85,0,0,0,223.45,306.76ZM213,301.31a1.51,1.51,0,0,0,.07.46,1,1,0,0,0,.11.28s0,0,0,.06a1.82,1.82,0,0,0,.34.48,2.33,2.33,0,0,0,1,.56,1.38,1.38,0,0,0,.45.08l.13,0a.62.62,0,0,0,.27,0l.15,0a1.93,1.93,0,0,0,.73-.2,1.66,1.66,0,0,0,.53-.36c0-.06.12-.11.18-.17l.11-.13a1.66,1.66,0,0,0,.35-.87.36.36,0,0,1,0-.11.61.61,0,0,0,0-.3.31.31,0,0,1,0-.13,1,1,0,0,0-.07-.29,2.14,2.14,0,0,0-.2-.4,1.8,1.8,0,0,0-.33-.4,2.13,2.13,0,0,0-.42-.3,2.18,2.18,0,0,0-.66-.24,1.75,1.75,0,0,0-.56-.05h0a1.92,1.92,0,0,0-.48.07,1.72,1.72,0,0,0-.21.07,1.85,1.85,0,0,0-.84.51,1.14,1.14,0,0,0-.19.19A1.92,1.92,0,0,0,213,301.31Zm13.28-2.73a1.91,1.91,0,0,0-.67.1,2.28,2.28,0,0,0-.61.29,1.88,1.88,0,0,0-.54.51,2.06,2.06,0,0,0-.23.41,1.64,1.64,0,0,0-.1.38.59.59,0,0,0,0,.13,1,1,0,0,0,0,.16.74.74,0,0,0,.05.36,1.78,1.78,0,0,0,.37.8l.11.15a1.21,1.21,0,0,0,.24.21l.12.08a2.41,2.41,0,0,0,.51.25,1.47,1.47,0,0,0,.55.12l.07,0a1.79,1.79,0,0,0,.23,0c.11,0,.22,0,.33-.05a1.65,1.65,0,0,0,.44-.1,2.23,2.23,0,0,0,.83-.49,1.75,1.75,0,0,0,.44-.64,1.51,1.51,0,0,0,.11-1.14,1.49,1.49,0,0,0-.22-.56,2.29,2.29,0,0,0-.44-.5,2.51,2.51,0,0,0-.64-.36A2.26,2.26,0,0,0,226.26,298.58Zm-.82-11.79-.31,0a2.57,2.57,0,0,0-1,.39,3.42,3.42,0,0,0-.4.36,2.19,2.19,0,0,0-.4.79,1.51,1.51,0,0,0-.06.52c0,.07,0,.14,0,.22a1.26,1.26,0,0,0,.12.42,1.64,1.64,0,0,0,.44.61l.15.12a1.88,1.88,0,0,0,.64.38,2,2,0,0,0,.49.11c.1,0,.21,0,.31,0a.41.41,0,0,0,.22,0l.15,0a1.79,1.79,0,0,0,.4-.09,2,2,0,0,0,1-.64l.06-.05a1,1,0,0,0,.15-.21l.09-.17a1.49,1.49,0,0,0,.2-.68,1.73,1.73,0,0,0-.11-.74,2,2,0,0,0-.4-.66,2,2,0,0,0-.45-.37A2.6,2.6,0,0,0,225.44,286.79Zm12.49,15h0c.14,0,.28,0,.41,0a2.12,2.12,0,0,0,.6-.2,1.57,1.57,0,0,0,.52-.36l.16-.15.13-.14a2.06,2.06,0,0,0,.32-.67,1.59,1.59,0,0,0,.06-.3,1.15,1.15,0,0,0,0-.45.15.15,0,0,1,0-.09.58.58,0,0,0,0-.18,2,2,0,0,0-.33-.58,2.19,2.19,0,0,0-.61-.52l-.25-.12a1.68,1.68,0,0,0-.38-.12,2.42,2.42,0,0,0-.54-.06h-.23a2.44,2.44,0,0,0-.66.15l-.28.12a1.74,1.74,0,0,0-.38.27l-.18.16-.16.18a2.19,2.19,0,0,0-.25.48,1,1,0,0,0-.08.33.93.93,0,0,0,0,.52,1.53,1.53,0,0,0,.17.55,1.66,1.66,0,0,0,.44.59,1.07,1.07,0,0,1,.16.14,1.75,1.75,0,0,0,.63.34l.1,0a1.3,1.3,0,0,0,.52.09ZM239,313.77a1.66,1.66,0,0,0,.54-.06,3.21,3.21,0,0,0,.33-.12,2,2,0,0,0,.64-.38,1.82,1.82,0,0,0,.44-.56,1.67,1.67,0,0,0,.2-.68.7.7,0,0,1,0-.14s0-.06,0-.09a.56.56,0,0,1,0-.22.94.94,0,0,0-.06-.29,1.46,1.46,0,0,0-.37-.65,2.52,2.52,0,0,0-.49-.43l0,0a3.92,3.92,0,0,0-.51-.22,2,2,0,0,0-.49-.09c-.09,0-.17,0-.26,0a2.51,2.51,0,0,0-.27,0,1.88,1.88,0,0,0-.33.05,2.51,2.51,0,0,0-1,.48,2.12,2.12,0,0,0-.34.4,2.18,2.18,0,0,0-.33.79,2.84,2.84,0,0,0,.06.71,2,2,0,0,0,.36.7,1.92,1.92,0,0,0,.29.28,2.1,2.1,0,0,0,.83.45A2,2,0,0,0,239,313.77Zm-9.61-1.39h0a2.26,2.26,0,0,0,0-.26.45.45,0,0,0,0-.11,2.06,2.06,0,0,0-.25-.57l-.2-.27a1.45,1.45,0,0,0-.34-.31,2.35,2.35,0,0,0-.79-.35,2.15,2.15,0,0,0-.56-.07h-.18a1.18,1.18,0,0,0-.42.05,3.31,3.31,0,0,0-.53.18,5,5,0,0,0-.45.3,1.81,1.81,0,0,0-.24.24,1.79,1.79,0,0,0-.38.72,1,1,0,0,0-.06.43c0,.11,0,.23,0,.34a.49.49,0,0,0,0,.12c0,.11.07.23.12.34a2.3,2.3,0,0,0,.47.65,2.2,2.2,0,0,0,.69.42,2,2,0,0,0,.8.16h.38a1.9,1.9,0,0,0,.25,0,2.16,2.16,0,0,0,.57-.21,2.06,2.06,0,0,0,1-.93,1.46,1.46,0,0,0,.17-.71Zm3-4.22h.26l.17,0a2.38,2.38,0,0,0,.69-.25,2.2,2.2,0,0,0,.62-.51,1.58,1.58,0,0,0,.33-.61c0-.05,0-.09,0-.13a.35.35,0,0,0,0-.14c0-.08,0-.16,0-.25a.53.53,0,0,0,0-.25.35.35,0,0,1,0-.11.78.78,0,0,0-.09-.33l-.12-.25a1.78,1.78,0,0,0-.32-.44,2.42,2.42,0,0,0-.81-.51,2.07,2.07,0,0,0-.74-.14h-.26a1.36,1.36,0,0,0-.45.06,2.31,2.31,0,0,0-.61.25,2,2,0,0,0-.37.28,2.72,2.72,0,0,0-.24.24,1.74,1.74,0,0,0-.34.68,1.31,1.31,0,0,0-.06.27,1.4,1.4,0,0,0,0,.61,1.75,1.75,0,0,0,.27.61,3.85,3.85,0,0,0,.26.34.44.44,0,0,0,.15.12,2.24,2.24,0,0,0,.75.39l.29.07.33,0Zm-3-13.72a1.25,1.25,0,0,0,.16.71s0,0,0,0a1.45,1.45,0,0,0,.34.48l.3.25.16.11a2.21,2.21,0,0,0,.75.29,2,2,0,0,0,.35.05,1.54,1.54,0,0,0,.48,0h.08a.73.73,0,0,0,.29-.07A2.43,2.43,0,0,0,233,296a2.18,2.18,0,0,0,.58-.55,2,2,0,0,0,.23-.43,1.68,1.68,0,0,0,.1-.7.85.85,0,0,1,0-.16s0-.06,0-.09a3.71,3.71,0,0,0-.24-.63,2.32,2.32,0,0,0-.59-.62,2.61,2.61,0,0,0-.28-.17,2.06,2.06,0,0,0-.59-.2,1.91,1.91,0,0,0-.53-.05,1.15,1.15,0,0,0-.33,0,1.47,1.47,0,0,0-.47.11,1.73,1.73,0,0,0-.68.4l-.18.16a1.3,1.3,0,0,0-.38.56l0,.09a1,1,0,0,0-.1.47Zm-12.82-5.07h0c0-.11,0-.22,0-.32a.37.37,0,0,0,0-.14,1.81,1.81,0,0,0-.6-.93,1.5,1.5,0,0,0-.25-.19,2.78,2.78,0,0,0-.84-.33l-.13,0a.72.72,0,0,1-.25,0,.36.36,0,0,0-.23,0l-.28,0h-.1a3.71,3.71,0,0,0-.63.24,2.24,2.24,0,0,0-.74.66,2.2,2.2,0,0,0-.15.26,1.41,1.41,0,0,0-.17.69c0,.12,0,.23,0,.34s0,.1,0,.14.08.25.13.37a1.45,1.45,0,0,0,.4.55l.2.18a1.21,1.21,0,0,0,.32.22l.42.17a.79.79,0,0,0,.22.06,2.47,2.47,0,0,0,.61,0,2.08,2.08,0,0,0,.5-.07,2.37,2.37,0,0,0,.69-.3,1.3,1.3,0,0,0,.29-.22,2.35,2.35,0,0,0,.26-.29,1.53,1.53,0,0,0,.19-.3,1.7,1.7,0,0,0,.17-.8Zm6.06,5.68a1.27,1.27,0,0,0-.12-.57,2.06,2.06,0,0,0-.45-.69l-.06,0a1.66,1.66,0,0,1-.21-.16.61.61,0,0,0-.14-.1,2.66,2.66,0,0,0-.68-.26,3.36,3.36,0,0,0-.63-.06,2.23,2.23,0,0,0-.36.05,2.46,2.46,0,0,0-.82.3,3.53,3.53,0,0,0-.41.34,1.76,1.76,0,0,0-.27.34,2,2,0,0,0-.11.2,1.3,1.3,0,0,0-.16.69v.23a1.28,1.28,0,0,0,.1.47,2,2,0,0,0,.73.94,3.09,3.09,0,0,0,.44.24,1.74,1.74,0,0,0,.46.13l.22,0a1.1,1.1,0,0,0,.51,0l.13,0a2,2,0,0,0,.83-.28,1.39,1.39,0,0,0,.31-.23,3.13,3.13,0,0,0,.26-.25,1.87,1.87,0,0,0,.29-.46,1.58,1.58,0,0,0,.14-.67Zm14.55-8.79h-.38a2.6,2.6,0,0,0-.86.35,1,1,0,0,0-.24.17l-.16.15a1.45,1.45,0,0,0-.33.46,1.27,1.27,0,0,0-.15.41c0,.07,0,.14,0,.21a.77.77,0,0,0,0,.45.36.36,0,0,1,0,.11,1.73,1.73,0,0,0,.3.7l.1.13a1.87,1.87,0,0,0,.63.52l.28.13a1.92,1.92,0,0,0,.79.15h.26a1.71,1.71,0,0,0,.74-.17,1.69,1.69,0,0,0,.75-.5l.07-.07.11-.12a1.93,1.93,0,0,0,.39-1.19,3.43,3.43,0,0,0-.06-.34,1.23,1.23,0,0,0-.17-.45l-.06-.11a1.66,1.66,0,0,0-.32-.38l-.26-.22a.71.71,0,0,1-.14-.1,1.88,1.88,0,0,0-.61-.23,1.7,1.7,0,0,0-.55-.07Z"/><path class="cls-6" d="M216.48,319.13H217l.25,0a1.2,1.2,0,0,1,.2,0h.69a.58.58,0,0,0,.23,0,.44.44,0,0,1,.2,0l.8,0a.55.55,0,0,0,.18,0,.85.85,0,0,1,.32,0h.67a.52.52,0,0,0,.18,0,1.39,1.39,0,0,1,.35,0h.65a.74.74,0,0,0,.25,0,.65.65,0,0,1,.2,0l.74,0a.58.58,0,0,0,.23,0,.71.71,0,0,1,.2,0h.8a1.1,1.1,0,0,0,.18,0,.93.93,0,0,1,.33,0h.66a.53.53,0,0,0,.18,0,1,1,0,0,1,.38,0l.57,0a1.12,1.12,0,0,0,.32,0,.55.55,0,0,1,.18,0h.9a1.24,1.24,0,0,1,.43-.05H229a.82.82,0,0,1,.35,0l.62,0a.37.37,0,0,0,.15,0,1.2,1.2,0,0,1,.38,0h.56a.88.88,0,0,0,.33,0,.55.55,0,0,1,.18,0l.69,0h.18a.93.93,0,0,1,.33,0h.56a1.2,1.2,0,0,0,.38,0,.55.55,0,0,1,.18,0h.72a1,1,0,0,0,.25,0,.75.75,0,0,1,.21,0l.74,0a.91.91,0,0,0,.23,0l.2,0H237a1,1,0,0,0,.18,0,.93.93,0,0,1,.33,0h.85a.82.82,0,0,1,.35,0h.46a.07.07,0,0,1-.07.08,1.81,1.81,0,0,1-.35.07s-.06,0-.09,0a1.67,1.67,0,0,0-.23.12c-.26.16-.55.3-.82.46-.45.26-.93.48-1.41.71l-.36.17c-.23.11-.47.2-.7.29s-.32.11-.47.17l-.29.11c-.24.1-.49.17-.74.25l-.82.26-.15.05a2.91,2.91,0,0,0-.51.12l-.52.13-.37.07c-.13,0-.26,0-.38.09a2.84,2.84,0,0,0-.57.1c-.16,0-.31.07-.48.06l-.12,0-.13,0a.93.93,0,0,0-.33,0,.87.87,0,0,1-.23,0l-.25,0a1.2,1.2,0,0,1-.2,0,.93.93,0,0,0-.33,0h-.15l-2.18,0h-.16a1,1,0,0,0-.3,0,1,1,0,0,1-.35,0,.74.74,0,0,0-.21,0,.56.56,0,0,1-.22,0h0a1.41,1.41,0,0,1-.29,0,.83.83,0,0,0-.27,0l-.15,0-.1,0c-.14,0-.27-.06-.41,0s-.27,0-.4-.07-.25,0-.38-.06l-.19,0a4.86,4.86,0,0,1-.55-.11,6.2,6.2,0,0,1-.72-.16c-.12,0-.22-.07-.34-.09s-.49-.12-.74-.19-.64-.2-1-.31l-.41-.13,0,0c-.23-.1-.46-.16-.68-.26l-1-.41a1.18,1.18,0,0,0-.42-.1A.13.13,0,0,1,216.48,319.13Z"/><path class="cls-7" d="M216.1,315.14a2.53,2.53,0,0,1-1.32-.37,1.41,1.41,0,0,1-.23-.18,1.81,1.81,0,0,1-.54-.69c0-.06,0-.14-.08-.21a2,2,0,0,1-.07-.77,2.12,2.12,0,0,1,.31-.8,2.22,2.22,0,0,1,.62-.6,2.72,2.72,0,0,1,.89-.33,2.45,2.45,0,0,1,.38,0,.69.69,0,0,1,.25,0h.05a2.06,2.06,0,0,1,.95.31.91.91,0,0,1,.16.11l.26.22a1.61,1.61,0,0,1,.47.72.8.8,0,0,1,.07.34.65.65,0,0,0,0,.13.92.92,0,0,1,0,.16,5,5,0,0,1-.11.56,2,2,0,0,1-.33.57,1.63,1.63,0,0,1-.17.2,1.44,1.44,0,0,1-.37.28,1.5,1.5,0,0,1-.38.19A2.48,2.48,0,0,1,216.1,315.14Z"/><path class="cls-7" d="M223.45,306.76a1.85,1.85,0,0,1-.3,1.06,2.22,2.22,0,0,1-.62.6,2.07,2.07,0,0,1-.64.29.79.79,0,0,1-.22.05h-.08a1.11,1.11,0,0,1-.48,0,1.57,1.57,0,0,1-.37-.05,2.11,2.11,0,0,1-.83-.34,1.48,1.48,0,0,1-.21-.13,2.2,2.2,0,0,1-.55-.74l-.08-.21a.5.5,0,0,1,0-.12A1,1,0,0,0,219,307a.5.5,0,0,1,0-.27.5.5,0,0,0,0-.12,1.3,1.3,0,0,1,.17-.57,1.82,1.82,0,0,1,.27-.41c.11-.18.32-.28.47-.42s.31-.16.48-.22a3.27,3.27,0,0,1,.54-.13,1.46,1.46,0,0,1,.51,0l.2,0a3.63,3.63,0,0,1,.54.15l.22.12a2.13,2.13,0,0,1,.62.53,1.62,1.62,0,0,1,.32.59A1.38,1.38,0,0,1,223.45,306.76Z"/><path class="cls-7" d="M213,301.31a1.92,1.92,0,0,1,.41-1.2,1.14,1.14,0,0,1,.19-.19,1.85,1.85,0,0,1,.84-.51,1.72,1.72,0,0,1,.21-.07,1.92,1.92,0,0,1,.48-.07h0a1.75,1.75,0,0,1,.56.05,2.18,2.18,0,0,1,.66.24,2.13,2.13,0,0,1,.42.3,1.8,1.8,0,0,1,.33.4,2.14,2.14,0,0,1,.2.4,1,1,0,0,1,.07.29.31.31,0,0,0,0,.13.61.61,0,0,1,0,.3.36.36,0,0,0,0,.11,1.66,1.66,0,0,1-.35.87l-.11.13c-.06.06-.13.11-.18.17a1.66,1.66,0,0,1-.53.36,1.93,1.93,0,0,1-.73.2l-.15,0a.62.62,0,0,1-.27,0l-.13,0a1.38,1.38,0,0,1-.45-.08,2.33,2.33,0,0,1-1-.56,1.82,1.82,0,0,1-.34-.48s0,0,0-.06a1,1,0,0,1-.11-.28A1.51,1.51,0,0,1,213,301.31Z"/><path class="cls-7" d="M226.26,298.58a2.26,2.26,0,0,1,.91.15,2.51,2.51,0,0,1,.64.36,2.29,2.29,0,0,1,.44.5,1.49,1.49,0,0,1,.22.56,1.51,1.51,0,0,1-.11,1.14,1.75,1.75,0,0,1-.44.64,2.23,2.23,0,0,1-.83.49,1.65,1.65,0,0,1-.44.1c-.11,0-.22.05-.33.05a1.79,1.79,0,0,1-.23,0l-.07,0a1.47,1.47,0,0,1-.55-.12,2.41,2.41,0,0,1-.51-.25l-.12-.08a1.21,1.21,0,0,1-.24-.21l-.11-.15a1.78,1.78,0,0,1-.37-.8.74.74,0,0,1-.05-.36,1,1,0,0,1,0-.16.59.59,0,0,1,0-.13,1.64,1.64,0,0,1,.1-.38,2.06,2.06,0,0,1,.23-.41A1.88,1.88,0,0,1,225,299a2.28,2.28,0,0,1,.61-.29A1.91,1.91,0,0,1,226.26,298.58Z"/><path class="cls-7" d="M225.44,286.79a2.6,2.6,0,0,1,1.36.34,2,2,0,0,1,.45.37,2,2,0,0,1,.4.66,1.73,1.73,0,0,1,.11.74,1.49,1.49,0,0,1-.2.68l-.09.17a1,1,0,0,1-.15.21l-.06.05a2,2,0,0,1-1,.64,1.79,1.79,0,0,1-.4.09l-.15,0a.41.41,0,0,1-.22,0c-.1,0-.21,0-.31,0a2,2,0,0,1-.49-.11,1.88,1.88,0,0,1-.64-.38l-.15-.12a1.64,1.64,0,0,1-.44-.61,1.26,1.26,0,0,1-.12-.42c0-.08,0-.15,0-.22a1.51,1.51,0,0,1,.06-.52,2.19,2.19,0,0,1,.4-.79,3.42,3.42,0,0,1,.4-.36,2.57,2.57,0,0,1,1-.39Z"/><path class="cls-7" d="M237.93,301.82h-.23a1.3,1.3,0,0,1-.52-.09l-.1,0a1.75,1.75,0,0,1-.63-.34,1.07,1.07,0,0,0-.16-.14,1.66,1.66,0,0,1-.44-.59,1.53,1.53,0,0,1-.17-.55.93.93,0,0,1,0-.52,1,1,0,0,1,.08-.33,2.19,2.19,0,0,1,.25-.48l.16-.18.18-.16a1.74,1.74,0,0,1,.38-.27L237,298a2.44,2.44,0,0,1,.66-.15h.23a2.42,2.42,0,0,1,.54.06,1.68,1.68,0,0,1,.38.12l.25.12a2.19,2.19,0,0,1,.61.52,2,2,0,0,1,.33.58.58.58,0,0,1,0,.18.15.15,0,0,0,0,.09,1.15,1.15,0,0,1,0,.45,1.59,1.59,0,0,1-.06.3,2.06,2.06,0,0,1-.32.67l-.13.14-.16.15a1.57,1.57,0,0,1-.52.36,2.12,2.12,0,0,1-.6.2c-.13,0-.27,0-.41,0Z"/><path class="cls-7" d="M239,313.77a2,2,0,0,1-.74-.08,2.1,2.1,0,0,1-.83-.45,1.92,1.92,0,0,1-.29-.28,2,2,0,0,1-.36-.7,2.84,2.84,0,0,1-.06-.71,2.18,2.18,0,0,1,.33-.79,2.12,2.12,0,0,1,.34-.4,2.51,2.51,0,0,1,1-.48,1.88,1.88,0,0,1,.33-.05,2.51,2.51,0,0,1,.27,0c.09,0,.17,0,.26,0a2,2,0,0,1,.49.09,3.92,3.92,0,0,1,.51.22l0,0a2.52,2.52,0,0,1,.49.43,1.46,1.46,0,0,1,.37.65.94.94,0,0,1,.06.29.56.56,0,0,0,0,.22s0,.06,0,.09a.7.7,0,0,0,0,.14,1.67,1.67,0,0,1-.2.68,1.82,1.82,0,0,1-.44.56,2,2,0,0,1-.64.38,3.21,3.21,0,0,1-.33.12A1.66,1.66,0,0,1,239,313.77Z"/><path class="cls-7" d="M229.41,312.38v.13a1.46,1.46,0,0,1-.17.71,2.06,2.06,0,0,1-1,.93,2.16,2.16,0,0,1-.57.21,1.9,1.9,0,0,1-.25,0h-.38a2,2,0,0,1-.8-.16,2.2,2.2,0,0,1-.69-.42,2.3,2.3,0,0,1-.47-.65c0-.11-.08-.23-.12-.34a.49.49,0,0,1,0-.12c0-.11,0-.23,0-.34a1,1,0,0,1,.06-.43,1.79,1.79,0,0,1,.38-.72,1.81,1.81,0,0,1,.24-.24,5,5,0,0,1,.45-.3,3.31,3.31,0,0,1,.53-.18,1.18,1.18,0,0,1,.42-.05h.18a2.15,2.15,0,0,1,.56.07,2.35,2.35,0,0,1,.79.35,1.45,1.45,0,0,1,.34.31l.2.27a2.06,2.06,0,0,1,.25.57.45.45,0,0,1,0,.11,2.26,2.26,0,0,1,0,.26Z"/><path class="cls-7" d="M232.4,308.16h-.18l-.33,0-.29-.07a2.24,2.24,0,0,1-.75-.39.44.44,0,0,1-.15-.12,3.85,3.85,0,0,1-.26-.34,1.75,1.75,0,0,1-.27-.61,1.4,1.4,0,0,1,0-.61,1.31,1.31,0,0,1,.06-.27,1.74,1.74,0,0,1,.34-.68,2.72,2.72,0,0,1,.24-.24,2,2,0,0,1,.37-.28,2.31,2.31,0,0,1,.61-.25,1.36,1.36,0,0,1,.45-.06h.26a2.07,2.07,0,0,1,.74.14,2.42,2.42,0,0,1,.81.51,1.78,1.78,0,0,1,.32.44l.12.25a.78.78,0,0,1,.09.33.35.35,0,0,0,0,.11.53.53,0,0,1,0,.25c0,.09,0,.17,0,.25a.35.35,0,0,1,0,.14s0,.08,0,.13a1.58,1.58,0,0,1-.33.61,2.2,2.2,0,0,1-.62.51,2.38,2.38,0,0,1-.69.25l-.17,0h-.26Z"/><path class="cls-7" d="M229.45,294.44v-.23a1,1,0,0,1,.1-.47l0-.09a1.3,1.3,0,0,1,.38-.56l.18-.16a1.73,1.73,0,0,1,.68-.4,1.47,1.47,0,0,1,.47-.11,1.15,1.15,0,0,1,.33,0,1.91,1.91,0,0,1,.53.05,2.06,2.06,0,0,1,.59.2,2.61,2.61,0,0,1,.28.17,2.32,2.32,0,0,1,.59.62,3.71,3.71,0,0,1,.24.63s0,.06,0,.09a.85.85,0,0,0,0,.16,1.68,1.68,0,0,1-.1.7,2,2,0,0,1-.23.43,2.18,2.18,0,0,1-.58.55,2.43,2.43,0,0,1-.59.27.73.73,0,0,1-.29.07H232a1.54,1.54,0,0,1-.48,0,2,2,0,0,1-.35-.05,2.21,2.21,0,0,1-.75-.29l-.16-.11-.3-.25a1.45,1.45,0,0,1-.34-.48s0,0,0,0A1.25,1.25,0,0,1,229.45,294.44Z"/><path class="cls-7" d="M216.63,289.37v0a1.7,1.7,0,0,1-.17.8,1.53,1.53,0,0,1-.19.3,2.35,2.35,0,0,1-.26.29,1.3,1.3,0,0,1-.29.22,2.37,2.37,0,0,1-.69.3,2.08,2.08,0,0,1-.5.07,2.47,2.47,0,0,1-.61,0,.79.79,0,0,1-.22-.06l-.42-.17a1.21,1.21,0,0,1-.32-.22l-.2-.18a1.45,1.45,0,0,1-.4-.55c-.05-.12-.09-.25-.13-.37s0-.09,0-.14,0-.22,0-.34a1.41,1.41,0,0,1,.17-.69,2.2,2.2,0,0,1,.15-.26,2.24,2.24,0,0,1,.74-.66,3.71,3.71,0,0,1,.63-.24h.1l.28,0a.36.36,0,0,1,.23,0,.72.72,0,0,0,.25,0l.13,0a2.78,2.78,0,0,1,.84.33,1.5,1.5,0,0,1,.25.19,1.81,1.81,0,0,1,.6.93.37.37,0,0,1,0,.14c0,.1,0,.21,0,.32Z"/><path class="cls-7" d="M222.69,295.05v.17a1.58,1.58,0,0,1-.14.67,1.87,1.87,0,0,1-.29.46,3.13,3.13,0,0,1-.26.25,1.39,1.39,0,0,1-.31.23,2,2,0,0,1-.83.28l-.13,0a1.1,1.1,0,0,1-.51,0l-.22,0a1.74,1.74,0,0,1-.46-.13,3.09,3.09,0,0,1-.44-.24,2,2,0,0,1-.73-.94,1.28,1.28,0,0,1-.1-.47v-.23a1.3,1.3,0,0,1,.16-.69,2,2,0,0,1,.11-.2,1.76,1.76,0,0,1,.27-.34,3.53,3.53,0,0,1,.41-.34,2.46,2.46,0,0,1,.82-.3,2.23,2.23,0,0,1,.36-.05,3.36,3.36,0,0,1,.63.06,2.66,2.66,0,0,1,.68.26.61.61,0,0,1,.14.1,1.66,1.66,0,0,0,.21.16l.06,0a2.06,2.06,0,0,1,.45.69A1.27,1.27,0,0,1,222.69,295.05Z"/><path class="cls-7" d="M237.24,286.26h.11a1.7,1.7,0,0,1,.55.07,1.88,1.88,0,0,1,.61.23.71.71,0,0,0,.14.1l.26.22a1.66,1.66,0,0,1,.32.38l.06.11a1.23,1.23,0,0,1,.17.45,3.43,3.43,0,0,1,.06.34,1.93,1.93,0,0,1-.39,1.19l-.11.12-.07.07a1.69,1.69,0,0,1-.75.5,1.71,1.71,0,0,1-.74.17h-.26a1.92,1.92,0,0,1-.79-.15l-.28-.13a1.87,1.87,0,0,1-.63-.52l-.1-.13a1.73,1.73,0,0,1-.3-.7.36.36,0,0,0,0-.11.77.77,0,0,1,0-.45c0-.07,0-.14,0-.21a1.27,1.27,0,0,1,.15-.41,1.45,1.45,0,0,1,.33-.46l.16-.15a1,1,0,0,1,.24-.17,2.6,2.6,0,0,1,.86-.35h.38Z"/><path class="cls-1" d="M159.94,396.1c-7.23-3.37-14.37-6.94-21.5-10.5a36.16,36.16,0,0,0-7.95-1.88c5.82-6.61,15.08-13.42,22.08-18.61,3.38-2.51,7.11-4.41,10.39-7.05,2.2-1.76,2.32-4.56,4.54-6.34.6.89,4.27,3,6.39,3.69a50.66,50.66,0,0,1,19.58,12.39c11.57,11.53,11.06,24.77,5.76,38.87a90.16,90.16,0,0,1-17.12,29.05H189c1.95,0,3.9-.05,5.85,0,6.23.2,10.66,4.22,10.92,9.87a9.78,9.78,0,0,1-9.61,10.48c-12.44.47-24.94.66-37.36,0-7.87-.41-12.27-9.84-7.43-15.64,3.22-3.86,3.83-7.83,4.09-12.26a73.33,73.33,0,0,1,6.5-27C163.36,398.21,162.45,397.27,159.94,396.1Z"/><circle class="cls-8" cx="77.08" cy="167.3" r="43.03"/><path class="cls-8" d="M111.33,92.82c7-3.5,13.93-7.1,20.56-11.25,4.45-2.79,8.93-5.61,11.78-10.2.92-1.48,1.41-1.24,2.4-.22,2.46,2.55,3.12,5.7,3.14,9.19,7.06-4.31,11.23-10.25,12-18.43.06-.66-.14-1.75.67-1.89.54-.09,1.33.53,1.83,1,3.15,3,4.22,7,4.78,11.09a45.15,45.15,0,0,1,.2,9.13c4.66-2.57,8-5.84,10-10.49a58.54,58.54,0,0,0,2.66-9.28,26.67,26.67,0,0,1,1.92-6.1c5.65,6.23,10.12,12.8,10.26,21.44.1,6.64-2.44,12.44-5.84,17.91-.9,1.45-.7,2,.64,3-1.73,3.2-3.33,6.34-4.71,9.5-.55-.15-1.09.1-1.79.9a27.06,27.06,0,0,1-9,6.4c-8.93,4.28-18.53,5.87-28.29,6.39a138.14,138.14,0,0,1-48.57-6.35,3,3,0,0,0-.89-.16c-1.33-2-2.72-4-4.13-5.94A66.88,66.88,0,0,1,111.33,92.82Z"/><path class="cls-8" d="M96.84,258.07c13.76-22.63,34.9-36.32,56.26-33.83,33.85,3.94,56.68,46.75,51,95.63s-37.75,85.29-71.6,81.35c-19.27-2.25-35-17.11-43.85-38.51a33.16,33.16,0,0,1-2-10.63c.17-61.28,6-87.65,10.25-94"/><path class="cls-8" d="M75.58,207.59a7.73,7.73,0,0,1,6.14,5.65,7.88,7.88,0,0,1,1.14,1.65c3.07,5.89,4.94,12.38,9.33,17.48,3.77,4.4,8.38,7.51,13.32,10.47a4.72,4.72,0,0,1,1.88,1.58c2.62,1.76,3,9.24,2.12,12,17.38,10.12,38.25,10.23,58.91,6,46.83-9.53,76.55-57.83,66.37-107.9s-56.4-82.92-103.24-73.4S55,139,65.17,189.07a100.4,100.4,0,0,0,5,16.82"/><ellipse class="cls-9" cx="183.02" cy="307.01" rx="18.43" ry="55.95"/><path class="cls-8" d="M227.56,305.13l.85-.41.22-.11c16.81-7.77,7.13-33.3-10.61-28-1.13.34-2.3.75-3.54,1.25a14.21,14.21,0,0,1-1.55.54c-3.68,1-31.06,2.19-41.17,2.58a15.82,15.82,0,0,1-6-.93c-9.59-3.47-46.1-13.12-45.35-8.23h0s0,1.75-.32,4.23c-.71,5.8,2.58,10.62,6.84,14.61,9.12,8.55,25,25.9,48.22,24.49C192.22,316.38,209.6,310.7,227.56,305.13Z"/><ellipse class="cls-9" cx="176.34" cy="161.45" rx="33.64" ry="42.5"/><ellipse class="cls-9" cx="201.63" cy="161.05" rx="32.68" ry="43.63"/><ellipse class="cls-9" cx="189.72" cy="200.7" rx="29.99" ry="37.42"/><ellipse class="cls-9" cx="66.68" cy="170.34" rx="17.66" ry="28.69"/><circle class="cls-10" cx="217.28" cy="163.14" r="14.59"/><circle cx="218.5" cy="164.35" r="12.16"/><ellipse class="cls-10" cx="222.76" cy="161.92" rx="3.04" ry="6.08"/><ellipse class="cls-10" cx="217.28" cy="169.82" rx="3.65" ry="1.82"/><circle class="cls-10" cx="183.24" cy="164.76" r="16.21"/><circle cx="184.59" cy="166.11" r="13.51"/><ellipse class="cls-10" cx="189.32" cy="163.41" rx="3.38" ry="6.76"/><ellipse class="cls-10" cx="183.24" cy="172.19" rx="4.05" ry="2.03"/><path class="cls-11" d="M213.25,203.49c-13.69.43-27.9,1.3-33-5.42"/><path class="cls-8" d="M121.77,395.47c-7.23-3.37-10.9-12.43-18-16-1.46-.73-3.85-6.34-5.37-6.45,5.81-6.61,9-3.36,16-8.55,3.38-2.5,7.11-4.41,10.39-7,2.2-1.77,2.32-4.57,4.54-6.34.6.88,4.27,3,6.39,3.68a50.66,50.66,0,0,1,19.58,12.39c11.58,11.54,11.06,24.77,5.76,38.87a90.31,90.31,0,0,1-17.12,29.06h6.91c2,0,3.9-.05,5.85,0,6.23.21,10.66,4.22,10.93,9.87A9.79,9.79,0,0,1,158,455.46c-12.44.47-24.94.66-37.36,0-7.87-.41-12.27-9.84-7.43-15.64,3.22-3.86,3.83-7.83,4.09-12.26a73.23,73.23,0,0,1,6.5-27C125.2,397.58,124.28,396.64,121.77,395.47Z"/><g id="Layer_10" data-name="Layer 10"><path class="cls-1" d="M545.91,345.46c.29.12.58.24.87.38l.19.09c16.78,7.89,30.13-16,14.64-26.14a37,37,0,0,0-3.24-1.91A15.41,15.41,0,0,1,557,317c-3.16-2.15-21.67-22.35-28.49-29.83A15.93,15.93,0,0,1,525.3,282c-3.53-9.58-19.65-43.71-22.9-40h0s-1.36,1.1-3.45,2.48a15.07,15.07,0,0,0-6.77,14.64c1.76,13.11,4.42,35.22,14.48,50.56C516.71,323.57,530.08,335.31,545.91,345.46Z"/><path class="cls-2" d="M633.79,289.54c0,.22,0,.44,0,.66s0,.43,0,.64c0,1.78.08,3.55.09,5.32,0,.12,0,.23,0,.35a1.69,1.69,0,0,0,0,.23c0,.31,0,.62,0,.94s0,.47,0,.71a3.09,3.09,0,0,0,0,.43,4.22,4.22,0,0,1,0,.62c0,.09,0,.19,0,.28a3.1,3.1,0,0,1,0,.43.86.86,0,0,0,0,.16,4.38,4.38,0,0,1,0,.51c0,.05,0,.1,0,.16a1.46,1.46,0,0,1,0,.36v.05l-.06.71c0,.19,0,.39-.06.59a.28.28,0,0,0,0,.09c0,.36-.08.71-.14,1.07s-.09.71-.15,1.07-.12.62-.17.93-.12.66-.2,1-.15.64-.22,1c-.12.53-.27,1.05-.42,1.56-.1.32-.21.64-.31.95-.24.71-.52,1.41-.82,2.1a20.56,20.56,0,0,1-1.07,2.09,17.48,17.48,0,0,1-1.79,2.52c-.23.27-.47.54-.73.8l-.44.42-.49.44a14.73,14.73,0,0,1-1.26.94,13.62,13.62,0,0,1-2,1.11,14.63,14.63,0,0,1-1.95.71,17.28,17.28,0,0,1-1.79.42c-.31.05-.62.1-.93.13l-.72.08-.81.07h-.31l-.38,0h-.13c-.83,0-1.66.07-2.49.05-.32,0-.63,0-.95-.06l-.53,0-.79-.09c-.51-.07-1-.17-1.5-.28a14.32,14.32,0,0,1-1.73-.5c-.37-.13-.73-.28-1.08-.43a14.23,14.23,0,0,1-1.88-1c-.36-.23-.7-.48-1-.74s-.43-.35-.63-.53a14.79,14.79,0,0,1-1.55-1.62,15.51,15.51,0,0,1-1.09-1.47,15.93,15.93,0,0,1-.86-1.43c-.21-.4-.42-.8-.61-1.21-.27-.59-.53-1.19-.75-1.8s-.37-1-.52-1.51c-.22-.69-.42-1.38-.58-2.09-.09-.35-.17-.71-.26-1.07s-.09-.45-.13-.68l-.15-.74c0-.16,0-.32-.08-.48l-.09-.52c0-.17,0-.34-.08-.52s-.07-.47-.1-.7a.17.17,0,0,0,0-.07c0-.29-.06-.58-.11-.86v0c0-.27-.05-.54-.08-.82a1.9,1.9,0,0,1,0-.25c0-.36-.07-.73-.1-1.1a4.38,4.38,0,0,0,0-.5c0-.11,0-.23,0-.34a3,3,0,0,0,0-.43,1.23,1.23,0,0,1,0-.19,5.78,5.78,0,0,0,0-.71,3,3,0,0,1,0-.43,2,2,0,0,0,0-.34.86.86,0,0,1,0-.16l0-.46a.66.66,0,0,0,0-.14,4.48,4.48,0,0,1-.06-.64,2,2,0,0,0,0-.41.81.81,0,0,1,0-.16c0-.16,0-.32,0-.48a.71.71,0,0,0,0-.14,3.14,3.14,0,0,1-.05-.61,2.73,2.73,0,0,0,0-.5.86.86,0,0,1,0-.16c0-.17,0-.34,0-.51s0-.12,0-.18a2.1,2.1,0,0,1,0-.5l.09,0s0,0,.06,0a.09.09,0,0,1,.1,0l.26.18.21.13a3.87,3.87,0,0,1,.34.21c.08.06.18.11.26.18a1.78,1.78,0,0,0,.3.17l.38.23a3.7,3.7,0,0,0,.43.25c.26.13.5.29.76.41l.33.18c.13.06.26.11.38.18s.3.14.45.23a4.89,4.89,0,0,0,.46.2l.22.11a1.94,1.94,0,0,0,.42.17,1.66,1.66,0,0,0,.43.19l.33.13.77.3,0,0c.3.08.58.22.89.29.13.06.27.08.4.13.29.1.58.18.87.27s.48.13.71.19l.76.19.08,0a1,1,0,0,1,.3.05l.12,0a1,1,0,0,1,.25.05l.15,0a3.07,3.07,0,0,1,.42.07,4.37,4.37,0,0,0,.5.09l.33.05a1.75,1.75,0,0,0,.33,0h.07a2.41,2.41,0,0,0,.53.07h0a1.53,1.53,0,0,0,.3,0,3.42,3.42,0,0,0,.46,0h0a.54.54,0,0,0,.25,0,.66.66,0,0,1,.2,0,.92.92,0,0,0,.28,0h.16a1.23,1.23,0,0,0,.43,0,.47.47,0,0,1,.17,0,.9.9,0,0,0,.23,0H613a.74.74,0,0,1,.21,0,1.07,1.07,0,0,0,.25,0l1,0a.93.93,0,0,0,.33,0,.47.47,0,0,1,.17,0h.7a.71.71,0,0,0,.2,0,.56.56,0,0,1,.22,0h.36a.86.86,0,0,0,.28,0,.39.39,0,0,1,.15,0,.68.68,0,0,0,.15,0,.77.77,0,0,1,.26,0,1,1,0,0,0,.3-.05c.1,0,.2,0,.3,0h0a.44.44,0,0,1,.2,0l.15,0a.85.85,0,0,1,.22,0,1.85,1.85,0,0,1,.23,0,3.7,3.7,0,0,1,.48-.06l0,0,.27-.07a1.28,1.28,0,0,1,.27-.05l.27-.05a2.64,2.64,0,0,0,.3-.07l.1,0c.26,0,.5-.15.77-.17l.07,0c.17-.06.34-.1.51-.15l.51-.15c.17,0,.35-.08.51-.14s.46-.17.7-.24a6.32,6.32,0,0,0,.61-.22l.59-.22a5.93,5.93,0,0,0,.63-.26l.16-.07a2.15,2.15,0,0,0,.38-.15c.58-.29,1.17-.53,1.74-.84l.42-.22c.14-.09.29-.16.43-.24a1.86,1.86,0,0,0,.45-.27l.07,0,.15-.09c.51-.31,1-.62,1.52-1l.29-.19.24-.17a3.55,3.55,0,0,1,.31-.23l.38-.28a2.44,2.44,0,0,0,.43-.35l.06,0a1,1,0,0,0,.2-.15.45.45,0,0,1,.13-.11,1.65,1.65,0,0,0,.32-.26l.3-.28.1-.08a.12.12,0,0,1,.14,0l.07.07A.12.12,0,0,0,633.79,289.54Z"/><path class="cls-3" d="M630.57,243.7a2,2,0,0,1,0,.26,1.27,1.27,0,0,1,0,.2.13.13,0,0,0-.13.08l0,.07s-.05,0-.07,0a4.15,4.15,0,0,1-.57-.35c-.14-.09-.3-.17-.45-.25s-.3-.2-.47-.28l-.28-.15-.11-.06c-.21-.09-.39-.22-.59-.31s-.34-.18-.52-.25-.4-.21-.61-.29l0,0a.76.76,0,0,0-.22-.11l-1-.45a.76.76,0,0,0-.16-.06,3.21,3.21,0,0,1-.33-.12l-.87-.35-.07,0c-.23-.05-.44-.16-.67-.23s-.64-.21-1-.3-.86-.24-1.3-.35l-.39-.09-.27-.07a5.42,5.42,0,0,0-.7-.14,8.76,8.76,0,0,0-.89-.18c-.22-.06-.45-.07-.68-.11a.83.83,0,0,0-.22,0c-.16,0-.3-.06-.46-.05a.86.86,0,0,0-.28,0h-.07a.46.46,0,0,0-.2,0,.55.55,0,0,1-.18,0l-.15,0c-.2,0-.39-.06-.58,0h0a.81.81,0,0,0-.31,0l-.17,0a.93.93,0,0,0-.23,0h-.49a.72.72,0,0,0-.25,0h-.41a.93.93,0,0,1-.33,0h-.15l-1.52,0-.17,0a.61.61,0,0,1-.23,0l-.74,0a.53.53,0,0,0-.18,0,1.11,1.11,0,0,1-.36,0,1.34,1.34,0,0,0-.35,0,.51.51,0,0,1-.13,0,1.09,1.09,0,0,0-.4,0h-.25a.8.8,0,0,1-.31,0s-.07,0-.1,0a.84.84,0,0,1-.27,0h-.1a.93.93,0,0,1-.23,0l-.15,0a.69.69,0,0,1-.2,0h-.1c-.21.06-.42.08-.62.13a1.69,1.69,0,0,1-.38.07s-.07,0-.1,0a3.57,3.57,0,0,1-.47.11c-.19,0-.37.09-.57.12s-.67.16-1,.28a3,3,0,0,0-.51.15,5.44,5.44,0,0,0-.54.15c-.22.09-.44.15-.67.23l-.19.07-.45.16c-.23.08-.46.16-.68.26s-.47.18-.7.29l-.09,0a1.57,1.57,0,0,0-.23.09l-1.55.73-.11.05a3,3,0,0,1-.47.24l-.13.07-.63.36c-.2.11-.41.21-.6.34s-.34.18-.49.3,0,0,0,0a1.14,1.14,0,0,0-.23.15l-.13.07-.13.08a3.18,3.18,0,0,1-.43.28l-.08.05a2.18,2.18,0,0,1-.36.26,8.33,8.33,0,0,0-.67.5.26.26,0,0,1-.1.07l-.11.09c-.11.1-.25.16-.35.27a.86.86,0,0,0-.24.17.16.16,0,0,1-.08.06,2,2,0,0,0-.23.18.35.35,0,0,1-.11.1,1.18,1.18,0,0,0-.25.19l-.08.06a.08.08,0,0,1-.11,0v0a.15.15,0,0,0-.17-.14.27.27,0,0,1,0-.15c0-.16,0-.31,0-.46s0-.34,0-.51a1.88,1.88,0,0,1,0-.34,3.8,3.8,0,0,0-.05-.46,1.09,1.09,0,0,1,0-.18c0-.18,0-.37,0-.55s0-.21,0-.32,0-.12,0-.18,0-.31,0-.46a3.13,3.13,0,0,0,0-.43.66.66,0,0,1,0-.14c0-.33,0-.66-.06-1a5.63,5.63,0,0,1,0-.58,3,3,0,0,0,0-.41c0-.1,0-.21,0-.32s0-.52-.05-.78,0-.45,0-.68,0-.2,0-.3a1.1,1.1,0,0,1,0-.18c0-.17,0-.34,0-.51a2.33,2.33,0,0,0,0-.38,2.26,2.26,0,0,1,0-.26c0-.22,0-.44,0-.66s0-.44-.05-.66a2.26,2.26,0,0,0,0-.26v-.11c0-.1,0-.2,0-.3,0-.66,0-1.33,0-2,0-.3,0-.6.07-.89a4.21,4.21,0,0,1,.05-.62c0-.24.06-.49.1-.73s.11-.6.17-.9c.08-.45.19-.89.31-1.33s.35-1.12.56-1.67.39-1,.62-1.43l.42-.84a19.52,19.52,0,0,1,2-3,18.5,18.5,0,0,1,2.29-2.31,19.33,19.33,0,0,1,1.61-1.21,18.3,18.3,0,0,1,4.45-2.12c.57-.17,1.14-.33,1.73-.45.34-.07.68-.13,1-.18l.89-.11c.23,0,.47,0,.71-.06l.33,0,.34,0h.74a2.16,2.16,0,0,1,.44,0h.1c.32,0,.65,0,1,0l.66.07c.41,0,.82.1,1.22.16s.8.15,1.2.24a17.31,17.31,0,0,1,1.9.56c.51.19,1,.4,1.51.63a16.38,16.38,0,0,1,1.49.8c.41.26.81.53,1.2.82a17.54,17.54,0,0,1,1.48,1.23c.44.42.85.86,1.24,1.31a18.35,18.35,0,0,1,1.62,2.23c.25.41.5.83.72,1.26s.43.86.63,1.3.39.93.56,1.4.33.95.47,1.43.26.9.36,1.36c.07.3.13.6.2.9s.08.4.13.6l.21,1,.12.56.21.95c0,.2.09.4.13.6s.14.63.2.95l.21,1c0,.23.08.47.13.7l.09.5c0,.13,0,.27.07.4s.05.34.07.5.07.41.1.61,0,.43.08.64,0,.28.05.41a2.71,2.71,0,0,0,0,.41.55.55,0,0,1,0,.18,2.6,2.6,0,0,0,0,.39.86.86,0,0,1,0,.16c0,.13,0,.26,0,.39v0c0,.25,0,.5.08.75l0,.25a.2.2,0,0,1,0,.07c0,.21,0,.43.07.64,0,0,0,.09,0,.14S630.52,243.65,630.57,243.7Z"/><path class="cls-4" d="M592.8,246.51a.15.15,0,0,1,.17.14v0a.08.08,0,0,0,.11,0l.08-.06a1.18,1.18,0,0,1,.25-.19.35.35,0,0,0,.11-.1,2,2,0,0,1,.23-.18.16.16,0,0,0,.08-.06.86.86,0,0,1,.24-.17c.1-.11.24-.17.35-.27l.11-.09a.26.26,0,0,0,.1-.07,8.33,8.33,0,0,1,.67-.5,2.18,2.18,0,0,0,.36-.26l.08-.05a3.18,3.18,0,0,0,.43-.28l.13-.08.13-.07a1.14,1.14,0,0,1,.23-.15s0,0,0,0,.33-.19.49-.3.4-.23.6-.34l.63-.36.13-.07a3,3,0,0,0,.47-.24l.11-.05,1.55-.73a1.57,1.57,0,0,1,.23-.09l.09,0c.23-.11.46-.2.7-.29s.45-.18.68-.26l.45-.16.19-.07c.23-.08.45-.14.67-.23a5.44,5.44,0,0,1,.54-.15,3,3,0,0,1,.51-.15c.33-.12.68-.16,1-.28s.38-.09.57-.12a3.57,3.57,0,0,0,.47-.11s.07,0,.1,0a1.69,1.69,0,0,0,.38-.07c.2,0,.41-.07.62-.13h.1a.69.69,0,0,0,.2,0l.15,0a.93.93,0,0,0,.23,0h.1a.84.84,0,0,0,.27,0s.07,0,.1,0a.8.8,0,0,0,.31,0h.25a1.09,1.09,0,0,1,.4,0,.51.51,0,0,0,.13,0,1.34,1.34,0,0,1,.35,0,1.11,1.11,0,0,0,.36,0,.53.53,0,0,1,.18,0l.74,0a.61.61,0,0,0,.23,0l.17,0,1.52,0h.15a.93.93,0,0,0,.33,0h.41a.72.72,0,0,1,.25,0h.49a.93.93,0,0,1,.23,0l.17,0a.81.81,0,0,1,.31,0h0c.19,0,.38,0,.58,0l.15,0a.55.55,0,0,0,.18,0,.46.46,0,0,1,.2,0h.07a.86.86,0,0,1,.28,0c.16,0,.3.05.46.05a.83.83,0,0,1,.22,0c.23,0,.46.05.68.11a8.76,8.76,0,0,1,.89.18,5.42,5.42,0,0,1,.7.14l.27.07.39.09c.44.11.87.22,1.3.35s.64.2,1,.3.44.18.67.23l.07,0,.87.35a3.21,3.21,0,0,0,.33.12.76.76,0,0,1,.16.06l1,.45a.76.76,0,0,1,.22.11l0,0c.21.08.4.2.61.29s.34.17.52.25.38.22.59.31l.11.06.28.15c.17.08.31.2.47.28s.31.16.45.25a4.15,4.15,0,0,0,.57.35s.06,0,.07,0l0-.07a.13.13,0,0,1,.13-.08,3.35,3.35,0,0,1,.08.54,1.23,1.23,0,0,0,0,.2.2.2,0,0,1,0,.07c0,.28.07.55.09.82a2.4,2.4,0,0,0,0,.28s0,.09,0,.13a2.31,2.31,0,0,0,0,.46.86.86,0,0,1,0,.16,2.2,2.2,0,0,0,0,.36.75.75,0,0,1,0,.21c0,.13,0,.26,0,.39a1.23,1.23,0,0,1,0,.2,1.27,1.27,0,0,0,0,.34.09.09,0,0,0,0,.05c0,.26,0,.51.07.77a1.65,1.65,0,0,0,0,.32.09.09,0,0,1,0,0c0,.26,0,.51.07.77a2.51,2.51,0,0,0,0,.27,1.14,1.14,0,0,1,0,.26,2,2,0,0,0,0,.41.37.37,0,0,1,0,.11,2.49,2.49,0,0,0,.05.46c0,.06,0,.13,0,.2a1.42,1.42,0,0,0,0,.36v.05c0,.29.07.58.09.87a4.45,4.45,0,0,0,0,.5,2.58,2.58,0,0,0,0,.39,1.18,1.18,0,0,1,0,.27,1.92,1.92,0,0,0,0,.41.86.86,0,0,1,0,.16,3.15,3.15,0,0,0,.05.43v0c0,.31.07.61.08.92,0,.1,0,.21,0,.32s0,.07,0,.11l.09,1v.11a3.47,3.47,0,0,1,.06.64l0,.16s0,.08,0,.11c0,.36.06.71.08,1.06,0,0,0,.07,0,.11a4.62,4.62,0,0,1,.06.64,2.85,2.85,0,0,0,0,.41,2.45,2.45,0,0,1,0,.27,1.72,1.72,0,0,0,0,.39,1.09,1.09,0,0,1,0,.18c0,.19,0,.37,0,.55s0,.58.07.87,0,.64.06,1a1.49,1.49,0,0,1,0,.21,1.36,1.36,0,0,1,0,.2l0,.58a1.82,1.82,0,0,0,0,.32,1,1,0,0,1,0,.18l0,.55a1.82,1.82,0,0,0,0,.32,2,2,0,0,1,0,.25c0,.23,0,.46,0,.69a2,2,0,0,0,0,.34V268l0,.71a5,5,0,0,0,0,.67,1.9,1.9,0,0,1,0,.34c0,.27,0,.53,0,.8s0,.31,0,.46,0,.36,0,.55,0,.21,0,.32a1.77,1.77,0,0,0,0,.32,2,2,0,0,1,0,.25l0,.82a2.66,2.66,0,0,0,0,.28c0,.05,0,.1,0,.16,0,.39,0,.78,0,1.17a.45.45,0,0,0,0,.11c0,.3,0,.6,0,.89s0,.4,0,.6v.07a12.21,12.21,0,0,1,.07,1.35l0,.39c0,.15,0,.32,0,.48l0,1a2,2,0,0,0,0,.23c0,.06,0,.12,0,.18,0,.49,0,1,0,1.47l0,.25s0,0,0,.07a4.21,4.21,0,0,0,0,.5c0,.17,0,.33,0,.5s0,.34,0,.51a3.12,3.12,0,0,0,0,.61c0,.19,0,.37,0,.55s0,.35,0,.53l0,1.08c0,.1,0,.21,0,.32a2.17,2.17,0,0,1,0,.36l.06,2.36a1.47,1.47,0,0,1,0,.21.12.12,0,0,1-.09,0l-.07-.07a.12.12,0,0,0-.14,0l-.1.08-.3.28a1.65,1.65,0,0,1-.32.26.45.45,0,0,0-.13.11,1,1,0,0,1-.2.15l-.06,0a2.44,2.44,0,0,1-.43.35l-.38.28a3.55,3.55,0,0,0-.31.23l-.24.17-.29.19c-.49.35-1,.66-1.52,1l-.15.09-.07,0a1.86,1.86,0,0,1-.45.27c-.14.08-.29.15-.43.24l-.42.22c-.57.31-1.16.55-1.74.84a2.15,2.15,0,0,1-.38.15l-.16.07a5.93,5.93,0,0,1-.63.26l-.59.22a6.32,6.32,0,0,1-.61.22c-.24.07-.47.15-.7.24s-.34.09-.51.14l-.51.15c-.17.05-.34.09-.51.15l-.07,0c-.27,0-.51.15-.77.17l-.1,0a2.64,2.64,0,0,1-.3.07l-.27.05a1.28,1.28,0,0,0-.27.05l-.27.07,0,0a3.7,3.7,0,0,0-.48.06,1.85,1.85,0,0,0-.23,0,.85.85,0,0,0-.22,0l-.15,0a.44.44,0,0,0-.2,0h0c-.1,0-.2,0-.3,0a1,1,0,0,1-.3.05.77.77,0,0,0-.26,0,.68.68,0,0,1-.15,0,.39.39,0,0,0-.15,0,.86.86,0,0,1-.28,0h-.36a.56.56,0,0,0-.22,0,.71.71,0,0,1-.2,0H615a.47.47,0,0,0-.17,0,.93.93,0,0,1-.33,0l-1,0a1.07,1.07,0,0,1-.25,0,.74.74,0,0,0-.21,0h-.69a.9.9,0,0,1-.23,0,.47.47,0,0,0-.17,0,1.23,1.23,0,0,1-.43,0h-.16a.92.92,0,0,1-.28,0,.66.66,0,0,0-.2,0,.54.54,0,0,1-.25,0h0a3.42,3.42,0,0,1-.46,0,1.53,1.53,0,0,1-.3,0h0a2.41,2.41,0,0,1-.53-.07h-.07a1.75,1.75,0,0,1-.33,0l-.33-.05a4.37,4.37,0,0,1-.5-.09,3.07,3.07,0,0,0-.42-.07l-.15,0a1,1,0,0,0-.25-.05l-.12,0a1,1,0,0,0-.3-.05l-.08,0-.76-.19c-.23-.06-.48-.11-.71-.19s-.58-.17-.87-.27c-.13,0-.27-.07-.4-.13-.31-.07-.59-.21-.89-.29l0,0-.77-.3-.33-.13a1.66,1.66,0,0,1-.43-.19,1.94,1.94,0,0,1-.42-.17l-.22-.11a4.89,4.89,0,0,1-.46-.2c-.15-.09-.31-.14-.45-.23s-.25-.12-.38-.18l-.33-.18c-.26-.12-.5-.28-.76-.41a3.7,3.7,0,0,1-.43-.25l-.38-.23a1.78,1.78,0,0,1-.3-.17c-.08-.07-.18-.12-.26-.18a3.87,3.87,0,0,0-.34-.21l-.21-.13-.26-.18a.09.09,0,0,0-.1,0s0,0-.06,0l-.09,0a6.4,6.4,0,0,1-.08-.87,1.73,1.73,0,0,0,0-.32,1.09,1.09,0,0,1,0-.18c0-.23,0-.46-.06-.69a3.85,3.85,0,0,1,0-.48,2.58,2.58,0,0,0,0-.39,1.1,1.1,0,0,1,0-.18c0-.18,0-.37,0-.55a2.48,2.48,0,0,0,0-.27s0-.08,0-.12v-.11c0-.24,0-.47-.05-.71s0-.37,0-.55,0-.2,0-.3,0-.1,0-.16c0-.24,0-.48,0-.73a3.87,3.87,0,0,1,0-.48,2.07,2.07,0,0,0-.05-.5s0-.08,0-.11,0-.17,0-.26c0-.26,0-.53-.06-.8,0-.1,0-.21,0-.32l0-.25c0-.05,0-.1,0-.16a5.93,5.93,0,0,0-.06-.84c0-.17,0-.34,0-.51a3.05,3.05,0,0,0-.05-.52c0-.09,0-.17,0-.26a5.46,5.46,0,0,0,0-.57c0-.16,0-.32,0-.48a1.71,1.71,0,0,0,0-.39.41.41,0,0,1,0-.16c0-.13,0-.27,0-.41a4.55,4.55,0,0,0,0-.52c0-.11,0-.22,0-.32s0-.34,0-.51,0-.35,0-.52a1.55,1.55,0,0,0,0-.37.81.81,0,0,1,0-.16l0-.55a2,2,0,0,0,0-.34c0-.19,0-.38,0-.57a1.86,1.86,0,0,0,0-.34.92.92,0,0,1,0-.16c0-.18,0-.36,0-.53s0-.21,0-.32a.32.32,0,0,1,0-.14c0-.45-.08-.9-.08-1.35a2,2,0,0,0,0-.34.86.86,0,0,1,0-.16l0-.53a1.82,1.82,0,0,0,0-.32c0-.1,0-.21,0-.32a3.05,3.05,0,0,0,0-.52c0-.05,0-.11,0-.16s0-.4,0-.6l0-.27c0-.06,0-.12,0-.18a4.93,4.93,0,0,0,0-.55c0-.35,0-.71-.07-1.05s0-.59-.07-.87,0-.58-.05-.87a1.86,1.86,0,0,0,0-.34,1.21,1.21,0,0,1,0-.19c0-.17,0-.35,0-.52,0-.33,0-.66-.07-1s0-.56-.06-.84,0-.75-.08-1.12,0-.61-.06-.92v-.07a4.2,4.2,0,0,1-.06-.61,2.92,2.92,0,0,0,0-.51s0-.06,0-.09c0-.38,0-.76-.07-1.14,0-.11,0-.22,0-.32a2.56,2.56,0,0,0,0-.39.88.88,0,0,1,0-.16c0-.17,0-.34,0-.51a2,2,0,0,0,0-.34c0-.14,0-.29,0-.43a2.38,2.38,0,0,0,0-.46.61.61,0,0,1,0-.14c0-.16,0-.33,0-.5a2,2,0,0,0,0-.34,1.15,1.15,0,0,1,0-.19c0-.18,0-.36,0-.55s0-.21,0-.31a1.14,1.14,0,0,1,0-.26c0-.23,0-.47-.06-.7a1.48,1.48,0,0,1,0-.21,8.48,8.48,0,0,0-.06-.87,1.48,1.48,0,0,1,0-.21c0-.28,0-.56-.06-.84a3.24,3.24,0,0,1,0-.44,1.87,1.87,0,0,0,0-.32.81.81,0,0,1,0-.16l0-.52a1.71,1.71,0,0,0,0-.39,1.48,1.48,0,0,1,0-.21c0-.28,0-.56-.05-.84C592.78,246.54,592.79,246.53,592.8,246.51Zm33.32,39.58a1.6,1.6,0,0,0,.49,0,.37.37,0,0,1,.15,0h.61a1.15,1.15,0,0,0,.33,0,.55.55,0,0,1,.18,0h.69a.52.52,0,0,0,.18,0,1,1,0,0,1,.3,0l.23,0a2.24,2.24,0,0,0,.34-.11,2.39,2.39,0,0,0,.63-.34,2.32,2.32,0,0,0,.57-.64.7.7,0,0,0,.09-.17,1.57,1.57,0,0,0,.1-.28,1.86,1.86,0,0,1,.06-.34,1.71,1.71,0,0,0-.05-.55.42.42,0,0,1,0-.16c0-.2,0-.39,0-.59a.79.79,0,0,0,0-.3.37.37,0,0,1,0-.15c0-.23,0-.45,0-.67a.43.43,0,0,0,0-.16.73.73,0,0,1,0-.29c0-.17,0-.34,0-.51a1,1,0,0,0-.05-.34.4.4,0,0,1,0-.16c0-.2,0-.41,0-.61a.86.86,0,0,0,0-.32.43.43,0,0,1,0-.16c0-.2,0-.4,0-.6a.74.74,0,0,0-.05-.29.43.43,0,0,1,0-.16c0-.24,0-.47,0-.71a.43.43,0,0,0,0-.16.7.7,0,0,1,0-.29c0-.17,0-.34,0-.51a1,1,0,0,0-.05-.34.37.37,0,0,1,0-.15c0-.21,0-.42,0-.62a.69.69,0,0,0,0-.32.43.43,0,0,1,0-.16c0-.2,0-.4,0-.6a.6.6,0,0,0,0-.29.42.42,0,0,1,0-.16c0-.22,0-.44,0-.66a.42.42,0,0,0,0-.16.78.78,0,0,1,0-.3c0-.16,0-.33,0-.5a1,1,0,0,0,0-.34.42.42,0,0,1,0-.16c0-.19,0-.38,0-.57a.89.89,0,0,0-.05-.32.42.42,0,0,1,0-.16c0-.2,0-.39,0-.59a.79.79,0,0,0,0-.3.4.4,0,0,1,0-.16c0-.22,0-.44,0-.66a.37.37,0,0,0,0-.18.49.49,0,0,1,0-.2c0-.23,0-.45,0-.67a.55.55,0,0,0,0-.18.58.58,0,0,1,0-.23c0-.21,0-.42,0-.64a.88.88,0,0,0,0-.16.78.78,0,0,1,0-.34c0-.16,0-.33,0-.5a.92.92,0,0,0,0-.29.44.44,0,0,1,0-.16c0-.22,0-.45,0-.67a.57.57,0,0,0,0-.18.44.44,0,0,1,0-.2c0-.21,0-.41,0-.62a1,1,0,0,0,0-.18.91.91,0,0,1,0-.23c0-.21,0-.43,0-.64a.44.44,0,0,0,0-.16.78.78,0,0,1,0-.34c0-.17,0-.33,0-.5a.78.78,0,0,0,0-.3.36.36,0,0,1,0-.15c0-.23,0-.45,0-.67a1.13,1.13,0,0,0,0-.18.69.69,0,0,1,0-.2c0-.21,0-.42,0-.62a.36.36,0,0,0,0-.18.91.91,0,0,1,0-.23c0-.2,0-.4,0-.6a.37.37,0,0,0,0-.15.83.83,0,0,1,0-.34c0-.17,0-.34,0-.51a.7.7,0,0,0,0-.29.44.44,0,0,1,0-.16c0-.22,0-.44,0-.67a.57.57,0,0,0,0-.18.64.64,0,0,1,0-.2c0-.21,0-.41,0-.62a.55.55,0,0,0,0-.18.59.59,0,0,1,0-.23c0-.21,0-.42,0-.64a.55.55,0,0,0,0-.18.69.69,0,0,1,0-.25c0-.21,0-.42,0-.64a.44.44,0,0,0,0-.16.84.84,0,0,1,0-.27v-.32s0-.09,0-.14a2.33,2.33,0,0,0-.26-.64,1.31,1.31,0,0,0-.28-.35l0,0a.44.44,0,0,0-.18-.15c-.07,0-.13-.1-.2-.15a2.65,2.65,0,0,0-.54-.25,1.49,1.49,0,0,0-.55-.1l-1.36,0-.18,0a.56.56,0,0,1-.22,0l-.75,0a.65.65,0,0,0-.2,0l-.25,0h-.7a1,1,0,0,0-.35,0,1,1,0,0,1-.18,0H622a.93.93,0,0,0-.33,0h-.17l-.75,0a.44.44,0,0,0-.2,0,.58.58,0,0,1-.23,0h-.74l-.2,0a1.17,1.17,0,0,1-.26,0h-.64a1,1,0,0,0-.35,0,.55.55,0,0,1-.18,0h-.67a1.86,1.86,0,0,0-.33,0,.5.5,0,0,1-.17,0H616a.44.44,0,0,0-.2,0l-.23,0h-.74a.75.75,0,0,0-.21,0,.69.69,0,0,1-.25,0h-.64a1.47,1.47,0,0,0-.36,0,.47.47,0,0,1-.17,0h-.62a.93.93,0,0,0-.33,0,.53.53,0,0,1-.18,0l-.74,0a.44.44,0,0,0-.2,0,.61.61,0,0,1-.23,0h-.74a1.52,1.52,0,0,0-.21,0,1,1,0,0,1-.25,0h-.64a1.11,1.11,0,0,0-.36,0,.47.47,0,0,1-.17,0l-.67,0a1.23,1.23,0,0,0-.33,0,.52.52,0,0,1-.18,0h-.74a.64.64,0,0,0-.2,0,.61.61,0,0,1-.23,0h-.75a.47.47,0,0,0-.17,0,1.1,1.1,0,0,1-.36,0h-.51a1.47,1.47,0,0,0-.36,0,.47.47,0,0,1-.17,0h-.67a.93.93,0,0,0-.33,0,1,1,0,0,1-.18,0H602a.65.65,0,0,0-.2,0,.61.61,0,0,1-.23,0l-.69,0a.75.75,0,0,0-.21,0,1,1,0,0,1-.25,0h-.72a.65.65,0,0,0-.2,0,.72.72,0,0,1-.25,0l-.7,0a.47.47,0,0,0-.17,0,1.09,1.09,0,0,1-.31,0,.65.65,0,0,0-.2,0,2.17,2.17,0,0,0-.75.27,2.1,2.1,0,0,0-.56.4,1.45,1.45,0,0,0-.3.4.69.69,0,0,0-.1.19,1.24,1.24,0,0,0-.15.52.5.5,0,0,1,0,.12.36.36,0,0,0,0,.11.81.81,0,0,0,0,.38.88.88,0,0,1,0,.16c0,.23,0,.45,0,.67a.55.55,0,0,0,0,.18.71.71,0,0,1,0,.2c0,.2,0,.4,0,.6a.72.72,0,0,0,0,.25.41.41,0,0,1,0,.16c0,.21,0,.42,0,.64a.67.67,0,0,0,0,.31.43.43,0,0,1,0,.16c0,.2,0,.4,0,.6a.7.7,0,0,0,0,.29.43.43,0,0,1,0,.16c0,.24,0,.48,0,.71a.36.36,0,0,0,0,.18.78.78,0,0,1,0,.21c0,.21,0,.42,0,.64a.74.74,0,0,0,0,.25.36.36,0,0,1,0,.15c0,.22,0,.43,0,.65a.83.83,0,0,0,0,.31.88.88,0,0,1,0,.16c0,.2,0,.4,0,.6a.7.7,0,0,0,0,.29.88.88,0,0,1,0,.16c0,.22,0,.44,0,.67a.37.37,0,0,0,0,.18.65.65,0,0,1,0,.2c0,.21,0,.43,0,.64a.69.69,0,0,0,0,.25.41.41,0,0,1,0,.16c0,.2,0,.4,0,.59a.69.69,0,0,0,0,.32.43.43,0,0,1,0,.16c0,.2,0,.4,0,.6a.73.73,0,0,0,0,.29.42.42,0,0,1,0,.16c0,.22,0,.44,0,.66a.36.36,0,0,0,0,.18.51.51,0,0,1,0,.21c0,.21,0,.43,0,.64a.72.72,0,0,0,0,.25.41.41,0,0,1,0,.16c0,.19,0,.39,0,.59a.71.71,0,0,0,0,.32.42.42,0,0,1,0,.16c0,.2,0,.39,0,.59a.78.78,0,0,0,0,.3.4.4,0,0,1,0,.16c0,.22,0,.44,0,.66a.37.37,0,0,0,0,.18.49.49,0,0,1,0,.2c0,.2,0,.4,0,.6a.72.72,0,0,0,0,.25.41.41,0,0,1,0,.16c0,.2,0,.39,0,.59a.86.86,0,0,0,0,.32.43.43,0,0,1,0,.16c0,.2,0,.4,0,.6a.77.77,0,0,0,0,.29.42.42,0,0,1,0,.16c0,.22,0,.44,0,.66a.36.36,0,0,0,0,.18.51.51,0,0,1,0,.21c0,.22,0,.44,0,.66a.52.52,0,0,0,0,.18.61.61,0,0,1,0,.23c0,.17,0,.35,0,.53a.84.84,0,0,0,.05.31.43.43,0,0,1,0,.16c0,.18,0,.37,0,.55a.7.7,0,0,0,0,.29.44.44,0,0,1,0,.16c0,.23,0,.45,0,.67a1.13,1.13,0,0,0,0,.18.69.69,0,0,1,0,.2c0,.22,0,.45,0,.67a.57.57,0,0,0,0,.18.83.83,0,0,1,0,.22c0,.18,0,.36,0,.53a.88.88,0,0,0,0,.32.41.41,0,0,1,0,.16c0,.2,0,.39,0,.59a.78.78,0,0,0,0,.3.39.39,0,0,1,0,.16c0,.2,0,.41,0,.61a.39.39,0,0,0,0,.16.78.78,0,0,1,0,.3c0,.11,0,.23,0,.34a.44.44,0,0,0,0,.16.57.57,0,0,1,0,.18l0,.11a2.34,2.34,0,0,0,.09.24,1.75,1.75,0,0,0,.44.58l.2.18a1.64,1.64,0,0,0,.42.26l.16.06a1.78,1.78,0,0,0,.79.16.75.75,0,0,1,.21,0s.07,0,.09,0a.77.77,0,0,1,.26,0h.82a1.2,1.2,0,0,0,.2,0l.26,0h.82a.47.47,0,0,0,.17,0,1.9,1.9,0,0,1,.41,0,.15.15,0,0,0,.15.14,1,1,0,0,1,.41.1l1,.41c.22.1.46.16.68.26h0l.4.14c.32.11.64.21,1,.3s.48.15.73.2.23.07.34.09.47.14.72.16a5.35,5.35,0,0,0,.55.11l.2,0c.12,0,.25,0,.37.05l.4.07c.14,0,.27.06.41.05s.07,0,.1,0l.15,0a1.45,1.45,0,0,1,.28,0h.33a.55.55,0,0,0,.22,0,.72.72,0,0,1,.21,0,1,1,0,0,0,.35,0,.8.8,0,0,1,.31,0h.15l2.18,0a.36.36,0,0,0,.15,0,1.24,1.24,0,0,1,.33,0,.65.65,0,0,0,.2,0,1.15,1.15,0,0,1,.26,0,.6.6,0,0,0,.23,0,1.65,1.65,0,0,1,.32,0l.13,0a.25.25,0,0,1,.12,0c.17,0,.32-.07.48-.06a2.83,2.83,0,0,1,.58-.11c.11-.05.25,0,.37-.08l.37-.08c.18,0,.34-.09.52-.12a4.39,4.39,0,0,1,.52-.13.74.74,0,0,0,.14,0l.82-.26c.25-.08.51-.15.75-.25l.28-.11.48-.17c.23-.1.47-.18.69-.3l.36-.17c.48-.22,1-.44,1.41-.7.28-.16.56-.3.83-.47l.22-.11a.17.17,0,0,1,.1,0,1.43,1.43,0,0,0,.35-.06C626.11,286.17,626.12,286.13,626.12,286.09Z"/><path class="cls-5" d="M630.57,243.7c-.05,0-.05,0,0-.09S630.61,243.65,630.57,243.7Z"/><path class="cls-5" d="M603.44,287.36a1.9,1.9,0,0,0-.41,0,.47.47,0,0,1-.17,0H602l-.26,0a1.2,1.2,0,0,1-.2,0h-.82a.77.77,0,0,0-.26,0s-.06,0-.09,0a.75.75,0,0,0-.21,0,1.78,1.78,0,0,1-.79-.16l-.16-.06a1.64,1.64,0,0,1-.42-.26l-.2-.18a1.75,1.75,0,0,1-.44-.58,2.34,2.34,0,0,1-.09-.24l0-.11a.57.57,0,0,0,0-.18.44.44,0,0,1,0-.16c0-.11,0-.23,0-.34a.78.78,0,0,0,0-.3.39.39,0,0,1,0-.16c0-.2,0-.41,0-.61a.39.39,0,0,0,0-.16.78.78,0,0,1,0-.3c0-.2,0-.39,0-.59a.41.41,0,0,0,0-.16.88.88,0,0,1,0-.32c0-.17,0-.35,0-.53a.83.83,0,0,0,0-.22.57.57,0,0,1,0-.18c0-.22,0-.45,0-.67a.69.69,0,0,0,0-.2,1.13,1.13,0,0,1,0-.18c0-.22,0-.44,0-.67a.44.44,0,0,0,0-.16.7.7,0,0,1,0-.29c0-.18,0-.37,0-.55a.43.43,0,0,0,0-.16.84.84,0,0,1-.05-.31c0-.18,0-.36,0-.53a.61.61,0,0,0,0-.23.52.52,0,0,1,0-.18c0-.22,0-.44,0-.66a.51.51,0,0,0,0-.21.36.36,0,0,1,0-.18c0-.22,0-.44,0-.66a.42.42,0,0,0,0-.16.77.77,0,0,1,0-.29c0-.2,0-.4,0-.6a.43.43,0,0,0,0-.16.86.86,0,0,1,0-.32c0-.2,0-.39,0-.59a.41.41,0,0,0,0-.16.72.72,0,0,1,0-.25c0-.2,0-.4,0-.6a.49.49,0,0,0,0-.2.37.37,0,0,1,0-.18c0-.22,0-.44,0-.66a.4.4,0,0,0,0-.16.78.78,0,0,1,0-.3c0-.2,0-.39,0-.59a.42.42,0,0,0,0-.16.71.71,0,0,1,0-.32c0-.2,0-.4,0-.59a.41.41,0,0,0,0-.16.72.72,0,0,1,0-.25c0-.21,0-.43,0-.64a.51.51,0,0,0,0-.21.36.36,0,0,1,0-.18c0-.22,0-.44,0-.66a.42.42,0,0,0,0-.16.73.73,0,0,1,0-.29c0-.2,0-.4,0-.6a.43.43,0,0,0,0-.16.69.69,0,0,1,0-.32c0-.19,0-.39,0-.59a.41.41,0,0,0,0-.16.69.69,0,0,1,0-.25c0-.21,0-.43,0-.64a.65.65,0,0,0,0-.2.37.37,0,0,1,0-.18c0-.23,0-.45,0-.67a.88.88,0,0,0,0-.16.7.7,0,0,1,0-.29c0-.2,0-.4,0-.6a.88.88,0,0,0,0-.16.83.83,0,0,1,0-.31c0-.22,0-.43,0-.65a.36.36,0,0,0,0-.15.74.74,0,0,1,0-.25c0-.22,0-.43,0-.64a.78.78,0,0,0,0-.21.36.36,0,0,1,0-.18c0-.23,0-.47,0-.71a.43.43,0,0,0,0-.16.7.7,0,0,1,0-.29c0-.2,0-.4,0-.6a.43.43,0,0,0,0-.16.67.67,0,0,1,0-.31c0-.22,0-.43,0-.64a.41.41,0,0,0,0-.16.72.72,0,0,1,0-.25c0-.2,0-.4,0-.6a.71.71,0,0,0,0-.2.55.55,0,0,1,0-.18c0-.22,0-.44,0-.67a.88.88,0,0,0,0-.16.81.81,0,0,1,0-.38.36.36,0,0,1,0-.11.5.5,0,0,0,0-.12,1.24,1.24,0,0,1,.15-.52.69.69,0,0,1,.1-.19,1.45,1.45,0,0,1,.3-.4,2.1,2.1,0,0,1,.56-.4,2.17,2.17,0,0,1,.75-.27.65.65,0,0,1,.2,0,1.09,1.09,0,0,0,.31,0,.47.47,0,0,1,.17,0l.7,0a.72.72,0,0,0,.25,0,.65.65,0,0,1,.2,0h.72a1,1,0,0,0,.25,0,.75.75,0,0,1,.21,0l.69,0a.61.61,0,0,0,.23,0,.65.65,0,0,1,.2,0h.74a1,1,0,0,0,.18,0,.93.93,0,0,1,.33,0h.67a.47.47,0,0,0,.17,0,1.47,1.47,0,0,1,.36,0h.51a1.1,1.1,0,0,0,.36,0,.47.47,0,0,1,.17,0h.75a.61.61,0,0,0,.23,0,.64.64,0,0,1,.2,0h.74a.52.52,0,0,0,.18,0,1.23,1.23,0,0,1,.33,0l.67,0a.47.47,0,0,0,.17,0,1.11,1.11,0,0,1,.36,0h.64a1,1,0,0,0,.25,0,1.52,1.52,0,0,1,.21,0h.74a.61.61,0,0,0,.23,0,.44.44,0,0,1,.2,0l.74,0a.53.53,0,0,0,.18,0,.93.93,0,0,1,.33,0h.62a.47.47,0,0,0,.17,0,1.47,1.47,0,0,1,.36,0h.64a.69.69,0,0,0,.25,0,.75.75,0,0,1,.21,0h.74l.23,0a.44.44,0,0,1,.2,0h.8a.5.5,0,0,0,.17,0,1.86,1.86,0,0,1,.33,0H618a.55.55,0,0,0,.18,0,1,1,0,0,1,.35,0h.64a1.17,1.17,0,0,0,.26,0l.2,0h.74a.58.58,0,0,0,.23,0,.44.44,0,0,1,.2,0l.75,0h.17a.93.93,0,0,1,.33,0h.67a1,1,0,0,0,.18,0,1,1,0,0,1,.35,0h.7l.25,0a.65.65,0,0,1,.2,0l.75,0a.56.56,0,0,0,.22,0l.18,0,1.36,0a1.49,1.49,0,0,1,.55.1,2.65,2.65,0,0,1,.54.25c.07.05.13.11.2.15a.44.44,0,0,1,.18.15l0,0a1.31,1.31,0,0,1,.28.35,2.33,2.33,0,0,1,.26.64c0,.05,0,.09,0,.14v.32a.84.84,0,0,0,0,.27.44.44,0,0,1,0,.16c0,.22,0,.43,0,.64a.69.69,0,0,0,0,.25.55.55,0,0,1,0,.18c0,.22,0,.43,0,.64a.59.59,0,0,0,0,.23.55.55,0,0,1,0,.18c0,.21,0,.41,0,.62a.64.64,0,0,0,0,.2.57.57,0,0,1,0,.18c0,.23,0,.45,0,.67a.44.44,0,0,0,0,.16.7.7,0,0,1,0,.29c0,.17,0,.34,0,.51a.83.83,0,0,0,0,.34.37.37,0,0,1,0,.15c0,.2,0,.4,0,.6a.91.91,0,0,0,0,.23.36.36,0,0,1,0,.18c0,.2,0,.41,0,.62a.69.69,0,0,0,0,.2,1.13,1.13,0,0,1,0,.18c0,.22,0,.44,0,.67a.36.36,0,0,0,0,.15.78.78,0,0,1,0,.3c0,.17,0,.33,0,.5a.78.78,0,0,0,0,.34.44.44,0,0,1,0,.16c0,.21,0,.43,0,.64a.91.91,0,0,0,0,.23,1,1,0,0,1,0,.18c0,.21,0,.41,0,.62a.44.44,0,0,0,0,.2.57.57,0,0,1,0,.18c0,.22,0,.45,0,.67a.44.44,0,0,0,0,.16.92.92,0,0,1,0,.29c0,.17,0,.34,0,.5a.78.78,0,0,0,0,.34.88.88,0,0,1,0,.16c0,.22,0,.43,0,.64a.58.58,0,0,0,0,.23.55.55,0,0,1,0,.18c0,.22,0,.44,0,.67a.49.49,0,0,0,0,.2.37.37,0,0,1,0,.18c0,.22,0,.44,0,.66a.4.4,0,0,0,0,.16.79.79,0,0,1,0,.3c0,.2,0,.39,0,.59a.42.42,0,0,0,0,.16.89.89,0,0,1,.05.32c0,.19,0,.38,0,.57a.42.42,0,0,0,0,.16,1,1,0,0,1,0,.34c0,.17,0,.34,0,.5a.78.78,0,0,0,0,.3.42.42,0,0,1,0,.16c0,.22,0,.44,0,.66a.42.42,0,0,0,0,.16.6.6,0,0,1,0,.29c0,.2,0,.4,0,.6a.43.43,0,0,0,0,.16.69.69,0,0,1,0,.32c0,.2,0,.41,0,.62a.37.37,0,0,0,0,.15,1,1,0,0,1,.05.34c0,.17,0,.34,0,.51a.7.7,0,0,0,0,.29.43.43,0,0,1,0,.16c0,.24,0,.47,0,.71a.43.43,0,0,0,0,.16.74.74,0,0,1,.05.29c0,.2,0,.4,0,.6a.43.43,0,0,0,0,.16.86.86,0,0,1,0,.32c0,.2,0,.41,0,.61a.4.4,0,0,0,0,.16,1,1,0,0,1,.05.34c0,.17,0,.34,0,.51a.73.73,0,0,0,0,.29.43.43,0,0,1,0,.16c0,.22,0,.44,0,.67a.37.37,0,0,0,0,.15.79.79,0,0,1,0,.3c0,.2,0,.39,0,.59a.42.42,0,0,0,0,.16,1.71,1.71,0,0,1,.05.55,1.86,1.86,0,0,0-.06.34,1.57,1.57,0,0,1-.1.28.7.7,0,0,1-.09.17,2.32,2.32,0,0,1-.57.64,2.39,2.39,0,0,1-.63.34,2.24,2.24,0,0,1-.34.11l-.23,0a1,1,0,0,0-.3,0,.52.52,0,0,1-.18,0h-.69a.55.55,0,0,0-.18,0,1.15,1.15,0,0,1-.33,0h-.61a.37.37,0,0,0-.15,0,1.6,1.6,0,0,1-.49,0h-.46a1.34,1.34,0,0,0-.35,0,1.1,1.1,0,0,1-.18,0h-.67a.93.93,0,0,0-.33,0,.47.47,0,0,1-.17,0l-.75,0a.65.65,0,0,0-.2,0,.91.91,0,0,1-.23,0H622a1.2,1.2,0,0,0-.2,0l-.26,0h-.72a.49.49,0,0,0-.17,0,1,1,0,0,1-.38,0l-.57,0a1.23,1.23,0,0,0-.33,0,.47.47,0,0,1-.17,0h-.7a.47.47,0,0,0-.17,0,1.86,1.86,0,0,1-.33,0h-.57a1,1,0,0,0-.38,0h-.77a1.45,1.45,0,0,0-.35,0,.52.52,0,0,1-.18,0h-.59a1.26,1.26,0,0,0-.43,0,.53.53,0,0,1-.18,0l-.72,0a.47.47,0,0,0-.17,0,.93.93,0,0,1-.33,0h-.57a1.69,1.69,0,0,0-.38,0,.47.47,0,0,1-.17,0h-.67a.93.93,0,0,0-.33,0,.53.53,0,0,1-.18,0l-.79,0a.5.5,0,0,0-.21,0,.56.56,0,0,1-.22,0l-.75,0a.68.68,0,0,0-.2,0,1.07,1.07,0,0,1-.25,0H608a1.11,1.11,0,0,0-.36,0,.53.53,0,0,1-.18,0l-.66,0a1.23,1.23,0,0,0-.33,0,.55.55,0,0,1-.18,0l-.79,0a.5.5,0,0,0-.21,0,.56.56,0,0,1-.22,0h-.7a.68.68,0,0,0-.2,0,.72.72,0,0,1-.25,0Zm-.38-4a2.59,2.59,0,0,0,.87-.17,2.69,2.69,0,0,0,.38-.19,2,2,0,0,0,.37-.28l.17-.2a2.14,2.14,0,0,0,.32-.57,5.54,5.54,0,0,0,.11-.56.43.43,0,0,0,0-.16s0-.09,0-.13a1.28,1.28,0,0,0-.07-.34,1.61,1.61,0,0,0-.47-.72l-.26-.22-.16-.11a2.14,2.14,0,0,0-.95-.31h-.05a.76.76,0,0,0-.26,0,1.64,1.64,0,0,0-.38,0,2.51,2.51,0,0,0-.89.33,2.22,2.22,0,0,0-.62.6,2.14,2.14,0,0,0-.31.79,2,2,0,0,0,.08.77,1.42,1.42,0,0,0,.07.22,1.88,1.88,0,0,0,.54.69c.08.06.15.13.23.18A2.53,2.53,0,0,0,603.06,283.38Zm7.36-8.38a1.85,1.85,0,0,0-.41-1.1,1.86,1.86,0,0,0-.62-.53l-.22-.12a2.72,2.72,0,0,0-.54-.15l-.2,0a1.46,1.46,0,0,0-.51,0,3.53,3.53,0,0,0-.54.13,4.16,4.16,0,0,0-.48.22c-.15.14-.36.23-.46.42a1.42,1.42,0,0,0-.28.41,1.3,1.3,0,0,0-.17.57.36.36,0,0,1,0,.11.5.5,0,0,0,0,.27,1.23,1.23,0,0,1,0,.25.36.36,0,0,0,0,.11l.09.22a1.86,1.86,0,0,0,.55.73.9.9,0,0,0,.2.14,2.18,2.18,0,0,0,.83.34,2.32,2.32,0,0,0,.38.05,1.12,1.12,0,0,0,.48,0h.07a.93.93,0,0,0,.23,0,2.4,2.4,0,0,0,.63-.29,2.58,2.58,0,0,0,.63-.6A1.93,1.93,0,0,0,610.42,275ZM600,269.55a1.19,1.19,0,0,0,.06.45,1,1,0,0,0,.11.28.16.16,0,0,1,0,.07,1.87,1.87,0,0,0,.33.48,2.39,2.39,0,0,0,1,.56,1.78,1.78,0,0,0,.45.08.3.3,0,0,1,.13,0,.54.54,0,0,0,.28,0l.15,0a1.77,1.77,0,0,0,.72-.21,1.51,1.51,0,0,0,.53-.36l.18-.16.11-.13a1.66,1.66,0,0,0,.35-.87s0-.08,0-.12a.48.48,0,0,0,0-.29.61.61,0,0,1,0-.13.88.88,0,0,0-.07-.29,1.66,1.66,0,0,0-.2-.4,1.57,1.57,0,0,0-.33-.4,2.13,2.13,0,0,0-.42-.3,2.18,2.18,0,0,0-.66-.24,1.75,1.75,0,0,0-.56-.05h0a2.63,2.63,0,0,0-.48.06.9.9,0,0,0-.21.08,1.91,1.91,0,0,0-.84.51c-.06.06-.13.12-.19.19A1.85,1.85,0,0,0,600,269.55Zm13.27-2.74a2.24,2.24,0,0,0-.67.11,2.8,2.8,0,0,0-.61.28,2.09,2.09,0,0,0-.77.93,1.56,1.56,0,0,0-.1.37.68.68,0,0,1,0,.14.78.78,0,0,0,0,.16.75.75,0,0,0,.05.36,1.74,1.74,0,0,0,.37.79l.12.15a.77.77,0,0,0,.23.21l.12.08a2,2,0,0,0,.52.26,1.58,1.58,0,0,0,.54.12h.07a.62.62,0,0,0,.23,0,1.86,1.86,0,0,0,.33,0,1.57,1.57,0,0,0,.44-.1,2.23,2.23,0,0,0,.83-.49,1.87,1.87,0,0,0,.45-.64,2,2,0,0,0,.17-.83c0-.11,0-.21-.06-.31a1.62,1.62,0,0,0-.23-.56,1.89,1.89,0,0,0-.44-.5,2.38,2.38,0,0,0-.64-.37A2.63,2.63,0,0,0,613.22,266.81ZM612.4,255a1.62,1.62,0,0,0-.3,0,2.62,2.62,0,0,0-1,.4,4.71,4.71,0,0,0-.41.35,2.46,2.46,0,0,0-.4.79,1.81,1.81,0,0,0-.06.52c0,.08,0,.15,0,.23a1.16,1.16,0,0,0,.13.41,1.54,1.54,0,0,0,.44.61l.14.13a1.85,1.85,0,0,0,.64.37,2.19,2.19,0,0,0,.49.12,3,3,0,0,1,.31,0,.45.45,0,0,0,.23,0l.15,0a1.23,1.23,0,0,0,.39-.08,2,2,0,0,0,1-.64l0-.05a.78.78,0,0,0,.15-.22l.09-.16a1.53,1.53,0,0,0,.2-.68,1.59,1.59,0,0,0-.11-.74,2,2,0,0,0-.4-.66,2,2,0,0,0-.45-.37A2.48,2.48,0,0,0,612.4,255Zm12.49,15h0c.14,0,.28,0,.41,0a2,2,0,0,0,.6-.2,1.91,1.91,0,0,0,.53-.36,1.06,1.06,0,0,1,.15-.15l.13-.15a1.89,1.89,0,0,0,.32-.67.94.94,0,0,0,.06-.29,1.15,1.15,0,0,0,0-.45.28.28,0,0,1,0-.09,1.21,1.21,0,0,0,0-.18,1.72,1.72,0,0,0-.33-.59,2.16,2.16,0,0,0-.61-.51c-.08,0-.17-.08-.25-.12a1.32,1.32,0,0,0-.38-.13,2.38,2.38,0,0,0-.53,0h-.23a2.16,2.16,0,0,0-.67.14l-.27.13a1.51,1.51,0,0,0-.39.27l-.18.16a1.19,1.19,0,0,0-.15.18,1.87,1.87,0,0,0-.26.48,1.23,1.23,0,0,0-.08.33,1,1,0,0,0,0,.52,1.76,1.76,0,0,0,.17.55,1.66,1.66,0,0,0,.44.58l.17.14a1.59,1.59,0,0,0,.62.35.29.29,0,0,1,.1,0,1.54,1.54,0,0,0,.52.09ZM626,282a1.66,1.66,0,0,0,.54-.06l.34-.12a2,2,0,0,0,.63-.39,1.71,1.71,0,0,0,.44-.56,1.62,1.62,0,0,0,.2-.68.61.61,0,0,1,0-.13.27.27,0,0,0,0-.09.45.45,0,0,1,0-.23.75.75,0,0,0-.06-.29,1.48,1.48,0,0,0-.37-.64,2.6,2.6,0,0,0-.49-.44h0a4.46,4.46,0,0,0-.5-.22,2.19,2.19,0,0,0-.5-.09,2.42,2.42,0,0,0-.25,0c-.1,0-.19,0-.28,0a1.91,1.91,0,0,0-.33.06,2.25,2.25,0,0,0-1,.48,1.85,1.85,0,0,0-.34.4,2.09,2.09,0,0,0-.32.79,2.36,2.36,0,0,0,0,.7,2,2,0,0,0,.36.7,2,2,0,0,0,.29.29,2,2,0,0,0,.83.44A1.82,1.82,0,0,0,626,282Zm-9.61-1.4h0v-.25s0-.08,0-.11a1.94,1.94,0,0,0-.25-.57,2.69,2.69,0,0,0-.2-.27,1.4,1.4,0,0,0-.33-.31,2.5,2.5,0,0,0-.8-.35,2,2,0,0,0-.55-.07H614a1.54,1.54,0,0,0-.43.06,3.31,3.31,0,0,0-.53.18,3.2,3.2,0,0,0-.45.3,1,1,0,0,0-.23.24,1.75,1.75,0,0,0-.39.72,1.24,1.24,0,0,0-.06.43c0,.11,0,.23,0,.34a.37.37,0,0,0,0,.11,3.59,3.59,0,0,0,.12.35,2.15,2.15,0,0,0,.48.65,2.1,2.1,0,0,0,.69.42,1.92,1.92,0,0,0,.79.16h.38a1,1,0,0,0,.25,0,2.14,2.14,0,0,0,.57-.2,1.92,1.92,0,0,0,.47-.31,1.89,1.89,0,0,0,.48-.62,1.5,1.5,0,0,0,.18-.71A.66.66,0,0,1,616.37,280.61Zm3-4.22h.26l.17,0a2.71,2.71,0,0,0,.69-.25,2.07,2.07,0,0,0,.62-.51,1.56,1.56,0,0,0,.33-.62,1.12,1.12,0,0,1,.05-.13l0-.13a1,1,0,0,1,0-.25.43.43,0,0,0,0-.25.45.45,0,0,1,0-.11.74.74,0,0,0-.09-.33l-.12-.25a1.55,1.55,0,0,0-.32-.44,2.19,2.19,0,0,0-.81-.51,1.84,1.84,0,0,0-.74-.14h-.26a1.41,1.41,0,0,0-.45.07,2.43,2.43,0,0,0-.6.24,1.5,1.5,0,0,0-.37.28,1.77,1.77,0,0,0-.59.93,1.1,1.1,0,0,0-.06.26,1.62,1.62,0,0,0,0,.62,1.63,1.63,0,0,0,.26.61,4.19,4.19,0,0,0,.26.33.61.61,0,0,0,.15.13,2.67,2.67,0,0,0,.75.39c.1,0,.19.05.29.06a1.86,1.86,0,0,0,.33,0Zm-3-13.71a1.38,1.38,0,0,0,.16.7s0,0,0,.05a1.23,1.23,0,0,0,.35.47l.29.26.16.11a2.85,2.85,0,0,0,.75.29,2,2,0,0,0,.35,0,1.29,1.29,0,0,0,.48,0H619a.78.78,0,0,0,.3-.07,2.58,2.58,0,0,0,.58-.28,2.14,2.14,0,0,0,.58-.54,1.54,1.54,0,0,0,.23-.44,1.66,1.66,0,0,0,.1-.7v-.16a.28.28,0,0,0,0-.09,2.94,2.94,0,0,0-.24-.62A2.32,2.32,0,0,0,620,261a1.61,1.61,0,0,0-.28-.17,2,2,0,0,0-.59-.2,1.88,1.88,0,0,0-.53-.06,5.13,5.13,0,0,0-.8.16,1.92,1.92,0,0,0-.68.39l-.18.17a1.4,1.4,0,0,0-.38.56l0,.09a1.06,1.06,0,0,0-.1.46Zm-12.82-5.08h0v-.32s0-.08,0-.13a1.85,1.85,0,0,0-.61-.93,1.69,1.69,0,0,0-.25-.2,3.06,3.06,0,0,0-.84-.33h-.12l-.26,0a.45.45,0,0,0-.23,0,.84.84,0,0,1-.27,0l-.1,0a3.51,3.51,0,0,0-.64.24,2.33,2.33,0,0,0-.74.65c-.06.09-.1.18-.15.27a1.4,1.4,0,0,0-.16.69c0,.11,0,.23,0,.34a.34.34,0,0,0,0,.14c0,.12.07.25.12.37a1.53,1.53,0,0,0,.4.55l.2.18a1.27,1.27,0,0,0,.33.22l.41.17a.9.9,0,0,0,.22.06,3.13,3.13,0,0,0,.61,0,2.74,2.74,0,0,0,.5-.07,2.37,2.37,0,0,0,.69-.3,1.66,1.66,0,0,0,.3-.22,3.47,3.47,0,0,0,.25-.29,1.53,1.53,0,0,0,.19-.3,1.72,1.72,0,0,0,.17-.8Zm6.06,5.69a1.44,1.44,0,0,0-.11-.58,2.21,2.21,0,0,0-.46-.68.1.1,0,0,0-.05,0,1.25,1.25,0,0,1-.22-.16.45.45,0,0,0-.14-.1,2.66,2.66,0,0,0-.68-.26,3.28,3.28,0,0,0-.63-.06,2,2,0,0,0-.35,0,2.53,2.53,0,0,0-.82.31,2.31,2.31,0,0,0-.42.34,1.7,1.7,0,0,0-.27.33l-.11.21a1.4,1.4,0,0,0-.16.69v.23a1.32,1.32,0,0,0,.1.47,1.93,1.93,0,0,0,.74.94,2.22,2.22,0,0,0,.43.23,1.88,1.88,0,0,0,.46.14l.23,0a1.06,1.06,0,0,0,.5,0l.13,0a2.15,2.15,0,0,0,.83-.28,1.44,1.44,0,0,0,.32-.23c.08-.09.18-.16.26-.26a2,2,0,0,0,.28-.46,1.38,1.38,0,0,0,.14-.66Zm14.55-8.79h-.38a2.81,2.81,0,0,0-.86.34,1.08,1.08,0,0,0-.24.18l-.16.15a1.5,1.5,0,0,0-.33.46,1.19,1.19,0,0,0-.15.41,1.18,1.18,0,0,1,0,.2.77.77,0,0,0,0,.45s0,.08,0,.12a1.71,1.71,0,0,0,.29.7,1.47,1.47,0,0,1,.1.13,1.93,1.93,0,0,0,.64.52,2.21,2.21,0,0,0,.27.12,1.77,1.77,0,0,0,.79.15h.26a1.71,1.71,0,0,0,.74-.17,1.58,1.58,0,0,0,.75-.5.46.46,0,0,0,.07-.07.69.69,0,0,0,.11-.13,1.87,1.87,0,0,0,.39-1.19,1.43,1.43,0,0,0-.06-.34,1.3,1.3,0,0,0-.17-.45l-.06-.1a1.27,1.27,0,0,0-.32-.38l-.26-.22a.71.71,0,0,0-.14-.1,2,2,0,0,0-.61-.24,1.69,1.69,0,0,0-.55-.06Z"/><path class="cls-6" d="M603.44,287.36h.49a.72.72,0,0,0,.25,0,.68.68,0,0,1,.2,0h.7a.56.56,0,0,0,.22,0,.5.5,0,0,1,.21,0l.79,0a.55.55,0,0,0,.18,0,1.23,1.23,0,0,1,.33,0l.66,0a.53.53,0,0,0,.18,0,1.11,1.11,0,0,1,.36,0h.64a1.07,1.07,0,0,0,.25,0,.68.68,0,0,1,.2,0l.75,0a.56.56,0,0,0,.22,0,.5.5,0,0,1,.21,0l.79,0a.53.53,0,0,0,.18,0,.93.93,0,0,1,.33,0h.67a.47.47,0,0,0,.17,0,1.69,1.69,0,0,1,.38,0h.57a.93.93,0,0,0,.33,0,.47.47,0,0,1,.17,0l.72,0a.53.53,0,0,0,.18,0,1.26,1.26,0,0,1,.43,0h.59a.52.52,0,0,0,.18,0,1.45,1.45,0,0,1,.35,0h.77a1,1,0,0,1,.38,0H618a1.86,1.86,0,0,0,.33,0,.47.47,0,0,1,.17,0h.7a.47.47,0,0,0,.17,0,1.23,1.23,0,0,1,.33,0l.57,0a1,1,0,0,0,.38,0,.49.49,0,0,1,.17,0h.72l.26,0a1.2,1.2,0,0,1,.2,0h.74a.91.91,0,0,0,.23,0,.65.65,0,0,1,.2,0l.75,0a.47.47,0,0,0,.17,0,.93.93,0,0,1,.33,0h.67a1.1,1.1,0,0,0,.18,0,1.34,1.34,0,0,1,.35,0h.46s0,.08-.06.09a1.43,1.43,0,0,1-.35.06.17.17,0,0,0-.1,0l-.22.11c-.27.17-.55.31-.83.47-.45.26-.93.48-1.41.7l-.36.17c-.22.12-.46.2-.69.3l-.48.17-.28.11c-.24.1-.5.17-.75.25l-.82.26a.74.74,0,0,1-.14,0,4.39,4.39,0,0,0-.52.13c-.18,0-.34.09-.52.12l-.37.08c-.12,0-.26,0-.37.08a2.83,2.83,0,0,0-.58.11c-.16,0-.31.07-.48.06a.25.25,0,0,0-.12,0l-.13,0a1.65,1.65,0,0,0-.32,0,.6.6,0,0,1-.23,0,1.15,1.15,0,0,0-.26,0,.65.65,0,0,1-.2,0,1.24,1.24,0,0,0-.33,0,.36.36,0,0,1-.15,0l-2.18,0h-.15a.8.8,0,0,0-.31,0,1,1,0,0,1-.35,0,.72.72,0,0,0-.21,0,.55.55,0,0,1-.22,0h-.33a1.45,1.45,0,0,0-.28,0l-.15,0s-.07,0-.1,0-.27-.06-.41-.05l-.4-.07c-.12,0-.25,0-.37-.05l-.2,0a5.35,5.35,0,0,1-.55-.11c-.25,0-.47-.12-.72-.16s-.22-.07-.34-.09-.49-.13-.73-.2-.65-.19-1-.3l-.4-.14h0c-.22-.1-.46-.16-.68-.26l-1-.41a1,1,0,0,0-.41-.1A.15.15,0,0,1,603.44,287.36Z"/><path class="cls-7" d="M603.06,283.38a2.53,2.53,0,0,1-1.32-.37c-.08-.05-.15-.12-.23-.18a1.88,1.88,0,0,1-.54-.69,1.42,1.42,0,0,1-.07-.22,2,2,0,0,1-.08-.77,2.14,2.14,0,0,1,.31-.79,2.22,2.22,0,0,1,.62-.6,2.51,2.51,0,0,1,.89-.33,1.64,1.64,0,0,1,.38,0,.76.76,0,0,1,.26,0h.05a2.14,2.14,0,0,1,.95.31l.16.11.26.22a1.61,1.61,0,0,1,.47.72,1.28,1.28,0,0,1,.07.34s0,.09,0,.13a.43.43,0,0,1,0,.16,5.54,5.54,0,0,1-.11.56,2.14,2.14,0,0,1-.32.57l-.17.2a2,2,0,0,1-.37.28,2.69,2.69,0,0,1-.38.19A2.59,2.59,0,0,1,603.06,283.38Z"/><path class="cls-7" d="M610.42,275a1.93,1.93,0,0,1-.3,1.06,2.58,2.58,0,0,1-.63.6,2.4,2.4,0,0,1-.63.29.93.93,0,0,1-.23,0h-.07a1.12,1.12,0,0,1-.48,0,2.32,2.32,0,0,1-.38-.05,2.18,2.18,0,0,1-.83-.34.9.9,0,0,1-.2-.14,1.86,1.86,0,0,1-.55-.73l-.09-.22a.36.36,0,0,1,0-.11,1.23,1.23,0,0,0,0-.25.5.5,0,0,1,0-.27.36.36,0,0,0,0-.11,1.3,1.3,0,0,1,.17-.57,1.42,1.42,0,0,1,.28-.41c.1-.19.31-.28.46-.42a4.16,4.16,0,0,1,.48-.22,3.53,3.53,0,0,1,.54-.13,1.46,1.46,0,0,1,.51,0l.2,0a2.72,2.72,0,0,1,.54.15l.22.12a1.86,1.86,0,0,1,.62.53,1.85,1.85,0,0,1,.41,1.1Z"/><path class="cls-7" d="M600,269.55a1.85,1.85,0,0,1,.4-1.2c.06-.07.13-.13.19-.19a1.91,1.91,0,0,1,.84-.51.9.9,0,0,1,.21-.08,2.63,2.63,0,0,1,.48-.06h0a1.75,1.75,0,0,1,.56.05,2.18,2.18,0,0,1,.66.24,2.13,2.13,0,0,1,.42.3,1.57,1.57,0,0,1,.33.4,1.66,1.66,0,0,1,.2.4.88.88,0,0,1,.07.29.61.61,0,0,0,0,.13.48.48,0,0,1,0,.29s0,.08,0,.12a1.66,1.66,0,0,1-.35.87l-.11.13-.18.16a1.51,1.51,0,0,1-.53.36,1.77,1.77,0,0,1-.72.21l-.15,0a.54.54,0,0,1-.28,0,.3.3,0,0,0-.13,0,1.78,1.78,0,0,1-.45-.08,2.39,2.39,0,0,1-1-.56,1.87,1.87,0,0,1-.33-.48.16.16,0,0,0,0-.07A1,1,0,0,1,600,270,1.19,1.19,0,0,1,600,269.55Z"/><path class="cls-7" d="M613.22,266.81a2.63,2.63,0,0,1,.91.15,2.38,2.38,0,0,1,.64.37,1.89,1.89,0,0,1,.44.5,1.62,1.62,0,0,1,.23.56c0,.1,0,.2.06.31a2,2,0,0,1-.17.83,1.87,1.87,0,0,1-.45.64,2.23,2.23,0,0,1-.83.49,1.57,1.57,0,0,1-.44.1,1.86,1.86,0,0,1-.33,0,.62.62,0,0,1-.23,0H613a1.58,1.58,0,0,1-.54-.12,2,2,0,0,1-.52-.26l-.12-.08a.77.77,0,0,1-.23-.21l-.12-.15a1.74,1.74,0,0,1-.37-.79.75.75,0,0,1-.05-.36.78.78,0,0,1,0-.16.68.68,0,0,0,0-.14,1.56,1.56,0,0,1,.1-.37,2.09,2.09,0,0,1,.77-.93,2.8,2.8,0,0,1,.61-.28A2.24,2.24,0,0,1,613.22,266.81Z"/><path class="cls-7" d="M612.4,255a2.48,2.48,0,0,1,1.36.34,2,2,0,0,1,.45.37,2,2,0,0,1,.4.66,1.59,1.59,0,0,1,.11.74,1.53,1.53,0,0,1-.2.68l-.09.16a.78.78,0,0,1-.15.22l0,.05a2,2,0,0,1-1,.64,1.23,1.23,0,0,1-.39.08l-.15,0a.45.45,0,0,1-.23,0,3,3,0,0,0-.31,0,2.19,2.19,0,0,1-.49-.12,1.85,1.85,0,0,1-.64-.37l-.14-.13a1.54,1.54,0,0,1-.44-.61,1.16,1.16,0,0,1-.13-.41c0-.08,0-.15,0-.23a1.81,1.81,0,0,1,.06-.52,2.46,2.46,0,0,1,.4-.79,4.71,4.71,0,0,1,.41-.35,2.62,2.62,0,0,1,1-.4A1.62,1.62,0,0,1,612.4,255Z"/><path class="cls-7" d="M624.89,270.05h-.23a1.54,1.54,0,0,1-.52-.09.29.29,0,0,0-.1,0,1.59,1.59,0,0,1-.62-.35l-.17-.14a1.66,1.66,0,0,1-.44-.58,1.76,1.76,0,0,1-.17-.55,1,1,0,0,1,0-.52,1.23,1.23,0,0,1,.08-.33A1.87,1.87,0,0,1,623,267a1.19,1.19,0,0,1,.15-.18l.18-.16a1.51,1.51,0,0,1,.39-.27l.27-.13a2.16,2.16,0,0,1,.67-.14h.23a2.38,2.38,0,0,1,.53,0,1.32,1.32,0,0,1,.38.13c.08,0,.17.07.25.12a2.16,2.16,0,0,1,.61.51,1.72,1.72,0,0,1,.33.59,1.21,1.21,0,0,1,0,.18.28.28,0,0,0,0,.09,1.15,1.15,0,0,1,0,.45.94.94,0,0,1-.06.29,1.89,1.89,0,0,1-.32.67l-.13.15a1.06,1.06,0,0,0-.15.15,1.91,1.91,0,0,1-.53.36,2,2,0,0,1-.6.2c-.13,0-.27,0-.41,0Z"/><path class="cls-7" d="M626,282a1.82,1.82,0,0,1-.74-.09,2,2,0,0,1-.83-.44,2,2,0,0,1-.29-.29,2,2,0,0,1-.36-.7,2.36,2.36,0,0,1,0-.7A2.09,2.09,0,0,1,624,279a1.85,1.85,0,0,1,.34-.4,2.25,2.25,0,0,1,1-.48,1.91,1.91,0,0,1,.33-.06c.09,0,.18,0,.28,0a2.42,2.42,0,0,1,.25,0,2.19,2.19,0,0,1,.5.09,4.46,4.46,0,0,1,.5.22h0a2.6,2.6,0,0,1,.49.44,1.48,1.48,0,0,1,.37.64.75.75,0,0,1,.06.29.45.45,0,0,0,0,.23.27.27,0,0,1,0,.09.61.61,0,0,0,0,.13,1.62,1.62,0,0,1-.2.68,1.71,1.71,0,0,1-.44.56,2,2,0,0,1-.63.39l-.34.12A1.66,1.66,0,0,1,626,282Z"/><path class="cls-7" d="M616.37,280.61a.66.66,0,0,0,0,.14,1.5,1.5,0,0,1-.18.71,1.89,1.89,0,0,1-.48.62,1.92,1.92,0,0,1-.47.31,2.14,2.14,0,0,1-.57.2,1,1,0,0,1-.25,0h-.38a1.92,1.92,0,0,1-.79-.16,2.1,2.1,0,0,1-.69-.42,2.15,2.15,0,0,1-.48-.65,3.59,3.59,0,0,1-.12-.35.37.37,0,0,1,0-.11c0-.11,0-.23,0-.34a1.24,1.24,0,0,1,.06-.43,1.75,1.75,0,0,1,.39-.72,1,1,0,0,1,.23-.24,3.2,3.2,0,0,1,.45-.3,3.31,3.31,0,0,1,.53-.18,1.54,1.54,0,0,1,.43-.06h.18a2,2,0,0,1,.55.07,2.5,2.5,0,0,1,.8.35,1.4,1.4,0,0,1,.33.31,2.69,2.69,0,0,1,.2.27,1.94,1.94,0,0,1,.25.57s0,.07,0,.11v.25Z"/><path class="cls-7" d="M619.36,276.39h-.18a1.86,1.86,0,0,1-.33,0c-.1,0-.19,0-.29-.06a2.67,2.67,0,0,1-.75-.39.61.61,0,0,1-.15-.13,4.19,4.19,0,0,1-.26-.33,1.63,1.63,0,0,1-.26-.61,1.62,1.62,0,0,1,0-.62,1.1,1.1,0,0,1,.06-.26,1.77,1.77,0,0,1,.59-.93,1.5,1.5,0,0,1,.37-.28,2.43,2.43,0,0,1,.6-.24,1.41,1.41,0,0,1,.45-.07h.26a1.84,1.84,0,0,1,.74.14,2.19,2.19,0,0,1,.81.51,1.55,1.55,0,0,1,.32.44l.12.25a.74.74,0,0,1,.09.33.45.45,0,0,0,0,.11.43.43,0,0,1,0,.25,1,1,0,0,0,0,.25l0,.13a1.12,1.12,0,0,0-.05.13,1.56,1.56,0,0,1-.33.62,2.07,2.07,0,0,1-.62.51,2.71,2.71,0,0,1-.69.25l-.17,0Z"/><path class="cls-7" d="M616.41,262.68v-.24a1.06,1.06,0,0,1,.1-.46l0-.09a1.4,1.4,0,0,1,.38-.56l.18-.17a1.92,1.92,0,0,1,.68-.39,5.13,5.13,0,0,1,.8-.16,1.88,1.88,0,0,1,.53.06,2,2,0,0,1,.59.2,1.61,1.61,0,0,1,.28.17,2.32,2.32,0,0,1,.59.62,2.94,2.94,0,0,1,.24.62.28.28,0,0,1,0,.09v.16a1.66,1.66,0,0,1-.1.7,1.54,1.54,0,0,1-.23.44,2.14,2.14,0,0,1-.58.54,2.58,2.58,0,0,1-.58.28.78.78,0,0,1-.3.07H619a1.29,1.29,0,0,1-.48,0,2,2,0,0,1-.35,0,2.85,2.85,0,0,1-.75-.29l-.16-.11-.29-.26a1.23,1.23,0,0,1-.35-.47s0,0,0-.05A1.38,1.38,0,0,1,616.41,262.68Z"/><path class="cls-7" d="M603.59,257.6v0a1.72,1.72,0,0,1-.17.8,1.53,1.53,0,0,1-.19.3,3.47,3.47,0,0,1-.25.29,1.66,1.66,0,0,1-.3.22,2.37,2.37,0,0,1-.69.3,2.74,2.74,0,0,1-.5.07,3.13,3.13,0,0,1-.61,0,.9.9,0,0,1-.22-.06l-.41-.17a1.27,1.27,0,0,1-.33-.22l-.2-.18a1.53,1.53,0,0,1-.4-.55c-.05-.12-.08-.25-.12-.37a.34.34,0,0,1,0-.14c0-.11,0-.23,0-.34a1.4,1.4,0,0,1,.16-.69c0-.09.09-.18.15-.27a2.33,2.33,0,0,1,.74-.65,3.51,3.51,0,0,1,.64-.24l.1,0a.84.84,0,0,0,.27,0,.45.45,0,0,1,.23,0l.26,0h.12a3.06,3.06,0,0,1,.84.33,1.69,1.69,0,0,1,.25.2,1.85,1.85,0,0,1,.61.93c0,.05,0,.09,0,.13v.32Z"/><path class="cls-7" d="M609.65,263.29v.17a1.38,1.38,0,0,1-.14.66,2,2,0,0,1-.28.46c-.08.1-.18.17-.26.26a1.44,1.44,0,0,1-.32.23,2.15,2.15,0,0,1-.83.28l-.13,0a1.06,1.06,0,0,1-.5,0l-.23,0a1.88,1.88,0,0,1-.46-.14,2.22,2.22,0,0,1-.43-.23,1.93,1.93,0,0,1-.74-.94,1.32,1.32,0,0,1-.1-.47v-.23a1.4,1.4,0,0,1,.16-.69l.11-.21a1.7,1.7,0,0,1,.27-.33,2.31,2.31,0,0,1,.42-.34,2.53,2.53,0,0,1,.82-.31,2,2,0,0,1,.35,0,3.28,3.28,0,0,1,.63.06,2.66,2.66,0,0,1,.68.26.45.45,0,0,1,.14.1,1.25,1.25,0,0,0,.22.16.1.1,0,0,1,.05,0,2.21,2.21,0,0,1,.46.68A1.44,1.44,0,0,1,609.65,263.29Z"/><path class="cls-7" d="M624.2,254.5h.11a1.69,1.69,0,0,1,.55.06,2,2,0,0,1,.61.24.71.71,0,0,1,.14.1l.26.22a1.27,1.27,0,0,1,.32.38l.06.1a1.3,1.3,0,0,1,.17.45,1.43,1.43,0,0,1,.06.34,1.87,1.87,0,0,1-.39,1.19.69.69,0,0,1-.11.13.46.46,0,0,1-.07.07,1.58,1.58,0,0,1-.75.5,1.71,1.71,0,0,1-.74.17h-.26a1.77,1.77,0,0,1-.79-.15,2.21,2.21,0,0,1-.27-.12,1.93,1.93,0,0,1-.64-.52,1.47,1.47,0,0,0-.1-.13,1.71,1.71,0,0,1-.29-.7s0-.08,0-.12a.77.77,0,0,1,0-.45,1.18,1.18,0,0,0,0-.2,1.19,1.19,0,0,1,.15-.41,1.5,1.5,0,0,1,.33-.46l.16-.15a1.08,1.08,0,0,1,.24-.18,2.81,2.81,0,0,1,.86-.34h.38Z"/><path class="cls-1" d="M509.76,396.3c-7.23-3.37-14.37-6.94-21.5-10.5a36.21,36.21,0,0,0-7.94-1.88c5.81-6.62,15.07-13.42,22.08-18.62,3.37-2.5,7.1-4.41,10.38-7,2.2-1.77,2.32-4.57,4.54-6.34.61.89,4.27,3,6.39,3.69A50.66,50.66,0,0,1,543.29,368c11.58,11.53,11.07,24.76,5.76,38.87a90.16,90.16,0,0,1-17.12,29.05h6.91c1.95,0,3.9-.05,5.85,0,6.24.2,10.66,4.22,10.93,9.87A9.78,9.78,0,0,1,546,456.28c-12.45.48-24.94.66-37.37,0-7.87-.4-12.27-9.83-7.43-15.63,3.22-3.87,3.83-7.84,4.09-12.26a73.33,73.33,0,0,1,6.5-27.05C513.19,398.41,512.27,397.47,509.76,396.3Z"/><circle class="cls-8" cx="426.9" cy="167.5" r="43.03"/><path class="cls-8" d="M461.16,93c7-3.5,13.92-7.11,20.56-11.26,4.45-2.78,8.93-5.6,11.77-10.19.92-1.48,1.41-1.24,2.4-.22,2.46,2.55,3.12,5.7,3.14,9.19,7.06-4.31,11.23-10.25,12-18.44.06-.65-.14-1.74.67-1.88.54-.09,1.33.53,1.83,1,3.15,3,4.23,7,4.78,11.09a45.87,45.87,0,0,1,.21,9.13c4.65-2.57,8-5.84,10-10.49a58.57,58.57,0,0,0,2.67-9.28,25.86,25.86,0,0,1,1.91-6.1c5.65,6.23,10.13,12.79,10.26,21.44.1,6.64-2.44,12.44-5.84,17.91-.9,1.45-.7,2,.64,2.95-1.73,3.2-3.33,6.34-4.71,9.5-.55-.15-1.09.1-1.78.9a27.1,27.1,0,0,1-9,6.4c-8.93,4.28-18.53,5.87-28.28,6.38a138.34,138.34,0,0,1-48.57-6.34,3.11,3.11,0,0,0-.9-.16c-1.33-2-2.72-4-4.13-5.94A66.65,66.65,0,0,1,461.16,93Z"/><path class="cls-8" d="M446.66,258.27c13.76-22.64,34.9-36.32,56.26-33.83,33.85,3.94,56.68,46.75,51,95.62s-37.75,85.3-71.61,81.35c-19.27-2.24-35-17.1-43.85-38.5a32.94,32.94,0,0,1-2-10.64c.16-61.27,5.94-87.64,10.24-94"/><path class="cls-8" d="M425.41,207.79a7.73,7.73,0,0,1,6.13,5.65,7.88,7.88,0,0,1,1.14,1.65c3.07,5.89,4.94,12.38,9.33,17.48,3.77,4.4,8.39,7.51,13.32,10.46a4.75,4.75,0,0,1,1.88,1.59c2.62,1.76,3.05,9.24,2.12,12,17.38,10.12,38.26,10.23,58.91,6,46.84-9.53,76.55-57.84,66.37-107.9s-56.4-82.93-103.24-73.4S404.81,139.2,415,189.26a99.29,99.29,0,0,0,5,16.83"/><ellipse class="cls-9" cx="532.84" cy="307.21" rx="18.43" ry="55.95"/><path class="cls-8" d="M616.35,293.39c.28-.15.56-.29.85-.42l.22-.1c16.81-7.77,7.13-33.31-10.61-28-1.13.33-2.3.75-3.54,1.25a14.16,14.16,0,0,1-1.55.53c-3.68,1-31.07,2.19-41.17,2.59a15.82,15.82,0,0,1-6-.93c-9.59-3.47-46.1-13.12-45.35-8.24h0a41.9,41.9,0,0,1-.33,4.24c-.7,5.79,2.59,10.62,6.85,14.61,9.12,8.55,25,25.9,48.22,24.49C581,304.64,598.39,299,616.35,293.39Z"/><ellipse class="cls-9" cx="526.16" cy="161.65" rx="33.64" ry="42.5"/><ellipse class="cls-9" cx="551.45" cy="161.25" rx="32.68" ry="43.63"/><ellipse class="cls-9" cx="539.54" cy="200.9" rx="29.99" ry="37.42"/><ellipse class="cls-9" cx="416.5" cy="170.54" rx="17.66" ry="28.69"/><circle class="cls-10" cx="567.11" cy="163.33" r="14.59"/><circle cx="568.32" cy="164.55" r="12.16"/><ellipse class="cls-10" cx="572.58" cy="162.12" rx="3.04" ry="6.08"/><ellipse class="cls-10" cx="567.11" cy="170.02" rx="3.65" ry="1.82"/><circle class="cls-10" cx="533.06" cy="164.96" r="16.21"/><circle cx="534.41" cy="166.31" r="13.51"/><ellipse class="cls-10" cx="539.14" cy="163.6" rx="3.38" ry="6.76"/><ellipse class="cls-10" cx="533.06" cy="172.39" rx="4.05" ry="2.03"/><path class="cls-11" d="M563.07,203.69c-13.69.43-27.89,1.3-33-5.42"/><path class="cls-8" d="M471.59,395.67c-7.23-3.37-10.89-12.43-18-16-1.46-.73-3.85-6.34-5.37-6.45,5.82-6.62,9-3.36,16-8.55,3.37-2.51,7.1-4.41,10.38-7.05,2.2-1.76,2.32-4.56,4.54-6.34.61.89,4.27,3,6.39,3.69a50.66,50.66,0,0,1,19.58,12.39c11.58,11.54,11.07,24.77,5.76,38.87a90.16,90.16,0,0,1-17.12,29.05h6.92c1.94,0,3.89,0,5.84,0,6.24.2,10.66,4.22,10.93,9.87a9.79,9.79,0,0,1-9.61,10.48c-12.45.47-24.94.66-37.37,0-7.87-.41-12.27-9.84-7.43-15.64,3.22-3.86,3.83-7.83,4.09-12.26a73.33,73.33,0,0,1,6.5-27C475,397.78,474.1,396.84,471.59,395.67Z"/></g><g id="Layer_13" data-name="Layer 13"><circle class="cls-8" cx="780.24" cy="140.97" r="38.99"/><circle class="cls-9" cx="780.42" cy="141.44" r="26"/><circle class="cls-8" cx="955.7" cy="140.97" r="38.99"/><circle class="cls-9" cx="958.42" cy="141.44" r="26"/><circle class="cls-8" cx="867.97" cy="145.84" r="92.61"/><path class="cls-8" d="M866,53.24c-.58,7.84,2.13.88,2.38.25,0,0,0-.13,0-.09"/><path class="cls-8" d="M819.35,221.5a13.65,13.65,0,0,0-14.45,1.89c-9.18,7.7-24.33,21.93-31.2,37.1-.73,1.59-1.21,3.28-1.93,4.87-2.87,6.37-9.92,24.28-6.94,41.05,0,.28.09.56.12.85a.78.78,0,0,1,0,.16c2.07,16.67,26.83,15.36,27.12-1.43a32.75,32.75,0,0,0-.11-3.37,13,13,0,0,1,0-1.53c.14-4.25,1.34-23.47,11.76-37.58a13,13,0,0,0,1.92-3.78c2.4-7.5,10.56-31.73,17.3-36.79h0S821.42,222.44,819.35,221.5Z"/><path class="cls-8" d="M916.23,216.5a13.66,13.66,0,0,1,14.46,1.89c9.18,7.7,24.32,21.93,31.2,37.1.72,1.59,1.21,3.28,1.93,4.87,2.87,6.37,9.92,24.28,6.94,41.05,0,.28-.1.56-.13.85a1,1,0,0,1,0,.16c-2.06,16.67-26.82,15.36-27.12-1.43,0-1.06,0-2.18.11-3.37a13,13,0,0,0,0-1.53c-.13-4.25-1.34-23.47-11.76-37.58a12.7,12.7,0,0,1-1.91-3.78c-2.4-7.5-10.57-31.73-17.31-36.79h0S914.17,217.44,916.23,216.5Z"/><path class="cls-8" d="M819,375.82c7.23-3.37,14.37-6.94,21.5-10.5a36.21,36.21,0,0,1,7.94-1.88c-5.81-6.62-15.07-13.42-22.07-18.62-3.38-2.5-7.11-4.41-10.39-7-2.2-1.77-2.32-4.57-4.54-6.34-.6.89-4.27,3-6.39,3.69a50.55,50.55,0,0,0-19.58,12.39c-11.58,11.53-11.07,24.76-5.76,38.87a90.16,90.16,0,0,0,17.12,29.05H789.9c-1.95,0-3.9-.05-5.85,0-6.23.2-10.66,4.22-10.93,9.87a9.78,9.78,0,0,0,9.62,10.47c12.44.48,24.94.66,37.36,0,7.87-.4,12.27-9.84,7.43-15.64-3.22-3.86-3.83-7.83-4.09-12.25a73.33,73.33,0,0,0-6.5-27.05C815.55,377.93,816.47,377,819,375.82Z"/><path class="cls-8" d="M913.05,375.82c-7.23-3.37-14.36-6.94-21.5-10.5a29.59,29.59,0,0,0-7.13-1.88c5.82-6.62,14.27-13.42,21.27-18.62,3.37-2.5,7.1-4.41,10.38-7,2.21-1.77,2.14-3.57,4.35-5.34.61.89,4.46,2,6.58,2.69a50.55,50.55,0,0,1,19.58,12.39c11.58,11.53,11.07,24.76,5.77,38.87a90.19,90.19,0,0,1-17.13,29.05h6.92c2,0,3.9-.05,5.84,0,6.24.2,10.66,4.22,10.93,9.87a9.77,9.77,0,0,1-9.61,10.47c-12.44.48-24.94.66-37.37,0-7.87-.4-12.27-9.84-7.43-15.64,3.22-3.86,3.84-7.83,4.1-12.25a73.13,73.13,0,0,1,6.5-27.05C916.48,377.93,915.56,377,913.05,375.82Z"/><ellipse class="cls-8" cx="865.42" cy="280.94" rx="70" ry="86.5"/><ellipse class="cls-9" cx="873.42" cy="286.6" rx="46" ry="56.84"/><path class="cls-12" d="M872.81,301.06s-8,1.33-5,3.11a14.6,14.6,0,0,0,2.7,1.27,8.83,8.83,0,0,0,3.75.34l1-.11a4.08,4.08,0,0,0,2.2-.79l.7-.61c.4-.36.34-.8-.19-1.13a4.51,4.51,0,0,0-3.2-.75c-2,.44-4,.44-4,1.33s3,.89,3,.89"/><circle class="cls-9" cx="911.42" cy="130.44" r="40"/><circle class="cls-9" cx="879.42" cy="175.79" r="47"/><path class="cls-8" d="M893,58.11c-6.84-1.79-13.68-3.68-20.34-6.11-4.46-1.63-9-3.29-12.35-6.82-1.1-1.14-1.49-.83-2.17.26-1.7,2.72-1.7,5.64-1.06,8.73-7.07-2.49-11.88-7-14.08-14.09-.17-.57-.2-1.57-.94-1.54-.5,0-1.08.71-1.43,1.23-2.23,3.27-2.44,7-2.15,10.73A41.17,41.17,0,0,0,840,58.64c-4.61-1.41-8.22-3.67-10.81-7.42A53,53,0,0,1,825,43.49a23.69,23.69,0,0,0-2.85-5.05c-3.84,6.59-6.57,13.25-5.06,20.94,1.16,5.9,4.5,10.56,8.55,14.77,1.07,1.12,1,1.68,0,2.74,2.14,2.51,4.14,5,6,7.54.46-.24,1-.12,1.76.46a24.37,24.37,0,0,0,9.18,4c8.72,2.12,17.53,1.72,26.27.35A125.61,125.61,0,0,0,910.7,74.45a2.64,2.64,0,0,1,.76-.31c.8-2,1.66-4,2.54-6A60.74,60.74,0,0,0,893,58.11Z"/><circle class="cls-9" cx="851.42" cy="130.44" r="40"/><path class="cls-13" d="M895.85,181.64l.15.4Z"/><path class="cls-14" d="M870.47,188.77l.38.37Z"/><line class="cls-15" x1="867.91" y1="181.75" x2="892.82" y2="181.4"/><circle class="cls-10" cx="896.4" cy="132.97" r="14.59"/><circle cx="897.62" cy="134.19" r="12.16"/><ellipse class="cls-10" cx="901.87" cy="131.76" rx="3.04" ry="6.08"/><ellipse class="cls-10" cx="896.4" cy="139.66" rx="3.65" ry="1.82"/><circle class="cls-10" cx="862.36" cy="134.59" r="16.21"/><circle cx="863.71" cy="135.95" r="13.51"/><ellipse class="cls-10" cx="868.44" cy="133.24" rx="3.38" ry="6.76"/><ellipse class="cls-10" cx="862.36" cy="142.03" rx="4.05" ry="2.03"/><ellipse class="cls-9" cx="861.36" cy="134.41" rx="51.22" ry="46.29"/><ellipse class="cls-9" cx="899.87" cy="133.98" rx="49.76" ry="47.53"/><ellipse class="cls-9" cx="881.74" cy="177.17" rx="45.67" ry="40.76"/><path class="cls-16" d="M843.73,136.53s18.28-10.9,32-2.18"/><path class="cls-16" d="M897,134.35s18.27-10.9,32-2.18"/><path class="cls-17" d="M889.42,167.33h13.07c.47,0,.68.06.8.43a15.75,15.75,0,0,1-1,12,14.89,14.89,0,0,1-5.93,6.24,14.3,14.3,0,0,1-13.92-.06A15.66,15.66,0,0,1,875,169.75c.13-.69.34-1.37.5-2.06,0-.19.17-.25.45-.25l8.34,0h5.09Zm-9,14.28a.29.29,0,0,1,.2.15,6.36,6.36,0,0,0,1.87,1.73,13.12,13.12,0,0,0,9.91,1.62,11.34,11.34,0,0,0,4-1.65,8.8,8.8,0,0,0,2-1.84.42.42,0,0,0,.43-.18c.41-.65.84-1.3,1.26-1.95a8.37,8.37,0,0,0,1-2.28,7.77,7.77,0,0,0,.44-2.45,1,1,0,0,1,0-.48c.27-.61.51-1.21-.2-1.76,0,0,0-.06,0-.08.23-.38-.11-.75,0-1.14.11-.68-.46-1.28-.52-2,0-.17-.31-.28-.62-.28-.59,0-1.18,0-1.76,0a1.06,1.06,0,0,0-.82.2c-.09.08-.36.28-.55.11-.48-.43-1.17-.28-1.73-.29-2.09,0-4.18,0-6.27.12-3.41.12-6.84,0-10.26,0-.49,0-.75.09-.87.48a6.65,6.65,0,0,1-.55,1.51c-.26.44.11.81-.09,1.19l.17,0h0a.91.91,0,0,0-.25.52,10.8,10.8,0,0,0,.68,4.78,11.11,11.11,0,0,1,1,2.14c.12.56.86.9,1,1.46A.44.44,0,0,0,880.43,181.61Z"/><path class="cls-18" d="M877.47,172.47l-.17,0c.2-.38-.17-.75.09-1.19a6.65,6.65,0,0,0,.55-1.51c.12-.39.38-.48.87-.48,3.42,0,6.85.09,10.26,0,2.09-.08,4.18-.16,6.27-.12.56,0,1.25-.14,1.73.29.19.17.46,0,.55-.11a1.06,1.06,0,0,1,.82-.2c.58,0,1.17,0,1.76,0,.31,0,.6.11.62.28.06.67.63,1.27.52,2-.07.39.27.76,0,1.14,0,0,0,.06,0,.08.71.55.47,1.15.2,1.76a1,1,0,0,0,0,.48,7.77,7.77,0,0,1-.44,2.45,8.37,8.37,0,0,1-1,2.28c-.42.65-.85,1.3-1.26,1.95a.42.42,0,0,1-.43.18,5.07,5.07,0,0,0,1-3.61c-.13-1-.63-1.64-2.32-1.6a30.89,30.89,0,0,0-4.21.57,24.25,24.25,0,0,1-8.11-.15,17.59,17.59,0,0,0-3.18-.34c-1.15,0-1.68.32-2,1.11a3.83,3.83,0,0,0,0,2.07,15.15,15.15,0,0,0,.84,1.94.44.44,0,0,1-.46-.23c-.16-.56-.9-.9-1-1.46a11.11,11.11,0,0,0-1-2.14,10.8,10.8,0,0,1-.68-4.78.91.91,0,0,1,.25-.52l0,0Z"/><path class="cls-19" d="M880.43,181.61a15.15,15.15,0,0,1-.84-1.94,3.83,3.83,0,0,1,0-2.07c.28-.79.81-1.1,2-1.11a17.59,17.59,0,0,1,3.18.34,24.25,24.25,0,0,0,8.11.15,30.89,30.89,0,0,1,4.21-.57c1.69,0,2.19.56,2.32,1.6a5.07,5.07,0,0,1-1,3.61,8.8,8.8,0,0,1-2,1.84,11.34,11.34,0,0,1-4,1.65,13.12,13.12,0,0,1-9.91-1.62,6.36,6.36,0,0,1-1.87-1.73A.29.29,0,0,0,880.43,181.61Z"/></g></g></svg>
