<svg xmlns="http://www.w3.org/2000/svg" width="1400" height="500" viewBox="0 0 1400 500"><defs><style>.cls-1{fill:#291706;}.cls-2{fill:#8b6448;}.cls-3,.cls-6,.cls-7{fill:none;stroke:#291706;stroke-miterlimit:10;}.cls-3{stroke-width:0.67px;}.cls-4{fill:#b45948;}.cls-5{fill:#bc2025;}.cls-7{stroke-width:3px;}.cls-8{fill:#fff;}.cls-9{fill:#690e0d;}.cls-10{fill:#a87061;}.cls-11{fill:#431312;}.cls-12{fill:#d51f36;}.cls-13{fill:#f7eade;}.cls-14{fill:#531119;}.cls-15{fill:#f3f2f2;}.cls-16{fill:#b3b0af;}.cls-17{fill:#12100f;}.cls-18{fill:#f9d6bf;}.cls-19{fill:#f5f4e9;}.cls-20{fill:#f6d5be;}.cls-21{fill:#f2d2bc;}.cls-22{fill:#e8e7dc;}.cls-23{fill:#39332f;}.cls-24{fill:#1e1b18;}.cls-25{fill:#f1f1e7;}.cls-26{fill:#efcfb9;}.cls-27{fill:#eeceb8;}.cls-28{fill:#fbddc9;}.cls-29{fill:#52463c;}.cls-30{fill:#e2b82d;}.cls-31{fill:#fdfdfd;}.cls-32{fill:#13100e;}.cls-33{fill:#fcfcfc;}.cls-34{fill:#1b1611;}.cls-35{fill:#f0e4d9;}.cls-36{fill:#2b2927;}.cls-37{fill:#aa9590;}.cls-38{fill:#57555d;}.cls-39{fill:#110f0e;}.cls-40{fill:#fbfbfb;}.cls-41{fill:#fadccb;}.cls-42{fill:#f6ddd1;}</style></defs><title>abespriteudenfarver</title><g id="grinerhånligt"><circle class="cls-1" cx="430.29" cy="137.35" r="38.99"/><circle class="cls-2" cx="430.47" cy="137.82" r="26"/><circle class="cls-1" cx="605.75" cy="137.35" r="38.99"/><circle class="cls-2" cx="608.47" cy="137.82" r="26"/><circle class="cls-1" cx="518.02" cy="142.22" r="92.61"/><path class="cls-1" d="M516.07,49.61c-.57,7.84,2.14.89,2.38.25a.32.32,0,0,0,0-.09"/><path class="cls-1" d="M469.4,217.87a13.68,13.68,0,0,0-14.46,1.89c-9.18,7.7-24.32,21.94-31.2,37.1-.72,1.59-1.2,3.28-1.92,4.88-2.88,6.37-9.92,24.28-6.95,41.05.05.28.1.56.13.84,0,.05,0,.11,0,.17,2.07,16.67,26.83,15.36,27.12-1.44,0-1.05,0-2.17-.11-3.36a13.2,13.2,0,0,1,0-1.54c.14-4.25,1.34-23.46,11.76-37.57a13.15,13.15,0,0,0,1.92-3.79c2.4-7.49,10.56-31.73,17.3-36.78h0S471.47,218.81,469.4,217.87Z"/><path class="cls-1" d="M566.28,212.87a13.68,13.68,0,0,1,14.46,1.89c9.18,7.7,24.32,21.94,31.2,37.1.72,1.59,1.2,3.28,1.92,4.88,2.88,6.37,9.92,24.28,6.95,41.05,0,.28-.1.56-.13.84,0,.05,0,.11,0,.17-2.07,16.67-26.83,15.36-27.12-1.44,0-1.05,0-2.17.11-3.36a13.2,13.2,0,0,0,0-1.54c-.14-4.25-1.34-23.46-11.76-37.57A13.15,13.15,0,0,1,580,251.1c-2.4-7.49-10.56-31.73-17.3-36.78h0S564.21,213.81,566.28,212.87Z"/><path class="cls-1" d="M469,372.19c7.23-3.37,14.37-6.93,21.5-10.5a35.49,35.49,0,0,1,7.94-1.87c-5.81-6.62-15.08-13.43-22.08-18.62-3.37-2.5-7.1-4.41-10.38-7-2.21-1.77-2.32-4.57-4.54-6.34-.61.88-4.27,3-6.39,3.68a50.66,50.66,0,0,0-19.58,12.39c-11.58,11.54-11.07,24.77-5.76,38.87a90.13,90.13,0,0,0,17.12,29.06h-6.92c-1.94,0-3.89-.05-5.84,0-6.24.21-10.66,4.22-10.93,9.87a9.78,9.78,0,0,0,9.61,10.48c12.45.47,24.94.66,37.37,0,7.87-.41,12.27-9.84,7.43-15.64-3.22-3.86-3.83-7.83-4.1-12.26a73.07,73.07,0,0,0-6.49-27C465.6,374.3,466.52,373.36,469,372.19Z"/><path class="cls-1" d="M563.1,372.19c-7.23-3.37-14.37-6.93-21.5-10.5a29.11,29.11,0,0,0-7.13-1.87c5.81-6.62,14.27-13.43,21.27-18.62,3.37-2.5,7.1-4.41,10.38-7,2.21-1.77,2.13-3.57,4.35-5.34.61.88,4.46,2,6.58,2.68a50.66,50.66,0,0,1,19.58,12.39c11.58,11.54,11.07,24.77,5.76,38.87a90.13,90.13,0,0,1-17.12,29.06h6.92c1.95,0,3.89-.05,5.84,0,6.24.21,10.66,4.22,10.93,9.87a9.78,9.78,0,0,1-9.61,10.48c-12.45.47-24.94.66-37.37,0-7.87-.41-12.27-9.84-7.43-15.64,3.22-3.86,3.84-7.83,4.1-12.26a73.07,73.07,0,0,1,6.49-27C566.53,374.3,565.61,373.36,563.1,372.19Z"/><ellipse class="cls-1" cx="515.47" cy="277.32" rx="70" ry="86.5"/><ellipse class="cls-2" cx="523.47" cy="282.97" rx="46" ry="56.84"/><path class="cls-3" d="M522.86,297.43s-8,1.33-5,3.11a15.72,15.72,0,0,0,2.69,1.28,9.06,9.06,0,0,0,3.76.34l1-.12a4.08,4.08,0,0,0,2.2-.78l.69-.62c.41-.36.35-.79-.18-1.12a4.53,4.53,0,0,0-3.2-.76c-2,.45-4,.45-4,1.34s3,.89,3,.89"/><circle class="cls-2" cx="561.47" cy="126.82" r="40"/><circle class="cls-2" cx="529.47" cy="172.17" r="47"/><path class="cls-1" d="M543,54.49c-6.84-1.8-13.68-3.68-20.34-6.11-4.47-1.64-9-3.29-12.36-6.83-1.09-1.14-1.48-.83-2.16.26-1.7,2.72-1.7,5.64-1.06,8.74-7.07-2.5-11.88-7-14.08-14.09-.18-.57-.2-1.57-.95-1.55-.49,0-1.07.72-1.43,1.24-2.22,3.26-2.44,7-2.15,10.73A41.22,41.22,0,0,0,490,55c-4.61-1.41-8.23-3.67-10.82-7.43a54.45,54.45,0,0,1-4.11-7.73,23.38,23.38,0,0,0-2.84-5c-3.84,6.58-6.57,13.24-5.06,20.93,1.16,5.9,4.5,10.57,8.54,14.78,1.07,1.11,1,1.67,0,2.73,2.13,2.52,4.14,5,6,7.54.46-.23,1-.12,1.75.46a24.51,24.51,0,0,0,9.19,4c8.72,2.12,17.53,1.72,26.27.34a125.24,125.24,0,0,0,41.86-14.75,2.87,2.87,0,0,1,.77-.32c.8-2,1.66-4,2.54-6A60.56,60.56,0,0,0,543,54.49Z"/><circle class="cls-2" cx="501.47" cy="126.82" r="40"/><path class="cls-4" d="M545.9,178l.15.4Z"/><path class="cls-5" d="M520.52,185.14l.38.38Z"/><line class="cls-6" x1="517.96" y1="178.12" x2="542.87" y2="177.77"/><path class="cls-7" d="M537.6,136.35s10.22-10.22,23.11,0"/><path class="cls-7" d="M500,137.52s10.22-10.22,23.11,0"/><g id="Layer_5" data-name="Layer 5"><circle class="cls-1" cx="1130.31" cy="137.04" r="38.99"/><circle class="cls-2" cx="1130.49" cy="137.51" r="26"/><circle class="cls-1" cx="1305.77" cy="137.04" r="38.99"/><circle class="cls-2" cx="1308.49" cy="137.51" r="26"/><circle class="cls-1" cx="1218.04" cy="141.91" r="92.61"/><path class="cls-1" d="M1216.09,49.3c-.57,7.84,2.14.89,2.38.25a.32.32,0,0,0,0-.09"/><path class="cls-1" d="M1169.42,217.56a13.68,13.68,0,0,0-14.46,1.89c-9.18,7.7-24.32,21.94-31.2,37.1-.72,1.59-1.2,3.28-1.92,4.88-2.88,6.37-9.92,24.28-6.95,41,0,.29.1.57.13.85,0,.05,0,.11,0,.17,2.07,16.67,26.83,15.36,27.12-1.44,0-1.05,0-2.17-.11-3.36a13.2,13.2,0,0,1,0-1.54c.14-4.25,1.34-23.46,11.76-37.57a13.15,13.15,0,0,0,1.92-3.79c2.4-7.49,10.56-31.73,17.3-36.78h0S1171.49,218.5,1169.42,217.56Z"/><path class="cls-1" d="M1266.3,212.56a13.68,13.68,0,0,1,14.46,1.89c9.18,7.7,24.32,21.94,31.2,37.1.72,1.59,1.2,3.28,1.92,4.88,2.88,6.37,9.92,24.28,6.95,41,0,.29-.1.57-.13.85,0,.05,0,.11,0,.17-2.07,16.67-26.83,15.36-27.12-1.44,0-1.05,0-2.17.11-3.36a13.2,13.2,0,0,0,0-1.54c-.14-4.25-1.34-23.46-11.76-37.57a13.15,13.15,0,0,1-1.92-3.79c-2.4-7.49-10.56-31.73-17.3-36.78h0S1264.23,213.5,1266.3,212.56Z"/><path class="cls-1" d="M1169.05,371.88c7.23-3.37,14.37-6.93,21.5-10.5a35.49,35.49,0,0,1,7.94-1.87c-5.81-6.62-15.08-13.43-22.08-18.62-3.37-2.5-7.1-4.41-10.38-7-2.21-1.77-2.32-4.57-4.54-6.34-.61.88-4.27,3-6.39,3.68a50.66,50.66,0,0,0-19.58,12.39c-11.58,11.54-11.07,24.77-5.76,38.87a90.13,90.13,0,0,0,17.12,29.06H1140c-1.94,0-3.89-.05-5.84,0-6.24.21-10.66,4.22-10.93,9.87a9.78,9.78,0,0,0,9.61,10.48c12.45.47,24.94.66,37.37,0,7.87-.41,12.27-9.84,7.43-15.64-3.22-3.86-3.83-7.83-4.1-12.26a73.12,73.12,0,0,0-6.49-27.05C1165.62,374,1166.54,373.05,1169.05,371.88Z"/><path class="cls-1" d="M1263.12,371.88c-7.23-3.37-14.37-6.93-21.5-10.5a29.11,29.11,0,0,0-7.13-1.87c5.81-6.62,14.27-13.43,21.27-18.62,3.37-2.5,7.1-4.41,10.38-7,2.21-1.77,2.13-3.57,4.35-5.34.61.88,4.46,2,6.58,2.68a50.66,50.66,0,0,1,19.58,12.39c11.58,11.54,11.07,24.77,5.76,38.87a90.13,90.13,0,0,1-17.12,29.06h6.92c2,0,3.89-.05,5.84,0,6.24.21,10.66,4.22,10.93,9.87a9.78,9.78,0,0,1-9.61,10.48c-12.45.47-24.94.66-37.37,0-7.87-.41-12.27-9.84-7.43-15.64,3.22-3.86,3.84-7.83,4.1-12.26a73.12,73.12,0,0,1,6.49-27.05C1266.55,374,1265.63,373.05,1263.12,371.88Z"/><ellipse class="cls-1" cx="1215.49" cy="277.01" rx="70" ry="86.5"/><ellipse class="cls-2" cx="1223.49" cy="282.66" rx="46" ry="56.84"/><path class="cls-3" d="M1222.88,297.12s-8,1.33-5,3.11a15.72,15.72,0,0,0,2.69,1.28,9.06,9.06,0,0,0,3.76.34l1-.12a4.08,4.08,0,0,0,2.2-.78l.69-.62c.41-.36.35-.79-.18-1.12a4.48,4.48,0,0,0-3.2-.76c-2,.45-4,.45-4,1.34s3,.89,3,.89"/><circle class="cls-2" cx="1261.49" cy="126.51" r="40"/><circle class="cls-2" cx="1229.49" cy="171.85" r="47"/><path class="cls-1" d="M1243,54.17c-6.84-1.79-13.68-3.67-20.34-6.1-4.47-1.64-9-3.29-12.36-6.83-1.09-1.14-1.48-.83-2.16.26-1.7,2.72-1.7,5.64-1.06,8.74-7.07-2.5-11.88-7-14.08-14.09-.18-.58-.2-1.57-1-1.55-.49,0-1.07.72-1.43,1.24-2.22,3.26-2.44,6.95-2.15,10.73A41,41,0,0,0,1190,54.7c-4.61-1.4-8.23-3.66-10.82-7.42a54.45,54.45,0,0,1-4.11-7.73,23.15,23.15,0,0,0-2.84-5c-3.84,6.58-6.57,13.24-5.06,20.93,1.16,5.9,4.5,10.57,8.54,14.78,1.07,1.11,1,1.67,0,2.73,2.13,2.52,4.14,5,6,7.54.46-.24,1-.12,1.75.46a24.51,24.51,0,0,0,9.19,4c8.72,2.12,17.53,1.72,26.27.34a125.24,125.24,0,0,0,41.86-14.75,2.87,2.87,0,0,1,.77-.32c.8-2,1.66-4,2.54-6A60.58,60.58,0,0,0,1243,54.17Z"/><circle class="cls-2" cx="1201.49" cy="126.51" r="40"/><path class="cls-4" d="M1245.92,177.7l.15.4Z"/><path class="cls-5" d="M1220.54,184.83l.38.38Z"/><line class="cls-6" x1="1217.98" y1="177.81" x2="1242.89" y2="177.46"/><circle class="cls-8" cx="1246.47" cy="129.04" r="14.59"/><circle cx="1247.69" cy="130.25" r="12.16"/><ellipse class="cls-8" cx="1251.94" cy="127.82" rx="3.04" ry="6.08"/><ellipse class="cls-8" cx="1246.47" cy="135.73" rx="3.65" ry="1.82"/><circle class="cls-8" cx="1212.42" cy="130.66" r="16.21"/><circle cx="1213.77" cy="132.01" r="13.51"/><ellipse class="cls-8" cx="1218.5" cy="129.31" rx="3.38" ry="6.76"/><ellipse class="cls-8" cx="1212.42" cy="138.09" rx="4.05" ry="2.03"/><circle class="cls-1" cx="1130.34" cy="137.13" r="38.99"/><circle class="cls-2" cx="1130.52" cy="137.6" r="26"/><circle class="cls-1" cx="1305.8" cy="137.13" r="38.99"/><circle class="cls-2" cx="1308.52" cy="137.6" r="26"/><circle class="cls-1" cx="1218.07" cy="142" r="92.61"/><path class="cls-1" d="M1216.12,49.39c-.57,7.84,2.14.89,2.38.25a.32.32,0,0,0,0-.09"/><path class="cls-1" d="M1169.08,372c7.23-3.37,14.37-6.93,21.5-10.5a35.49,35.49,0,0,1,7.94-1.87c-5.81-6.62-15.08-13.42-22.08-18.62-3.37-2.5-7.1-4.41-10.38-7-2.21-1.77-2.32-4.57-4.54-6.34-.61.88-4.27,3-6.39,3.68a50.66,50.66,0,0,0-19.58,12.39c-11.58,11.54-11.07,24.77-5.76,38.87a90.13,90.13,0,0,0,17.12,29.06H1140c-2,0-3.89-.05-5.84,0-6.24.21-10.66,4.22-10.93,9.87a9.78,9.78,0,0,0,9.61,10.48c12.45.47,24.94.66,37.37,0,7.87-.41,12.27-9.84,7.43-15.64-3.22-3.86-3.84-7.83-4.1-12.26a73.07,73.07,0,0,0-6.49-27C1165.65,374.08,1166.57,373.14,1169.08,372Z"/><path class="cls-1" d="M1263.15,372c-7.23-3.37-14.37-6.93-21.5-10.5a29.11,29.11,0,0,0-7.13-1.87c5.81-6.62,14.27-13.42,21.27-18.62,3.37-2.5,7.1-4.41,10.38-7,2.21-1.77,2.13-3.57,4.35-5.34.61.88,4.46,2,6.58,2.68a50.66,50.66,0,0,1,19.58,12.39c11.58,11.54,11.07,24.77,5.76,38.87a90.31,90.31,0,0,1-17.12,29.06h6.92c1.94,0,3.89-.05,5.84,0,6.24.21,10.66,4.22,10.93,9.87A9.78,9.78,0,0,1,1299.4,432c-12.45.47-24.94.66-37.37,0-7.87-.41-12.27-9.84-7.43-15.64,3.22-3.86,3.83-7.83,4.1-12.26a73.07,73.07,0,0,1,6.49-27C1266.58,374.08,1265.66,373.14,1263.15,372Z"/><ellipse class="cls-1" cx="1215.52" cy="277.1" rx="70" ry="86.5"/><path class="cls-3" d="M1222.91,297.21s-8,1.33-5,3.11a15.72,15.72,0,0,0,2.69,1.28,9.06,9.06,0,0,0,3.76.34l1-.12a4.08,4.08,0,0,0,2.2-.78l.69-.62c.41-.36.35-.79-.18-1.12a4.53,4.53,0,0,0-3.2-.76c-2,.45-4,.45-4,1.34s3,.89,3,.89"/><circle class="cls-2" cx="1261.52" cy="126.6" r="40"/><circle class="cls-2" cx="1229.52" cy="171.6" r="47"/><path class="cls-1" d="M1243.05,54.27c-6.84-1.8-13.68-3.68-20.34-6.11-4.47-1.63-9-3.29-12.36-6.83-1.09-1.14-1.48-.83-2.16.26-1.7,2.72-1.7,5.64-1.06,8.74-7.07-2.49-11.88-7-14.08-14.09-.18-.57-.2-1.57-1-1.55-.49,0-1.07.72-1.43,1.24-2.22,3.26-2.44,7-2.15,10.73a41.22,41.22,0,0,0,1.54,8.14c-4.61-1.41-8.23-3.67-10.82-7.43a54.45,54.45,0,0,1-4.11-7.73,23.38,23.38,0,0,0-2.84-5c-3.84,6.58-6.57,13.24-5.06,20.93,1.15,5.9,4.5,10.57,8.54,14.78,1.07,1.11,1,1.67,0,2.73,2.13,2.52,4.14,5,6,7.54.46-.23,1-.12,1.75.46a24.51,24.51,0,0,0,9.19,4c8.72,2.12,17.53,1.72,26.27.34a125.24,125.24,0,0,0,41.86-14.75,2.87,2.87,0,0,1,.77-.32c.8-2,1.66-4,2.54-6A60.56,60.56,0,0,0,1243.05,54.27Z"/><circle class="cls-2" cx="1201.52" cy="126.6" r="40"/><path class="cls-9" d="M1246,173.84l-.32-1.47-1.64-5.29"/><path class="cls-9" d="M1244.05,167.08c-.83-2-.78-4.25-1.13-6.38-.08-.51.11-1.32-.8-1.12-.72.15-.32.79-.28,1.25.12,1.6.87,3.25-.33,4.76a.19.19,0,0,1-.17.17c-.9,1.26-1.73.44-2.43-.17a12,12,0,0,1-2.78-4.17c-1-2.12-2.21-2.53-4.54-1.48.68.1.92.62.59,1.07-.6.83-1.15,1.79-2.36,1.93-1.82.2-2.94-.9-3.48-3.46-.84-.55-1.77-.25-2.66-.28.91,1.86,1.92,3.69,2.71,5.6.95,2.3,2.24,4.51,2.2,7.13,0,.94.86,1.68.73,2.68-.09.65.22,1.39-.45,1.91l.42.68c3,1.88,4.08,5,5.43,8,.76,1.72.73,3.06-.72,4.3a.87.87,0,0,1-1,.22c-.49.78-.43,1.34.63,1.33a16.21,16.21,0,0,0,5.63-1.19c.86-.33.43-1.2.64-1.81V188c-.64-.47-.45-1.13-.39-1.76a20,20,0,0,1-.25-3c.12-1.95,1.12-2.45,2.7-1.36a23.53,23.53,0,0,1,2.35,2.13c1-.3.73-1.3,1-2s.19-1.46.79-2l.09-1.31-.15-.4a5.33,5.33,0,0,1,.08-2.51A16.19,16.19,0,0,0,1244.05,167.08Z"/><path class="cls-4" d="M1212,176.17l-.17-.38q-1-2.23-2-4.47a56.78,56.78,0,0,1-2.59-14.21c.35-.28.25-.7.31-1.07l0-.11.86.79a.33.33,0,0,0-.29.4,34.08,34.08,0,0,0,.89,8.31c.74,2.79,1,5.77,3,8.09,0,.17,0,.34,0,.51,0,1.55,1.74,2.49,1.5,4.13Z"/><path class="cls-4" d="M1235.56,191a19.3,19.3,0,0,1-4.86-.22.7.7,0,0,0-.78-.23h0c0-.17,0-.34.08-.5,1.11.13,2.27.33,2.18-1.41.36,0,.69.05.72.51-.49.79-.42,1.34.64,1.34a16.21,16.21,0,0,0,5.62-1.2c.87-.32.44-1.2.65-1.8.54.08.19,1.61,1.17.83,1.6-1.26,3.31-2.51,3.22-4.91,1-.3.73-1.29,1-2s.2-1.45.79-2c0,.4,0,.81.07,1.21v0a.84.84,0,0,0-.25.94c0,.51-.74.92-.17,1.49-.13.31-.26.62-.4.93l-.33.68a11.79,11.79,0,0,1-5.22,5.21c-.51.15-1.08.13-1.48.57a.73.73,0,0,0-.79.25h-.06l-1.44.18Z"/><path class="cls-10" d="M1224,188.64a36.89,36.89,0,0,1-6-4.48v0l-.66-.84.38-.38,1.67,1.18a.48.48,0,0,1,.23.07c0,.37.31.39.59.39h0l.38.38h0l.38.38h0c.11,1.13,1.14,1.35,1.88,1.79.51.3,1.11.18,1.07-.68.12-.46.27-.9.79-1.06-.21,3.07-.21,3.07,2.11,3.38l-.6-3c1.39.27.39,1.72,1.14,2.31.24.67.44,1.33-.37,1.78Z"/><path class="cls-4" d="M1227,189.79c.81-.45.61-1.11.37-1.78l1.52,0c-.31.71.09,1.55-.4,2.23A2.27,2.27,0,0,1,1227,189.79Z"/><path class="cls-10" d="M1215.27,181.17c0-.26-.27-.54.07-.77a8.6,8.6,0,0,1,2.36,2.52l-.38.38-1.25-1.14Z"/><path class="cls-10" d="M1228.45,190.2c.49-.68.09-1.52.4-2.24l.42-.07c.5.65-.62,1.84.73,2.21l-.08.5-.7,0Z"/><path class="cls-10" d="M1245.82,181.7a.84.84,0,0,1,.25-.94A1,1,0,0,1,1245.82,181.7Z"/><path class="cls-11" d="M1222.35,158.65h1.24c.92,1.86,1.92,3.69,2.71,5.6,1,2.3,2.24,4.51,2.21,7.13,0,.94.85,1.67.72,2.67-.09.66.23,1.4-.45,1.91h-.67l-.1,0a2.22,2.22,0,0,0-2.39-.7c-1.7.41-2.81-.44-4-1.42a13.62,13.62,0,0,0-4.58-2.81c-2.47-.8-4.17,0-5.15,2.54-2-2.33-2.27-5.31-3-8.1a34.08,34.08,0,0,1-.89-8.31c.91-.19,1.16.32,1.33,1.1.32,1.43.42,2.95,1.35,4.18.28.55.56,1.09.85,1.63s.48,1,1.18.91c1.6.08,2.18-1,2.49-2.29a10.07,10.07,0,0,0,.15-4.27c1.31-.92,2.29-.19,3.25.65.17.25.31.53.5.76.7.86,1.46,2,2.66,1.59S1222.21,159.59,1222.35,158.65Z"/><path class="cls-12" d="M1229.27,187.89l-.42.07-1.52,0c-.75-.59.25-2-1.14-2.32-.38-.63-.82-1-1.51-.34-.52.16-.67.6-.79,1.06-1.17.13-1.8-1.18-3-1.11h0l-.38-.38h0l-.38-.38h0a.55.55,0,0,0-.59-.39.48.48,0,0,0-.23-.07c0-1.56.07-3.12,0-4.67s-.24-3.17-2-3.37-2,1.55-2.41,2.81c-.64.06-.77-1-1.52-.7h0c.24-1.64-1.48-2.58-1.5-4.13.88,0,.93-.92,1.34-1.4a2.75,2.75,0,0,1,3.77-.79c4.41,2.25,8.12,5.18,10,10,.1.28.18.61.73.57.37-1.63-1.17-2.58-1.44-3.91-.2-1-1.91-1.46-1.16-2.37.42-.51,1.88-.16,2.87-.19l.1,0a1.11,1.11,0,0,0,1.09.69c3,1.88,4.09,5,5.43,8,.77,1.72.73,3.06-.72,4.29a.86.86,0,0,1-1,.23c0-.47-.36-.51-.72-.52l0,0a7.45,7.45,0,0,0,0-1.64,1.7,1.7,0,0,0-1.38-1.3c-.56-.1-.74.29-.76.78Z"/><path class="cls-13" d="M1244.2,183.46c.09,2.4-1.62,3.65-3.22,4.91-1,.78-.63-.75-1.17-.83l0-.11a1.93,1.93,0,0,0-.38-1.76,20,20,0,0,1-.26-3c.12-1.95,1.12-2.46,2.71-1.36A23.32,23.32,0,0,1,1244.2,183.46Z"/><path class="cls-14" d="M1226.25,158.92l.75.45.42.36a2.11,2.11,0,0,0,2.16,1.82c.83,0,1.57-.35,1.42-1.44,0-.11.09-.22.13-.33l.38-.4c.67.1.91.63.59,1.07-.6.83-1.16,1.8-2.37,1.93C1227.91,162.59,1226.79,161.48,1226.25,158.92Z"/><path class="cls-9" d="M1245.67,173.23c.11.16.23.31.35.47,0,.53,0,1.06,0,1.59C1245.53,174.67,1245.15,174,1245.67,173.23Z"/><path class="cls-4" d="M1239.41,185.67a1.93,1.93,0,0,1,.38,1.76C1239.15,187,1239.34,186.3,1239.41,185.67Z"/><path class="cls-5" d="M1229.2,176.65a1.11,1.11,0,0,1-1.09-.69h.67Z"/><path class="cls-4" d="M1246,177.8l.15.4Z"/><path class="cls-10" d="M1229.92,190.59a.7.7,0,0,1,.78.23A.77.77,0,0,1,1229.92,190.59Z"/><path class="cls-15" d="M1241.26,165.21c-2-.24-5-3.54-5.06-5.55,0-.4.09-.58.49-.58,1.18,0,2.35,0,3.53,0,.81,0,.76.71.91,1.2a13.91,13.91,0,0,1,.3,4.77A.21.21,0,0,1,1241.26,165.21Z"/><path class="cls-15" d="M1227.42,159.73l-.42-.36a.39.39,0,0,0,.17-.26l.6-.29.65,0a2.44,2.44,0,0,0,1.55.14l.74.12c.07.11.14.22.2.33l.22.34c0,.11-.08.22-.13.33C1229.65,161.47,1228.55,160.4,1227.42,159.73Z"/><path class="cls-16" d="M1230,159a2.44,2.44,0,0,1-1.55-.14l.43-.19C1229.23,158.73,1229.67,158.63,1230,159Z"/><path class="cls-16" d="M1230.91,159.44c-.06-.11-.13-.22-.2-.33C1230.93,159.13,1231,159.23,1230.91,159.44Z"/><path class="cls-5" d="M1228,175.92c-1,0-2.45-.32-2.87.19-.75.91,1,1.37,1.16,2.37.27,1.33,1.81,2.28,1.44,3.91-.55,0-.63-.29-.73-.57-1.84-4.8-5.55-7.73-10-10a2.75,2.75,0,0,0-3.77.79c-.41.48-.46,1.37-1.34,1.4,0-.17,0-.34,0-.51,1-2.48,2.68-3.33,5.15-2.53a13.62,13.62,0,0,1,4.58,2.81c1.16,1,2.27,1.83,4,1.42A2.22,2.22,0,0,1,1228,175.92Z"/><path class="cls-13" d="M1229.27,187.89l.74-1.38c1.77-.34,1.35,1.55,2.19,2.16l0,0c.09,1.74-1.07,1.54-2.18,1.41C1228.65,189.73,1229.77,188.54,1229.27,187.89Z"/><path class="cls-13" d="M1215.37,158.38a10.07,10.07,0,0,1-.15,4.27c-.31,1.28-.89,2.37-2.49,2.29a1.06,1.06,0,0,0-1.18-.91c-.29-.54-.57-1.08-.85-1.63.15-1.15-.45-2.15-.66-3.22s-.06-2,1.43-1.67C1212.77,157.8,1214.2,157.49,1215.37,158.38Z"/><path class="cls-13" d="M1222.35,158.65c-.14.94.72,2.28-.57,2.73s-2-.73-2.66-1.59c-.19-.23-.33-.51-.5-.76.12-.45.34-.77.86-.77l1.13.05a.36.36,0,0,0,.32,0Z"/><path class="cls-13" d="M1215,178.87c.45-1.26.67-3,2.41-2.81s1.9,1.94,2,3.37,0,3.11,0,4.67l-1.67-1.18a8.6,8.6,0,0,0-2.36-2.52h0Z"/><path class="cls-13" d="M1224.68,185.35c.69-.7,1.13-.29,1.51.34.2,1,.4,2,.6,3C1224.47,188.42,1224.47,188.42,1224.68,185.35Z"/><path class="cls-5" d="M1220.94,185.3c1.15-.07,1.78,1.24,3,1.11,0,.86-.56,1-1.07.68C1222.08,186.65,1221.05,186.43,1220.94,185.3Z"/><path class="cls-5" d="M1219.6,184.17a.55.55,0,0,1,.59.39C1219.91,184.56,1219.63,184.54,1219.6,184.17Z"/><path class="cls-5" d="M1220.57,184.92l.38.38Z"/><path class="cls-5" d="M1220.19,184.55l.38.38Z"/><path class="cls-16" d="M1227.77,158.82l-.6.29C1227.17,158.6,1227.48,158.72,1227.77,158.82Z"/><path class="cls-10" d="M1215,178.87l.39,1.53c-1.24-.23-1.43-1.35-1.91-2.23C1214.18,177.87,1214.31,178.93,1215,178.87Z"/><path class="cls-10" d="M1211.55,164a1.06,1.06,0,0,1,1.18.91C1212,165,1211.7,164.65,1211.55,164Z"/><path class="cls-4" d="M1232.2,188.67c-.84-.61-.42-2.5-2.19-2.16,0-.49.2-.88.76-.78a1.7,1.7,0,0,1,1.38,1.3A7.45,7.45,0,0,1,1232.2,188.67Z"/><path class="cls-16" d="M1227.42,159.73c1.13.67,2.23,1.74,3.58.38.15,1.09-.59,1.46-1.42,1.44A2.11,2.11,0,0,1,1227.42,159.73Z"/><polyline class="cls-7" points="1190 114.33 1207.98 127.91 1185.23 133.78"/><polyline class="cls-7" points="1265.7 114.55 1247.72 128.13 1270.47 134"/><ellipse class="cls-1" cx="1283.08" cy="233.44" rx="67.4" ry="12.51"/><path class="cls-17" d="M1362.4,223.09a4.46,4.46,0,0,0,2.31,1.07c.74.12,1.48.21,2.22.3,1.45.19,1.49.18,1.58,1.68.07,1.34.08,2.68,0,4a13.22,13.22,0,0,0,.76,4.83,6.93,6.93,0,0,1,.36,4.83,13.09,13.09,0,0,0-1,5.19,2.09,2.09,0,0,1-1,1.65,10,10,0,0,1-3.61,1.74c-1.61.43-3.24.83-4.88,1.12s-2.53.27-2.75-1.49c0-.36-.35-.27-.56-.31a11.24,11.24,0,0,0-2.32,0c-1.44,0-1.66-.2-1.64-1.63,0-.38-.22-.29-.4-.29-.68,0-1.37.05-2.06,0-1.43,0-1.84-.53-1.57-1.94.06-.35,0-.47-.34-.51-2.29-.21-4.59-.47-6.88-.56a8.68,8.68,0,0,0-3.86,1,3.22,3.22,0,0,1-1.55.31c-4.56-.2-9.13-.41-13.7-.59a90.54,90.54,0,0,0-9.32,0c-.29,0-.58,0-.76.32a3.65,3.65,0,0,1-2.9,1.89c-4.28.47-8.53,1.27-12.89,1.13a33.69,33.69,0,0,0-6.31.45c-3.6.58-3.46.17-4.73-2.42a25.67,25.67,0,0,1,.76-24,44.22,44.22,0,0,1,3-4.19,1.08,1.08,0,0,1,.9-.49c6.06-.21,12-1.19,18.1-1.59,1.43-.09,2.9-.16,3.84,1.31.2.31.61.14.93.13a35.64,35.64,0,0,0,5.13-.75,39.68,39.68,0,0,1,7.53-.95,40.36,40.36,0,0,0,6.62-1.05,69.73,69.73,0,0,1,9.66-1.13,10.59,10.59,0,0,0,3-.65,9.14,9.14,0,0,1,4.15-.38,45,45,0,0,0,10.82.25,23,23,0,0,1,6.25.24,4.72,4.72,0,0,0,3-.36c.8-.41,1.64-.64,2.36.21.26.31.49,0,.7-.09a.92.92,0,0,1,1.27.26,2.24,2.24,0,0,0,1.64.79,44.21,44.21,0,0,0,6.09,0c1.91,0,3.81.31,5.73.14a.77.77,0,0,1,.5.14A8.72,8.72,0,0,0,1392,214a15.68,15.68,0,0,1,6.76,1.52.89.89,0,0,1,.61,1.17c-.22,1.08-.41,2.17-.73,3.23A4.18,4.18,0,0,1,1395,223a18.21,18.21,0,0,1-6.06.28c-3.14-.6-6.27-.3-9.4-.4-2.45-.08-4.9-.14-7.35-.21a3.54,3.54,0,0,1-1.89-.44.75.75,0,0,0-.6-.08Zm-1,10.44-.25,0A11.06,11.06,0,0,1,1358,233a7.76,7.76,0,0,0-5.49-.19h0l-.54,0-.08-1a3.55,3.55,0,0,0,.8,0,11.53,11.53,0,0,1,5.32.24c.64.14,1.29.23,1.94.37s.76,0,.71-.62a1.75,1.75,0,0,1,.53-1.68,6.55,6.55,0,0,1-.14,1.34c-.15,1,0,1.14,1,1l.75.12a13.27,13.27,0,0,1,5.13,1.33c0-1.11-.11-2.09-.13-3.07a22.58,22.58,0,0,0-.32-4.72,1,1,0,0,0-1-.91,10.73,10.73,0,0,1-5-1.69c-.15-.1-.28-.21-.48-.16a4.23,4.23,0,0,1-2-.19,7.3,7.3,0,0,0-5.38.52,11.7,11.7,0,0,1-4.17,1.27,13.81,13.81,0,0,0-2.53.57,1.22,1.22,0,0,0-.85.83,9.58,9.58,0,0,0-.46,4.41c-.08.69-.38.66-.89.33s-.33-.66-.51-1a9.34,9.34,0,0,1,2.89-7.09,5.49,5.49,0,0,0-.9,1.72,4,4,0,0,0,1.45-.18c2.62-.53,5.33-.79,7.63-2.37a1.12,1.12,0,0,1,1-.19,6.53,6.53,0,0,0,2.56.16,32.84,32.84,0,0,0,9.17-.6c1.1-.25,2.18-.33,2.39-1.72,0,0,.08-.08.13-.12a1.18,1.18,0,0,1,.53,1c-.07.78.35.89,1,1a79.06,79.06,0,0,0,10.66.31c.82,0,1.57,0,2-.91.28-.61.71-.49.93.08a1.81,1.81,0,0,0,1.61,1.11,22,22,0,0,0,7.93-.09,3,3,0,0,0,2.47-2.2c.26-.82.43-1.68.66-2.51.11-.38,0-.52-.4-.51a12,12,0,0,1-2.93-.33,9.07,9.07,0,0,1-4-1.39,3.71,3.71,0,0,0-2.45-.79c-.21,0-.47,0-.61-.07a4.6,4.6,0,0,0-3.55-.55c-1,.11-2-.24-2.94-.06-2.4.46-4.69-.13-7-.48a4,4,0,0,1-1.68-.6c-.48-.34-.86-.65-1.46-.18-.27.21-.65,0-.87-.28a1.09,1.09,0,0,0-1.53-.2,5.93,5.93,0,0,1-3.2.66c-1.08,0-2.15-.1-3.23-.09a59.16,59.16,0,0,1-9.22-.26,25.13,25.13,0,0,0-11,.54c-4.31,1.27-8.83,1.41-13.29,1.8-5.18.45-10.15,2.09-15.3,2.77a5.65,5.65,0,0,1-2.83-.06.7.7,0,0,0-.6-.05,4,4,0,0,0-2.41,2.24c-.31,1-.64,1.93-1,2.87a31.33,31.33,0,0,0-2.31,11.26,13,13,0,0,0,1.07,6.21c.65,1.31,1.32,2.35,3.15,2.3s3.8.56,5.7.54c3,0,5.9-.12,8.85,0,3.43.17,6.88-.27,10.28.52a4.48,4.48,0,0,0,1.16,0,14.07,14.07,0,0,0,5.11-1.18,4.63,4.63,0,0,1,3.56-.22,13.65,13.65,0,0,0,7.6.31,6.86,6.86,0,0,1,3.09.05,23.85,23.85,0,0,0,5.34,1.13,18.2,18.2,0,0,0,6.86-1.51c2.43-.91,2.62-1.17,2.68-3.8a2.35,2.35,0,0,0,0-.26c-.11-1.47-.33-2.84-2-3.44a16.15,16.15,0,0,0-2.9-.87.78.78,0,0,0,0-.14c-.64-.73-1.5-.71-2.54.05Zm-78.3-4a27.5,27.5,0,0,0,3.33,16.51,1.29,1.29,0,0,0,1.47.72c1.12-.14,2.24-.37,3.36-.48,2.44-.24,4.9,0,7.34-.16,3-.21,5.93-.58,8.9-.9a4.76,4.76,0,0,0,1.8-.51c.49-.27,1-.66.9-1.2-.08-.38-.73-.15-1.12-.15-2.61,0-3.83-.86-4.69-3.32a13.57,13.57,0,0,1-.53-2c-1.15-6.24.23-12.15,2.48-17.92.61-1.58,1.27-3.13,3.29-3.34a.6.6,0,0,0,.59-.58c0-.4-.35-.52-.67-.62a4.63,4.63,0,0,0-2.47.23,6.89,6.89,0,0,1-2.82.26,28.77,28.77,0,0,0-5.25,0c-2.73.09-5.42.76-8.17.78a2.69,2.69,0,0,0-2.23,1.08A27.16,27.16,0,0,0,1283.06,229.5ZM1368,244c0-.16,0-.55,0-.93,0-.76-.27-.93-1-.61a24.11,24.11,0,0,1-6.64,1.69c-1.47.17-3.07,2.54-2.71,4,.11.43.31.79.85.71a14.4,14.4,0,0,0,4.87-1.33,7.86,7.86,0,0,1,2.47-1C1367.21,246.32,1367.79,245.66,1368,244Zm-9.38.2-1.27-.14c-1.34-.14-2.85-.81-3.44,1.21-.06.19-.44.28-.66.43s-.54.46-.46.81.46.35.74.36c1,.05,2,.06,3,.1a.26.26,0,0,0,.3-.24A5.06,5.06,0,0,1,1358.61,244.21Zm-5.87-1.12a9.3,9.3,0,0,0-3.11.2c-.42.13-.92.26-.82.87a1,1,0,0,0,1,.89,7.88,7.88,0,0,0,3.59-.55.8.8,0,0,0,.52-.84c0-.53-.44-.39-.71-.49A2.14,2.14,0,0,0,1352.74,243.09Zm38.29-28c2.39.47,4.61,1.93,7.19,1.25C1395.91,215.38,1393.61,214.45,1391,215.06Z"/><path class="cls-18" d="M1352.42,232.84h0c.27.09.44.17.32.54a9.89,9.89,0,0,0-.21,1.36,1.45,1.45,0,0,0,.13,1.94c.16.19,0,.65.32.63s.85-.12,1-.65a.54.54,0,0,1,.65-.46c.35,0,.41.24.49.52.13.43.29.93.86.86s.82-.55.9-1.08.12-1.19.21-1.78c0-.25-.08-.71.37-.67s.37.46.33.78c-.07.75-.19,1.48-.23,2.23,0,.47.11.92.75.85.48-.06,1.18.06,1.13-.67-.06-.94.19-1.84.19-2.75s.35-1.07,1.1-.86a3.26,3.26,0,0,0,.45.05h.19c.1.09.17.31.33.23a8.61,8.61,0,0,1,2.19-.29,16.15,16.15,0,0,1,2.9.87c1.68.6,1.9,2,2,3.44a2.35,2.35,0,0,1,0,.26c-.06,2.63-.25,2.89-2.68,3.8a18.2,18.2,0,0,1-6.86,1.51,23.85,23.85,0,0,1-5.34-1.13,6.86,6.86,0,0,0-3.09-.05,13.65,13.65,0,0,1-7.6-.31,4.63,4.63,0,0,0-3.56.22,14.07,14.07,0,0,1-5.11,1.18,4.48,4.48,0,0,1-1.16,0c-3.4-.79-6.85-.35-10.28-.52-2.95-.15-5.9-.06-8.85,0-1.9,0-3.8-.6-5.7-.54s-2.5-1-3.15-2.3a13,13,0,0,1-1.07-6.21,31.33,31.33,0,0,1,2.31-11.26c.38-.94.71-1.9,1-2.87a4,4,0,0,1,2.41-2.24.7.7,0,0,1,.6.05,5.65,5.65,0,0,0,2.83.06c5.15-.68,10.12-2.32,15.3-2.77,4.46-.39,9-.53,13.29-1.8a25.13,25.13,0,0,1,11-.54,59.16,59.16,0,0,0,9.22.26c1.08,0,2.15.06,3.23.09a5.93,5.93,0,0,0,3.2-.66,1.09,1.09,0,0,1,1.53.2c.22.26.6.49.87.28.6-.47,1-.16,1.46.18a4,4,0,0,0,1.68.6c2.32.35,4.61.94,7,.48.94-.18,2,.17,2.94.06a4.6,4.6,0,0,1,3.55.55c.14.11.4.07.61.07a3.71,3.71,0,0,1,2.45.79,9.07,9.07,0,0,0,4,1.39,12,12,0,0,0,2.93.33c.45,0,.51.13.4.51-.23.83-.4,1.69-.66,2.51a3,3,0,0,1-2.47,2.2,22,22,0,0,1-7.93.09,1.81,1.81,0,0,1-1.61-1.11c-.22-.57-.65-.69-.93-.08-.42.94-1.17.9-2,.91a79.06,79.06,0,0,1-10.66-.31c-.64-.08-1.06-.19-1-1a1.18,1.18,0,0,0-.53-1c-.05,0-.12.07-.13.12-.21,1.39-1.29,1.47-2.39,1.72a32.84,32.84,0,0,1-9.17.6,6.53,6.53,0,0,1-2.56-.16,1.12,1.12,0,0,0-1,.19c-2.3,1.58-5,1.84-7.63,2.37a4,4,0,0,1-1.45.18,5.49,5.49,0,0,1,.9-1.72,9.34,9.34,0,0,0-2.89,7.09c0,.44-.14.68-.71.55a14.08,14.08,0,0,1-2.95-1.21,3.88,3.88,0,0,0-2.24-.63c1.52.31,2.6,1.43,4,2a1.59,1.59,0,0,0,.77.15c-.17.61-.87.89-.92,1.59-.06.93-.09,1.92-1.44,1.92a.4.4,0,0,0-.35.36c0,.25.24.22.4.26a1.44,1.44,0,0,0,1.8-.92,4,4,0,0,0,.29-1.48c0-.43.2-.76.64-.87,1.51-.38,1.83-.1,1.65,1.45,0,.24-.06.48-.07.72a2.3,2.3,0,0,0,1.4,2.36c.43.16,1,.55,1.41-.11,0-.06,0-.11,0-.17a1.75,1.75,0,0,0,1.71-2.07l-.22.07-.3-.57a.86.86,0,0,0,.17,0s0-.06,0-.07a.86.86,0,0,0-1.38.27c-.11.21-.2.43-.32.63s-.38.34-.56.05a1.59,1.59,0,0,1,0-1.3c.13-.47.54-.2.84-.24s1,.42,1.35-.21l.35.08c.72.18.94.6.77,1.34a10,10,0,0,0-.21,2c0,.7.45,1.08,1.08.88s.66-.65.76-1.16C1351.94,234.86,1351.6,233.72,1352.42,232.84Zm10.31,2.21,0,0,0-.05-.24.19a1.83,1.83,0,0,0-1,.88,2.65,2.65,0,0,0-.29,1.61,14.6,14.6,0,0,0,.51,3.34c.06.32.25.42.56.44a13.09,13.09,0,0,0,4-.14,2.24,2.24,0,0,0,2-2.2l0-.26c.07-1.08,0-2.37-1-2.79s-2.24-1.44-3.65-.88a.87.87,0,0,1-.68.13l-.07-.27-.1-.13Zm-27,.13.39,0s0-.06,0-.07a.28.28,0,0,0-.36.1l0,.07Zm.85-4.42c-.16,0-.35-.1-.46.1,0,0,0,.13.05.14.22.06.31-.1.41-.24l.05-.07Zm-17.95,2.32,0-.35a.54.54,0,0,0,.57-.29c.48-.85.26-1.85.55-2.74a1.11,1.11,0,0,0-.23-.12l-.18,0c0-.18-.38-.26-.2-.5s.31-.14.49,0,.27,0,.33-.18h0c.22,0,.48-.1.14-.32s-.67,0-1,0c0-.24-.08-.45-.32-.14a2.92,2.92,0,0,0-.28.62l0,.35-.35,0a7.63,7.63,0,0,0-.45,3c0,.06.17.13.27.2l.17,0h0l0,.35c0,.19,0,.36.28.36S1318.59,233.23,1318.63,233.08Zm5.41-1.56.35,0c.53.3.47-.41.86-.5a1,1,0,0,0,.82-1.4,1.58,1.58,0,0,0-1.71-1l-.18,0a.43.43,0,0,0-.71-.08h0c-1.65-.22-2.34,1.54-2,3.21,0,.29-.19.64.28.75-.09.51.12.78.63.8h0c0,.11,0,.27.12.31a7.09,7.09,0,0,0,3.18.55.38.38,0,0,0,.28-.64l0-.35c.4-.39.13-.55-.22-.75-.56-.32-1.27-.15-1.79-.56l0-.36Zm-8.8,1.18.2-.15a.62.62,0,0,1,.59-.47l.35,0a1,1,0,0,0,.47-.85h0c.87-1.53.68-3.24.79-4.9a1,1,0,0,0-.66-1,.73.73,0,0,0-.8.54,10.87,10.87,0,0,0-.52,4.6l.52-4.6c.49.14.29.52.26.82-.12,1.22-.27,2.43-.4,3.65l.19,0,.43-3.88a37,37,0,0,1-.33,4.34.52.52,0,0,1-.4.44l-.17,0c-1.59.45-1.59.45-2.52-1.08,0-.09-.2-.11-.3-.17a3.15,3.15,0,0,0,0-.43c-.05-.22.06-.66-.31-.57s-.19.47-.11.75c-.76.75-.48,1.8.66,2.47l.17,0a.38.38,0,0,0,.34.22h.17c.42.57.91.45,1.43.16Zm18.55-2.79c-.82.24-.91.4-.46.85a7.45,7.45,0,0,1-.28,1.39,6.47,6.47,0,0,0-.2,1.59c0,.22.05.53.34.56s.31-.3.34-.52c.07-.5.09-1,.18-1.51s.08-.91.65-1a12.55,12.55,0,0,0-.55,3.09c.78-.91-.41-2.64,1.53-2.82-.26-.34-.66-.17-1-.28.14-.59.68-.11,1-.36l-1.59-.43.06-.53.39,0s0-.07,0-.07A.27.27,0,0,0,1333.79,229.91Zm-3.73,4.27c0,.09-.13.33.16.2l.17,0c.35.46,1,.48,1.21,0a3.94,3.94,0,0,0,.13-2.06,2.75,2.75,0,0,0-.34,1.33c-.06.27,0,.63-.44.64,0-.05,0-.11,0-.17l.3-2.65h-.19l-.28,2.46-.16,0c.07-.59.13-1.18.19-1.77a4.94,4.94,0,0,0,.08-1.56c-.24-1-1.69-1.3-2.58-.78a2.49,2.49,0,0,0-.64,3.51,1.31,1.31,0,0,0,1.23.56.45.45,0,0,0,.37-.19c.12-.24-.14-.25-.26-.35-.35-.28-.94-.34-.93-1,.73-.18.16-.57.1-.87l-.1.87a1.33,1.33,0,0,1,.43-1.83c.54-.29,1.13-.44,1.55.25a1.23,1.23,0,0,0,.1.73,3.47,3.47,0,0,1-.52,1.88c-.15.18-.48.91.4.81Zm5.73-2.79-.07,0,.07.06c0,.94-.09,1.88-.14,2.83,0,.18,0,.4.18.45s.32-.2.35-.39c.09-.71.16-1.42.25-2.13,0-.28,0-.63.43-.64l-.36,3.17.23,0c.11-1,.23-2.05.33-3.07,0,0-.13-.09-.2-.14l.21-.33,0-.07,0,.07c-.53-.1-.75.15-.8.67-.06.75-.16,1.51-.25,2.27a8.44,8.44,0,0,1,0-2C1336.09,231.83,1336.21,231.5,1335.79,231.39Zm2.41-.63c-.24-.3-.54-.25-.86-.09l.86.09c-.4.43-.11.8.09,1.19a1.22,1.22,0,0,1,0,.78c-.07.63-.14,1.25-.2,1.87,0,.17-.05.39.18.44s.32-.18.35-.38c.1-.86.24-1.72.26-2.58A1.35,1.35,0,0,0,1338.2,230.76Zm47.18-13.37a1.71,1.71,0,0,0,.47-1.92A2.6,2.6,0,0,0,1385.38,217.39Zm-52.53,13.74a4.27,4.27,0,0,0-.34,3Zm6.64.44-.1,0-.43,3.78h.11Zm7.41-18a1.72,1.72,0,0,0-.06,1.25c.06.22.16.52.45.39s0-.36,0-.54S1347.05,214,1346.9,213.53Zm-11.41,18.61c-.23.72-.8,1.43-.27,2.41ZM1350,220c.25-.51.48-.91.06-1.46C1349.87,219,1349.65,219.38,1350,220Zm-4.58-1.34a.94.94,0,0,0,.07,1.22s.2,0,.23,0c.21-.31-.07-.59-.1-.9C1345.66,218.87,1345.58,218.81,1345.46,218.61Zm-17.91,15.18a1.2,1.2,0,0,0,1.53.64Zm25.7,5.87c-.28.56-.34.9-.11,1.26.08.11.18,0,.23,0C1353.66,240.54,1353.46,240.21,1353.25,239.66Zm-15.58-5.4.09,0,.23-2.09h-.09Zm-10.81-2.63.38-1.38C1326.65,230.71,1326.85,231.2,1326.86,231.63Zm-6.57-2c.7.14.76-.25.72-.72C1320.8,229.15,1320.65,229.47,1320.29,229.6Zm15.36.84c-.44-.31-.77-.5-1.15-.13Zm2.4-.27,0-.09-1-.11v.09Zm-9.18.56c.18.06.26.11.34.1s.44.15.33-.16S1329.2,230.58,1328.87,230.73Zm2.82,1.21a1.27,1.27,0,0,0,0-.92A1.27,1.27,0,0,0,1331.69,231.94Zm1.23,2.75c-.05.07-.14.13-.13.18a.21.21,0,0,0,.15.14c.13,0,.23,0,.2-.18S1333,234.74,1332.92,234.69Zm6-4.17c-.09-.1-.13-.18-.19-.2s-.13,0-.21.05.08.16.14.19S1338.82,230.54,1339,230.52Zm-12.16,1.75-.08.14s.1.08.14.07a.14.14,0,0,0,.08-.13S1326.84,232.3,1326.79,232.27Zm11.49,3.37.15-.06s-.08-.09-.12-.09-.1,0-.15,0Zm1-4.67,0-.14s-.09.08-.09.12,0,.1,0,.14Zm-6.81,3.53c.07,0,.09,0,0-.09h-.06Zm-18-5.39-.12-.05,0,.07Zm14.84,3.86.07,0s0-.05,0-.06,0,0-.08,0Z"/><path class="cls-19" d="M1283.06,229.5a27.16,27.16,0,0,1,5.51-11.57,2.69,2.69,0,0,1,2.23-1.08c2.75,0,5.44-.69,8.17-.78a28.77,28.77,0,0,1,5.25,0,6.89,6.89,0,0,0,2.82-.26,4.63,4.63,0,0,1,2.47-.23c.32.1.66.22.67.62a.6.6,0,0,1-.59.58c-2,.21-2.68,1.76-3.29,3.34-2.25,5.77-3.63,11.68-2.48,17.92a13.57,13.57,0,0,0,.53,2c.86,2.46,2.08,3.3,4.69,3.32.39,0,1-.23,1.12.15.13.54-.41.93-.9,1.2a4.76,4.76,0,0,1-1.8.51c-3,.32-5.93.69-8.9.9-2.44.17-4.9-.08-7.34.16-1.12.11-2.24.34-3.36.48a1.29,1.29,0,0,1-1.47-.72A27.5,27.5,0,0,1,1283.06,229.5Zm15.85,15.26a3.8,3.8,0,0,0,2.14-.45c.35-.2.8-.39.72-.9a1.12,1.12,0,0,0-.93-.86,3.46,3.46,0,0,0-2.64.47c-.29.15-.76.23-.7.67a1.08,1.08,0,0,0,.73.84A6.07,6.07,0,0,0,1298.91,244.76Zm-7-22.11a2,2,0,0,0-1,1.25C1291.61,223.76,1291.82,223.36,1291.88,222.65Z"/><path class="cls-20" d="M1345.45,230.8a9.58,9.58,0,0,1,.46-4.41,1.22,1.22,0,0,1,.85-.83,13.81,13.81,0,0,1,2.53-.57,11.7,11.7,0,0,0,4.17-1.27,7.3,7.3,0,0,1,5.38-.52,4.23,4.23,0,0,0,2,.19c.2,0,.33.06.48.16a10.73,10.73,0,0,0,5,1.69,1,1,0,0,1,1,.91,22.58,22.58,0,0,1,.32,4.72c0,1,.08,2,.13,3.07a13.27,13.27,0,0,0-5.13-1.33c.1-.91,1.26-1.11,1.39-2.15-1,.49-1.29,1.57-2.14,2-1,.12-1.16,0-1-1a6.55,6.55,0,0,0,.14-1.34,1.75,1.75,0,0,0-.53,1.68c0,.62-.19.73-.71.62s-1.3-.23-1.94-.37a11.53,11.53,0,0,0-5.32-.24,3.55,3.55,0,0,1-.8,0,.1.1,0,0,0,0-.09c0-.37.15-.79.47-.87a3.94,3.94,0,0,0,1.12-.57l.19,0c.05.13.11.14.18,0s0-.11,0-.17a.35.35,0,0,0,.22-.34,1.11,1.11,0,0,0,0-.17.44.44,0,0,0,.08-.72c0-.06,0-.11,0-.17a.37.37,0,0,0-.14-.39,2.49,2.49,0,0,1-.29-.43c-.3-.88-1.3-1.24-2.52-1.12a2,2,0,0,0-1.61,1.68,2.15,2.15,0,0,0,1.36,2.42,1.93,1.93,0,0,1-.4,1l-1.07-.1-3.27-.8Z"/><path class="cls-20" d="M1368,244c-.2,1.65-.78,2.31-2.19,2.55a7.86,7.86,0,0,0-2.47,1,14.4,14.4,0,0,1-4.87,1.33c-.54.08-.74-.28-.85-.71-.36-1.45,1.24-3.82,2.71-4a24.11,24.11,0,0,0,6.64-1.69c.75-.32,1-.15,1,.61C1368,243.46,1368,243.85,1368,244Z"/><path class="cls-18" d="M1352.57,234.75a9.89,9.89,0,0,1,.21-1.36c.12-.37,0-.45-.32-.54a7.76,7.76,0,0,1,5.49.19,11.06,11.06,0,0,0,3.16.51.35.35,0,0,0,.06.14,3.26,3.26,0,0,1-.45-.05c-.75-.21-1.1,0-1.1.86s-.25,1.81-.19,2.75c0,.73-.65.61-1.13.67-.64.07-.77-.38-.75-.85,0-.75.16-1.48.23-2.23,0-.32.12-.74-.33-.78s-.33.42-.37.67c-.09.59-.12,1.19-.21,1.78s-.31,1-.9,1.08-.73-.43-.86-.86c-.08-.28-.14-.51-.49-.52a.54.54,0,0,0-.65.46c-.1.53-.56.63-1,.65s-.16-.44-.32-.63C1352.67,236,1353.11,235.36,1352.57,234.75Zm2.71-.34c0-.29.16-.62-.31-.67-.19,0-.41,0-.42.23,0,.35.33.25.51.37.08.33,0,.69-.33.7s-.35-.21-.38.14a.78.78,0,0,0,.26.63c.17.16.32.11.54,0C1355.87,235.37,1355.24,234.87,1355.28,234.41Zm.87.08c.48-1-.09-1.81-1.35-1.64C1355.72,233.16,1356.24,233.6,1356.15,234.49Zm-2.52,1.87c-.07-.09-.12-.21-.15-.2a.42.42,0,0,0-.27.14c-.08.1-.06.24.11.23A1.08,1.08,0,0,0,1353.63,236.36Zm.92-3.42c-.1-.06-.17-.13-.22-.12s-.12.09-.18.14.12.11.17.11S1354.45,233,1354.55,232.94Z"/><path class="cls-21" d="M1358.61,244.21a5.06,5.06,0,0,0-1.75,2.53.26.26,0,0,1-.3.24c-1,0-2,0-3-.1-.28,0-.67,0-.74-.36s.18-.62.46-.81.6-.24.66-.43c.59-2,2.1-1.35,3.44-1.21Z"/><path class="cls-21" d="M1352.74,243.09a2.14,2.14,0,0,1,.44.08c.27.1.7,0,.71.49a.8.8,0,0,1-.52.84,7.88,7.88,0,0,1-3.59.55,1,1,0,0,1-1-.89c-.1-.61.4-.74.82-.87A9.3,9.3,0,0,1,1352.74,243.09Z"/><path class="cls-18" d="M1352.42,232.84c-.82.88-.48,2-.67,3-.1.51-.24,1-.76,1.16s-1.09-.18-1.08-.88a10,10,0,0,1,.21-2c.17-.74,0-1.16-.77-1.34l.19,0,.88.1.55.06a.73.73,0,0,0,.56,0l.35,0Z"/><path class="cls-22" d="M1391,215.06c2.58-.61,4.88.32,7.19,1.25C1395.64,217,1393.42,215.53,1391,215.06Z"/><path class="cls-23" d="M1345.45,230.8l.74.26c-.71.11-.43.44-.16.76l-.36,0-.18,0a6.74,6.74,0,0,0-2.61-.69,1.59,1.59,0,0,1-.77-.15c-1.36-.61-2.44-1.73-4-2a3.88,3.88,0,0,1,2.24.63,14.08,14.08,0,0,0,2.95,1.21c.57.13.67-.11.71-.55.18.32.14.72.51,1S1345.37,231.49,1345.45,230.8Z"/><path class="cls-23" d="M1351,232.89l-.55-.06.11-.87a1.93,1.93,0,0,0,.4-1l.14-.26a5.25,5.25,0,0,0,.68-2.9v-.35c.21-.2.44-.57.57.06a20.28,20.28,0,0,1-.82,3.59c-.12.31-.16.62.31.68a.1.1,0,0,1,0,.09l.08,1-.35,0c0-.34.09-.84-.43-.76S1351,232.61,1351,232.89Z"/><path class="cls-23" d="M1362,232.49c.85-.46,1.15-1.54,2.14-2-.13,1-1.29,1.24-1.39,2.15Z"/><path class="cls-24" d="M1363.88,233.62a8.61,8.61,0,0,0-2.19.29c-.16.08-.23-.14-.33-.23v-.15h0a5.45,5.45,0,0,1,2.54-.05A.78.78,0,0,1,1363.88,233.62Z"/><path class="cls-23" d="M1363.9,233.48a5.45,5.45,0,0,0-2.54.05C1362.4,232.77,1363.26,232.75,1363.9,233.48Z"/><path class="cls-23" d="M1361.36,233.53v.15h-.19a.35.35,0,0,1-.06-.14Z"/><path class="cls-25" d="M1362.92,235.3a.87.87,0,0,0,.68-.13,15.74,15.74,0,0,1,2,.68c.4.19.87.09,1.22.4a3,3,0,0,1,.89,2.92,2,2,0,0,1-1.71,1.71,9.31,9.31,0,0,1-3.45.09.39.39,0,0,0-.08-.1,3.28,3.28,0,0,0,.76-3.15c.36,0,.45-.28.31-.53s-.38-.13-.52.08l-.32-.31,1-.19a4.67,4.67,0,0,0-1.72-.84Zm4.22,2.87c-.58.27-.87-.3-1.31-.43s-.48.08-.58.32.07.42.34.46A1.55,1.55,0,0,0,1367.14,238.17Zm-3-1.23c-.07.4-.23.62,0,.87A1.15,1.15,0,0,0,1364.1,236.94Zm2.06.09-.09.15s.11.08.14.07.06-.09.09-.14Z"/><path class="cls-26" d="M1321.48,231.78c-.35-1.67.34-3.43,2-3.21l0,.18-.24,0,0,.07.21-.11c.49-.07.9.46,1.53.21l-.62-.29a1.58,1.58,0,0,1,1.71,1,1,1,0,0,1-.82,1.4c-.39.09-.33.8-.86.5-.09-.2-.21-.21-.35,0h0l-.54-.06c0-.21.16-.46-.16-.67-.17.3-.27.54.16.67,0,.37.24.39.5.42.52.41,1.23.24,1.79.56.35.2.62.36.22.75-.4-.87-1.2-.63-1.89-.67.35.12.73.17,1.09.28s.49.25.4.59-.36.25-.59.23a4.24,4.24,0,0,1-2.75-.85h0a.37.37,0,0,0-.33-.22h0c0-.19.08-.4-.12-.55h0a5.22,5.22,0,0,1,.22-2.25c-.61.57-.39,1.35-.55,2Zm1.43.16c0,.13,0,.28.18.29,0,0,.06,0,.06,0,0-.2-.11-.21-.24-.25,0-.49-.22-1,.11-1.45s.89-.33,1.32-.65c-.89-.19-1.32,0-1.62.56S1322.27,231.5,1322.91,231.94Zm-.55-2.54c.05,0,.1.08.14.07s.06-.08.08-.13-.1-.08-.14-.07S1322.39,229.35,1322.36,229.4Z"/><path class="cls-24" d="M1362.74,237l.32.31.21.45a3.28,3.28,0,0,1-.76,3.15l-.14.07c.06.1.14.08.22,0a9.31,9.31,0,0,0,3.45-.09,2,2,0,0,0,1.71-1.71,3,3,0,0,0-.89-2.92c-.35-.31-.82-.21-1.22-.4a15.74,15.74,0,0,0-2-.68c1.41-.56,2.54.4,3.65.88s1,1.71,1,2.79l0,.26a2.24,2.24,0,0,1-2,2.2,13.09,13.09,0,0,1-4,.14c-.31,0-.5-.12-.56-.44a14.6,14.6,0,0,1-.51-3.34l.42-.13a23.93,23.93,0,0,0,.36,2.9,1.48,1.48,0,0,0,1-1,1.61,1.61,0,0,0-.45-1.92c-.16-.15-.37-.37-.2-.61S1362.57,237,1362.74,237Z"/><path class="cls-18" d="M1349.2,234.16l.22-.07a1.75,1.75,0,0,1-1.71,2.07.44.44,0,0,0-.72-.08l-.35,0-.18,0h0c-.1-.34-.37-.42-.68-.44l-.15-.19,0-.36.4-3.14.65.17.18,0,2.1.59c-.36.63-.9.15-1.35.21s-.71-.23-.84.24a1.59,1.59,0,0,0,0,1.3c.18.29.4.2.56-.05s.21-.42.32-.63a.86.86,0,0,1,1.38-.27s0,.07,0,.07a.86.86,0,0,1-.17,0,1.19,1.19,0,0,0-.45.09c.66.44.21,1.06.22,1.79A2.42,2.42,0,0,0,1349.2,234.16Zm-1.37.46a.07.07,0,0,0,0,0s0,0,.06,0v-.09Z"/><path class="cls-18" d="M1345.63,235.39l.15.19a.65.65,0,0,0,.68.44h0c0,.13.11.13.18,0l.35,0c.16.28.45.21.7.25-.42.66-1,.27-1.41.11a2.3,2.3,0,0,1-1.4-2.36c0-.24,0-.48.07-.72.18-1.55-.14-1.83-1.65-1.45-.44.11-.59.44-.64.87a4,4,0,0,1-.29,1.48,1.44,1.44,0,0,1-1.8.92c-.16,0-.4,0-.4-.26a.4.4,0,0,1,.35-.36c1.35,0,1.38-1,1.44-1.92,0-.7.75-1,.92-1.59a6.74,6.74,0,0,1,2.61.69c0,.09-.06.21.09.24s.06-.13.09-.19l.36,0,0,.07-.4,3.14c-.49-.83.14-1.72-.14-2.56C1345.39,233.45,1344.92,234.44,1345.63,235.39Z"/><path class="cls-27" d="M1330.08,230.76c-.42-.69-1-.54-1.55-.25a1.33,1.33,0,0,0-.43,1.83h0c0,.63.58.69.93,1,.12.1.38.11.26.35a.45.45,0,0,1-.37.19,1.31,1.31,0,0,1-1.23-.56,2.49,2.49,0,0,1,.64-3.51c.89-.52,2.34-.22,2.58.78a4.94,4.94,0,0,1-.08,1.56c-.06.59-.12,1.18-.19,1.77l-.08,0a.07.07,0,0,1-.06,0,8.25,8.25,0,0,0,.09-1.39C1330.53,231.88,1330.81,231.16,1330.08,230.76Z"/><path class="cls-18" d="M1316.85,231.26a1,1,0,0,1-.47.85c.11-.41-.55-.37-.45-.77a.52.52,0,0,0,.4-.44,37,37,0,0,0,.33-4.34l-.43,3.88-.19,0c.13-1.22.28-2.43.4-3.65,0-.3.23-.68-.26-.82h0a.73.73,0,0,1,.8-.54,1,1,0,0,1,.66,1c-.11,1.66.08,3.37-.79,4.9l.51-4.61c-.46,1.42-.33,2.92-.8,4.34C1316.51,231.15,1316.7,231.22,1316.85,231.26Z"/><path class="cls-18" d="M1313.13,232.29c-1.14-.67-1.42-1.72-.66-2.47l.47.25c.1.06.25.08.3.17.93,1.53.93,1.53,2.52,1.08,0,.29-.19.64.27.76a.37.37,0,0,1-.37.13,3.3,3.3,0,0,1-2-.15C1313.39,231.94,1313.19,232,1313.13,232.29Z"/><path class="cls-24" d="M1346.07,231.89l0-.07c-.27-.32-.55-.65.16-.76l3.27.8a1.25,1.25,0,0,0,.08.87l-.19,0-.35-.08-2.1-.59c0-.1-.1-.12-.18,0Z"/><path class="cls-26" d="M1320,228.91c-.06.16-.12.38-.33.18s-.33-.27-.49,0,.17.32.2.5c-.34.26-.23.65-.28,1a7.4,7.4,0,0,1-.43,2.18l-.54-.06h0l.36-3.21,0-.35c.35,0,.44-.27.6-.48.34,0,.7-.24,1,0s.08.29-.14.32l-.07,0Z"/><path class="cls-27" d="M1333.73,230.44l1.59.43c-.28.25-.82-.23-1,.36h0c-.57.12-.57.62-.65,1s-.11,1-.18,1.51c0,.22,0,.55-.34.52s-.35-.34-.34-.56a6.47,6.47,0,0,1,.2-1.59,7.45,7.45,0,0,0,.28-1.39h0a.33.33,0,0,0,.4-.32Z"/><path class="cls-18" d="M1338.2,230.76a1.35,1.35,0,0,1,.73,1.32c0,.86-.16,1.72-.26,2.58,0,.2-.05.45-.35.38s-.2-.27-.18-.44c.06-.62.13-1.24.2-1.87a1.22,1.22,0,0,0,0-.78c-.2-.39-.49-.76-.09-1.19Z"/><path class="cls-27" d="M1336.86,231.52c-.45,0-.4.36-.43.64-.09.71-.16,1.42-.25,2.13,0,.19-.06.46-.35.39s-.19-.27-.18-.45c0-.95.09-1.89.14-2.83h0c.42.11.3.44.27.72a8.44,8.44,0,0,0,0,2c.09-.76.19-1.52.25-2.27,0-.52.27-.77.8-.67h0l-.21.33Z"/><path class="cls-28" d="M1330.08,230.76c.73.4.45,1.12.51,1.72a8.25,8.25,0,0,1-.09,1.39.07.07,0,0,0,.06,0l.08,0,.16,0,.17.2c0,.06,0,.12,0,.17s-.36.14-.56.12l-.17,0-.16-.2h0c0-.9.42-1.78.12-2.69A1.23,1.23,0,0,1,1330.08,230.76Z"/><path class="cls-28" d="M1322.27,232.77a4.24,4.24,0,0,0,2.75.85c.23,0,.5.09.59-.23s-.15-.51-.4-.59-.74-.16-1.09-.28c.69,0,1.49-.2,1.89.67l0,.35c-.19.11-.32.34-.61.3a11.16,11.16,0,0,1-3-.52h0Z"/><path class="cls-26" d="M1322.39,233.32a11.16,11.16,0,0,0,3,.52c.29,0,.42-.19.61-.3a.38.38,0,0,1-.28.64,7.09,7.09,0,0,1-3.18-.55C1322.44,233.59,1322.43,233.43,1322.39,233.32Z"/><path class="cls-27" d="M1330.39,234.4c.2,0,.41.08.56-.12.45,0,.38-.37.44-.64a2.75,2.75,0,0,1,.34-1.33,3.94,3.94,0,0,1-.13,2.06C1331.43,234.88,1330.74,234.86,1330.39,234.4Z"/><path class="cls-23" d="M1385.38,217.39a2.6,2.6,0,0,1,.47-1.92A1.71,1.71,0,0,1,1385.38,217.39Z"/><path class="cls-28" d="M1318.49,229.46l-.36,3.21-.17,0a15.2,15.2,0,0,1,.18-3.23Z"/><path class="cls-28" d="M1318.67,232.73a7.4,7.4,0,0,0,.43-2.18c.05-.34-.06-.73.28-1l.18,0a14.4,14.4,0,0,0-.32,2.86A.54.54,0,0,1,1318.67,232.73Z"/><path class="cls-27" d="M1332.85,231.13l-.34,3A4.27,4.27,0,0,1,1332.85,231.13Z"/><path class="cls-18" d="M1316.18,226l-.52,4.6a10.87,10.87,0,0,1,.52-4.6Z"/><path class="cls-23" d="M1352.57,234.75c.54.61.1,1.29.13,1.94A1.45,1.45,0,0,1,1352.57,234.75Z"/><path class="cls-28" d="M1313.13,232.29c.06-.33.26-.35.52-.23a3.3,3.3,0,0,0,2,.15.38.38,0,0,1-.22.34l-.2.15h0l-1.43-.16h-.17a.38.38,0,0,0-.34-.22Z"/><path class="cls-27" d="M1334.36,231.23c.32.11.72-.06,1,.28-1.94.18-.75,1.91-1.53,2.82a12.55,12.55,0,0,1,.55-3.09Z"/><path class="cls-27" d="M1330.18,231.49c.3.91-.12,1.79-.12,2.69-.88.1-.55-.63-.4-.81A3.47,3.47,0,0,0,1330.18,231.49Z"/><path class="cls-18" d="M1339.49,231.57l-.42,3.76H1339l.43-3.78Z"/><path class="cls-23" d="M1361.54,237.53l-.42.13a2.65,2.65,0,0,1,.29-1.61l.43.08Z"/><path class="cls-29" d="M1361.84,236.13l-.43-.08a1.83,1.83,0,0,1,1-.88c.11,0,.26,0,.24-.19l0,.05,0,0,.06,0,.06,0,.07.27-.87.63Z"/><path class="cls-24" d="M1346.9,213.53c.15.47.26.78.36,1.1s.27.42,0,.54-.39-.17-.45-.39A1.72,1.72,0,0,1,1346.9,213.53Z"/><path class="cls-27" d="M1335.49,232.14l-.27,2.41C1334.69,233.57,1335.26,232.86,1335.49,232.14Z"/><path class="cls-27" d="M1319.24,232.44a14.4,14.4,0,0,1,.32-2.86,1.11,1.11,0,0,1,.23.12C1319.5,230.59,1319.72,231.59,1319.24,232.44Z"/><path class="cls-18" d="M1349.2,234.16a2.42,2.42,0,0,1-.53,1.31c0-.73.44-1.35-.22-1.79a1.19,1.19,0,0,1,.45-.09Z"/><path class="cls-27" d="M1318.14,229.42a15.2,15.2,0,0,0-.18,3.23c-.1-.07-.27-.14-.27-.2A7.63,7.63,0,0,1,1318.14,229.42Z"/><path class="cls-27" d="M1336.86,231.51c.07.05.21.1.2.14-.1,1-.22,2-.33,3.07l-.23,0,.36-3.17Z"/><path class="cls-23" d="M1350,220c-.39-.57-.17-1,.06-1.46C1350.52,219,1350.29,219.44,1350,220Z"/><path class="cls-18" d="M1312.94,230.07l-.47-.25c-.08-.28-.29-.66.11-.75s.26.35.31.57A3.15,3.15,0,0,1,1312.94,230.07Z"/><path class="cls-24" d="M1345.46,218.61c.12.2.2.26.2.33,0,.31.31.59.1.9,0,0-.19,0-.23,0A.94.94,0,0,1,1345.46,218.61Z"/><path class="cls-27" d="M1327.55,233.79l1.53.64A1.2,1.2,0,0,1,1327.55,233.79Z"/><path class="cls-23" d="M1353.25,239.66c.21.55.41.88.12,1.25,0,.05-.15.12-.23,0C1352.91,240.56,1353,240.22,1353.25,239.66Z"/><path class="cls-27" d="M1331,234.11l-.17-.2c.09-.82.19-1.64.28-2.46h.19Z"/><path class="cls-27" d="M1337.67,234.26l.23-2.06h.09l-.23,2.09Z"/><path class="cls-27" d="M1333.79,229.91l-.06.53h0a.33.33,0,0,0-.4.32h0c-.45-.45-.36-.61.46-.85Z"/><path class="cls-28" d="M1323.44,228.75l0-.18h0l.71.08.18,0,.62.29c-.63.25-1-.28-1.53-.21Z"/><path class="cls-27" d="M1326.86,231.63c0-.43-.21-.92.38-1.38Z"/><path class="cls-27" d="M1313.81,232.55l1.43.16C1314.72,233,1314.23,233.12,1313.81,232.55Z"/><path class="cls-27" d="M1320.29,229.6c.36-.13.51-.45.72-.72C1321.05,229.35,1321,229.74,1320.29,229.6Z"/><path class="cls-26" d="M1322.27,232.77l.12.56c-.51,0-.72-.29-.63-.8h0l.18,0h0a.36.36,0,0,0,.33.22Z"/><path class="cls-28" d="M1316,232.08c-.46-.12-.27-.47-.27-.76l.17,0c-.1.4.56.36.45.77Z"/><path class="cls-27" d="M1335.65,230.44l-1.15-.13C1334.88,229.94,1335.21,230.13,1335.65,230.44Z"/><path class="cls-28" d="M1319.13,228.63c-.16.21-.25.51-.6.48a2.92,2.92,0,0,1,.28-.62C1319.05,228.18,1319.1,228.39,1319.13,228.63Z"/><path class="cls-27" d="M1328.1,232.34l.1-.87c.06.3.63.69-.1.87Z"/><path class="cls-18" d="M1347.69,236.33c-.25,0-.54,0-.7-.25a.44.44,0,0,1,.72.08C1347.7,236.22,1347.7,236.27,1347.69,236.33Z"/><path class="cls-27" d="M1338.05,230.17l-1-.11V230l1,.11Z"/><path class="cls-26" d="M1321.76,232.53c-.47-.11-.28-.46-.28-.75h0l.33.22h0l-.06.53Z"/><path class="cls-27" d="M1328.87,230.73c.33-.15.58-.32.67-.06s-.2.15-.33.16S1329.05,230.79,1328.87,230.73Z"/><path class="cls-27" d="M1331.69,231.94a1.27,1.27,0,0,1,0-.92A1.27,1.27,0,0,1,1331.69,231.94Z"/><path class="cls-27" d="M1338.2,230.76l-.86-.09c.32-.16.62-.21.86.09Z"/><path class="cls-28" d="M1324,231.88c-.26,0-.52,0-.5-.42h0l.54.06Z"/><path class="cls-28" d="M1318.13,232.67l.54.06,0,.35-.54-.06Z"/><path class="cls-27" d="M1332.92,234.69c.09.05.2.09.22.14s-.07.2-.2.18a.21.21,0,0,1-.15-.14C1332.78,234.82,1332.87,234.76,1332.92,234.69Z"/><path class="cls-27" d="M1318.09,233l.54.06c0,.15-.08.3-.26.3S1318.1,233.21,1318.09,233Z"/><path class="cls-27" d="M1336.58,230.76c-.1.14-.19.3-.41.24,0,0-.07-.11-.05-.14.11-.2.3-.09.46-.1Z"/><path class="cls-27" d="M1339,230.52c-.13,0-.21.07-.26,0s-.09-.12-.14-.19.16-.07.21-.05S1338.86,230.42,1339,230.52Z"/><path class="cls-27" d="M1326.79,232.27s.13,0,.14.08a.14.14,0,0,1-.08.13s-.09,0-.14-.07Z"/><path class="cls-26" d="M1324.18,228.65l-.71-.08A.43.43,0,0,1,1324.18,228.65Z"/><path class="cls-27" d="M1333.79,229.91a.27.27,0,0,1,.36-.1s0,0,0,.07l-.39,0Z"/><path class="cls-27" d="M1338.28,235.64l-.12-.1s.1-.06.15,0,.08.06.12.09Z"/><path class="cls-27" d="M1335.72,235.18a.28.28,0,0,1,.36-.1s0,0,0,.07l-.39,0Z"/><path class="cls-27" d="M1339.25,231l-.1.12s-.05-.1,0-.14.05-.08.09-.12Z"/><path class="cls-27" d="M1332.44,234.5v-.08h.06C1332.53,234.48,1332.51,234.51,1332.44,234.5Z"/><path class="cls-27" d="M1313.3,232.31a.38.38,0,0,1,.34.22A.38.38,0,0,1,1313.3,232.31Z"/><path class="cls-27" d="M1330.06,234.18l.16.2C1329.93,234.51,1330.09,234.27,1330.06,234.18Z"/><path class="cls-27" d="M1314.45,229.11l-.1,0,0-.07Z"/><path class="cls-28" d="M1324,231.52c.14-.17.26-.16.35,0Z"/><path class="cls-27" d="M1329.29,233l-.06-.06s0,0,.08,0,0,0,0,.06Z"/><path class="cls-25" d="M1362.7,235c0,.19-.13.17-.24.19Z"/><path class="cls-25" d="M1362.85,235l-.06,0-.06,0c0-.05,0-.1,0-.15Z"/><path class="cls-27" d="M1335.79,231.4l-.07-.06.07,0Z"/><path class="cls-27" d="M1335.73,235.18l-.06.07,0-.07Z"/><path class="cls-27" d="M1337.07,231.18l0-.07,0,.07Z"/><path class="cls-18" d="M1315.24,232.7l.2-.15Z"/><path class="cls-27" d="M1336.58,230.76l.05-.07-.05.07Z"/><path class="cls-24" d="M1298.91,244.76a6.07,6.07,0,0,1-.68-.23,1.08,1.08,0,0,1-.73-.84c-.06-.44.41-.52.7-.67a3.46,3.46,0,0,1,2.64-.47,1.12,1.12,0,0,1,.93.86c.08.51-.37.7-.72.9A3.8,3.8,0,0,1,1298.91,244.76Zm0-.47a3.64,3.64,0,0,0,1.77-.28c.25-.1.52-.22.47-.55s-.33-.41-.6-.45a3.44,3.44,0,0,0-1.74.22c-.31.1-.8.17-.74.62S1298.63,244.2,1298.92,244.29Z"/><path class="cls-23" d="M1291.88,222.65c-.06.71-.27,1.11-1,1.25A2,2,0,0,1,1291.88,222.65Z"/><path class="cls-20" d="M1352.33,227.47c-.13-.63-.36-.26-.57-.06-1.27.11-1.78.79-1.49,2-.06.38,0,.69.45.77a.38.38,0,0,0,.34.22v.26l-.14.26a2.15,2.15,0,0,1-1.36-2.42,2,2,0,0,1,1.61-1.68c1.22-.12,2.22.24,2.52,1.12a2.49,2.49,0,0,0,.29.43.39.39,0,0,0,.14.39c0,.06,0,.11,0,.17-.2.22-.06.48-.08.72a1.11,1.11,0,0,1,0,.17.38.38,0,0,0-.22.34c0,.06,0,.11,0,.17h-.18l-.19,0c0-.21.09-.42-.13-.56l.06-.17.15-.27v-.16C1353.31,228.44,1353.52,227.47,1352.33,227.47Z"/><path class="cls-20" d="M1352.33,227.47c1.19,0,1,1,1.16,1.67-.85,0-.77.67-1,1.2.48,0,.51-.46.8-.6.22.14.16.35.13.56a3.94,3.94,0,0,1-1.12.57c-.32.08-.46.5-.47.87-.47-.06-.43-.37-.31-.68A20.28,20.28,0,0,0,1352.33,227.47Z"/><path class="cls-17" d="M1349.54,232.73a1.25,1.25,0,0,1-.08-.87l1.07.1-.11.87Z"/><path class="cls-27" d="M1354,229.65c0-.24-.12-.5.08-.72A.44.44,0,0,1,1354,229.65Z"/><path class="cls-27" d="M1354.13,228.76a.39.39,0,0,1-.14-.39A.37.37,0,0,1,1354.13,228.76Z"/><path class="cls-27" d="M1353.79,230.16a.38.38,0,0,1,.22-.34A.35.35,0,0,1,1353.79,230.16Z"/><path class="cls-27" d="M1353.6,230.32h.18C1353.71,230.46,1353.65,230.45,1353.6,230.32Z"/><path class="cls-29" d="M1355.28,234.41c0,.46.59,1-.13,1.39-.22.12-.37.17-.54,0a.78.78,0,0,1-.26-.63c0-.35.19-.14.38-.14s.41-.37.33-.7Z"/><path class="cls-18" d="M1356.15,234.49c.09-.89-.43-1.33-1.35-1.64C1356.06,232.68,1356.63,233.49,1356.15,234.49Z"/><path class="cls-18" d="M1355.28,234.41l-.22-.07c-.18-.12-.55,0-.51-.37,0-.19.23-.25.42-.23C1355.44,233.79,1355.33,234.12,1355.28,234.41Z"/><path class="cls-18" d="M1353.63,236.36a1.08,1.08,0,0,1-.31.17c-.17,0-.19-.13-.11-.23a.42.42,0,0,1,.27-.14S1353.56,236.27,1353.63,236.36Z"/><path class="cls-18" d="M1354.55,232.94c-.1.06-.17.13-.23.13s-.11-.07-.17-.11.12-.13.18-.14S1354.45,232.88,1354.55,232.94Z"/><path class="cls-17" d="M1351,232.89c0-.28-.36-.73.13-.81s.42.42.43.76A.73.73,0,0,1,1351,232.89Z"/><path class="cls-28" d="M1345.67,231.79c0,.06-.07.19-.09.19s-.08-.15-.09-.24Z"/><path class="cls-20" d="M1351.07,230.66v-.26c0-.16.1-.37-.08-.45s-.21.11-.26.23c-.45-.08-.51-.39-.45-.77a.58.58,0,0,0,.42-.61c0-.71.43-1,1.06-1A5.25,5.25,0,0,1,1351.07,230.66Z"/><path class="cls-20" d="M1351.75,227.76c-.63.06-1.06.33-1.06,1a.58.58,0,0,1-.42.61c-.29-1.21.22-1.89,1.49-2Z"/><path class="cls-22" d="M1361.84,236.13l.21-.2a4.67,4.67,0,0,1,1.72.84l-1,.19c-.17,0-.37-.2-.5,0s0,.46.2.61a1.61,1.61,0,0,1,.45,1.92,1.48,1.48,0,0,1-1,1,23.93,23.93,0,0,1-.36-2.9Z"/><path class="cls-22" d="M1367.14,238.17a1.55,1.55,0,0,1-1.55.35c-.27,0-.48-.14-.34-.46s.2-.43.58-.32S1366.56,238.44,1367.14,238.17Z"/><path class="cls-22" d="M1363.27,237.72l-.21-.45c.14-.21.36-.37.52-.08S1363.63,237.69,1363.27,237.72Z"/><path class="cls-22" d="M1364.1,236.94a1.15,1.15,0,0,1,0,.87C1363.87,237.56,1364,237.34,1364.1,236.94Z"/><path class="cls-22" d="M1366.16,237l.14.08s0,.13-.09.14-.09-.05-.14-.07Z"/><path class="cls-28" d="M1322.91,231.94c-.64-.44-.47-1-.19-1.54s.73-.75,1.62-.56c-.43.32-1,.19-1.32.65s-.15,1-.11,1.45Z"/><path class="cls-28" d="M1321.82,232l-.33-.22c.16-.68-.06-1.46.55-2A5.22,5.22,0,0,0,1321.82,232Z"/><path class="cls-28" d="M1323.5,231.46c-.43-.13-.33-.37-.16-.67.32.21.14.46.16.67Z"/><path class="cls-28" d="M1322.91,231.94c.13,0,.28.05.24.25,0,0,0,.05-.06,0-.2,0-.17-.16-.18-.29Z"/><path class="cls-28" d="M1322.36,229.4c0-.05.05-.12.08-.13s.1,0,.14.07,0,.12-.08.13S1322.41,229.43,1322.36,229.4Z"/><path class="cls-28" d="M1321.76,232.53l.06-.53c.2.15.13.36.12.55Z"/><path class="cls-28" d="M1323.45,228.75l-.21.11,0-.07.24,0Z"/><path class="cls-28" d="M1322.27,232.77a.36.36,0,0,1-.33-.22A.37.37,0,0,1,1322.27,232.77Z"/><path class="cls-25" d="M1362.59,241c-.08.05-.16.07-.22,0l.14-.07A.39.39,0,0,1,1362.59,241Z"/><path class="cls-18" d="M1345.63,235.39c-.71-.95-.24-1.94-.1-2.92.28.84-.35,1.73.14,2.56Z"/><path class="cls-18" d="M1346.46,236a.65.65,0,0,1-.68-.44C1346.09,235.6,1346.36,235.68,1346.46,236Z"/><path class="cls-28" d="M1347.83,234.62l.06,0v.09s-.05,0-.06,0A.07.07,0,0,1,1347.83,234.62Z"/><path class="cls-23" d="M1346.72,232.06c.08-.08.14-.06.18,0Z"/><path class="cls-28" d="M1346.64,236c-.07.11-.13.11-.18,0Z"/><path class="cls-28" d="M1316.85,231.26c-.15,0-.34-.11-.29-.27.47-1.42.34-2.92.8-4.34l-.51,4.61Z"/><path class="cls-18" d="M1320,228.91l-.07,0,.07,0Z"/><path class="cls-18" d="M1333.33,230.76a.33.33,0,0,1,.4-.32A.33.33,0,0,1,1333.33,230.76Z"/><path class="cls-30" d="M1298.92,244.29c-.29-.09-.78,0-.84-.44s.43-.52.74-.62a3.44,3.44,0,0,1,1.74-.22c.27,0,.55.15.6.45s-.22.45-.47.55A3.64,3.64,0,0,1,1298.92,244.29Z"/><path class="cls-20" d="M1353.28,229.74c-.29.14-.32.58-.8.6.24-.53.16-1.22,1-1.2v.16l-.15.27Z"/><path class="cls-27" d="M1350.72,230.18c0-.12.06-.33.26-.23s.08.29.08.45A.38.38,0,0,1,1350.72,230.18Z"/><path class="cls-27" d="M1353.34,229.57l.15-.27Z"/><path class="cls-18" d="M1317.44,228.31c-.16,1.47-1,4.05-.43,5.51a1.13,1.13,0,0,0,2.16,0,20.81,20.81,0,0,0,1.28-5.34l-2.09.57c.74,1.42.35,3.48,1.43,4.68a1.13,1.13,0,0,0,1.87-.5c.37-1.29.27-3.64,1.11-4.74h-1.58c1.3,1.55.49,4.27,1.73,5.83s2.92,1.31,4.69,1.49c1.12.11,1.51-1.6.57-2.09-1.31-.69-3.49-1.37-4.56-2.23l-.3,0c-1.36,0-1.12-.36.71-1.19-.17,0,2.53,2.76,2,2.25l1.36-1.76a7,7,0,0,0-3.84-1.39c-1.78-.28-5.22-1.9-6.69-1.68a2,2,0,0,0-1.55.69c-.36.4-1.11,5.22-1.59,3.3l-1.08,1.42c3.66.11,9.64-3.68,6.5-7.89a1.14,1.14,0,0,0-2,.26c-.54,2.1,2.07,4,2.73,5.79l1.38-1.38-3-2.35-1.76,1.36a48.42,48.42,0,0,0,8.65,5.44c2,1,4.84,2.79,7.15,1.79,1.14-.5,2.42-2,2-3.26-.86-2.67-5.66-.44-6.45-3.42l-1.65,1.27a39.74,39.74,0,0,0,5.12,2.81,1.15,1.15,0,0,0,1.69-1c.18-2.41-.94-6.38-3.79-4-1.86,1.54-1.34,6.56,1.68,5.59a1.14,1.14,0,0,0,.79-.79c.29-1.7-.61-5.34-3-5.06a1.13,1.13,0,0,0-1.08.82c-.5,2.32.93,7.43,4.24,6.36,2.26-.74,4.56-4.8,2.31-6.53a1.13,1.13,0,0,0-1.65.67c-.47,2.41,1.44,4.51,3.32,5.82a1.07,1.07,0,0,0,1.13,0,2.76,2.76,0,0,0,.89-3.9,1.14,1.14,0,0,0-2,.27,3.92,3.92,0,0,0-.32,1.36l2.09-.56a13.26,13.26,0,0,0-1.62-2.81l-1.09,1.87a8.9,8.9,0,0,1,2.5.6,1.14,1.14,0,0,0,1.92-.8,3.24,3.24,0,0,0-.28-1.25l-.78,1.38c-4,.59-6.66-.37-9.08,4.4-.39.77.28,2.06,1.26,1.65.66-.28,1.32-.54,2-.78,1.34-.5.76-2.67-.59-2.16-.67.24-1.34.5-2,.78l1.26,1.64c2-3.9,3.74-2.19,7.11-3.27.87-.28,1.86-.67,2.12-1.67a2.39,2.39,0,0,0-2.68-2.76,1.13,1.13,0,0,0-.78,1.38l.2.66,1.91-.79c-1-1.16-2.06-.91-3.5-1.17a1.13,1.13,0,0,0-1.09,1.87,15.39,15.39,0,0,1,1.28,2.36c.52,1.12,2,.41,2.09-.57l.23-.77-2,.27a4,4,0,0,1-1.24-2.45l-1.64.67-.4.54q-2.6,1.88-1.89-.33c-.2.07.4-4,0,1.49l1.69-1a37.45,37.45,0,0,1-5.12-2.81,1.13,1.13,0,0,0-1.64,1.27c.6,2.26,2,3.18,4,3.75l1.26-.12-1.48.19a24.58,24.58,0,0,1-4.43-2.07,41.48,41.48,0,0,1-7-4.48c-.91-.74-2.51.2-1.76,1.36a8.42,8.42,0,0,0,4.3,3.37c.77.32,1.65-.63,1.38-1.38-.47-1.27-2.87-4.07-2.74-4.59l-2,.27c1.6,2.15-2.34,4.59-4.56,4.52a1.12,1.12,0,0,0-1.08,1.42c.59,2.38,3.55,3.11,4.86,1.17.56-.83.06-3.24.82-3.83-1.22.94,1.6,1.18,1.94,1.27,2.23.57,5.22.39,7.08,1.81,1,.77,2.29-.91,1.36-1.76-2-1.87-5.19-6.93-7-1.2a3.62,3.62,0,0,0,.5,3.48c.39.45.94.19,1.42.4,1.6.69,3,1.23,4.52,2l.56-2.09c-3.07-.31-2.74-.3-3.47-3.19a8.17,8.17,0,0,0-1.37-3.47,1.12,1.12,0,0,0-1.58,0c-1.23,1.6-1.16,3.86-1.69,5.74l1.88-.5c.74.82-.22-1.57-.39-2.16a10.18,10.18,0,0,0-.69-2.06c-.57-1.09-2-.44-2.09.56a18.64,18.64,0,0,1-1.2,4.74h2.16c-.34-.85.4-3.89.51-4.91.16-1.43-2.08-1.42-2.24,0Z"/><path class="cls-19" d="M1289.82,222.75c-.12,1.16-.2,2.33-.4,3.48-.25,1.4,1.77,2,2.16.6s.74-2.52,1.12-3.79a28.38,28.38,0,0,1,1-3.77l-1.94-1.13a13.18,13.18,0,0,1-1.14,2.7c-.92,1.1.65,2.7,1.58,1.59a12.93,12.93,0,0,0,1.5-3.16c.58-1.3-1.34-2.45-1.94-1.13a24.66,24.66,0,0,0-1.1,3.77c-.4,1.45-.88,2.88-1.28,4.32l2.16.6c.24-1.35.34-2.72.48-4.08s-2.1-1.43-2.24,0Z"/><ellipse class="cls-2" cx="1223.52" cy="282.75" rx="46" ry="56.84"/><path class="cls-1" d="M1156,263.61c-1.31,4.33-4.45,7.24-2,12.73,5.52,12.47,17.47,17,30.79,20.49,1.4.36,2.08.58,5.08,1.26,11.94,2.71,25.13,1.49,37.5-2.22a5.46,5.46,0,0,0,.66-.23c.11-.06.12,0,.16-.07,12.59-11.38,6.43-20-9.06-19.85-1,0-1.67.75-2.94.92-.54.08-.09.24-1.51.32-11.81.65-24.4-1.59-36.41-3.91a13.77,13.77,0,0,0-3.62-.55c-7.16.51-13.79-6.48-16.53-11.64-3.25-6.12-.91-3.24,0,0C1156.9,261.75,1156.57,261.74,1156,263.61Z"/><path class="cls-31" d="M1210.71,301.9c-1.83.25-3.67.44-5.49.75-.81.14-1,0-1.12-.86-1.32-10.23-2.69-20.46-4-30.69a4,4,0,0,0,3.06-.15,3,3,0,0,1,3.79,1.26c.3.41,1,1,1.2.94,1.25-.8,1.77.37,2.54.82l.07.65c-.21.05-.48,0-.61.17-.72.68-.24,4.17.63,4.76l.19,1.35.32,2.53c.2,1.72.4,3.45.61,5.17-.79.55-.73,1,.17,1.3l.84,5.75,0,.38c-.46.35-.88.92-1.39,1a25.74,25.74,0,0,1-5.81.5c-.34,0-.67-.16-.72.33,0,.29,0,.65.33.67,2.11.18,4.14,1.08,6.31.59a1.18,1.18,0,0,1,.1.3C1211.36,300.25,1210.17,300.73,1210.71,301.9Z"/><path class="cls-32" d="M1211.71,299.44a1.18,1.18,0,0,0-.1-.3c1.07,0,1.47-.43,1.17-1.5-.09-.33-.25-.75.19-1,.52.12.34.63.51.94,0,1.3.81.52,1.31.54h0a3.51,3.51,0,0,0,2.16.34c7.54.4,15-.67,22.5-1.25s13.89-3.5,20.22-7l.12,0a8.87,8.87,0,0,0,3.4-1.77h0c.95-.21,1.48-1.21,2.47-1.33-1.26,1.8-3.24,2.65-5.06,3.63a71.73,71.73,0,0,1-15.51,6.34c-.22.06-.41.11-.43.38l-9.37,1.24c-.33-.51-.79-.17-1.18-.14-3.51.23-7,.42-10.53.78C1219.6,299.7,1215.65,299.06,1211.71,299.44Z"/><path class="cls-33" d="M1210.64,274c-.77-.45-1.29-1.62-2.54-.82-.15.09-.9-.53-1.2-.94a3,3,0,0,0-3.79-1.26,4,4,0,0,1-3.06.15l-.17-1.29c.49-.07.94.21,1.47-.29a1.35,1.35,0,0,1,2.12.14c.43.56,1,.67,1.3.1.79-1.76,2.24-.44,3.32-.74.37-.1.3,1.2.47,1.85-.07.07-.16.14-.22.21s0,.11,0,.12C1209.64,271.69,1210.84,272.26,1210.64,274Z"/><path class="cls-34" d="M1210.64,274c.2-1.71-1-2.28-2.28-2.77,0,0,0-.1,0-.12s.15-.14.22-.21c1.64.08,2.83.57,2.7,2.57,0,.74.55,1.11,1.26,1.26,3.78.77,7.14-.43,10.37-2.21a2.61,2.61,0,0,0,1-1.77c1.48-5,3.67-9.65,7.6-13.31a11.71,11.71,0,0,0,2.21-3,6.65,6.65,0,0,1,8-3.09c1.39.53,3,.5,4.34,1.11l-.54.17-3.41-.43-.12,0a5.13,5.13,0,0,0-5.8.57c-1.48,1.07-2.16,2.56-3,4l0,0c-1.37,1.7-3.16,3-4.34,4.91a1.68,1.68,0,0,0-.67,1,7.26,7.26,0,0,0-1.83,3.64l0,0a14.43,14.43,0,0,0-1.54,4.15l-.16.53-.61,1.27a.19.19,0,0,0-.11.21l-.37.74.06.07,0-.08c-1,2.22-.87,4.56-.61,6.89a8.82,8.82,0,0,1-.26,3.62c-.17.56-.56,1-.89,0h0a1.94,1.94,0,0,0,.66-1.74,74.19,74.19,0,0,1-.3-8.22,17.19,17.19,0,0,1-7.77,2c-.9,0-2-.53-2.66-.2-.93.43.06,1.76-.53,2.57-.17-1.17-.33-2.34-.49-3.51Z"/><path class="cls-34" d="M1249.75,254a2.18,2.18,0,0,1,1.5,1.72c.09,1.16.49,1.13,1.47.89,2.91-.72,5.86-1.28,8.8-1.86.34-.07.84-.43,1.12.17l-2.52.59c-4.54,1.05-9,2.84-13.8,2a3.68,3.68,0,0,0-1.6.18,4.46,4.46,0,0,0-3.46,3.32,4.17,4.17,0,0,0,1,4.13h0l.41,0h0a1.68,1.68,0,0,0-.71,1.62,27.81,27.81,0,0,1,.28,3.67c0,.84,0,2.34,1.75,2.08l.35.21c-.32.34-1.14-.05-1.14.6,0,.48.61.7,1.06.89s.89.36,1.34.54l.11.76c-.56.4-.2.74.08,1,.65.69,1.33,1.36,2,2l-1,0-.27-.22-1-.95-.1-.08-.86-.79a.13.13,0,0,0-.11-.16c-.57-.64-.74-1.59-1.55-2-.59-.28-1.08.21-1.63.2,0-.49,0-1,0-1.45a36.79,36.79,0,0,0-.49-9.66c-.22-1.09-.8-2.14-.27-3.29a.18.18,0,0,0,.12-.24l.52-.83.09,0v-.1l.38-.43h0c1.8-1.93,4-1.75,6.38-1.48.94.11,2.29.82,2.82-.2s-.82-1.67-1.41-2.45Z"/><path class="cls-35" d="M1267.62,267.45l-.25.64c0,1.09-.24,2.22.4,3.24a32,32,0,0,0,1.79,7c.65,2.14,1.15,4.34-.92,6.1l-.11-.09c-.32-1.29,1-2.11.92-3.4,0-2.27-1.52-4.13-1.56-6.36,0-.22-.16-.49-.38-.43a1,1,0,0,0-.6.46,4.16,4.16,0,0,0-.59,3c.15.65.11,1.24-.77,1.24s-.82-.71-.78-1.27.19-1.39.29-2.09-.19-1.56.78-1.91l.38.2a7.45,7.45,0,0,0,.48-3.88c0-.07-.33.13-.41.33-.39-.26-.26-.62-.25-1a83.62,83.62,0,0,0-.08-9.63c-.09-1.26-1.27-2-1.14-3.26a3.21,3.21,0,0,1,1.65,3.07c0,1.24.12,2.47.16,3.71,0,.38-.06.79.52.8.16.54-.84,1.73.81,1.46.08.54-.24.73-.7.79-.14-.16-.25-.39-.42-.45s-.41.19-.26.34C1267,266.45,1266.7,267.41,1267.62,267.45Z"/><path class="cls-35" d="M1242.24,265.1a4.17,4.17,0,0,1-1-4.13,4.46,4.46,0,0,1,3.46-3.32,3.68,3.68,0,0,1,1.6-.18c4.83.87,9.26-.92,13.8-2l2.52-.59.68.06c0,.56.55.65.9.9a2.11,2.11,0,0,1-1.58.28c-2.9-1.09-5.32.84-7.91,1.41-2.2.49-4.25,1.17-6.54.75-1.79-.34-3.59-.43-4.91,1.22-1,1.2-1.83,2.42-1.17,4.12A5.33,5.33,0,0,1,1242.24,265.1Z"/><path class="cls-32" d="M1268.64,284.45c2.07-1.76,1.57-4,.92-6.1a32,32,0,0,1-1.79-7,.51.51,0,0,0,.3,0c.82,2.21,1.67,4.42,2.45,6.65,1.23,3.53.27,6.27-2.63,7.92a2.32,2.32,0,0,1-1.36.3C1267.2,285.57,1268.1,285.23,1268.64,284.45Z"/><path class="cls-34" d="M1264.22,255.87c-.35-.25-.85-.34-.9-.9,3.12.86,3.91,2,3.76,5.3a11.53,11.53,0,0,0,.22,1.93c-.66.51,0,1.13-.15,1.69-.58,0-.5-.42-.52-.8,0-1.24-.14-2.47-.16-3.71a3.21,3.21,0,0,0-1.65-3.07l0,0-.57-.41Z"/><path class="cls-35" d="M1268.64,284.45c-.54.78-1.44,1.12-2.11,1.74v.45c-.38,0-.87-.22-.92.46l0,0c-1,.12-1.52,1.12-2.47,1.33a1.38,1.38,0,0,1,.93-1.35,3.23,3.23,0,0,0,2-1.48,2.93,2.93,0,0,1,2.46-1.2Z"/><path class="cls-36" d="M1249.75,254l-.31.39a10.32,10.32,0,0,1-3.88-1.78l.54-.17A9.26,9.26,0,0,1,1249.75,254Z"/><path class="cls-37" d="M1267.15,263.89c.17-.56-.51-1.18.15-1.69.69.95.56,2.07.66,3.15C1266.31,265.62,1267.31,264.43,1267.15,263.89Z"/><path class="cls-38" d="M1268.07,271.32a.51.51,0,0,1-.3,0c-.64-1-.39-2.15-.4-3.24C1268.25,269,1267.83,270.24,1268.07,271.32Z"/><path class="cls-37" d="M1267.62,267.45c-.92,0-.59-1-1-1.42-.15-.15,0-.45.26-.34s.28.29.42.45C1267.39,266.57,1268.11,266.84,1267.62,267.45Z"/><path class="cls-32" d="M1265.61,287.1c.05-.68.54-.45.92-.46A.72.72,0,0,1,1265.61,287.1Z"/><path class="cls-35" d="M1211.2,278.13c.59-.81-.4-2.14.53-2.57.71-.33,1.76.2,2.66.2a17.19,17.19,0,0,0,7.77-2,74.19,74.19,0,0,0,.3,8.22,1.94,1.94,0,0,1-.66,1.74,10.49,10.49,0,0,1-.09-4.18,4.64,4.64,0,0,0-.34-2.85c-.19-.45-.33-1.65-1.34-1.29a15.16,15.16,0,0,1-6.49.86c-1.25-.1-1.86.33-1.74,1.63.5,5.38,1,10.76,1.47,16.14l-.13,0-.13,0c-.57-3.54-.92-7.1-1.23-10.66,0-.92.23-1.94-.86-2.49-.06-.45-.13-.9-.19-1.35A2.49,2.49,0,0,0,1211.2,278.13Z"/><path class="cls-33" d="M1213,296.63c-.44.26-.28.68-.19,1,.3,1.07-.1,1.54-1.17,1.5-2.17.49-4.2-.41-6.31-.59-.28,0-.36-.38-.33-.67,0-.49.38-.34.72-.33a25.74,25.74,0,0,0,5.81-.5c.51-.1.93-.67,1.39-1Z"/><path class="cls-33" d="M1211.2,278.13a2.49,2.49,0,0,1-.47,1.42c-.87-.59-1.35-4.08-.63-4.76.13-.13.4-.12.61-.17Z"/><path class="cls-39" d="M1211.78,283.39c.31,3.56.66,7.12,1.23,10.66-.18.52.45,1.12-.15,1.6l-.84-5.75-.17-1.3c-.21-1.72-.41-3.45-.61-5.17Z"/><path class="cls-38" d="M1211.78,283.39l-.54,0-.32-2.53C1212,281.45,1211.74,282.47,1211.78,283.39Z"/><path class="cls-40" d="M1212.86,295.65c.6-.48,0-1.08.15-1.6l.13,0,.13,0c.12.86.24,1.72.35,2.58,0,.33.15.69-.14,1-.17-.31,0-.82-.51-.94l-.08-.6Z"/><path class="cls-33" d="M1211.85,288.6l.17,1.3C1211.12,289.58,1211.06,289.15,1211.85,288.6Z"/><path class="cls-41" d="M1213.62,296.59c-.11-.86-.23-1.72-.35-2.58-.49-5.38-1-10.76-1.47-16.14-.12-1.3.49-1.73,1.74-1.63a15.16,15.16,0,0,0,6.49-.86c1-.36,1.15.84,1.34,1.29a4.64,4.64,0,0,1,.34,2.85,10.49,10.49,0,0,0,.09,4.18h0c-.42.1-.83.36-.42.74s1.24.09,1.85,0,.53-.61.46-1c-.36-2.09.11-4.22-.21-6.29-.21-1.34.84-2.62.08-3.94l0,.08-.06-.07c.54,0,.81-.21.37-.74a.19.19,0,0,1,.11-.21c1.34.13.52-.79.61-1.27l.16-.53c.83-.39,1.79-.84,1.58-1.92a13.9,13.9,0,0,1,0-2.23l0,0a3.61,3.61,0,0,0,1.83-3.64,1.68,1.68,0,0,1,.67-1c.37,0,.9.11,1.09-.08a37.12,37.12,0,0,1,3.28-3.48c.44-.35.18-.9,0-1.35l0,0a1.2,1.2,0,0,0,1.54-.74c1.57-3.34,2.87-4,6.41-3.52.28,0,.59-.19.89-.29l.12,0c0,.72.6.48.94.6,1.1.39,2.26.63,3.32,1.1a1.39,1.39,0,0,1,.94,1.66,1.6,1.6,0,0,1-1.87.94c-.25,0-.48-.23-.74-.29-1.1-.26-3,1.18-3.09,2.33h0c-.28,0-.38.18-.38.43v.1l-.09,0c-.36.06-.79.05-.92.48-.08.26.19.31.4.35a.18.18,0,0,1-.12.24c-.83.19-1,.32-.78,1.44.63,3.08,1.38,6.2,1,9.43a4.57,4.57,0,0,0,.59,3.53c.55,0,1-.48,1.63-.2.1,1,.2,2,1.55,2a.13.13,0,0,1,.11.16c.08.5-.07,1.24.86.79l.1.08c-.23.91.28,1,1,.95l.27.22a2.22,2.22,0,0,0,2.42,2.44c.46,0,.91.59,1.4-.13s-.55-.81-.44-1.33c.1-.1.46.09.31-.28l-.31.28c-.64-.45-1.54.2-2.11-.52l-.34-.49h0c-.66-.67-1.34-1.34-2-2-.28-.3-.64-.64-.08-1a3,3,0,0,1,2.19-.95c2.17,0,3.77,1.57,6,2.38l-1.72-1.78-.45-.35-.29-.16c0-1.12-1.25-1.84-1.06-3v0a.38.38,0,0,0,.23-.45l0,0c.55-.16,1.06-.34.93-1.08v0a16.55,16.55,0,0,1,5.89-.75h0c.44,1,1.31.54,2,.54.17,0,.57-.25.42-.54-.24-.49-.75-.49-1.23-.45h0c-.11-.16-.25-.22-.42-.07a.17.17,0,0,1-.16-.06c.39-1.34-.58-1.25-1.38-1.29a3.09,3.09,0,0,1-2.12-.91c-.59-.62.54-.9.56-1.47,0-.21,0-.43,0-.64.33-.3.73-.56.71-1.09a2.44,2.44,0,0,0-1.84.74c-.93.7-.5,2.08-1.52,2.66a4.88,4.88,0,0,1-3.51.71c-.2-1.37-.39-2.75-.58-4.12-.15-.32.37-1-.43-.92-.6,0-.62.51-.53,1a7.33,7.33,0,0,1-.6,5.25,4.81,4.81,0,0,0-1,2.31l0,0c-.48.16-1.47-.32-1.08.89v0l-1.26-.12a10.83,10.83,0,0,0,.23-5.94c-.1-.58-.52-.78-1.08-.73h0c-.12-.16-.25-.2-.41,0h0a5.33,5.33,0,0,0-.13-1.45c-.66-1.7.22-2.92,1.17-4.12,1.32-1.65,3.12-1.56,4.91-1.22,2.29.42,4.34-.26,6.54-.75,2.59-.57,5-2.5,7.91-1.41a2.11,2.11,0,0,0,1.58-.28h0c0,.37.29.41.57.41l0,0c-.13,1.25,1,2,1.14,3.26a83.62,83.62,0,0,1,.08,9.63c0,.39-.14.75.25,1l-.07.7c-.53.33-.31.78-.21,1.21v.07c-.45.33-.28.77-.21,1.2l.07.07,0,.1c-1,.35-.67,1.21-.78,1.91s-.24,1.39-.29,2.09-.17,1.28.78,1.27.92-.59.77-1.24a4.16,4.16,0,0,1,.59-3,1,1,0,0,1,.6-.46c.22-.06.37.21.38.43,0,2.23,1.52,4.09,1.56,6.36,0,1.29-1.24,2.11-.92,3.4a2.93,2.93,0,0,0-2.46,1.2,3.23,3.23,0,0,1-2,1.48,1.38,1.38,0,0,0-.93,1.35h0c-1.35.18-2.83.11-3.4,1.77l-.12,0a6.7,6.7,0,0,0-2.83.57,45.66,45.66,0,0,1-7.44,3.53,28.92,28.92,0,0,1-9.51,2.38,53.61,53.61,0,0,0-5.8.51c-3,.5-6.15.25-9.19.86a3.58,3.58,0,0,1-.8,0c-3.11-.09-6.21-.49-9.31.08h0C1214.53,297.51,1214.55,296.68,1213.62,296.59Z"/><path class="cls-35" d="M1214.77,298.1c3.1-.57,6.2-.17,9.31-.08a3.58,3.58,0,0,0,.8,0c3-.61,6.15-.36,9.19-.86a53.61,53.61,0,0,1,5.8-.51,28.92,28.92,0,0,0,9.51-2.38,45.66,45.66,0,0,0,7.44-3.53,6.7,6.7,0,0,1,2.83-.57c-6.33,3.5-12.81,6.43-20.22,7s-15,1.65-22.5,1.25A3.51,3.51,0,0,1,1214.77,298.1Z"/><path class="cls-35" d="M1259.77,290.15c.57-1.66,2-1.59,3.4-1.77A8.87,8.87,0,0,1,1259.77,290.15Z"/><path class="cls-35" d="M1213.62,296.59c.93.09.91.92,1.17,1.52-.5,0-1.33.76-1.31-.54C1213.77,297.28,1213.64,296.92,1213.62,296.59Z"/><path class="cls-35" d="M1241.65,258.51c.1-1.15,2-2.59,3.09-2.33.26.06.49.26.74.29a1.6,1.6,0,0,0,1.87-.94,1.39,1.39,0,0,0-.94-1.66c-1.06-.47-2.22-.71-3.32-1.1-.34-.12-1,.12-.94-.6l3.41.43a10.32,10.32,0,0,0,3.88,1.78c.59.78,2,1.43,1.41,2.45s-1.88.31-2.82.2C1245.7,256.76,1243.45,256.58,1241.65,258.51Z"/><path class="cls-35" d="M1223.57,273.15c.76,1.32-.29,2.6-.08,3.94.32,2.07-.15,4.2.21,6.29.07.43.13.94-.46,1s-1.31.51-1.85,0,0-.64.42-.74c.33,1,.72.53.89,0A8.82,8.82,0,0,0,1223,280C1222.7,277.71,1222.54,275.37,1223.57,273.15Z"/><path class="cls-35" d="M1242,252.15c-.3.1-.61.33-.89.29-3.54-.5-4.84.18-6.41,3.52a1.2,1.2,0,0,1-1.54.74c.88-1.42,1.56-2.91,3-4A5.13,5.13,0,0,1,1242,252.15Z"/><path class="cls-35" d="M1233.17,256.73c.21.45.47,1,0,1.35a37.12,37.12,0,0,0-3.28,3.48c-.19.19-.72.06-1.09.08C1230,259.77,1231.8,258.43,1233.17,256.73Z"/><path class="cls-35" d="M1226.35,266.26a13.9,13.9,0,0,0,0,2.23c.21,1.08-.75,1.53-1.58,1.92A14.43,14.43,0,0,1,1226.35,266.26Z"/><path class="cls-35" d="M1228.16,262.64a3.61,3.61,0,0,1-1.83,3.64A7.26,7.26,0,0,1,1228.16,262.64Z"/><path class="cls-35" d="M1224.65,270.94c-.09.48.73,1.4-.61,1.27C1224.24,271.79,1224.44,271.36,1224.65,270.94Z"/><path class="cls-35" d="M1223.93,272.42c.44.53.17.7-.37.74Z"/><path class="cls-35" d="M1242.63,265.14c.56-.05,1,.15,1.08.73a10.83,10.83,0,0,1-.23,5.94l1.26.12-.79.58c-1.7.26-1.74-1.24-1.75-2.08a27.81,27.81,0,0,0-.28-3.67A1.68,1.68,0,0,1,1242.63,265.14Z"/><path class="cls-35" d="M1241.26,274.55a4.57,4.57,0,0,1-.59-3.53c.43-3.23-.32-6.35-1-9.43-.22-1.12,0-1.25.78-1.44-.53,1.15,0,2.2.27,3.29a36.79,36.79,0,0,1,.49,9.66C1241.23,273.58,1241.26,274.06,1241.26,274.55Z"/><path class="cls-35" d="M1245.56,274.75c-.45-.18-.9-.35-1.34-.54s-1-.41-1.06-.89c0-.65.82-.26,1.14-.6l2.21-.82.4.55.25.57C1247.69,274.57,1246.27,274.34,1245.56,274.75Z"/><path class="cls-35" d="M1250.16,279.58c-.11.52.95.58.44,1.33s-.94.13-1.4.13a2.22,2.22,0,0,1-2.42-2.44l1,0h0l.34.49c.57.72,1.47.07,2.11.52Z"/><path class="cls-36" d="M1246.51,271.9l-2.21.82-.35-.21.79-.58v0c.38-.28.85-.43,1.08-.89l0,0c.75-.35,1.07-1.14,1.7-1.62l.33.27a1.06,1.06,0,0,1,0,.31C1247,270.39,1247.06,271.34,1246.51,271.9Z"/><path class="cls-36" d="M1245.56,274.75c.71-.41,2.13-.18,1.6-1.73l.49,0h0l.23,1.06,0,.49a3,3,0,0,0-2.19.95Z"/><path class="cls-35" d="M1244.44,276.4c-1.35,0-1.45-1-1.55-2C1243.7,274.81,1243.87,275.76,1244.44,276.4Z"/><path class="cls-35" d="M1246.51,278.38c-.72.09-1.23,0-1-.95Z"/><path class="cls-35" d="M1240.62,259.91c-.21,0-.48-.09-.4-.35.13-.43.56-.42.92-.48Z"/><path class="cls-35" d="M1245.41,277.35c-.93.45-.78-.29-.86-.79Z"/><path class="cls-35" d="M1241.23,258.94c0-.25.1-.42.38-.43Z"/><path class="cls-35" d="M1242.24,265.1c.16-.15.29-.11.41,0Z"/><path class="cls-36" d="M1265.84,273.56l0-.1-.07-.07c.31-.36.15-.8.21-1.2v-.07c.32-.36.1-.81.21-1.21l.07-.7c.08-.2.4-.4.41-.33a7.45,7.45,0,0,1-.48,3.88Z"/><path class="cls-35" d="M1264.79,256.29c-.28,0-.54,0-.57-.41Z"/><path class="cls-34" d="M1247.86,274.56l0-.49c.72.22,1.09,0,.9-.79h0l.49-.8h0a5.38,5.38,0,0,0,.51-1.09c.18-.88-.42-1.45-1-2s-.69,0-1,.29l-.33-.27.78-1.45.08.38a2.81,2.81,0,0,0,4.12.12c.49-.44.63-.85,0-1.27l-.06-.36c1-.58.59-2,1.52-2.66a2.44,2.44,0,0,1,1.84-.74c0,.53-.38.79-.71,1.09-1.32.41-1.5,1.51-1.58,2.64,0,.46.13.92.72.78,1.44-.36,2.57.47,3.81.89a.17.17,0,0,0,.16.06l.42.07h0c-.22.62-.79.35-1.21.45h0c-2.09-.74-4.13-1.12-5.89.75v0a1.78,1.78,0,0,0-.93,1.08l0,0c-.08.15-.16.3-.23.45v0c-1.06,2-1,2,1.06,3l.29.16.45.35,1.72,1.78C1251.63,276.13,1250,274.55,1247.86,274.56Z"/><path class="cls-35" d="M1248.28,268l-.78,1.45c-.63.48-1,1.27-1.7,1.62a4.81,4.81,0,0,1,1-2.31,7.33,7.33,0,0,0,.6-5.25c-.09-.46-.07-.94.53-1,.8-.05.28.6.43.92C1247.8,264.93,1248.72,266.46,1248.28,268Z"/><path class="cls-35" d="M1258,268.84c-1.24-.42-2.37-1.25-3.81-.89-.59.14-.75-.32-.72-.78.08-1.13.26-2.23,1.58-2.64,0,.21,0,.43,0,.64,0,.57-1.15.85-.56,1.47a3.09,3.09,0,0,0,2.12.91C1257.44,267.59,1258.41,267.5,1258,268.84Z"/><path class="cls-35" d="M1251.48,270.16c1.76-1.87,3.8-1.49,5.89-.75A16.55,16.55,0,0,0,1251.48,270.16Z"/><path class="cls-35" d="M1251.43,274.65c-2.11-1-2.12-1.08-1.06-3C1250.18,272.81,1251.4,273.53,1251.43,274.65Z"/><path class="cls-36" d="M1252.42,266.84l.06.36c-1,1.08-2.25,1-3.54.73l0-.38A4.88,4.88,0,0,0,1252.42,266.84Z"/><path class="cls-35" d="M1257.36,269.41c.42-.1,1,.17,1.21-.45.48,0,1,0,1.23.45.15.29-.25.54-.42.54C1258.67,270,1257.8,270.44,1257.36,269.41Z"/><path class="cls-32" d="M1248.91,267.55l0,.38-.58.42-.08-.38c.44-1.51-.48-3,0-4.54C1248.52,264.8,1248.71,266.18,1248.91,267.55Z"/><path class="cls-35" d="M1245.82,271c-.23.46-.7.61-1.08.89C1244.35,270.7,1245.34,271.18,1245.82,271Z"/><path class="cls-35" d="M1250.56,271.22a1.78,1.78,0,0,1,.93-1.08C1251.62,270.88,1251.11,271.06,1250.56,271.22Z"/><path class="cls-35" d="M1266.22,270.91c-.11.4.11.85-.21,1.21C1265.91,271.69,1265.69,271.24,1266.22,270.91Z"/><path class="cls-35" d="M1266,272.19c-.06.4.1.84-.21,1.2C1265.74,273,1265.57,272.52,1266,272.19Z"/><path class="cls-34" d="M1248.05,279.06l-.34-.49Z"/><path class="cls-35" d="M1250.16,279.58l.31-.28c.15.37-.21.18-.31.28Z"/><path class="cls-35" d="M1252.17,275.16l-.45-.35Z"/><path class="cls-35" d="M1250.36,271.64c.07-.15.15-.3.23-.45A.38.38,0,0,1,1250.36,271.64Z"/><path class="cls-35" d="M1258.6,269l-.42-.07C1258.35,268.75,1258.49,268.81,1258.6,269Z"/><path class="cls-41" d="M1246.51,271.9c.55-.56.53-1.51,1.31-1.9,2,0,.92,1.68,1.42,2.5h0c-.48.07-.66.33-.49.8h0l-1.13-.27h0a.61.61,0,0,0-.74-.55Z"/><path class="cls-42" d="M1246.91,272.45a.61.61,0,0,1,.74.55l-.49,0Z"/><path class="cls-42" d="M1249.24,272.5c-.5-.82.54-2.51-1.42-2.5a1.06,1.06,0,0,0,0-.31c.28-.25.48-.8,1-.29s1.13,1.13,1,2A5.38,5.38,0,0,1,1249.24,272.5Z"/><path class="cls-42" d="M1247.65,273l1.13.27c.19.83-.18,1-.9.79Z"/><path class="cls-42" d="M1248.36,268.35l.58-.42c1.29.3,2.54.35,3.54-.73.63.42.49.83,0,1.27A2.81,2.81,0,0,1,1248.36,268.35Z"/><path class="cls-42" d="M1248.76,273.29c-.17-.47,0-.73.49-.8Z"/><path class="cls-24" d="M1204.63,275.15c-.18-.06-.44-.13-.68-.23a1.09,1.09,0,0,1-.73-.84c-.06-.44.41-.52.7-.68a3.5,3.5,0,0,1,2.64-.46,1.12,1.12,0,0,1,.93.86c.08.51-.37.7-.72.9A3.8,3.8,0,0,1,1204.63,275.15Zm0-.47a3.78,3.78,0,0,0,1.77-.28c.25-.1.52-.22.47-.55s-.33-.41-.6-.45a3.55,3.55,0,0,0-1.74.21c-.31.11-.8.17-.74.63S1204.35,274.59,1204.64,274.68Z"/><path class="cls-30" d="M1204.64,274.68c-.29-.09-.78,0-.84-.44s.43-.52.74-.63a3.55,3.55,0,0,1,1.74-.21c.27,0,.54.15.6.45s-.22.45-.47.55A3.78,3.78,0,0,1,1204.64,274.68Z"/><path class="cls-1" d="M1163.69,216c-4.44.89-8.48-.51-12.18,4.21-8.4,10.75-6.78,23.44-3.55,36.82.34,1.4.46,2.11,1.28,5.07,3.24,11.81,10.54,22.86,19.64,32a6.29,6.29,0,0,0,.52.47c.1.08.08.09.13.12,16,5.73,20.64-3.75,13.24-17.36-.47-.85-1.45-1.12-2.21-2.15-.32-.45-.25,0-1-1.19-6.14-10.1-10.1-22.26-13.71-34a13.72,13.72,0,0,0-1.23-3.45c-3.82-6.07-.79-15.21,2.47-20.06,3.87-5.75,2.43-2.34,0,0C1165.76,215.87,1165.6,215.58,1163.69,216Z"/></g><g id="Layer_4" data-name="Layer 4"><circle class="cls-1" cx="80.64" cy="137.48" r="38.99"/><circle class="cls-2" cx="80.82" cy="137.95" r="26"/><circle class="cls-1" cx="256.1" cy="137.48" r="38.99"/><circle class="cls-2" cx="258.82" cy="137.95" r="26"/><circle class="cls-1" cx="168.37" cy="142.36" r="92.61"/><path class="cls-1" d="M166.42,49.75c-.58,7.84,2.14.88,2.38.25,0,0,0-.13,0-.09"/><path class="cls-1" d="M119.75,218a13.66,13.66,0,0,0-14.46,1.89C96.11,227.6,81,241.83,74.09,257c-.72,1.59-1.2,3.28-1.92,4.87-2.88,6.37-9.93,24.28-7,41.05,0,.28.1.56.13.85a1,1,0,0,0,0,.16c2.06,16.67,26.82,15.36,27.12-1.43,0-1.06,0-2.18-.11-3.37a13,13,0,0,1,0-1.53c.14-4.25,1.34-23.47,11.76-37.57a12.87,12.87,0,0,0,1.91-3.79c2.4-7.5,10.57-31.73,17.31-36.79h0S121.81,219,119.75,218Z"/><path class="cls-1" d="M216.63,213a13.65,13.65,0,0,1,14.45,1.89c9.18,7.7,24.33,21.93,31.2,37.1.73,1.59,1.21,3.28,1.93,4.87,2.87,6.37,9.92,24.28,6.94,41.05,0,.28-.09.56-.12.85a.78.78,0,0,0,0,.16c-2.07,16.67-26.83,15.36-27.12-1.43a32.75,32.75,0,0,1,.11-3.37,13,13,0,0,0,0-1.53c-.14-4.25-1.34-23.47-11.76-37.57a13.15,13.15,0,0,1-1.92-3.79c-2.4-7.5-10.56-31.73-17.3-36.79h0S214.56,214,216.63,213Z"/><path class="cls-1" d="M119.38,372.33c7.23-3.37,14.36-6.94,21.5-10.5a36.07,36.07,0,0,1,7.94-1.88c-5.82-6.62-15.08-13.42-22.08-18.62-3.37-2.5-7.1-4.41-10.38-7-2.21-1.77-2.33-4.57-4.54-6.34-.61.89-4.27,3-6.39,3.69A50.55,50.55,0,0,0,85.85,344c-11.58,11.53-11.07,24.76-5.77,38.87A90.19,90.19,0,0,0,97.21,412H90.29c-2,0-3.9-.05-5.84,0-6.24.2-10.66,4.22-10.93,9.87a9.77,9.77,0,0,0,9.61,10.47c12.44.48,24.94.66,37.37,0,7.87-.4,12.27-9.83,7.43-15.64-3.22-3.86-3.84-7.83-4.1-12.25a72.94,72.94,0,0,0-6.5-27.05C116,374.44,116.87,373.5,119.38,372.33Z"/><path class="cls-1" d="M213.45,372.33c-7.23-3.37-14.37-6.94-21.5-10.5a29.59,29.59,0,0,0-7.13-1.88c5.81-6.62,14.26-13.42,21.26-18.62,3.38-2.5,7.11-4.41,10.39-7,2.2-1.77,2.13-3.57,4.35-5.34.61.89,4.46,2,6.58,2.69A50.55,50.55,0,0,1,247,344c11.58,11.53,11.07,24.76,5.76,38.87A90.16,90.16,0,0,1,235.62,412h6.91c1.95,0,3.9-.05,5.85,0,6.24.2,10.66,4.22,10.93,9.87a9.78,9.78,0,0,1-9.61,10.47c-12.45.48-24.94.66-37.37,0-7.87-.4-12.27-9.83-7.43-15.64,3.22-3.86,3.83-7.83,4.09-12.25a73.33,73.33,0,0,1,6.5-27.05C216.88,374.44,216,373.5,213.45,372.33Z"/><ellipse class="cls-1" cx="165.82" cy="277.45" rx="70" ry="86.5"/><ellipse class="cls-2" cx="173.82" cy="283.11" rx="46" ry="56.84"/><path class="cls-3" d="M173.21,297.57s-8,1.33-5,3.11A14.55,14.55,0,0,0,170.9,302a8.88,8.88,0,0,0,3.76.34l1-.11a4.08,4.08,0,0,0,2.2-.79l.69-.61c.41-.36.35-.8-.19-1.12a4.44,4.44,0,0,0-3.19-.76c-2,.44-4,.44-4,1.33s3,.89,3,.89"/><circle class="cls-2" cx="211.82" cy="126.95" r="40"/><circle class="cls-2" cx="179.82" cy="172.3" r="47"/><path class="cls-1" d="M193.35,54.62c-6.85-1.79-13.68-3.68-20.34-6.11-4.47-1.63-9-3.29-12.36-6.82-1.09-1.14-1.48-.83-2.16.26-1.71,2.72-1.7,5.64-1.06,8.73-7.07-2.49-11.88-7-14.08-14.09-.18-.57-.2-1.57-.95-1.54-.5,0-1.07.71-1.43,1.23-2.23,3.27-2.44,7-2.15,10.73a41.91,41.91,0,0,0,1.53,8.14c-4.6-1.41-8.22-3.67-10.81-7.42A54,54,0,0,1,125.43,40a23.63,23.63,0,0,0-2.84-5c-3.84,6.59-6.57,13.25-5.06,20.94,1.15,5.9,4.5,10.56,8.54,14.78,1.07,1.11,1,1.67,0,2.73,2.14,2.51,4.15,5,6,7.54.46-.24,1-.12,1.75.46a24.51,24.51,0,0,0,9.18,4c8.73,2.12,17.54,1.72,26.28.35A125.48,125.48,0,0,0,211.09,71a3.11,3.11,0,0,1,.76-.31c.81-2,1.67-4,2.55-6.05A60.82,60.82,0,0,0,193.35,54.62Z"/><circle class="cls-2" cx="151.82" cy="126.95" r="40"/><path class="cls-4" d="M196.25,178.15l.15.4Z"/><path class="cls-5" d="M170.87,185.28l.38.37Z"/><line class="cls-6" x1="168.3" y1="178.26" x2="193.22" y2="177.91"/><circle class="cls-8" cx="196.8" cy="129.48" r="14.59"/><circle cx="198.01" cy="130.7" r="12.16"/><ellipse class="cls-8" cx="202.27" cy="128.27" rx="3.04" ry="6.08"/><ellipse class="cls-8" cx="196.8" cy="136.17" rx="3.65" ry="1.82"/><circle class="cls-8" cx="162.75" cy="131.11" r="16.21"/><circle cx="164.1" cy="132.46" r="13.51"/><ellipse class="cls-8" cx="168.83" cy="129.75" rx="3.38" ry="6.76"/><ellipse class="cls-8" cx="162.75" cy="138.54" rx="4.05" ry="2.03"/><circle class="cls-1" cx="780.49" cy="137.12" r="38.99"/><circle class="cls-2" cx="780.67" cy="137.6" r="26"/><circle class="cls-1" cx="955.95" cy="137.12" r="38.99"/><circle class="cls-2" cx="958.67" cy="137.6" r="26"/><circle class="cls-1" cx="868.22" cy="142" r="92.61"/><path class="cls-1" d="M866.27,49.39c-.57,7.84,2.14.89,2.38.25,0,0,0-.13,0-.09"/><path class="cls-1" d="M819.6,217.65a13.64,13.64,0,0,0-14.45,1.89c-9.18,7.7-24.33,21.94-31.21,37.1-.72,1.59-1.2,3.28-1.92,4.88-2.88,6.37-9.92,24.27-6.95,41,0,.29.1.57.13.85,0,0,0,.11,0,.17,2.07,16.67,26.83,15.36,27.12-1.44,0-1.05,0-2.17-.11-3.36a13.2,13.2,0,0,1,0-1.54c.14-4.25,1.34-23.46,11.76-37.57a13.15,13.15,0,0,0,1.92-3.79c2.4-7.49,10.56-31.73,17.3-36.78h0S821.67,218.59,819.6,217.65Z"/><path class="cls-1" d="M916.48,212.65a13.66,13.66,0,0,1,14.46,1.89c9.18,7.7,24.32,21.94,31.2,37.1.72,1.59,1.2,3.28,1.92,4.88,2.88,6.37,9.92,24.27,7,41,0,.29-.1.57-.13.85,0,0,0,.11,0,.17-2.07,16.67-26.83,15.36-27.12-1.44,0-1.05,0-2.17.11-3.36a13.2,13.2,0,0,0,0-1.54c-.14-4.25-1.34-23.46-11.76-37.57a12.87,12.87,0,0,1-1.91-3.79c-2.4-7.49-10.57-31.73-17.31-36.78h0S914.42,213.59,916.48,212.65Z"/><path class="cls-1" d="M819.23,372c7.23-3.37,14.37-6.93,21.5-10.5a35.49,35.49,0,0,1,7.94-1.87C842.86,353,833.6,346.17,826.59,341c-3.37-2.5-7.1-4.41-10.38-7.05-2.21-1.76-2.32-4.56-4.54-6.33-.61.88-4.27,3-6.39,3.68a50.66,50.66,0,0,0-19.58,12.39c-11.58,11.54-11.07,24.77-5.76,38.87a90.31,90.31,0,0,0,17.12,29.06c-3.11,0-5,0-6.92,0s-3.89-.05-5.84,0c-6.24.21-10.66,4.22-10.93,9.87A9.79,9.79,0,0,0,783,432c12.45.47,24.94.66,37.37,0,7.87-.41,12.27-9.84,7.43-15.64-3.22-3.86-3.83-7.83-4.09-12.26a73.33,73.33,0,0,0-6.5-27.05C815.8,374.08,816.72,373.14,819.23,372Z"/><path class="cls-1" d="M913.3,372c-7.23-3.37-14.36-6.93-21.5-10.5a29.11,29.11,0,0,0-7.13-1.87c5.82-6.62,14.27-13.43,21.27-18.62,3.37-2.5,7.1-4.41,10.38-7.05,2.21-1.76,2.14-3.56,4.35-5.33.61.88,4.46,2,6.58,2.68a50.66,50.66,0,0,1,19.58,12.39c11.58,11.54,11.07,24.77,5.77,38.87a90.34,90.34,0,0,1-17.13,29.06c3.11,0,5,0,6.92,0s3.9-.05,5.84,0c6.24.21,10.66,4.22,10.93,9.87A9.79,9.79,0,0,1,949.55,432c-12.44.47-24.94.66-37.37,0-7.87-.41-12.27-9.84-7.43-15.64,3.22-3.86,3.84-7.83,4.1-12.26A73.12,73.12,0,0,1,915.34,377C916.73,374.08,915.81,373.14,913.3,372Z"/><ellipse class="cls-1" cx="865.67" cy="277.1" rx="70" ry="86.5"/><ellipse class="cls-2" cx="873.67" cy="282.75" rx="46" ry="56.84"/><path class="cls-3" d="M873.06,297.21s-8,1.33-5,3.11a15.72,15.72,0,0,0,2.69,1.28,9.06,9.06,0,0,0,3.76.34l1-.12a4.08,4.08,0,0,0,2.2-.78l.69-.62c.41-.36.35-.79-.18-1.12a4.48,4.48,0,0,0-3.2-.76c-2,.45-4,.45-4,1.34s3,.89,3,.89"/><circle class="cls-2" cx="911.67" cy="126.6" r="40"/><circle class="cls-2" cx="879.67" cy="171.94" r="47"/><path class="cls-1" d="M893.2,54.26c-6.84-1.79-13.68-3.67-20.34-6.1-4.47-1.64-9-3.29-12.36-6.83-1.09-1.14-1.48-.83-2.16.26-1.7,2.72-1.7,5.64-1.06,8.74-7.07-2.5-11.88-7-14.08-14.09-.17-.58-.2-1.57-1-1.55-.49,0-1.07.72-1.43,1.24-2.22,3.26-2.43,7-2.15,10.73a41,41,0,0,0,1.54,8.13c-4.61-1.4-8.23-3.66-10.82-7.42a53.92,53.92,0,0,1-4.1-7.73,23.62,23.62,0,0,0-2.85-5c-3.84,6.58-6.57,13.24-5.06,20.93,1.16,5.9,4.5,10.57,8.54,14.78,1.07,1.11,1,1.67,0,2.73,2.13,2.52,4.14,5,6,7.54.46-.24,1-.12,1.75.46a24.51,24.51,0,0,0,9.19,4c8.72,2.12,17.53,1.72,26.27.34a125.24,125.24,0,0,0,41.86-14.75,2.87,2.87,0,0,1,.77-.32c.8-2,1.66-4,2.54-6A60.58,60.58,0,0,0,893.2,54.26Z"/><circle class="cls-2" cx="851.67" cy="126.6" r="40"/><path class="cls-4" d="M896.1,177.79l.15.4Z"/><path class="cls-5" d="M870.72,184.92l.38.38Z"/><line class="cls-6" x1="868.16" y1="177.9" x2="893.07" y2="177.55"/><circle class="cls-8" cx="896.65" cy="129.13" r="14.59"/><circle cx="897.87" cy="130.34" r="12.16"/><ellipse class="cls-8" cx="902.12" cy="127.91" rx="3.04" ry="6.08"/><ellipse class="cls-8" cx="896.65" cy="135.82" rx="3.65" ry="1.82"/><circle class="cls-8" cx="862.6" cy="130.75" r="16.21"/><circle cx="863.95" cy="132.1" r="13.51"/><ellipse class="cls-8" cx="868.68" cy="129.4" rx="3.38" ry="6.76"/><ellipse class="cls-8" cx="862.6" cy="138.18" rx="4.05" ry="2.03"/></g></g></svg>
