<svg xmlns="http://www.w3.org/2000/svg" width="700" height="500" viewBox="0 0 700 500"><defs><style>.cls-1{fill:#291706;}.cls-2{fill:#8b6448;}.cls-3,.cls-4{fill:none;stroke:#291706;stroke-miterlimit:10;}.cls-3{stroke-width:0.67px;}.cls-4{stroke-width:4px;}.cls-5{fill:#93544a;}.cls-6{fill:#f5f4f4;}.cls-7{fill:#d5d5d5;}</style></defs><title>abespriteudenfarver</title><g id="vred"><circle class="cls-1" cx="81.48" cy="141.51" r="38.99"/><circle class="cls-2" cx="81.66" cy="141.98" r="26"/><circle class="cls-1" cx="256.94" cy="141.51" r="38.99"/><circle class="cls-2" cx="259.66" cy="141.98" r="26"/><circle class="cls-1" cx="169.21" cy="146.38" r="92.61"/><path class="cls-1" d="M167.26,53.78c-.57,7.83,2.14.88,2.38.24a.32.32,0,0,0,0-.09"/><path class="cls-1" d="M120.59,222a13.64,13.64,0,0,0-14.45,1.88C97,231.62,81.81,245.86,74.93,261c-.72,1.6-1.2,3.28-1.92,4.88-2.88,6.37-9.92,24.28-7,41.05,0,.28.1.56.13.85,0,.05,0,.1,0,.16,2.07,16.67,26.83,15.36,27.12-1.44,0-1,0-2.17-.11-3.36a13.14,13.14,0,0,1,0-1.54c.14-4.25,1.34-23.46,11.76-37.57a13.15,13.15,0,0,0,1.92-3.79c2.4-7.49,10.56-31.73,17.3-36.78h0S122.66,223,120.59,222Z"/><path class="cls-1" d="M217.47,217a13.66,13.66,0,0,1,14.46,1.88c9.18,7.7,24.32,21.94,31.2,37.1.72,1.6,1.2,3.28,1.92,4.88,2.88,6.37,9.92,24.28,6.95,41.05-.05.28-.1.56-.13.85,0,.05,0,.1,0,.16-2.07,16.67-26.83,15.36-27.12-1.44,0-1,0-2.17.11-3.36a13.14,13.14,0,0,0,0-1.54c-.14-4.25-1.34-23.46-11.76-37.57a12.87,12.87,0,0,1-1.91-3.79c-2.4-7.49-10.57-31.73-17.31-36.78h0S215.41,218,217.47,217Z"/><path class="cls-1" d="M120.22,376.35c7.23-3.37,14.37-6.93,21.5-10.5a36,36,0,0,1,7.94-1.87c-5.81-6.62-15.07-13.42-22.08-18.62-3.37-2.5-7.1-4.41-10.38-7-2.21-1.77-2.32-4.57-4.54-6.34-.61.88-4.27,3-6.39,3.68a50.66,50.66,0,0,0-19.58,12.39c-11.58,11.54-11.07,24.77-5.76,38.87A90.31,90.31,0,0,0,98.05,416H91.13c-1.94,0-3.89-.05-5.84,0-6.24.21-10.66,4.22-10.93,9.87A9.78,9.78,0,0,0,84,436.34c12.45.47,24.94.66,37.37,0,7.87-.41,12.27-9.84,7.43-15.64-3.22-3.86-3.83-7.83-4.09-12.26a73.28,73.28,0,0,0-6.5-27C116.79,378.46,117.71,377.52,120.22,376.35Z"/><path class="cls-1" d="M214.29,376.35c-7.23-3.37-14.36-6.93-21.5-10.5a29.56,29.56,0,0,0-7.13-1.87c5.82-6.62,14.27-13.42,21.27-18.62,3.37-2.5,7.1-4.41,10.38-7,2.21-1.77,2.14-3.57,4.35-5.34.61.88,4.46,2,6.58,2.68a50.66,50.66,0,0,1,19.58,12.39c11.58,11.54,11.07,24.77,5.77,38.87A90.34,90.34,0,0,1,236.46,416h6.92c2,0,3.9-.05,5.84,0,6.24.21,10.66,4.22,10.93,9.87a9.78,9.78,0,0,1-9.61,10.48c-12.44.47-24.94.66-37.37,0-7.87-.41-12.27-9.84-7.43-15.64,3.22-3.86,3.84-7.83,4.1-12.26a73.07,73.07,0,0,1,6.49-27C217.72,378.46,216.8,377.52,214.29,376.35Z"/><ellipse class="cls-1" cx="166.66" cy="281.48" rx="70" ry="86.5"/><ellipse class="cls-2" cx="174.66" cy="287.13" rx="46" ry="56.84"/><path class="cls-3" d="M174.05,301.59s-8,1.34-5,3.11a15.72,15.72,0,0,0,2.69,1.28,8.9,8.9,0,0,0,3.76.34l1-.12a4.08,4.08,0,0,0,2.2-.78l.69-.62c.41-.36.35-.79-.18-1.12a4.48,4.48,0,0,0-3.2-.75c-2,.44-4,.44-4,1.33s3,.89,3,.89"/><circle class="cls-2" cx="212.66" cy="130.98" r="40"/><circle class="cls-2" cx="180.66" cy="175.98" r="47"/><path class="cls-1" d="M194.19,58.65c-6.84-1.8-13.68-3.68-20.34-6.11-4.47-1.63-9-3.29-12.36-6.83-1.09-1.13-1.48-.83-2.16.26-1.7,2.72-1.7,5.64-1.06,8.74-7.07-2.49-11.88-7-14.08-14.09-.17-.57-.2-1.57-.95-1.55-.49,0-1.07.72-1.43,1.24-2.22,3.26-2.43,6.95-2.15,10.73a41.22,41.22,0,0,0,1.54,8.14c-4.61-1.41-8.23-3.67-10.82-7.43a53.39,53.39,0,0,1-4.1-7.73,23.87,23.87,0,0,0-2.85-5c-3.84,6.59-6.57,13.24-5.06,20.93,1.16,5.9,4.5,10.57,8.54,14.78,1.07,1.11,1,1.67,0,2.73,2.13,2.52,4.14,5,6,7.54.46-.23,1-.12,1.75.46a24.51,24.51,0,0,0,9.19,4c8.72,2.12,17.53,1.72,26.27.34A125.24,125.24,0,0,0,211.93,75a2.87,2.87,0,0,1,.77-.32c.8-2,1.66-4,2.54-6A60.56,60.56,0,0,0,194.19,58.65Z"/><circle class="cls-2" cx="152.66" cy="130.98" r="40"/><circle class="cls-1" cx="161.66" cy="139.98" r="10"/><circle class="cls-1" cx="203.66" cy="139.98" r="10"/><line class="cls-4" x1="188.92" y1="136.81" x2="217.66" y2="121.98"/><line class="cls-4" x1="174.66" y1="137.81" x2="145.92" y2="122.98"/><path class="cls-4" d="M161.66,184s22-22,37,1"/><g id="Layer_3" data-name="Layer 3"><circle class="cls-1" cx="432.48" cy="140.51" r="38.99"/><circle class="cls-2" cx="432.66" cy="140.98" r="26"/><circle class="cls-1" cx="607.94" cy="140.51" r="38.99"/><circle class="cls-2" cx="610.66" cy="140.98" r="26"/><circle class="cls-1" cx="520.21" cy="145.38" r="92.61"/><path class="cls-1" d="M518.26,52.78c-.57,7.83,2.14.88,2.38.24a.32.32,0,0,0,0-.09"/><path class="cls-1" d="M471.59,221a13.64,13.64,0,0,0-14.45,1.88c-9.18,7.7-24.33,21.94-31.21,37.1-.72,1.6-1.2,3.28-1.92,4.88-2.88,6.37-9.92,24.28-6.95,41.05.05.28.1.56.13.85,0,.05,0,.1,0,.16,2.07,16.67,26.83,15.36,27.12-1.44,0-1,0-2.17-.11-3.36a13.14,13.14,0,0,1,0-1.54c.14-4.25,1.34-23.46,11.76-37.57a13.15,13.15,0,0,0,1.92-3.79c2.4-7.49,10.56-31.73,17.3-36.78h0S473.66,222,471.59,221Z"/><path class="cls-1" d="M568.47,216a13.66,13.66,0,0,1,14.46,1.88c9.18,7.7,24.32,21.94,31.2,37.1.72,1.6,1.2,3.28,1.92,4.88,2.88,6.37,9.92,24.28,7,41.05,0,.28-.1.56-.13.85,0,.05,0,.1,0,.16-2.07,16.67-26.83,15.36-27.12-1.44,0-1,0-2.17.11-3.36a13.14,13.14,0,0,0,0-1.54c-.14-4.25-1.34-23.46-11.76-37.57a12.87,12.87,0,0,1-1.91-3.79c-2.4-7.49-10.57-31.73-17.31-36.78h0S566.41,217,568.47,216Z"/><path class="cls-1" d="M471.22,375.35c7.23-3.37,14.37-6.93,21.5-10.5a36,36,0,0,1,7.94-1.87c-5.81-6.62-15.07-13.42-22.08-18.62-3.37-2.5-7.1-4.41-10.38-7-2.21-1.77-2.32-4.57-4.54-6.34-.61.88-4.27,3-6.39,3.68a50.66,50.66,0,0,0-19.58,12.39c-11.58,11.54-11.07,24.77-5.76,38.87A90.31,90.31,0,0,0,449.05,415h-6.92c-1.94,0-3.89-.05-5.84,0-6.24.21-10.66,4.22-10.93,9.87A9.78,9.78,0,0,0,435,435.34c12.45.47,24.94.66,37.37,0,7.87-.41,12.27-9.84,7.43-15.64-3.22-3.86-3.83-7.83-4.09-12.26a73.28,73.28,0,0,0-6.5-27C467.79,377.46,468.71,376.52,471.22,375.35Z"/><path class="cls-1" d="M565.29,375.35c-7.23-3.37-14.36-6.93-21.5-10.5a29.56,29.56,0,0,0-7.13-1.87c5.82-6.62,14.27-13.42,21.27-18.62,3.37-2.5,7.1-4.41,10.38-7,2.21-1.77,2.14-3.57,4.35-5.34.61.88,4.46,2,6.58,2.68a50.66,50.66,0,0,1,19.58,12.39c11.58,11.54,11.07,24.77,5.77,38.87A90.34,90.34,0,0,1,587.46,415h6.92c2,0,3.9-.05,5.84,0,6.24.21,10.66,4.22,10.93,9.87a9.78,9.78,0,0,1-9.61,10.48c-12.44.47-24.94.66-37.37,0-7.87-.41-12.27-9.84-7.43-15.64,3.22-3.86,3.84-7.83,4.1-12.26a73.07,73.07,0,0,1,6.49-27C568.72,377.46,567.8,376.52,565.29,375.35Z"/><ellipse class="cls-1" cx="517.66" cy="280.48" rx="70" ry="86.5"/><ellipse class="cls-2" cx="525.66" cy="286.13" rx="46" ry="56.84"/><path class="cls-3" d="M525.05,300.59s-8,1.34-5,3.11a15.72,15.72,0,0,0,2.69,1.28,8.9,8.9,0,0,0,3.76.34l1-.12a4.08,4.08,0,0,0,2.2-.78l.69-.62c.41-.36.35-.79-.18-1.12a4.48,4.48,0,0,0-3.2-.75c-2,.44-4,.44-4,1.33s3,.89,3,.89"/><circle class="cls-5" cx="563.66" cy="129.98" r="40"/><circle class="cls-5" cx="531.66" cy="174.98" r="47"/><path class="cls-1" d="M545.19,57.65c-6.84-1.8-13.68-3.68-20.34-6.11-4.47-1.63-9-3.29-12.36-6.83-1.09-1.13-1.48-.83-2.16.26-1.7,2.72-1.7,5.64-1.06,8.74-7.07-2.49-11.88-7-14.08-14.09-.17-.57-.2-1.57-.95-1.55-.49,0-1.07.72-1.43,1.24-2.22,3.26-2.43,6.95-2.15,10.73a41.22,41.22,0,0,0,1.54,8.14c-4.61-1.41-8.23-3.67-10.82-7.43a53.39,53.39,0,0,1-4.1-7.73,23.87,23.87,0,0,0-2.85-5c-3.84,6.59-6.57,13.24-5.06,20.93,1.16,5.9,4.5,10.57,8.54,14.78,1.07,1.11,1,1.67,0,2.73,2.13,2.52,4.14,5,6,7.54.46-.23,1-.12,1.75.46a24.51,24.51,0,0,0,9.19,4c8.72,2.12,17.53,1.72,26.27.34A125.24,125.24,0,0,0,562.93,74a2.87,2.87,0,0,1,.77-.32c.8-2,1.66-4,2.54-6A60.56,60.56,0,0,0,545.19,57.65Z"/><circle class="cls-5" cx="503.66" cy="129.98" r="40"/><circle class="cls-1" cx="512.66" cy="138.98" r="10"/><circle class="cls-1" cx="554.66" cy="138.98" r="10"/><line class="cls-4" x1="539.92" y1="135.81" x2="568.66" y2="120.98"/><line class="cls-4" x1="525.66" y1="136.81" x2="496.92" y2="121.98"/><path class="cls-6" d="M555.35,178.25c-.1,3.65-1.3,6.81-4.29,9.06a6.78,6.78,0,0,1-6.5,1,34.12,34.12,0,0,0-22.46,0,7.25,7.25,0,0,1-8.07-2.53,12,12,0,0,1-2.67-6.74c-.1-.64.2-.88.81-1a54.87,54.87,0,0,1,9.26-1.51,2.17,2.17,0,0,0-1.5-.48,71.36,71.36,0,0,0-8.39-.57,10.72,10.72,0,0,1,4.16-7,6.5,6.5,0,0,1,2.49-1.14,6.74,6.74,0,0,1,3.22,2.11c.19.25.32.34.61.11a12.81,12.81,0,0,1,2.63-1.47c2,.11,4,.45,6,.55a54.46,54.46,0,0,0,10.37-.49c.34,0,.69-.05,1-.07a18.41,18.41,0,0,1,2.6,1.46c.18.13.34.33.56,0a7.88,7.88,0,0,1,3.09-2.22,8,8,0,0,1,5.21,3.83,12,12,0,0,1,1.61,3.89.07.07,0,0,0,0,.12l0,.35a61,61,0,0,0-10.79.95A54.62,54.62,0,0,1,555.35,178.25Z"/><path class="cls-7" d="M675.47,134.25a8.33,8.33,0,0,0,3.48-4.57,9.1,9.1,0,0,0,.48-4.89,52.39,52.39,0,0,0-1.3-5.4,8.05,8.05,0,0,0-3.35-4.77,18.53,18.53,0,0,0-2.27-1.14,1.76,1.76,0,0,1-.65-.28.65.65,0,0,1-.35-.16,2.29,2.29,0,0,0-1.58-.47,5.13,5.13,0,0,1-2.31.07c-.07,0-.16.08-.24.12a.7.7,0,0,1-.67.1c-.16-.06-.21-.15-.12-.33a3.29,3.29,0,0,1,.6-.68c.12-.13.28-.22.32-.47a21,21,0,0,1,1-3.35,15.42,15.42,0,0,0,1.05-4.45,8,8,0,0,0-2.5-6.65,6.9,6.9,0,0,0-1.89-1,.34.34,0,0,1-.35,0l-.87-.05c-.14,0-.27.12-.43,0-.11.12-.25-.09-.36,0s0,.1-.09.1a6.63,6.63,0,0,0-2.62.82,5.7,5.7,0,0,0-3.23,3.25,1.33,1.33,0,0,1-.29.47.89.89,0,0,1-.67.36c-.14,0-.22,0-.23-.28a10.46,10.46,0,0,0-1.88-5.21,1.16,1.16,0,0,0-.42-.43,5.75,5.75,0,0,0-4.56-.61c-2.14.67-3.65,2.34-4.52,5a11.81,11.81,0,0,0-.22,6.54,17.69,17.69,0,0,0,.71,2.32c-2.16,0-3.39,1.56-3.56,4.37a14,14,0,0,0,1.07,5.87.39.39,0,0,0,.51.3,3.43,3.43,0,0,0,1.6-.67,1.58,1.58,0,0,1,1.33-.44,1.52,1.52,0,0,1-.65,1.13c-.35.26-.74.46-1.09.74-.94.78-1.9,1.54-2.86,2.3l-.11.13-.42.3-.06,0a.54.54,0,0,1-.09.12c-1.82,1.49-3.64,3-5.49,4.4-1.57,1.22-3,2.68-4.63,3.83l-7.18,5.12c-1.33.94-2.59,2-3.87,3a.22.22,0,0,1,0,.08c.16.18-.13.43.13.6a26.55,26.55,0,0,1,2.83-1.81c1.07-.55,2.14-1,3.23-1.53l.25-.12a1.59,1.59,0,0,0-.28.36c.3-.13.61-.23.92-.33l.88-.77a30.29,30.29,0,0,0,3-1.73,24.49,24.49,0,0,1,3.77-1.95c1.19-.53,2.32-1.23,3.47-1.88a9.4,9.4,0,0,0,2.1-.93c1-.67,2.09-1.25,3.14-1.88.75-.45,1.46-.93,2.24-1.3.33-.16.65-.33,1-.52a6.25,6.25,0,0,1,.61-.44c.31-.16.65-.26,1-.41l1-.5c.2-.1.41-.18.62-.27-1.14.66-2.28,1.32-3.43,2a3.84,3.84,0,0,1-.93.51,6.92,6.92,0,0,1-1,.62l-.45.24-.42.31c-.19.33,0,.69.06,1a.61.61,0,0,1,0,.17l-.12.08.13-.06c0,.23,0,.3-.3.15a.66.66,0,0,0-.56-.08c-.18.07-.3-.11-.34-.33s.12-.17.23-.19.48-.1.44-.55a1.22,1.22,0,0,0-.47.2,14.43,14.43,0,0,1-2,1.23c-2,1.19-4,2.37-6.08,3.51-1.86,1-3.74,2-5.62,3l-.72.38-1.12.34-.72.62-2.09,1.07-.12.06.21-.15-1.63.77-.21.16c-.55.25-1.1.49-1.66.7a3,3,0,0,0-.4.21c.1.23.26.17.38.18a.5.5,0,0,1,.38.1l-.11.21a1.57,1.57,0,0,1-.43.38c-.3.24-.6.5-.88.75a6.57,6.57,0,0,0-.56.79l-.24,0a8,8,0,0,0-1.56.82l-.06.06-1.94,1.94a7.67,7.67,0,0,0-.65.9l.35.06.15,0c.12,0,.24-.12.38,0l.14,0a1,1,0,0,1,.34-.11l-.17.15a1.75,1.75,0,0,1,.27-.16,7.18,7.18,0,0,0,.79-.12,27.71,27.71,0,0,0,4.37-1.63,37.38,37.38,0,0,1,4-1.58c2-.62,4.06-1.19,6-1.92l1-.37a9,9,0,0,0,1.67-.38,21.42,21.42,0,0,0,3-1.27,13.75,13.75,0,0,1,3.46-1.33,7.29,7.29,0,0,1,1.14-.17l-.35.14c-1.24.52-2.47,1.05-3.71,1.56L633.52,140c-1.49.6-3,1.11-4.51,1.68s-3.39.74-5,1.4c-1.12.46-2.24.92-3.37,1.36s-2.48,1.08-3.77,1.46a1.44,1.44,0,0,0-1,.76c.08.23-.07.46.1.69l.07,0,4.17-1.13a.5.5,0,0,1,.34-.09.17.17,0,0,1,.2-.05,4.64,4.64,0,0,1,1.15-.3.37.37,0,0,1,.27-.07l.2,0,3.11-.8c.35-.09.69-.19,1-.27l5.9-1.3-.13-.24-.55,0c-.2,0-.28-.11-.3-.36.15-.06.12.21.25.2a.57.57,0,0,1,0-.26h.08c.17,0,.35,0,.52-.06l0-.49h0a.69.69,0,0,1,.15.53c0,.2-.08.3-.23.32l0,.09c.12,0,.22,0,.27.21l.81-.15.51-.06.73-.19.56-.14c.24.06.45-.08.68-.08a.85.85,0,0,1,.5-.07c1.37-.34,2.78-.53,4.18-.76a28,28,0,0,0,5.66-1.21,23.59,23.59,0,0,0,3.11-1.32,3.62,3.62,0,0,1,1.86-.77,2.89,2.89,0,0,0,1.7-.44.68.68,0,0,1,.8.06l.11.11a1.45,1.45,0,0,1-.49.39,13.57,13.57,0,0,1-2.3.71,1.29,1.29,0,0,0-1,.78,5.1,5.1,0,0,0,.14,3.79c.28.69.61.86,1.13.68l.88-.31c.18-.06.29,0,.41.26a3,3,0,0,1,.26,1.31,8.34,8.34,0,0,0,.57,3,10.49,10.49,0,0,0,3.46,4.94,5.82,5.82,0,0,0,5.61,1,5,5,0,0,0,3.18-3.35l.21-.61a10.94,10.94,0,0,0,2.05,1.8c2.24,1.46,4.41,1.81,6.48.65a7.39,7.39,0,0,0,3.06-3.51.52.52,0,0,1,.13-.29l.09-.22a.68.68,0,0,1,.1-.33,13.06,13.06,0,0,0,.46-2.32c0-.21,0-.42,0-.64a11.75,11.75,0,0,0-1.5-6.12,15.73,15.73,0,0,0-2.3-2.88,16.86,16.86,0,0,1-1.56-1.86,1.73,1.73,0,0,1,1.13-.39A3.31,3.31,0,0,0,675.47,134.25Zm-43.19,6.69c.09.23-.06.36,0,.56l-.07.06C632,141.29,632.2,141.14,632.28,140.94Zm35.81-2.87c0-.13.06-.26.1-.4a.63.63,0,0,1,.16.28c.07.17,0,.31-.11.28h-.19C668.06,138.17,668.08,138.12,668.09,138.07Zm-25.28-8.39v0c0-.15-.12-.31,0-.45h0c0-.21,0-.2.16-.14a.37.37,0,0,0,.48-.1l.09-.1h.1s0,0,0,0a.31.31,0,0,1,.08.33l-.1.08-.4.26a1,1,0,0,1-.23.11,1.77,1.77,0,0,1,.23,0,1.12,1.12,0,0,1,.48,0h0c0,.13-.23.12-.29.13a.64.64,0,0,0-.29.16c.06.07.21-.07.29-.09h.1a.63.63,0,0,1,.19,0l0,0s0,.11,0,.16c.09.32.17.63.25.95l-.79.29c-.14-.52-.27-1-.41-1.56l.09,0Zm5.59-.14c1.33-.51,2.65-1,4-1.58,1-.42,2-.86,2.95-1.32.26,0,.54,0,.78,0l.33,0-.68.33c-1.12.52-2.24,1-3.37,1.55-.59.26-1.18.49-1.77.73C649.86,129.35,649.12,129.43,648.4,129.54Zm3-25.42a8.28,8.28,0,0,1,.4,1.93l.38.3,0,.12c.12.66.19,1.33.25,2,0,.08,0,.19,0,.29a.63.63,0,0,0-.23-.08c0-.23-.07-.46-.11-.67a.63.63,0,0,0,.13-.23.28.28,0,0,0-.17,0c-.09-.48-.19-1-.27-1.43l0-.25-.36-.27c-.13-.49-.26-1-.4-1.45,0,0,0,0,0-.06a.41.41,0,0,1,.31-.16Zm11.35,4.26c0,.17,0,.3-.12.33a.11.11,0,0,1-.12,0c0-.17.07-.34.11-.5A1.16,1.16,0,0,1,662.79,108.38Zm-.44,1.74a.06.06,0,0,1,0,0c0-.08,0-.15,0-.2s0-.16,0-.24c.17,0,.09.27.19.34s.16.36,0,.43S662.38,110.26,662.35,110.12Zm-8.28,5.55c-.16,0-.11-.17-.1-.29s-.21-.15-.24-.38c-.06-.43-.05-.59.2-.84.09.35.21.67.33,1-.06,0-.1.1-.08.24S654.2,115.7,654.07,115.67Zm-5,.28a1.14,1.14,0,0,1,.54.09l-.2.13a1,1,0,0,1-1.21,0,24.62,24.62,0,0,0,2.41-1.42c.1,0,.21-.21.31,0s0,.28-.13.36c-.35.29-.68.62-1,.88l.29-.25.08-.08C649.88,115.94,649.46,115.75,649.1,116ZM651,102.62a5.76,5.76,0,0,0,.3,1.07,1,1,0,0,0-.43-.14.06.06,0,0,1,0,0c-.06-.16-.11-.31-.16-.47l.05,0C650.86,103,650.8,102.67,651,102.62Zm2.33,6.86a.26.26,0,0,1,0,.18.52.52,0,0,0,0,.45c-.22-.23-.45-.46-.66-.69a.41.41,0,0,0,.26-.07Zm0,1a1.13,1.13,0,0,1,0,.44l-.39-.48-.24-.3-.09-.06-.29-.15c0-.12-.05-.24-.08-.36a.15.15,0,0,1,0-.06l.47.63Zm4.46,2.63a.3.3,0,0,0,0-.1c-.09-.3-.22-.23-.35-.19l-.22,0-.06-.08.41-.11c.18,0,.25.11.28.3a.43.43,0,0,1,0,0Zm-4.48.79c-.37-.27-.39-.36-.18-.7.07-.12,0-.24,0-.35a4.18,4.18,0,0,1-.17-.78l.05.06c.13.48.19.57.51.5h0c0,.1,0,.2.07.3-.23.08-.22.2-.16.73,0,.14-.11.12-.11.24a3,3,0,0,1,.51-.06h0l.06.24v0A.57.57,0,0,1,653.29,113.89Zm4,11.81a.62.62,0,0,1,.19-.07c.1,0,.2,0,.25.11l-1.13.3h0Zm1.82-9a3,3,0,0,1,.11.32.35.35,0,0,1-.18.1c-.06,0-.15.12-.19-.06s.11-.32.24-.4h0S659.08,116.69,659.08,116.71Zm-.93-1.79c.08.17.08.29-.07.31s-.23.22-.17.51a.54.54,0,0,1-.36-.55.7.7,0,0,1,.32-.51.13.13,0,0,1,.17,0,1.09,1.09,0,0,0,.08.15Zm12.52,6c.06.29,0,.45-.23.29a.8.8,0,0,0-.63-.1c-.2.06-.39-.22-.34-.47s.11-.17.19,0a.61.61,0,0,0,.49-.39l.2.17a1.82,1.82,0,0,0,.23.15Zm-2.12-5.42c.08,0,.1-.08.1-.15a.6.6,0,0,1,.23.53l-.06.1c-.28,0,0-.3-.14-.39s-.08.26-.2.29C668.39,115.63,668.37,115.57,668.55,115.53Zm1,4c.17.2.33.43.51.63a1.45,1.45,0,0,0-.3.06l-.09-.08a.94.94,0,0,1-.21-.73A1.25,1.25,0,0,1,669.55,119.57Zm.58,2.64c-.06-.26-.12-.51.21-.35a.38.38,0,0,0,.45-.12c.07-.07.11-.22.23-.09s.2.38.13.48a.48.48,0,0,0-.06.4l-.82.21C670.23,122.57,670.18,122.39,670.13,122.21Zm-18-17a.18.18,0,0,1-.11.18c-.1-.41-.22-.81-.34-1.21l.08.05A1.3,1.3,0,0,1,652.14,105.24Zm-1-3.52a.82.82,0,0,0,0,.52c0-.09-.1-.19-.14-.28s0-.14.07-.22l.11,0,0-.22,0,0A.2.2,0,0,1,651.17,101.72ZM648,104.44a.79.79,0,0,1,.28.09l.12.09,0,0,.19.1,0,0-.15-.08.09.16-.06.08-.17.18a.57.57,0,0,1-.29-.38C647.91,104.57,647.89,104.48,648,104.44Zm-5.88,27.15a1.83,1.83,0,0,1,.9-.28l-.06,0c-.33.12-.66.26-1,.4Zm-22,9.27c.27-.28.58-.52.87-.78a.59.59,0,0,0,0,.13c0,.09,0,.19,0,.28l.87-.32,0,0-.11.06-.37.23c-.08,0-.15.14-.24.17a.65.65,0,0,0-.17.08c-.12,0-.23.11-.35.16l-.19.09-.17,0c-.11.06-.21.14-.33.2a3.9,3.9,0,0,0-.42.32.4.4,0,0,0-.1.12l-.17.06Zm28.56-7.06a8.35,8.35,0,0,0-1.17.37l-1.52.6a3.5,3.5,0,0,1-1,.38.44.44,0,0,1-.4.19l-2.89,1.22-2.45.46.39-.15,3.84-1.59a3.41,3.41,0,0,0,.74-.31l-.06-.35.33,0a1.54,1.54,0,0,0,.3,0,1.1,1.1,0,0,0,0,.18l1.24-.44.07,0,.29-.07c.5-.1,1-.29,1.48-.38l1-.17A.63.63,0,0,1,648.71,133.8Zm4.69.68-.15-.06a7.38,7.38,0,0,1,1.86-.65,8.58,8.58,0,0,0,1.73-.5c.07,0,.17-.14.23.09s0,.21-.06.26A6.41,6.41,0,0,1,653.4,134.48Zm4.48,9.22a6.92,6.92,0,0,1-1.12.86c.11-.84.6-1,1-1.29,0,0,0,0,.05,0l0,.05a.26.26,0,0,0,0,.12C658.06,143.6,657.94,143.64,657.88,143.7Zm.66,1-.38.44a.68.68,0,0,1,.12-.83c.06,0,.14-.16.21,0S658.65,144.61,658.54,144.74Zm2.69-1-.21-.8a7.92,7.92,0,0,0,.28-1.32l.13-.1c0-.05.08-.12.12-.13a15.84,15.84,0,0,1,0,2.08v.05a.59.59,0,0,1-.14.06C661.28,143.58,661.32,143.73,661.23,143.71Zm.26,0c0,.13,0,.26,0,.39a.28.28,0,0,0-.05.11l.06.19c0,.13,0,.25,0,.38a1.12,1.12,0,0,1-.08-.57C661.34,143.89,661.39,143.75,661.49,143.68Zm.11,1.74c0,.09,0,.17,0,.26a3.17,3.17,0,0,0,.14.4v0h0v0l0,0C661.42,145.84,661.4,145.75,661.6,145.42Zm1.4,2-.1-.07c-.15,0-.25.08-.23.34,0,.1,0,.24-.11.23s-.13-.15-.1-.26-.24-.16-.23-.42a3.35,3.35,0,0,1,0-.63c.15.06.3.06.44.12l.19.08v.05l0,.49.1.07c.12.08.12.23.17.42A.85.85,0,0,1,663,147.4Zm3.22-1.64c-.38.13-.82.05-1.13.4,0,0-.07,0-.09,0a.11.11,0,0,1,0-.08.08.08,0,0,0,0-.05l.05,0,.9-.24c.16-.05.41,0,.3-.42s-.29-.29-.46-.24l-.39.1a.61.61,0,0,1,.05-.12l.54-.14c.26-.07.26.21.33.41S666.43,145.68,666.22,145.76Zm2-5.52c0-.25-.11-.62.2-.59.08,0,.3-.14.32.16S668.49,140.22,668.23,140.24Zm4.13-12.59-.09-.07c-.18,0-.25.13-.24.38,0,.09,0,.2-.1.19s-.13-.14-.11-.25c.06-.27-.29-.23-.24-.56s-.13-.7.29-.72c-.27-.06-.51,0-.72-.26-.16-.12-.25-.2-.28-.29a3.06,3.06,0,0,0,.38-.1s0,.09,0,.15-.11.12-.11.24l.4-.11c.38-.09.66.27.66.84h0l.06.49.09.07a.43.43,0,0,1,.15.38C672.4,127.92,672.41,127.77,672.36,127.65Zm.41-1.72s.08-.12.13-.13l2.45-.65c.15,0,.27,0,.3.23s.25.49,0,.6a3,3,0,0,1-.94.29c-.13,0-.28.29-.32.08s.23-.17.37-.23a4,4,0,0,1,.7-.19c.19,0,.25-.13.18-.41s-.2-.3-.36-.25l-2.5.66.15.55A.62.62,0,0,1,672.77,125.93Zm.33.68c.18-.11.36-.22.58-.08C673.47,126.52,673.3,126.61,673.1,126.61Z"/><path class="cls-7" d="M676.1,135.34c5.87-4.27,5.57-12.37,2.4-18.37-2.34-4.45-7.51-6-12.13-5.32l1.55.88s2.52-6.17,2.72-7.38c.49-3,0-6.34-2.18-8.6-2.91-3-7.7-2.31-10.62.41a6.14,6.14,0,0,0-1,1.1,2.34,2.34,0,0,0-.39.71c-.46.67-.41.77.15.31a5.22,5.22,0,0,0-.06-1.92,7.41,7.41,0,0,0-1.28-2.46,6.35,6.35,0,0,0-6.41-1.62c-6.44,1.87-6.67,10.22-4.91,15.38l.88-1.55c-4.38.62-4.92,5.21-4.23,8.89.21,1.11.54,3.62,2,4.07s2.33-.94,3.54-1.05L645,116.93c-1.89,3.26-7.73,6.6-10.57,8.91-5.11,4.17-10.58,7.82-15.68,12a1.23,1.23,0,0,0-.33,1.22,6,6,0,0,0,.14.69,1.27,1.27,0,0,0,1.85.75,43.53,43.53,0,0,1,6.32-3.46L625,135.31l-.27.36c-.67.87.44,2.21,1.42,1.86,4.12-1.49,8.14-4.58,12.1-6.6s7.69-4.66,11.8-6.44l-1.27-2.17c-1.54.88-5.45,2.17-6.49,3.84a5.25,5.25,0,0,0-.4,1.07c-.74,1.77.54.08.62,0-1.16.71-.4,2.85,1,2.3l.12-.05-1-2.3c-1.37.66.61,3.1,1.32.42a1.27,1.27,0,0,0-1.85-1.42c-6.54,2.77-12.54,7.34-18.94,10.43l1.27,2.17.2-.14a1.26,1.26,0,0,0-1.27-2.18c-1.29.62-2.63,1.18-3.9,1.84a1.27,1.27,0,0,0,0,2.18,8,8,0,0,0,1.06.41l-.75-1.86c-.65,1.22-2,1.58-2.95,2.32a17.63,17.63,0,0,0-3.48,3.58,1.26,1.26,0,0,0,.75,1.85,4.11,4.11,0,0,0,2-.1l-1.22-2.11-.17.15c-1.09.94.31,2.71,1.52,2s3.28-1,4.72-1.6c2.75-1.13,5.42-2,8.24-2.92,4-1.3,8.38-3.67,12.49-4.29l-.67-2.43c-6,2.53-12.15,4.4-18.23,6.67-2.5.94-8.63,1.85-8.12,5.47a1.28,1.28,0,0,0,1.55.88c5.52-1.1,11-2.86,16.46-4.07a1.27,1.27,0,0,0,.75-1.85l-.13-.25a1.24,1.24,0,0,0-1.09-.62l0,.05-1.53,2h0a1.27,1.27,0,0,0,2.15-.9v-.26l-1.27,1.26c.2,0,.4,0,.6-.07a1.32,1.32,0,0,0,1.26-1.26l0-.49-1.89,1.09c.36.16-1.6-1.41-.65.09a2.92,2.92,0,0,0,.6.85c1,.91,3,0,4.2-.24,3.07-.6,6.27-.83,9.29-1.64,1-.27,7.67-3.2,7.74-3.13v-1.78c-2.48,1.94-5.23,1.09-4.35,5.58a5.89,5.89,0,0,0,1.58,2.8c.24.3,1.15-.08,1.3.1s.37,2,.53,2.63c1.94,7.48,12,11.54,15.11,2.71l-2.11.56c4.4,4.37,11,4.77,13.7-1.6s-1.18-11.17-4.87-15.9l-.56,2.11a19,19,0,0,1,2.63-.8,1.26,1.26,0,0,0-.67-2.43,19,19,0,0,0-2.63.8,1.27,1.27,0,0,0-.55,2.1c2.73,3.51,5.88,6.5,4.82,11.47-1.11,5.16-6.09,6.44-10.09,2.47a1.27,1.27,0,0,0-2.1.55l-.64,1.54-7.34-.07c-1.84-1.18-2.08-4.42-2.6-6.29a10.57,10.57,0,0,0-.86-2.23c-.21-.41-1.33-.28-1.38-.38-1-2,1.71-3,2.87-3.94a1.27,1.27,0,0,0,0-1.78c-1-.94-2.52-.4-3.68-.08-3.7,1-6.9,2.69-10.79,3.32-1.5.24-5.88.23-7.16,1.31-.92.77,1.73,1.85.59.14-.24-.35-.2-.81-.66-1A1.29,1.29,0,0,0,631,142l0,.49,1.26-1.26c-.2,0-.4.06-.6.07a1.29,1.29,0,0,0-1.26,1.26v.26l2.15-.89a1.88,1.88,0,0,0-.5-.39,1.27,1.27,0,0,0-1.53,2c.35.42,1.37,1.35.79.3l.75-1.85c-5.5,1.21-10.94,3-16.46,4.07l1.55.88c-.07-.49,22.12-8,24.59-9a1.26,1.26,0,0,0-.67-2.43c-4.78.72-9.37,3.32-14,4.76-2,.62-4,1.3-5.94,2.1-1.79.74-4.42,1.19-6.1,2.2l1.53,2,.17-.15a1.27,1.27,0,0,0-1.23-2.11c-.2.07-1,0-.69.11l.75,1.85c1.78-2.42,5-3.23,6.43-5.89a1.27,1.27,0,0,0-.75-1.85l-.46-.16v2.18c1.28-.66,2.6-1.23,3.9-1.84l-1.27-2.18-.2.15a1.26,1.26,0,0,0,1.27,2.17c6.41-3.09,12.4-7.66,18.94-10.43L641.55,127l.61-.37a1.31,1.31,0,0,0-1.22.92l-.06.18a1.27,1.27,0,0,0,.33,1.23,2.2,2.2,0,0,0,2.73.46c1.26-.61.36-2.83-1-2.3l-.12,0,1,2.3.12-.07a1.3,1.3,0,0,0,.58-1.42c-.12-.62,4.58-2.89,5.56-3.45,1.44-.83.18-2.8-1.27-2.17-4,1.74-7.7,4.27-11.62,6.24s-7.72,5.11-11.68,6.54l1.42,1.85.28-.36c.85-1.11-.73-2.19-1.72-1.73a43,43,0,0,0-6.32,3.46l1.85.76c-.16-.5,12.54-9.24,14.65-11,3.22-2.66,9.42-6.24,11.54-9.9a1.27,1.27,0,0,0-1.09-1.9,12,12,0,0,0-2,.61c-2.63-.81-1.76-7.13,1.34-7.57a1.26,1.26,0,0,0,.88-1.55c-1.3-3.8-1.88-12.62,4.33-12.29,4.19.23,2.81,4,4.69,6.22a1.29,1.29,0,0,0,1.53.2c1.8-1,2.36-3.09,4.19-4.09-3.39,1.85,3-1,2.87-1-1.64.1,1.33.55.86.31,5,2.58,3.53,8.12,1.9,12.2-.48,1.19-1.71,2.53-1.25,3.87a1.32,1.32,0,0,0,1.55.88c9.51-1.4,15.78,13.26,7.79,19.09C673.53,134.11,674.79,136.3,676.1,135.34Z"/><path class="cls-7" d="M631.06,141.28c0-.36,0-.44,0-.23s0,.3,0,.45l.36-.9-.06.07,2.11.56c-.17.53-.2.7-.09.49a1,1,0,0,0,.08-.14,1.29,1.29,0,0,0-.46-1.72,1.26,1.26,0,0,0-1.72.45,1.87,1.87,0,0,0-.24,1.59,1.28,1.28,0,0,0,2.11.55,1.7,1.7,0,0,0,.32-.47c0-.06.18-.68.1-.36a2,2,0,0,0,0-1,1.27,1.27,0,0,0-1.55-.88A1.28,1.28,0,0,0,631.06,141.28Z"/><path class="cls-7" d="M669.3,138.41c0-.14.07-.27.1-.41l-2.1.56a.68.68,0,0,1-.19-.39l.37-.89,0,.05.89-.37h-.28l1.21,1.59,0-.14a1.26,1.26,0,0,0-2.43-.67l0,.14a1.28,1.28,0,0,0,1.22,1.6,1.42,1.42,0,0,0,1.54-1,1.86,1.86,0,0,0-.51-1.72,1.28,1.28,0,0,0-2.11.55c0,.14-.06.27-.1.41C666.48,139.31,668.91,140,669.3,138.41Z"/><path class="cls-7" d="M644,129.34l-.09-.33v.67l0-.15a1.29,1.29,0,0,0-.73-1.49,1.25,1.25,0,0,0-1.57.52h0l2.35.64v-.12l-.17.64,0-.05-1.09.62h.06l-.64-.17a1.74,1.74,0,0,0,2.18-.37l-.89.37h.1l-.64-.18,0,0-.45-.45-.09-.31.63-1.09-.31.21s-.31.18-.12.11a1.26,1.26,0,0,0,.33,2.48h.37l-.88-.88h0l.13-1,0,.08.45-.46c.49-.12.51-.14.05-.06a1.17,1.17,0,0,0-.26.1,2.05,2.05,0,0,0-.59.38,1.27,1.27,0,0,0,.55,2.11A1.73,1.73,0,0,0,644,131l-.63.18.44-.06.19,0a1.27,1.27,0,0,0,.58-.36l-2.11-.55.3,1.1.88-1.55-.79.29,1.55.88c-.14-.52-.28-1-.41-1.55l-.88,1.55.09,0a1.26,1.26,0,1,0-.67-2.43h-.09a1.28,1.28,0,0,0-.88,1.55,1.29,1.29,0,0,0,1.55.89l.09,0-.67-2.43-.09,0a1.27,1.27,0,0,0-.88,1.55c.13.51.27,1,.41,1.55a1.26,1.26,0,0,0,1.55.88l.79-.29a1.3,1.3,0,0,0,.88-1.55l-.3-1.1a1.26,1.26,0,0,0-2.1-.56l0,0,.89-.37-.43,0c.19,0,.18,0,0,0s-.76.26-.4.12h.61l.56,2.1q-.88.27-.36.18l.26,0a1.49,1.49,0,0,0,.65-.36,1.44,1.44,0,0,0,.35-1.3,1.23,1.23,0,0,0-.88-.88,3.31,3.31,0,0,0-1-.09l.34,2.47c.91-.36,1.92-1,1.61-2.17a1.54,1.54,0,0,0-1-1.06,1.67,1.67,0,0,0-.77,0,1.28,1.28,0,0,0-.56.33c-.08.13-.1.14-.05,0l.64-.17c.39.14.39.13,0,0a1.72,1.72,0,0,0-.39,0,1.28,1.28,0,0,0-1.09.62,1.35,1.35,0,0,0-.19.81,1.28,1.28,0,0,0,.92,1.21,1.25,1.25,0,0,0,1.42-.58h0l-2.3-1a2.35,2.35,0,0,0,.06,1.15A1.26,1.26,0,0,0,644,129.34Z"/><path class="cls-7" d="M648.73,130.75c1.43-.54,2.86-1.1,4.27-1.7,1.08-.47,2.21-1.26,3.42-1.13l-.64-2.34c-1.25.6-2.5,1.19-3.77,1.75a14.14,14.14,0,0,1-4,1c-1.6.22-.92,2.65.67,2.43a14.45,14.45,0,0,0,4-1c1.44-.62,2.86-1.29,4.27-2,1.25-.6.47-2.22-.63-2.35a6.39,6.39,0,0,0-3.46.93c-1.61.72-3.25,1.37-4.9,2C646.56,128.89,647.21,131.33,648.73,130.75Z"/><path class="cls-7" d="M650.22,104.46c.24.66.2,1.44.47,2.08a2.4,2.4,0,0,0,.9.89l-.58-.75a13.15,13.15,0,0,1,.25,2.07l1.6-1.21-.23-.09.88.88c0-.22-.08-.44-.11-.66l-.13,1,.13-.23a1.27,1.27,0,0,0-.75-1.85l-.17,0,.88.88a7,7,0,0,0-.43-2,2.8,2.8,0,0,0-.81-.72l.58.75c-.13-.48-.26-1-.4-1.45l-.13,1-.4.36-1.55-.88v0c.59,1.49,3,.84,2.44-.67v0a1.3,1.3,0,0,0-1.55-.88A1.58,1.58,0,0,0,650,105.1a4.18,4.18,0,0,0,.5,1.44,3.42,3.42,0,0,0,.71.6l-.58-.75c.08.56.2,1.12.31,1.68a1.23,1.23,0,0,0,.88.88l.17,0-.75-1.86a1.92,1.92,0,0,0,1,2.84,1.26,1.26,0,0,0,1.59-1.22,14.42,14.42,0,0,0-.31-2.62,2.25,2.25,0,0,0-1-1.17l.58.76a9.72,9.72,0,0,0-.39-1.93C652.11,102.27,649.68,102.93,650.22,104.46Z"/><path class="cls-7" d="M661.53,108.38a.81.81,0,0,1,0,.22l.17-.64,0,.07.45-.45-.08,0,.64-.17h-.07l.89.37,0,0,.33,1.23c0-.17.07-.34.1-.51l-2.3.3a1.71,1.71,0,0,1,.13.23,1.26,1.26,0,0,0,2.17-1.27,1,1,0,0,0-.12-.23,1.28,1.28,0,0,0-2.31.3c0,.17-.07.34-.1.51a1.22,1.22,0,0,0,.32,1.22,1.43,1.43,0,0,0,1.69.23,1.48,1.48,0,0,0,.7-1.4,1.3,1.3,0,0,0-1.26-1.26A1.27,1.27,0,0,0,661.53,108.38Z"/><path class="cls-7" d="M663.56,109.79v.62c0-.14.05-.29.07-.44l-1.21.93h.07l-1.09-.62c-.14-.18-.1-.2,0,0l.13.3a.41.41,0,0,1-.07-.22l.37-.89-.07.07.89-.37h-.09l.89.37.16.27c-.47-1.55-2.91-.89-2.43.67a1.52,1.52,0,0,0,1.38,1.21,1.37,1.37,0,0,0,1.4-1.16,1.64,1.64,0,0,0,0-.73,2.35,2.35,0,0,0-.17-.44q.1.31.06.09a1.38,1.38,0,0,0-1.34-1.05,1.26,1.26,0,0,0-1.22.92,3.23,3.23,0,0,0-.06,1.16,1.26,1.26,0,1,0,2.43-.67Z"/><path class="cls-7" d="M654.7,114.59l-.08,0,.58.76c0,.06,0,.27,0,.08a1.63,1.63,0,0,0-.13-.58,1.3,1.3,0,0,0-.29-.44s-.43-.43-.15-.14l.32.56c.07.18,0-.12,0-.11s0-.08,0,.12a.49.49,0,0,1-.1.27l-2.11-.56c.1.34.21.67.33,1l.33-1.23a1.77,1.77,0,0,0-.46,1.32l.18-.64,0,.07.75-.58-.07,0a1.26,1.26,0,0,0,.67,2.43,1.32,1.32,0,0,0,.86-.67,1.52,1.52,0,0,0,.17-.63c0-.14.08-.26,0,0l-.32.56,0,0a1.2,1.2,0,0,0,.32-1.22c-.11-.33-.23-.66-.33-1a1.28,1.28,0,0,0-2.11-.56,2.08,2.08,0,0,0-.59,1.45,2.58,2.58,0,0,0,.11.73,1.45,1.45,0,0,0,.36.59c.06,0,.42.43.15.13l-.33-.55c-.07-.37,0,.22,0,.35a1.33,1.33,0,0,0,2.38.34A1.27,1.27,0,0,0,654.7,114.59Z"/><path class="cls-7" d="M649.1,117.21c.35,0-.07-.06.2,0L649,115a2.23,2.23,0,0,1-.28.18c0-.1.62.22.14-.07v2.18a21.42,21.42,0,0,0,2.57-1.52l-.64.17h.08l-.89-.37.08.08-.33-.56,0,.13v-.67l0,.1.33-.56a6.66,6.66,0,0,1-.94.82l1.53,2c.13-.11.25-.21.37-.33,1.17-1.13-.6-2.9-1.78-1.78.2-.18.35-.11.12-.12a1.64,1.64,0,0,0-.62.13,1.31,1.31,0,0,0-.88,1.55,1.27,1.27,0,0,0,1.55.88c.17-.06.06,0,.16-.06s.36,0,.54-.07a2,2,0,0,0,.91-.53l-1.78-1.78-.37.33a1.26,1.26,0,0,0,1.53,2,7.89,7.89,0,0,0,1.54-1.34,1.5,1.5,0,0,0-.75-2.29c-.7-.19-1.28.28-1.83.63a15.1,15.1,0,0,1-1.79,1,1.27,1.27,0,0,0,0,2.18,2.37,2.37,0,0,0,2.68-.11,1.28,1.28,0,0,0-.3-2.31,2.59,2.59,0,0,0-.87-.13A1.26,1.26,0,0,0,649.1,117.21Z"/><path class="cls-7" d="M649.75,103a7,7,0,0,0,.31,1.08l1.85-1.43a3.21,3.21,0,0,0-.73-.27l.88.88c-.06-.17-.12-.33-.17-.51l-.58,1.43a1.45,1.45,0,0,0,.56-.51c.06-.11.3-.65.12-.32l-.45.45.06,0a1.29,1.29,0,0,0,.45-1.73,1.27,1.27,0,0,0-1.72-.45,1.61,1.61,0,0,0-.54.53c0,.07-.28.66-.1.28l.45-.45a.27.27,0,0,1-.1.06,1.28,1.28,0,0,0-.58,1.43c0,.17.11.33.16.5a1.26,1.26,0,0,0,.88.88c.15,0,.19,0,.14,0a1.28,1.28,0,0,0,1.4-.1,1.25,1.25,0,0,0,.45-1.32,7,7,0,0,1-.31-1.08,1.27,1.27,0,0,0-1.55-.88A1.28,1.28,0,0,0,649.75,103Z"/><path class="cls-7" d="M652,109.48c.12-.36.13-.41,0-.16a1,1,0,0,0-.11.49,3.36,3.36,0,0,0,.06.63l2.11-1.22-.66-.7-.89,2.16a2.51,2.51,0,0,0,.89-.24l-1,.12.46.13a1.26,1.26,0,0,0,.67-2.43,1.91,1.91,0,0,0-1.55.06l.63-.17h-.13a1.28,1.28,0,0,0-.9,2.15l.67.69a1.29,1.29,0,0,0,1.52.2,1.31,1.31,0,0,0,.58-1.43l0,0-.17.63a1.81,1.81,0,0,0,.25-1,1.3,1.3,0,0,0-1.26-1.27A1.27,1.27,0,0,0,652,109.48Z"/><path class="cls-7" d="M652.05,110.47a2.16,2.16,0,0,1,0,.44l2.15-.89c-.13-.17-.28-.34-.41-.5a2.47,2.47,0,0,0-.85-.69l.58.75c0-.21,0-.24,0-.08l-2.35.63a8.53,8.53,0,0,0,.62.83,4,4,0,0,0,.92.6,1.26,1.26,0,0,0,1.27-2.18c-.05,0-.57-.32-.41-.2s-.18-.26-.22-.32a1.31,1.31,0,0,0-1.43-.58,1.26,1.26,0,0,0-.92,1.22,2.77,2.77,0,0,0,.27,1,1.93,1.93,0,0,0,.83.66l-.46-.45c.27.35.55.7.83,1a1.26,1.26,0,0,0,1.38.26,1.29,1.29,0,0,0,.77-1.15,2.16,2.16,0,0,0,0-.44,1.32,1.32,0,0,0-1.27-1.26C652.7,109.21,652,109.79,652.05,110.47Z"/><path class="cls-7" d="M659,112.76a1.56,1.56,0,0,0-2.15-1.11l1.43.58-.07-.09-.75,1.85s.41-.06.2-.06l-.89-.37q-.22-.42-.15-.21l.13-1-.06.08a1.26,1.26,0,1,0,2.18,1.27,1.59,1.59,0,0,0-.24-1.89,1.76,1.76,0,0,0-1.84-.28,1.27,1.27,0,0,0-.75,1.85l.06.09a1.32,1.32,0,0,0,1.42.58c.13,0,.25-.07.38-.09h-.67l.07,0-.55-.33.06.07-.32-.56a1.13,1.13,0,0,1,.08.24,1.26,1.26,0,0,0,1.55.88A1.28,1.28,0,0,0,659,112.76Z"/><path class="cls-7" d="M653.93,112.8a.29.29,0,0,1,.14.13l.17.64c-.14.38-.17.49-.08.31a1.49,1.49,0,0,0,.17-.36,1.71,1.71,0,0,0,0-.78c0-.21-.17-.54-.18-.68L652,113l.05.06-.32-.56a1.66,1.66,0,0,0,2.06,1.38l-1-.12h0l-.58-.75c0,.1.05.19.07.29l.58-1.42a1.34,1.34,0,0,0-.69.77,1.69,1.69,0,0,0-.13.6s0,.44.07.21l.32-.55a1.67,1.67,0,0,0-.41.69c-.36,1,.69,1.72,1.55,1.55h.2l-1.22-.93c0,.09,0,.18.07.26l1.22-1.59c-.28,0-.19.06.28.17-1.13-1.17-2.91.61-1.78,1.78a1.8,1.8,0,0,0,1.5.57,1.27,1.27,0,0,0,1.21-1.6c0-.08,0-.17-.07-.26a1.3,1.3,0,0,0-1.21-.92,3.57,3.57,0,0,0-.87.1l1.55,1.55,0-.08-.33.56a1.46,1.46,0,0,0,.42-1.35c0-.26-.08-.16-.26.29s-.38.47-.17.36a1.26,1.26,0,0,0,.57-1.42,1.36,1.36,0,0,0-1.12-1.2.94.94,0,0,0-.5,0c.91.86,1.27,1,1.08.53a1.57,1.57,0,0,0-.41-.76,1.28,1.28,0,0,0-2.16.89,10.4,10.4,0,0,0,.27,1.35v-.67c0-.1,0-.09,0,0a1.32,1.32,0,0,0-.15.39,1.43,1.43,0,0,0,0,.74,2.09,2.09,0,0,0,.89,1.08,1.26,1.26,0,0,0,1.72-.46A1.29,1.29,0,0,0,653.93,112.8Z"/><path class="cls-7" d="M657.89,126.79l-.59.07-.75-.58.07.09.75-1.85-1.16.31,1,2.3.71-.34a1.26,1.26,0,0,0-1.27-2.18l-.71.34c-1.31.64-.38,2.66,1,2.31L658,127a1.26,1.26,0,0,0,.75-1.85,1.6,1.6,0,0,0-2.17-.49,1.28,1.28,0,0,0-.45,1.73A1.29,1.29,0,0,0,657.89,126.79Z"/><path class="cls-7" d="M657.87,117c0,.11.07.22.1.33l.32-1.23-.07.06.56-.32-.21.07h.62l.88.88v.36l-.32.55c-.13.15-.15.08,0,0L658,117.3l0,0a1.27,1.27,0,0,0,1.72.46,1.29,1.29,0,0,0,.45-1.73l0,0a1.28,1.28,0,0,0-1.72-.45,1.59,1.59,0,0,0-.73,2.06,1.46,1.46,0,0,0,2.38.28,1.23,1.23,0,0,0,.32-1.22c0-.11-.06-.22-.1-.33a1.3,1.3,0,0,0-1.55-.88A1.28,1.28,0,0,0,657.87,117Z"/><path class="cls-7" d="M656.93,115.26v-.13l.17-.64,0,.07.75-.58a1.78,1.78,0,0,0-1,.73,2,2,0,0,0-.13,1.37l1.85-1.43a.57.57,0,0,1,.15.4c.22.37.09.65-.39.83l-1-.12.07,0-.45-.45a2.12,2.12,0,0,1,.11.21,1.26,1.26,0,0,0,1.72.45,1.28,1.28,0,0,0,.46-1.72,1.48,1.48,0,0,0-2.67,0,1.81,1.81,0,0,0,.7,2.57,1.28,1.28,0,0,0,1.85-1.42l-.24.74-.55.32a1.42,1.42,0,0,0,1-1.88,1.29,1.29,0,0,0-1.55-.88A1.27,1.27,0,0,0,656.93,115.26Z"/><path class="cls-7" d="M669.45,121.29v-.36l.33-.56,0,0,.89-.37h-.07l.63.18a3.87,3.87,0,0,0-.73-.3,2.63,2.63,0,0,0-.49,0c-.36.06-.44.06-.26,0l.64.17.39.84-1.22.93h.07l-1.09-.62.07.12a1.28,1.28,0,0,0,1.42.58,1.92,1.92,0,0,0,1.25-1l-2,.25a3.66,3.66,0,0,0,.68.51l-.58-.75.09.34a1.26,1.26,0,0,0,2.43-.67,1.77,1.77,0,0,0-.41-.9,1.9,1.9,0,0,0-.37-.26c.07.07,0,.06-.06,0a1.27,1.27,0,0,0-2,.26l.26-.2,1.43.58a1.44,1.44,0,0,0-1.23-.75,1.27,1.27,0,0,0-1.21.92,1.62,1.62,0,0,0,.35,1.69,1.55,1.55,0,0,0,.72.45,1.57,1.57,0,0,0,.43,0c.39,0,.45-.05.17-.06s-.23,0-.06,0a1.36,1.36,0,0,0,1.61-.19,1.57,1.57,0,0,0,.35-1.57,1.27,1.27,0,0,0-1.55-.88A1.28,1.28,0,0,0,669.45,121.29Z"/><path class="cls-7" d="M669.19,116.62a1.54,1.54,0,0,0,.68-.9l-2.11.56-.14-.37.17-.64-.06.1,1.42-.57-.08,0,.75.58,0,0,.17.64c0,.61,0-.33,0-.22a2.73,2.73,0,0,0,0-.4,1.35,1.35,0,0,0-1.09-1,1.29,1.29,0,0,0-1.22.48,1.93,1.93,0,0,0-.32.68l.58-.75,0,0,1.85.75c-.06-.2-.06-.19,0,0l-.37.89.05,0-.56.33.09,0c1.54-.49.88-2.92-.67-2.43a1.43,1.43,0,0,0-1,1.92c.23.69,1.17,1.28,1.85.76a1.64,1.64,0,0,0,.56-.64l.09-.21c0-.14,0-.1-.07.11l-1.08.62h.06l-.89-.37,0,0-.37-.89,0-.16a1.57,1.57,0,0,0,0,.37,1.13,1.13,0,0,0,.11.55,1.34,1.34,0,0,0,.93.8,1.32,1.32,0,0,0,1.43-.58,1.8,1.8,0,0,0-.36-2.16,1.28,1.28,0,0,0-2.11.56l0,.09.58-.75-.07.06a1.29,1.29,0,0,0-.46,1.72A1.27,1.27,0,0,0,669.19,116.62Z"/><path class="cls-7" d="M668.66,120.46c.17.21.33.42.51.63l.55-2.11a1.36,1.36,0,0,0-.29.06l1.22.32c.06,0,.05.46.07.09l-2.15.89.09.12a1.27,1.27,0,0,0,1.78,0,1.29,1.29,0,0,0,0-1.79l-.09-.12a1.26,1.26,0,0,0-1.38-.26,1.29,1.29,0,0,0-.77,1.16,2.16,2.16,0,0,0,.48,1.49,1.44,1.44,0,0,0,.75.53,2.23,2.23,0,0,0,1-.06c1-.15,1.09-1.47.56-2.1-.18-.21-.34-.42-.51-.64a1.27,1.27,0,0,0-1.78,0A1.31,1.31,0,0,0,668.66,120.46Z"/><path class="cls-7" d="M671.35,121.88c-.05-.25-.06-.15,0,.3l-.32.56,0,0-.89.37c-.46,0,.5.09.33.08a1.4,1.4,0,0,0,.6-.12,1.63,1.63,0,0,0,.52-.31l.1-.09c.21-.3.25-.34.12-.14l-1.52.2.09,0-.45-.45c.12.2.14.1.07-.29s0-.5-.13-.08a1.8,1.8,0,0,0,0,.61l.92-1.22-.81.22,1.55.88c0-.18-.09-.36-.14-.53a1.26,1.26,0,0,0-2.43.67c.05.17.09.35.14.53a1.28,1.28,0,0,0,1.55.88l.81-.22a1.26,1.26,0,0,0,.93-1.21.62.62,0,0,1,0-.27l-.17.63a1.76,1.76,0,0,0-.62-2.38,1.32,1.32,0,0,0-1.53.2.55.55,0,0,0-.16.18c-.16.21-.14.17.08-.1l.64-.17c.13,0,.12,0,0,0a2,2,0,0,0-.42,0,1.33,1.33,0,0,0-.93.41,1.58,1.58,0,0,0-.29,1.59A1.26,1.26,0,0,0,671.35,121.88Z"/><path class="cls-7" d="M650.92,104.9l0,.12.58-.75-.08.06,1.85.75c-.1-.4-.21-.81-.33-1.21l-1.85,1.43c-.23-.15-.2-.33-.18-.06a1.29,1.29,0,0,0,1.26,1.26,1.27,1.27,0,0,0,1.26-1.26,2.54,2.54,0,0,0-1.07-2.12,1.27,1.27,0,0,0-1.85,1.42c.12.4.23.81.33,1.21a1.26,1.26,0,0,0,1.85.75,1.54,1.54,0,0,0,.69-.93A1.26,1.26,0,0,0,650.92,104.9Z"/><path class="cls-7" d="M650.08,101.08a2.23,2.23,0,0,0-.22,1.16l2.35-.64-.14-.27.13,1,.06-.22-.88.88.12,0a1.28,1.28,0,0,0,.93-1.21l0-.22-1.9,1.09,0,0-.57-.76,0,.11v-.67l0,.09a1.26,1.26,0,0,0,2.43.67,1.38,1.38,0,0,0-.61-1.64c-.75-.4-2,.09-1.89,1.09l0,.22.93-1.22a1.37,1.37,0,0,0-1,1,1.66,1.66,0,0,0,.24,1.35c.56,1.06,2.47.63,2.35-.63a1.41,1.41,0,0,1,0-.41l-.18.64,0-.12a1.29,1.29,0,0,0-.45-1.72A1.26,1.26,0,0,0,650.08,101.08Z"/><path class="cls-7" d="M648,105.7c-.38-.13-.46-.13-.23,0,1.07.74,2.31-.69,1.72-1.73l0,0-1.73,1.73.2.1-.26-2,0,0,1.53-.2-.15-.08a1.27,1.27,0,0,0-1.73,1.72l.09.17.2-1.53c-.07.09-.15.17-.23.26l1.53-.2a1.13,1.13,0,0,0,.25.24l-.13,1,.07-.1a1.26,1.26,0,0,0-2.18-1.27,1.73,1.73,0,0,0,.71,2.33,1.29,1.29,0,0,0,1.53-.2,2.85,2.85,0,0,0,.23-.26,1.3,1.3,0,0,0,.2-1.53l-.09-.16-1.72,1.73.15.08a1.27,1.27,0,0,0,1.53-.2v0a1.28,1.28,0,0,0-.25-2l-.19-.1a1.28,1.28,0,0,0-1.73,1.73l0,0,1.73-1.72a2.19,2.19,0,0,0-1-.35,1.26,1.26,0,0,0-1.26,1.26A1.29,1.29,0,0,0,648,105.7Z"/><path class="cls-7" d="M642.74,132.68a1.24,1.24,0,0,1,.6-.15l-.67-2.43c-.36.12-.7.27-1,.41l1.22,2.11.15-.14a1.26,1.26,0,1,0-1.78-1.78,1,1,0,0,0-.15.14,1.29,1.29,0,0,0-.2,1.52,1.27,1.27,0,0,0,1.43.58c.35-.14.69-.29,1.05-.41a1.26,1.26,0,0,0-.67-2.43,2.67,2.67,0,0,0-1.2.4,1.26,1.26,0,1,0,1.27,2.18Z"/><path class="cls-7" d="M621,141.75c.28-.27.57-.52.87-.78l-2.11-.55c0-.12,0-.09,0,.07a1.27,1.27,0,0,0,1.59,1.21l.88-.31L621,139.28s.32-.21,0,0c-.13.07-.24.17-.36.24a4,4,0,0,1-.69.34,4.55,4.55,0,0,0-1.43.95l.56-.33-.17.06,1.23,2.11.87-.87a1.26,1.26,0,0,0-1.79-1.78q-.42.43-.87.87a1.27,1.27,0,0,0,1.23,2.1,2,2,0,0,0,.78-.44,2.25,2.25,0,0,0,.24-.21c.13-.08.41-.18.67-.3a6.39,6.39,0,0,0,1.52-.93,1.26,1.26,0,0,0-1.22-2.1l-.88.31,1.6,1.22c0-.25-.05-.5-.09-.74-.17-1-1.46-1.12-2.1-.56-.3.26-.6.5-.88.78C618.09,141.1,619.87,142.88,621,141.75Z"/><path class="cls-7" d="M648.38,132.58a34.3,34.3,0,0,0-4.3,1.64,24.62,24.62,0,0,1-5.11,1.59l.67,2.43c1.75-.7,3.58-1.35,5.28-2.18a1.29,1.29,0,0,0,.57-1.42l0-.35-1.22,1.59c.21,0,.42,0,.63-.07l-1.26-1.26,0,.18c.1.74.74,1.52,1.6,1.22a22.84,22.84,0,0,1,4.07-1.09l-1-2.31-.22.16c-1.33.92-.07,3.1,1.27,2.18l.23-.16a1.27,1.27,0,0,0-1-2.31,24.67,24.67,0,0,0-4.07,1.09l1.59,1.22,0-.18c-.08-.6-.52-1.35-1.26-1.26-.21,0-.42.06-.63.07A1.29,1.29,0,0,0,643,135l0,.35.58-1.43c-1.49.74-3.12,1.31-4.67,1.93a1.26,1.26,0,0,0,.67,2.43,25.54,25.54,0,0,0,5.06-1.56,39.41,39.41,0,0,1,4.35-1.67A1.26,1.26,0,0,0,648.38,132.58Z"/><path class="cls-7" d="M653.73,133.27l-.15-.06.31,2.3c1.16-.57,2.52-.57,3.66-1.19l-.63.17H657l-1.09-.63.07.13-.17-.63,0,.16.17-.64-.08.1.45-.45a5.52,5.52,0,0,1-3,.69c-1.62-.15-1.61,2.37,0,2.52s6-.7,4.69-3.15A1.24,1.24,0,0,0,657,132a34,34,0,0,0-4.39,1.36c-1.09.54-.59,1.93.3,2.31l.15.06C654.6,136.22,655.26,133.78,653.73,133.27Z"/><path class="cls-7" d="M657,142.81a5.8,5.8,0,0,1-.86.67L658,144.9s0-.43,0-.25q.11-.17,0-.06c-.06.07,0,.06,0,0l-.09.07.17-.11c.11-.08.33-.11,0-.05l-1.22-.32,0,.06-.33-.56c.08.17.14.35.23.52l-.17-.64v.07l.37-.89-.1.1a1.26,1.26,0,0,0,1.79,1.78,1.42,1.42,0,0,0,.47-1.06,1.58,1.58,0,0,0-.52-1.16,1.29,1.29,0,0,0-1.23-.33,3,3,0,0,0-1.19.74,2.53,2.53,0,0,0-.76,1.45,1.29,1.29,0,0,0,.45,1.32,1.24,1.24,0,0,0,1.4.1,9.37,9.37,0,0,0,1.38-1.06C659.93,143.45,658.14,141.67,657,142.81Z"/><path class="cls-7" d="M657.65,143.85c-.12.15-.25.29-.38.44l2.11.55q-.09-.37-.06.12a.7.7,0,0,1-.26.39l-1.53-.2-.2-.52.17-.63,0,.1a1.31,1.31,0,0,0,.46,1.73,1.27,1.27,0,0,0,1.72-.45,1.68,1.68,0,0,0-.32-2,1.32,1.32,0,0,0-1.53-.2,1.92,1.92,0,0,0-.83,2.34,1.27,1.27,0,0,0,2.1.56c.13-.15.26-.29.38-.44a1.29,1.29,0,0,0,0-1.78A1.27,1.27,0,0,0,657.65,143.85Z"/><path class="cls-7" d="M662.44,143.37l-.21-.8v.67a10.26,10.26,0,0,0,.33-1.65l-.37.89c.09-.07.16-.16.25-.23l-2.15-.89c0,.72,0,1.42,0,2.13l.62-1.08a1.46,1.46,0,0,0-.79.94l.58-.76-.06,0a1.26,1.26,0,0,0,1.27,2.18,1.35,1.35,0,0,0,.67-.86l-.33.56-.07.08a1.25,1.25,0,0,0,.63-1.09c0-.71.07-1.41,0-2.13a1.27,1.27,0,0,0-2.15-.89,1.64,1.64,0,0,0-.58.79c-.07.26-.08.56-.15.84a3.24,3.24,0,0,0-.15,1,6.38,6.38,0,0,0,.23,1A1.26,1.26,0,0,0,662.44,143.37Z"/><path class="cls-7" d="M660.23,143.68c0,.13,0,.26,0,.39l.17-.64a1.74,1.74,0,0,0-.19.92.86.86,0,0,0,0,.27c0-.12,0-.08,0,.13l2.48-.34c-.06-.18,0,0,0-.16a.49.49,0,0,0,0-.24c0-.42-.12-.23-.28.56,1.16-1.14-.62-2.92-1.78-1.78a2.22,2.22,0,0,0-.31,2.29,1.26,1.26,0,0,0,2.47-.33,4.44,4.44,0,0,0-.12-.9l-.13,1a3,3,0,0,0,.24-1.14,1.28,1.28,0,0,0-1.26-1.26A1.27,1.27,0,0,0,660.23,143.68Z"/><path class="cls-7" d="M660.38,145.75a3.71,3.71,0,0,0,.2.67v-.65a1.28,1.28,0,0,0,1.55,1.55h0l-1.43-.58,0,0,2-1.53a2,2,0,0,0-.29-.22.37.37,0,0,1,.15.13l.17.64c-.16.41-.17.5,0,.27a1.26,1.26,0,0,0-2.18-1.28,1.76,1.76,0,0,0-.24,1.34,1.51,1.51,0,0,0,.35.63c.07.08.61.56.3.27a1.27,1.27,0,0,0,1.66.1,1.29,1.29,0,0,0,.32-1.63v0a1.26,1.26,0,0,0-1.42-.58h0l1.55,1.55a2.89,2.89,0,0,0-.19-1.36,1.27,1.27,0,0,0-1.55-.88A1.3,1.3,0,0,0,660.38,145.75Z"/><path class="cls-7" d="M663.89,146.51a1.45,1.45,0,0,0-1.78-.22,1.52,1.52,0,0,0-.63.82,1.55,1.55,0,0,0-.07.43c0,.17,0,.17,0,0l.88-.88-.08,0,1,.13-.09-.05.58.75c0,.1,0,.17,0,0a1.28,1.28,0,0,0-.19-.67,1.59,1.59,0,0,0-.34-.39c-.14-.12-.21-.24-.05,0l.32.56c0,.17,0-.32,0-.4l-1.59,1.22a1.37,1.37,0,0,0,.29.07c-.08-.06-.07-.06,0,0l-.63-1.09a3.1,3.1,0,0,0,.1.87,1.26,1.26,0,0,0,.32.56c.27.23-.15-.46,0-.07l2.3-1c0,.1,0,.11,0,0a1,1,0,0,0,0-.14,1.26,1.26,0,0,0-2.43.67,2.24,2.24,0,0,0,.3.71,1.26,1.26,0,0,0,2.31-1,1.78,1.78,0,0,0-.6-1l.37.89a2.47,2.47,0,0,1,0-.54,1.21,1.21,0,0,0-.62-1.08,5.43,5.43,0,0,0-.93-.33,1.28,1.28,0,0,0-1.6,1.21,3,3,0,0,0,.07,1.07,1.72,1.72,0,0,0,.76.9l-.45-.45,0,.06-.17-.63a1.44,1.44,0,0,0,1.36,1.62,1.38,1.38,0,0,0,1.07-.53,1.41,1.41,0,0,0,.26-.52c0-.06.11-.62,0-.33l-.32.55-.35.21-1.23-.32.09.08a1.31,1.31,0,0,0,1.79,0A1.29,1.29,0,0,0,663.89,146.51Z"/><path class="cls-7" d="M665.88,144.54a3.52,3.52,0,0,0-1.68.73l1.23-.32h0l.56.32-.05,0,.37.89V146l-.18.64,0,0-.45.45c-.15.1,0,0,.1,0s.31-.08.46-.12a3.52,3.52,0,0,0,.43-.13,1.44,1.44,0,0,0,.88-1.56,1.63,1.63,0,0,0-1.1-1.47,2.5,2.5,0,0,0-1.35.15l1.42,1.85.06-.12-.75.58s.44-.12.31-.11l-.64-.17.08,0-.45-.45c-.05-.17-.06-.18,0,0s.11.14.14-.47l.45-.45-.1.06c-1.42.78-.15,3,1.27,2.17a1.77,1.77,0,0,0,.46-2.52,1.82,1.82,0,0,0-3,.19,1.28,1.28,0,0,0,1.42,1.86c.2-.06.41-.13.61-.17h-.67l-.17-.06-.45-.46a.67.67,0,0,1,0-.42l.32-.55c0-.05.52-.22.33-.23a.71.71,0,0,0-.24.06,8.16,8.16,0,0,0-.88.26,1.39,1.39,0,0,0-.79,1.65,1.37,1.37,0,0,0,1.64.93c.22-.06.35-.23.55-.32,0,0-.15.06,0,0a5.61,5.61,0,0,0,.59-.13A1.26,1.26,0,0,0,665.88,144.54Z"/><path class="cls-7" d="M669.49,140.24a1.41,1.41,0,0,0,0-.2c0-.24,0-.14-.14.29l-.45.45.06,0-.63.18.14,0c.5-.05.45-.06-.14-.05l-.55-.32,0,.05-.32-.55.06-.54L668,139c.05,0,.46-.08.21-.07a1.3,1.3,0,0,0-1.26,1.27,1.28,1.28,0,0,0,1.26,1.26,1.77,1.77,0,0,0,1.57-.81,1.62,1.62,0,0,0-.49-2.14,1.81,1.81,0,0,0-1.1-.14,1.09,1.09,0,1,1,.13,0,1.57,1.57,0,0,0-.67.19c-.66.39-.64,1-.7,1.65a1.27,1.27,0,0,0,1.26,1.26A1.29,1.29,0,0,0,669.49,140.24Z"/><path class="cls-7" d="M673.25,126.76a1.44,1.44,0,0,0-1.78-.21,1.53,1.53,0,0,0-.63.83c0,.15-.05.3-.07.44s0,.18,0,0l.89-.88-.07,0,1,.13-.09,0,.58.75c.11.32,0-.22,0-.35s-.2-.55-.37-.61-.1,0,.07.25.13.39.13.19a1.48,1.48,0,0,1,0-.21c0-.16,0-.14,0,0l-.32.56-.3.19a1.26,1.26,0,0,0,0-2.43l-.45-.06c-.15,0-.15,0,0,0,.36.17.37.14,0-.09a.35.35,0,0,1,.16.16l-.75,1.86.38-.1L670,126l0-.09.32-.56a1.78,1.78,0,0,0-.41.7,1.27,1.27,0,0,0,1.55,1.55c.3-.08.68,0,0-.2a.46.46,0,0,1-.55-.36c0,.14,0,.17,0,.08a1.28,1.28,0,0,0,1.09,1.24,1.26,1.26,0,0,0,1.39-.91h0l-2.48-.33a5.57,5.57,0,0,0,.1.82,1.23,1.23,0,0,0,.33.56c.22.21.17.06-.14-.44l2.35-.63c0,.09,0,.06,0-.08a1.26,1.26,0,0,0-2.43.67,2.36,2.36,0,0,0,.27.68,1.27,1.27,0,0,0,2.35-.64,1.76,1.76,0,0,0-.61-1.34l.37.89-.06-.49a1.27,1.27,0,0,0-1.09-1.24,1.25,1.25,0,0,0-1.38.9h0l2.47.34a2.23,2.23,0,0,0-.79-1.76,2,2,0,0,0-1.86-.19l1.55,1.55,0-.08-.32.55a1.45,1.45,0,0,0,.43-1.19,1.27,1.27,0,0,0-1.6-1.21,2.62,2.62,0,0,1-.38.09,1.28,1.28,0,0,0-.75,1.86,2.66,2.66,0,0,0,.83.84,1.86,1.86,0,0,0,.49.24l.44.06c.14,0,.14,0,0,0V125.4a1.58,1.58,0,0,0-1.22,1.68,2.55,2.55,0,0,0,.07.78,2.18,2.18,0,0,0,.52.78l-.32-.56c-.12-.31,0-.07,0,.1a1.42,1.42,0,0,0,.18.56,1.44,1.44,0,0,0,1.17.67,1.4,1.4,0,0,0,1.06-.52,1.37,1.37,0,0,0,.26-.51l0-.33c0-.2,0-.13-.1.23l-.45.45-.14.06-1.22-.32.09.08a1.3,1.3,0,0,0,1.78,0A1.27,1.27,0,0,0,673.25,126.76Z"/><path class="cls-7" d="M673.66,126.82l.13-.13-.56.33,1.23-.33.61-.16.21-.06c.29,0,.27-.08-.07-.1l-.55-.32.06.08-.32-.56c0,.09.05.17.07.25.06.23.08.15,0-.24l.58-.75a2.48,2.48,0,0,1-.74.22,2.5,2.5,0,0,0-.78.47l.56-.33h-.06l1.43.58,0-.07.17.64v-.12l-.37.89.06-.06-.56.33c-.36.07.2,0,.26,0l.39-.12a3,3,0,0,0,.82-.29,1.62,1.62,0,0,0,.38-2.24,1.61,1.61,0,0,0-2-.56l-2.18.57a1.28,1.28,0,0,0-.88,1.55l.14.55,2.31-1c-.1-.13-.11-.16,0-.1v.67l0-.15a1.31,1.31,0,0,0-.88-1.55,1.27,1.27,0,0,0-1.55.88,2.07,2.07,0,0,0,.27,1.52,1.26,1.26,0,0,0,2.3-1l-.14-.55-.88,1.56,1.35-.36.62-.17.31-.08c.26-.06.28-.07.05,0l-.63-.17.07,0-.45-.45a.83.83,0,0,0,0-.15l.17-.64,0,.08.45-.46c.13-.09.15-.05,0,0a3.6,3.6,0,0,0-.44.12c-.31.1.4,0-.12,0a1.55,1.55,0,0,0-.57.17,1.46,1.46,0,0,0-.48,2,1.28,1.28,0,0,0,1.42.58,1.62,1.62,0,0,0,.76-.44l-.56.32c-.12,0-.08,0,.11,0a1.53,1.53,0,0,0,.36-.07,3.61,3.61,0,0,0,.46-.17,1.58,1.58,0,0,0,1.07-1,2.21,2.21,0,0,0-.51-2c-.69-.69-1.65-.28-2.45-.07s-1.66.27-2.11.84a1.3,1.3,0,0,0,0,1.78A1.26,1.26,0,0,0,673.66,126.82Z"/><path class="cls-7" d="M673.74,127.7l-.4,0,.34-2.47-.49,0q-.24,0-.09,0a1.3,1.3,0,0,0-1.26,1.26,1.27,1.27,0,0,0,1.26,1.26l.48-.06c.16,0,.19,0,.1,0a1.27,1.27,0,0,0,.33-2.48,1.79,1.79,0,0,0-1.54.21A1.26,1.26,0,0,0,673.74,127.7Z"/><path class="cls-7" d="M653.9,115.77a.39.39,0,0,1-.09-.32A.39.39,0,0,1,653.9,115.77Z"/><path class="cls-7" d="M655,115.14l.08.31-2.34.64-.09-.32A1.29,1.29,0,0,0,653.9,117a1.27,1.27,0,0,0,1.26-1.26,1.8,1.8,0,0,0-.26-1,1.27,1.27,0,0,0-2.35.64,1.78,1.78,0,0,0,.26,1C653.66,117.79,655.84,116.53,655,115.14Z"/><path class="cls-7" d="M651.62,108.37l.27.3A.33.33,0,0,1,651.62,108.37Z"/><path class="cls-7" d="M650.72,109.26l.28.3,1.22-2.11-.09,0,.55.33.15.28a1.3,1.3,0,0,0-1.55-.88,1.27,1.27,0,0,0-.88,1.55,1.65,1.65,0,0,0,1.15,1.18,1.27,1.27,0,0,0,1.23-2.11l-.27-.29a1.27,1.27,0,0,0-1.79,0A1.29,1.29,0,0,0,650.72,109.26Z"/><path class="cls-7" d="M651.25,102.83l-.1-.24h0a2.86,2.86,0,0,1,.29.89C651.4,103.26,651.33,103,651.25,102.83Z"/><path class="cls-7" d="M652.47,102.5c-.08-.18-.15-.37-.23-.55l-1.42,1.85h0l-.56-.32c-.42-.53-.22-.39-.13-.08a2.71,2.71,0,0,1,.09.41l2.43-.67-.21-.65a1.3,1.3,0,0,0-1.55-.88,1.26,1.26,0,0,0-.88,1.55l.21.65a1.31,1.31,0,0,0,1.55.88,1.29,1.29,0,0,0,.88-1.55c-.13-.68-.4-1.63-1.19-1.78a1.29,1.29,0,0,0-1.43,1.85l0,0a1.3,1.3,0,0,0,1.55.88A1.27,1.27,0,0,0,652.47,102.5Z"/><path class="cls-7" d="M668.17,115.66c.14,0,.14.18.17.35h0A.35.35,0,0,1,668.17,115.66Z"/><path class="cls-7" d="M667.53,116.75l.09,0-.46-.45c-.06-.16-.08-.16,0,0l1.85-1.42.29.23.17.63v-.13a1.26,1.26,0,0,0-2.52,0,1.59,1.59,0,0,0,.79,1.44,1.28,1.28,0,0,0,1.85-1.42,1.52,1.52,0,0,0-.74-1.11A1.26,1.26,0,0,0,667.53,116.75Z"/><path class="cls-7" d="M669.05,114.06h0a.42.42,0,0,0,0-.06A.07.07,0,0,1,669.05,114.06Z"/><path class="cls-7" d="M669.05,112.8h0l1.09,1.9,0-.06-2.3-.3,0,0a1.29,1.29,0,0,0,1.55.88,1.27,1.27,0,0,0,.88-1.55l0,0a1.29,1.29,0,0,0-1-.91,1.23,1.23,0,0,0-1.25.61l0,0a1.28,1.28,0,0,0,1.09,1.9h0A1.26,1.26,0,0,0,669.05,112.8Z"/><path class="cls-7" d="M662.39,147.94c-.07,0-.06-.08-.08-.13a.53.53,0,0,1,0-.13h.05C662.37,147.78,662.41,147.93,662.39,147.94Z"/><path class="cls-7" d="M662.39,146.68h0l1.22.93c0-.11,0-.08,0,.08L662,148.9h0l-.88-.88q.06.24,0-.09a1.29,1.29,0,0,0,1.26,1.26,1.27,1.27,0,0,0,1.26-1.26,2.8,2.8,0,0,0-.09-.58,1.21,1.21,0,0,0-.88-.88h0c-.72-.15-1.68.34-1.59,1.21a2.9,2.9,0,0,0,.09.59,1.31,1.31,0,0,0,1.21.92h0a1.27,1.27,0,0,0,1.26-1.26A1.29,1.29,0,0,0,662.39,146.68Z"/><path class="cls-7" d="M671.68,127.92a.48.48,0,0,1,.08.35C671.69,128.12,671.64,128,671.68,127.92Z"/><path class="cls-7" d="M670.59,128.56l-.09-.29,2.35-.64.09.29a1.27,1.27,0,0,0-1.26-1.26,1.29,1.29,0,0,0-1.26,1.26,1.92,1.92,0,0,0,.25,1,1.28,1.28,0,0,0,1.42.58,1.29,1.29,0,0,0,.93-1.22,1.86,1.86,0,0,0-.25-1A1.26,1.26,0,0,0,670.59,128.56Z"/><path class="cls-7" d="M643,129.65h0S643,129.64,643,129.65Z"/><path class="cls-7" d="M642.62,128.43l0,0a1.27,1.27,0,0,0-.88,1.55,1.29,1.29,0,0,0,1.55.88l.08,0c1.41-.29,1-2.46-.34-2.47h0a1.26,1.26,0,0,0,0,2.52h0l-.33-2.48-.08,0,.67,2.43,0,0A1.26,1.26,0,0,0,642.62,128.43Z"/><path class="cls-7" d="M615.65,145.64a.82.82,0,0,0-.26.23Z"/><path class="cls-7" d="M615,144.55a3.45,3.45,0,0,0-.51.42,1.26,1.26,0,1,0,1.78,1.79l.26-.23a1.26,1.26,0,1,0-1.78-1.78l-.26.22,1.78,1.79v0a1.3,1.3,0,0,0,.46-1.73A1.28,1.28,0,0,0,615,144.55Z"/><path class="cls-7" d="M624,137.58l1-.48A2,2,0,0,0,624,137.58Z"/><path class="cls-7" d="M624.66,138.67l1-.48a1.27,1.27,0,0,0-.63-2.35,2.92,2.92,0,0,0-1.64.65,1.26,1.26,0,0,0,1.27,2.18l.39-.26c.15-.1.17,0,0,0l-.64-2.35-1,.48a1.27,1.27,0,0,0-.45,1.72A1.29,1.29,0,0,0,624.66,138.67Z"/><path class="cls-7" d="M361.86,142.39a1.74,1.74,0,0,1,1.22.11,16,16,0,0,1-1.1,2.23,16.27,16.27,0,0,0-1.57,3.43,12,12,0,0,0,0,6.45l.2.62a12.66,12.66,0,0,0,1,2.2.58.58,0,0,1,.18.29l.14.2a.55.55,0,0,1,.21.26,7.56,7.56,0,0,0,3.9,2.73c2.34.64,4.4-.24,6.28-2.24a11,11,0,0,0,1.59-2.29l.36.55a5.05,5.05,0,0,0,4,2.55,6,6,0,0,0,5.33-2.36,10.85,10.85,0,0,0,2.22-5.77,8.64,8.64,0,0,0-.18-3.13,3.32,3.32,0,0,1-.06-1.37c0-.31.14-.38.34-.36l1,.09c.55.06.83-.2,1-1a5.23,5.23,0,0,0-.8-3.79,1.32,1.32,0,0,0-1.18-.53,13.54,13.54,0,0,1-2.46-.14,1.78,1.78,0,0,1-.59-.26l.09-.14a.71.71,0,0,1,.78-.26,2.88,2.88,0,0,0,1.79,0,3.72,3.72,0,0,1,2,.3,23.42,23.42,0,0,0,3.42.55,28.52,28.52,0,0,0,5.91-.19c1.45-.11,2.9-.27,4.35-.28a.86.86,0,0,1,.5-.05c.24,0,.47,0,.7-.08h1.36l.52-.06.85-.05c0-.18.09-.27.21-.27v-.1c-.15,0-.25-.07-.31-.27a.62.62,0,0,1,0-.55h0l.16.47c.18,0,.36-.06.54-.06h.07a.47.47,0,0,1,.07.26c.13,0,0-.29.2-.26.05.25,0,.41-.21.43l-.56.1-.07.27,6.18-.16c.37,0,.74,0,1.1,0l3.29,0h.21a.37.37,0,0,1,.29,0,4.9,4.9,0,0,1,1.21,0,.2.2,0,0,1,.22,0,.53.53,0,0,1,.35,0l4.43.1h.07c.11-.26-.09-.45-.07-.7a1.53,1.53,0,0,0-1.22-.51c-1.38-.05-2.74-.33-4.11-.51s-2.45-.34-3.68-.52c-1.76-.26-3.54,0-5.31-.17s-3.27-.32-4.9-.55l-4.17-.59-4.06-.63-.39-.06a7.72,7.72,0,0,1,1.17-.11,13.77,13.77,0,0,1,3.77.47,21.46,21.46,0,0,0,3.29.52,9.4,9.4,0,0,0,1.76,0l1.05.13c2.16.24,4.32.31,6.48.43a36.37,36.37,0,0,1,4.39.57,29.3,29.3,0,0,0,4.75.55,7.43,7.43,0,0,0,.81-.09l.31.1-.21-.11a1.46,1.46,0,0,1,.36,0l.15,0c.11-.14.24-.1.38-.07h.15l.34-.16a7.22,7.22,0,0,0-.87-.72l-2.4-1.46-.08,0a8.29,8.29,0,0,0-1.75-.43h-.25a7.59,7.59,0,0,0-.75-.65c-.34-.18-.7-.36-1.05-.52a1.58,1.58,0,0,1-.53-.28l-.16-.18a.53.53,0,0,1,.35-.2c.12,0,.29,0,.34-.26a2.56,2.56,0,0,0-.46-.11c-.61-.08-1.21-.18-1.81-.29l-.25-.11-1.81-.37.24.1-.13,0-2.34-.54-.86-.44-1.2-.07-.81-.19c-2.11-.53-4.23-1.06-6.33-1.63-2.31-.63-4.6-1.31-6.9-2a16.09,16.09,0,0,1-2.3-.72,1.15,1.15,0,0,0-.51-.09c.06.45.32.46.56.44s.26-.12.28.13-.06.44-.26.42a.65.65,0,0,0-.53.21c-.22.22-.31.16-.34-.07l.14,0-.14,0c0-.05,0-.1,0-.17,0-.38.08-.78-.19-1.06l-.5-.21-.51-.12a6.93,6.93,0,0,1-1.14-.38,3.53,3.53,0,0,1-1-.27l-3.89-1.11a5.09,5.09,0,0,1,.68.12l1.1.24c.35.08.71.1,1.05.17s.48.21.72.29a8,8,0,0,0,1.07.28c.88.18,1.7.48,2.55.74,1.2.37,2.41.68,3.59,1.1a10,10,0,0,0,2.32.41c1.29.36,2.58.77,3.9,1a25.25,25.25,0,0,1,4.23,1,28.52,28.52,0,0,0,3.35,1l1.07.55c.33,0,.66,0,1,.1a1.52,1.52,0,0,0-.36-.29l.28.06c1.2.21,2.39.44,3.58.73a26,26,0,0,1,3.26,1.1c.21-.24-.13-.41,0-.63a.28.28,0,0,1,0-.09c-1.52-.72-3-1.46-4.59-2.07l-8.4-3.32c-1.88-.74-3.68-1.83-5.54-2.66-2.19-1-4.36-2-6.53-3a.94.94,0,0,1-.12-.09l-.07,0-.49-.2-.14-.1c-1.14-.52-2.28-1-3.41-1.58-.42-.2-.85-.3-1.27-.47a1.56,1.56,0,0,1-.92-1,1.63,1.63,0,0,1,1.43.11,3.53,3.53,0,0,0,1.75.27c.2,0,.39-.05.44-.43a14.33,14.33,0,0,0-.38-6.09c-.87-2.75-2.47-4-4.61-3.46a20.6,20.6,0,0,0,.13-2.48,12.19,12.19,0,0,0-1.83-6.45c-1.51-2.39-3.43-3.68-5.71-3.82a5.92,5.92,0,0,0-4.39,1.73,1.33,1.33,0,0,0-.31.53,10.86,10.86,0,0,0-.58,5.64c.05.26,0,.3-.16.34a.94.94,0,0,1-.76-.2,1.52,1.52,0,0,1-.4-.4,5.9,5.9,0,0,0-4-2.43,7.15,7.15,0,0,0-2.8-.17.08.08,0,0,1-.11-.07c-.13-.06-.23.17-.36.08-.13.15-.28.09-.43.1l-.85.27c-.11.08-.21.16-.34.11a6.89,6.89,0,0,0-1.63,1.49,8.18,8.18,0,0,0-.84,7.22,15.56,15.56,0,0,0,2.14,4.16,22.14,22.14,0,0,1,1.83,3.08.9.9,0,0,0,.44.39,3.16,3.16,0,0,1,.76.53c.13.15.11.25,0,.35a.73.73,0,0,1-.7.07c-.09,0-.2-.11-.27-.07a5.11,5.11,0,0,1-2.31.51,2.32,2.32,0,0,0-1.45.85.67.67,0,0,1-.31.25,1.82,1.82,0,0,1-.58.43,20.65,20.65,0,0,0-2,1.7,8.14,8.14,0,0,0-2.15,5.55,51.43,51.43,0,0,0,0,5.69,9.42,9.42,0,0,0,1.67,4.74,8.62,8.62,0,0,0,4.59,3.69A3.56,3.56,0,0,0,361.86,142.39ZM405.08,139l-.08,0c0-.19-.22-.28-.18-.53C404.94,138.54,405.17,138.64,405.08,139Zm-36.46,5.52a.66.66,0,0,0-.2.06c-.12.06-.2-.07-.17-.25a.68.68,0,0,1,.09-.32l.2.37A1,1,0,0,0,368.62,144.47Zm22.87-14.69h.09c0,.54,0,1.09,0,1.64-.29,0-.58,0-.86-.09,0-.33,0-.67,0-1v-.17l0,0a1.5,1.5,0,0,1,.2,0l.1,0c.08,0,.27.1.31,0a.63.63,0,0,0-.33-.09c-.06,0-.29.07-.31-.06h0a1.1,1.1,0,0,1,.47-.16l.22-.06a.66.66,0,0,1-.25-.05l-.46-.16-.12,0a.32.32,0,0,1,0-.35l0,0h.11l.1.08a.41.41,0,0,0,.51,0c.11-.09.18-.12.2.09h0c.1.13.06.3.06.46v0Zm-7.75,1.5c-.64-.09-1.29-.18-1.93-.29-1.25-.21-2.49-.46-3.73-.71l-.76-.15.32-.12c.23-.07.52-.09.77-.18,1.09.21,2.17.41,3.26.59,1.44.23,2.88.42,4.33.59C385.25,131.08,384.5,131.18,383.74,131.28Zm-7-24.78a.43.43,0,0,1,.35.08l.05,0c0,.51,0,1,0,1.54l-.28.36a2.11,2.11,0,0,1,0,.25c0,.5.06,1,.09,1.49a.3.3,0,0,0-.16.08.9.9,0,0,0,.18.2c0,.21.05.45.06.69a.85.85,0,0,0-.21.14c0-.11,0-.21,0-.3a19.59,19.59,0,0,1-.25-2v-.12l.31-.39a8.07,8.07,0,0,1-.08-2Zm-10.15,6.78c.08.16.16.32.23.48a.11.11,0,0,1-.11.07c-.14,0-.17-.12-.19-.29A1.11,1.11,0,0,1,366.57,113.28Zm.61,2.23c-.17,0-.1-.24-.11-.43s-.07-.39.11-.39c0,.08.07.15.1.23a.71.71,0,0,0,.08.19v0C367.36,115.3,367.34,115.53,367.18,115.51Zm9.6,2.88c0-.14-.08-.2-.14-.22,0-.35.07-.7.08-1.07.3.19.36.34.4.79,0,.23-.2.23-.14.42s.12.26,0,.32S376.79,118.51,376.78,118.39Zm4-.78.11.06.35.17c-.43-.17-.83-.41-1.25-.61-.13-.06-.29-.1-.22-.34s.2-.07.31,0a23.72,23.72,0,0,0,2.75.82,1,1,0,0,1-1.2.31l-.23-.08a1.38,1.38,0,0,1,.52-.22C381.55,117.58,381.17,117.87,380.82,117.61Zm-3.66-12.37h0l0,.5s0,0,0,0a1,1,0,0,0-.39.24,7.33,7.33,0,0,0,0-1.14C377,104.91,377,105.24,377.16,105.24Zm-.54,6.81a.36.36,0,0,0,.27,0l-.48.85a.55.55,0,0,0-.17-.43.32.32,0,0,1-.05-.18Zm.32.74c.11-.25.22-.49.32-.74,0,0,0,0,0,.06a2.41,2.41,0,0,0,0,.38l-.25.22-.08.08c-.05.12-.1.24-.16.36s-.14.29-.27.57a1.26,1.26,0,0,1-.09-.44Zm-4.37,4.13v0c0-.2,0-.37.2-.37h.44a1,1,0,0,0,0,.1h-.23c-.14,0-.29,0-.3.27a.41.41,0,0,0,0,.11Zm4.16.1v0c0-.09,0-.17,0-.26h0a3,3,0,0,1,.51-.06c0-.12-.15-.07-.17-.21-.06-.55-.08-.66-.33-.69v-.31h0c.34,0,.38-.12.39-.63l0-.06a4.29,4.29,0,0,1,0,.8c0,.13,0,.26.06.36.3.29.29.38,0,.74C377.16,117,377,117,376.73,117Zm.31,12.52h-1.22c0-.15.12-.17.22-.18l.21,0Zm-4.81-8.69h0c.15.05.32.07.33.34s-.11.08-.17.11a.34.34,0,0,1-.2-.06c0-.11,0-.23,0-.34A.09.09,0,0,0,372.23,120.85Zm.5-2a1.09,1.09,0,0,1,0-.17.11.11,0,0,1,.15-.07.72.72,0,0,1,.45.42.56.56,0,0,1-.22.64c0-.31-.09-.49-.3-.47s-.19-.11-.15-.29C372.72,118.87,372.72,118.85,372.73,118.83Zm-11,8.78.19-.2a1.77,1.77,0,0,0,.16-.22.64.64,0,0,0,.58.26c0-.2.1-.22.18-.06s0,.55-.22.55a.85.85,0,0,0-.6.25c-.23.23-.29.08-.29-.23C361.76,127.85,361.77,127.73,361.77,127.61Zm.92-5.19c-.13,0-.11-.32-.26-.25s.23.36,0,.43a.25.25,0,0,1-.09-.09.58.58,0,0,1,.09-.57c0,.06.06.12.14.12S362.72,122.11,362.69,122.42Zm-.09,3.75a1,1,0,0,1,0,.78l-.07.1c-.09,0-.2,0-.3,0,.12-.24.22-.5.34-.75A.91.91,0,0,1,362.6,126.17Zm0,3.47h-.87a.46.46,0,0,0-.16-.38c-.09-.08-.06-.35,0-.5s.16,0,.24,0a.39.39,0,0,0,.48,0c.29-.24.3,0,.29.3Zm13.82-22.91a.46.46,0,0,1,.07-.07c0,.43,0,.86,0,1.28a.17.17,0,0,1-.15-.15A1.34,1.34,0,0,1,376.42,106.73Zm-.07-2.87s0,0,0,0l0,.22h.12l.12.2c0,.1-.05.21-.07.31,0-.18,0-.39-.17-.5A.18.18,0,0,1,376.35,103.86Zm4,2.33a.6.6,0,0,1-.2.45l-.21-.14-.08-.06a1.8,1.8,0,0,1,.05-.19l-.13.13,0,0,.17-.15v0l.09-.11a1.34,1.34,0,0,1,.27-.17C380.33,106,380.33,106.09,380.32,106.19Zm12.62,25.41-1.08-.15h-.07a1.84,1.84,0,0,1,1,.05A1.18,1.18,0,0,1,392.94,131.6Zm25,4.35-.18,0a.55.55,0,0,0-.14-.09,4.46,4.46,0,0,0-.5-.22c-.12,0-.24-.09-.37-.11h-.17a1.43,1.43,0,0,1-.22,0c-.13,0-.25-.06-.38-.07l-.19,0a.94.94,0,0,1-.28-.1l-.42-.14-.13,0h0l1,.1a2.93,2.93,0,0,1-.05-.29.57.57,0,0,1,0-.13c.35.19.71.35,1,.56Zm-31.45-.73,1-.08c.52,0,1,0,1.56,0h.38l1.34.14a1,1,0,0,0,0-.18l.32,0,.32-.05,0,.36a2.91,2.91,0,0,0,.82.12l4.2.64c.14,0,.29,0,.43.06l-2.55.13-3.18-.49a.43.43,0,0,1-.43-.09,3.47,3.47,0,0,1-1.06-.14L388,135.4a8.88,8.88,0,0,0-1.26-.08A.59.59,0,0,1,386.47,135.22Zm-8,2c-.12,0-.13-.11-.13-.24s.13-.16.21-.14a8.72,8.72,0,0,0,1.84.06,7.86,7.86,0,0,1,2,.19l-.13.1A6.56,6.56,0,0,1,378.45,137.18Zm1.5,10a.23.23,0,0,0,0-.12l0-.07h.05c.48.18,1,.23,1.33,1a7.53,7.53,0,0,1-1.32-.58C380,147.36,379.86,147.35,380,147.15Zm-.34,1c0-.14.14,0,.21,0,.25.13.38.36.33.8l-.49-.34C379.52,148.5,379.58,148.3,379.61,148.17Zm-3,0a.66.66,0,0,1-.15,0v0a18.26,18.26,0,0,1-.57-2.06c.05,0,.1.06.15.09a.6.6,0,0,0,.16.08,7.91,7.91,0,0,0,.6,1.24c0,.28,0,.56,0,.84C376.65,148.28,376.66,148.12,376.57,148.12Zm.09.64a1.14,1.14,0,0,1,.07.58c0-.13-.05-.25-.07-.38v-.2a.36.36,0,0,0-.07-.1c0-.13-.07-.26-.11-.39C376.59,148.32,376.67,148.45,376.66,148.76Zm.12,2,0,0v0h0v0a3.49,3.49,0,0,0,.05-.44,2.45,2.45,0,0,0,0-.27C377.08,150.31,377.07,150.41,376.78,150.76Zm-1,2c0-.2,0-.34.07-.45l.08-.1-.07-.5s0,0,0,0l.16-.14c.13-.09.28-.12.41-.22a3,3,0,0,1,.15.62c.07.26-.25.24-.12.48s.08.23,0,.28-.15-.1-.17-.2c0-.26-.16-.3-.31-.28l-.07.1A.88.88,0,0,1,375.82,152.8Zm-3.76-1.72c0-.22-.05-.49.22-.49h.57l.09.11h-.42c-.18,0-.39-.1-.39.35s.22.33.39.34c.32,0,.64,0,1,0h0l0,0a.15.15,0,0,1,0,.08s-.07.08-.08.07c-.39-.27-.81-.08-1.22-.13C372.06,151.48,372,151.32,372.06,151.08Zm-3.75-4.86c-.06-.3.2-.21.28-.24.3-.1.24.3.34.54C368.66,146.56,368.4,146.65,368.31,146.22Zm-6.63-10.77a.42.42,0,0,1,.05-.41l.07-.1-.06-.5h0c-.14-.56.06-1,.45-1h.42c0-.12-.15-.07-.17-.21a.68.68,0,0,0,0-.15,1.87,1.87,0,0,0,.41,0,.93.93,0,0,1-.22.36c-.12.36-.39.31-.65.44.43-.09.36.36.47.64s-.23.37-.1.62c.05.1.07.22-.05.27s-.13-.07-.15-.16c0-.25-.14-.36-.33-.32l-.07.1C361.71,135.17,361.76,135.31,361.68,135.45Zm-.79-1.44v-.58l-2.64-.05c-.18,0-.29,0-.3.34s.09.38.28.37a4.56,4.56,0,0,1,.74,0c.15,0,.41-.14.42.13s-.2,0-.33,0a2.81,2.81,0,0,1-1,0c-.3,0-.15-.38-.17-.59s.08-.31.24-.31l2.6.05c.06,0,.11.06.16.09A.68.68,0,0,1,360.89,134Zm-.74.23c.18-.18.38-.12.59-.06C360.55,134.23,360.35,134.19,360.15,134.24Z"/><path class="cls-7" d="M361.86,143.68l1.22.11L362,141.85c-2.51,5.62-5.18,11.3-.9,17s10.72,3.59,14-1.81h-2.23c5,7.68,13.68,2,14.3-5.68,0-.4-.27-3.41-.23-3.48.14-.23,1.1,0,1.29-.35a4.74,4.74,0,0,0,1-3.29c-.31-4.7-2.72-3.11-5.72-4.45l.46,1.77c.06-.09,10,1.14,10.95,1.09,2.83-.13,5.68-.39,8.5-.58a4.26,4.26,0,0,0,3-.89c.28-.22.19-.6.28-.88.53-1.73-1,.36-.66.09l-2.15-.57.16.47a1.29,1.29,0,0,0,1.24.94c.32,0,.64-.06.95-.12l-1.58-.9.07.27a1.3,1.3,0,0,0,2.35.3h0l-2-1.56v-.07a1.26,1.26,0,0,0-.9.9l-.07.28a1.3,1.3,0,0,0,1.24,1.63c5.76-.15,11.6.26,17.35,0a1.3,1.3,0,0,0,1.29-1.29c-.4-3.87-7.2-3.2-10-3.49-6.3-.63-12.53-1-18.82-2l-.35,2.54c4.26-.4,9.16.87,13.47,1.17,2.72.19,5.39.38,8.1.75,1.8.25,4.22,0,5.86.56a1.3,1.3,0,0,0,1-2.36l-.21-.1-.65,2.4a4.06,4.06,0,0,0,2-.4,1.3,1.3,0,0,0,.26-2,14,14,0,0,0-3.91-2.56c-1.28-.46-2.92-.6-3.92-1.71l-.27,2a7,7,0,0,0,.95-.66,1.3,1.3,0,0,0-.57-2.16c-1.43-.34-2.88-.57-4.33-.87a1.29,1.29,0,0,0-.68,2.49l.24.1.68-2.49c-7.12-1.49-14.2-4.56-21.38-5.7a1.31,1.31,0,0,0-1.46,1.9c1.36,2.46,2.84-.42,1.18-.77l-.69,2.48.14,0a1.29,1.29,0,0,0,.69-2.48c.64,1.26.91,1.41.8.45a1.64,1.64,0,0,0-.25-.83,9.62,9.62,0,0,0-.75-.84c-1.56-1.32-5.31-1.6-7.24-2.15l-.68,2.49c4.51.75,8.84,2.45,13.3,3.48s9.19,3.11,13.65,3.57a1.3,1.3,0,0,0,.92-2.2l-.37-.29-1.25,2.16a43.65,43.65,0,0,1,7.12,1.88,1.3,1.3,0,0,0,1.63-1.24,5.7,5.7,0,0,0,0-.72,1.28,1.28,0,0,0-.63-1.11c-6.1-2.89-12.44-5.17-18.54-8.06-3.27-1.54-10.09-3.56-12.69-6.25l-.57,2.16c1.28-.21,2.88,1,4,0s.73-3.77.59-5.11c-.38-3.68-2.13-7.42-6.33-7l1.29,1.29c.48-5.62-1.74-13.53-8.53-14a6.57,6.57,0,0,0-6,3,11.22,11.22,0,0,0-.83,4.67s1.69.85.15-.73a6,6,0,0,0-1.4-.94c-3.25-1.8-8-1.58-10.28,1.59-1.87,2.6-1.73,6.11-.68,9a30.52,30.52,0,0,0,2.94,5.19s1.79,3,1.86,2.22l1.29-1.29c-5.15.5-9.86,3.61-10.88,9.08-1.23,6.58.69,16.77,9,16.94a1.29,1.29,0,0,0,0-2.58c-2.09,0-4.77-2.3-5.69-4.12a11.79,11.79,0,0,1-1-4.95c-.11-3.24-.08-6.38,2.31-8.87a9.52,9.52,0,0,1,6.19-2.92A1.33,1.33,0,0,0,365,119c.11-1.36-1.56-2.61-2.21-3.52-2.52-3.52-5.9-9.49-.64-12.71.22-.13,1.34-.59.33-.36-.1,0,6.78,1.15,3.11.3,2.08.48,3.13,2.5,5.16,3a1.31,1.31,0,0,0,1.46-.59c1.05-2.11-1.36-10,5.31-7.42,4.61,1.77,5.5,7,5.14,11.28a1.29,1.29,0,0,0,1.29,1.29c2.79-.29,5.55,5.73,3.14,7.17a12.54,12.54,0,0,0-2.11-.1,1.29,1.29,0,0,0-.57,2.15c3,3.1,10.09,5.17,13.9,7,2.57,1.23,17.28,6.72,17.23,7.33l1.64-1.25a45.09,45.09,0,0,0-7.13-1.88c-1.12-.22-2.36,1.28-1.25,2.15l.36.29.91-2.2c-4.27-.44-8.93-2.63-13.19-3.62s-8.65-2.6-13.08-3.34a1.29,1.29,0,0,0-.68,2.49c1.34.38,6.31,1.4,6.34,2.07a1.35,1.35,0,0,0,1,1.25l.14,0,.69-2.48-.14,0c-1.6-.22-2.35,2.13-.69,2.48a2.24,2.24,0,0,0,2.58-1.15,1.26,1.26,0,0,0,0-1.3l-.1-.16a1.32,1.32,0,0,0-1.45-.6l.71.19-1.46,1.9c7.18,1.14,14.25,4.2,21.39,5.7a1.29,1.29,0,0,0,.68-2.49l-.24-.1-.68,2.49c1.44.29,2.9.53,4.32.87L415.6,133l-.43.27a1.31,1.31,0,0,0-.26,2c2.07,2.3,5.5,2.31,7.84,4.28l.26-2c.29-.13-.53.07-.73,0a1.3,1.3,0,0,0-.65,2.41l.21.1,1-2.36c-1.72-.53-4.05-.28-5.87-.56-2.4-.36-4.73-.6-7.16-.74-5-.28-10.16-1.73-15.09-1.27-1.32.12-1.89,2.29-.34,2.53,3.16.49,26.91,2.55,27,3l1.29-1.28c-5.75.26-11.59-.15-17.35,0l1.24,1.63c-.31,1.15.47,0,.71-.49a1.29,1.29,0,0,0-2-1.56,2.49,2.49,0,0,0-.4.52l2.35.31-.07-.26a1.3,1.3,0,0,0-1.58-.9c.78.91,1.06,1.08.81.5a1.31,1.31,0,0,0-2.15-.57c-.92.72.19,1.95,0,2.39,1.25-2.48-3.81-1.31-5.11-1.22-2,.12-4.07.48-6.11.46-2.2,0-4.27-.76-6.4-.94-1.45-.13-3.86-.45-4.8,1a1.28,1.28,0,0,0,.46,1.76c1.48.66,2.33.17,3.12,1.88,1.45,3.16-.28.2-.71,2.17a11.17,11.17,0,0,0-.17,2.5c0,2.23.15,4.7-1.06,6.69-1.79,2.95-6.35,3.44-8.29.48a1.31,1.31,0,0,0-2.23,0c-3.25,5.35-9.21,4.47-11-.84-1.47-4.46.57-7.82,2.32-11.74a1.31,1.31,0,0,0-1.11-1.94l-1.22-.11C360.21,140.94,360.22,143.52,361.86,143.68Z"/><path class="cls-7" d="M405.73,137.84l-.08-.05.6.77c-.06-.14-.11-.28-.17-.41s-.1-.12,0,.22l-2.2.91c.23.28,0,.12,0-.12v-.69l0,.14a1.34,1.34,0,0,0,.9,1.59,1.3,1.3,0,0,0,1.58-.9,2,2,0,0,0-.59-1.84,1.3,1.3,0,0,0-2.2.91,2.15,2.15,0,0,0,.26,1l.1.2a1.56,1.56,0,0,0,.54.51,1.29,1.29,0,0,0,1.3-2.23Z"/><path class="cls-7" d="M368.27,143.22l-.27.08,1,.13-.06-.05.59.77a.61.61,0,0,1-.06.46h-2.23l.27.51a1.29,1.29,0,0,0,2.23-1.3l-.27-.52a1.31,1.31,0,0,0-2.23,0,1.9,1.9,0,0,0-.06,1.85,1.47,1.47,0,0,0,1.79.56A1.29,1.29,0,0,0,368.27,143.22Z"/><path class="cls-7" d="M391.49,131.07h.09l-1.29-1.29c0,.54,0,1.09,0,1.64l1.29-1.29-.86-.09,1.29,1.29c0-.39,0-.78,0-1.17l-1.94,1.11a1.18,1.18,0,0,0,.68.2c.4-.06.46-.06.2,0a3.47,3.47,0,0,0,.45-.06h-.69a1.78,1.78,0,0,0,1.3-.12,1.29,1.29,0,0,0,0-2.22,2.18,2.18,0,0,0-.69-.24c-.05,0-.61,0-.21,0l.57.33-.05-.06.37.91h0l-.63,1.11c-.15.09,0,0,.09,0l.29-.07a1.29,1.29,0,0,0,.92-1.42,1.33,1.33,0,0,0-1.27-1.12c.21,0-.07-.06-.14-.08l-.35-.13.9.9v.33l-.33.57,0,0-.91.38h.11l-.91-.38a2,2,0,0,0,1.1.51,1.73,1.73,0,0,0,.64,0c.09,0,.73-.27.26-.15l-1.26-.33,0,0-.33-.56,0,.11,2.16-1.25h0a1.28,1.28,0,0,0-1.7-.1,1.3,1.3,0,0,0-.33,1.66c-.17-.33-.11-.4-.11-.16l1.29-1.28h-.09a1.29,1.29,0,0,0,0,2.58h.09a1.31,1.31,0,0,0,1.29-1.29,2.16,2.16,0,0,0-.24-1.14l-2,1.56h0a1.28,1.28,0,0,0,1.57.2,1.33,1.33,0,0,0,.59-1.45,1.39,1.39,0,0,0-.4-.73,1.4,1.4,0,0,0-1.62-.19c-.09.06-.09.07,0,0h.68c.3.24.28.23-.05,0a1.34,1.34,0,0,0-.65-.17,1.43,1.43,0,0,0-.76.18,1.53,1.53,0,0,0-.71,1.33c0,1.2,1.17,1.59,2.16,1.72l-.34-2.53a3,3,0,0,0-1,.35,1.29,1.29,0,0,0-.64,1.11,1.5,1.5,0,0,0,.69,1.19,1.64,1.64,0,0,0,.75.19c.26,0,.17.05-.15-.11v-2.22l0,0,.65-.18c.42,0-.28,0-.43,0s-.23,0,0,0a3.32,3.32,0,0,0-.44.06l1,.13,0,0a1.3,1.3,0,0,0-1.94,1.12c0,.39,0,.78,0,1.17a1.32,1.32,0,0,0,1.29,1.29l.86.09a1.31,1.31,0,0,0,1.29-1.29c0-.55,0-1.1,0-1.64a1.3,1.3,0,0,0-1.29-1.29h-.09a1.29,1.29,0,0,0,0,2.58Z"/><path class="cls-7" d="M384.09,130c-2.16-.31-4.29-.71-6.42-1.16v2.49c1.23-.45,2.71.14,4,.34,1.45.23,2.9.41,4.36.59v-2.58c-.76.08-1.51.17-2.26.27-1.62.22-1.64,2.8,0,2.58.75-.1,1.5-.19,2.26-.27a1.29,1.29,0,0,0,0-2.58c-1.77-.21-3.53-.46-5.29-.77a6.58,6.58,0,0,0-3.73-.07c-1.09.41-1.35,2.21,0,2.49,2.13.45,4.27.85,6.42,1.16C385,132.76,385.72,130.28,384.09,130Z"/><path class="cls-7" d="M376.72,107.79l-.51-.25-.38-.91c0,.51,0,1,0,1.54l.38-.91a2.79,2.79,0,0,0-.61.92,6.68,6.68,0,0,0,.06,2.09l.64-1.11-.16.08a1.3,1.3,0,0,0-.26,2l.18.19-.38-.91q0,.35.06.69l.64-1.12-.21.14,1.9.78a12.77,12.77,0,0,1-.25-2.12l-.38.91a2.25,2.25,0,0,0,.69-1.3c0-.68-.17-1.34-.08-2s-.66-1.28-1.29-1.29a1.32,1.32,0,0,0-1.29,1.29,8.64,8.64,0,0,0,.08,2l.38-.91a2.23,2.23,0,0,0-.69,1.42,15.12,15.12,0,0,0,.34,2.68,1.3,1.3,0,0,0,1.9.77,2,2,0,0,0,.22-3l-.26,2,.16-.09a1.26,1.26,0,0,0,.64-1.11c0-.58-.05-1.16-.11-1.74l-.38.91a4.76,4.76,0,0,0,.49-.62,3.93,3.93,0,0,0,.2-1.81,1.59,1.59,0,0,0-1.68-1.8A1.29,1.29,0,0,0,376.72,107.79Z"/><path class="cls-7" d="M365.45,113.94l.24.47v-1.3l0,0,.77-.59-.07,0H367l-.09,0,.57.33-.06-.06.33.57a.8.8,0,0,1-.05-.21v.68a1,1,0,0,1,.07-.25,1.31,1.31,0,0,0-.9-1.59,1.32,1.32,0,0,0-1.59.9,1.71,1.71,0,0,0,.5,1.89,1.45,1.45,0,0,0,2.09-.42,1.29,1.29,0,0,0,0-1.3c-.07-.16-.15-.32-.23-.48a1.3,1.3,0,0,0-1.76-.46A1.32,1.32,0,0,0,365.45,113.94Z"/><path class="cls-7" d="M367.83,114.39l-.08,0,.47.46,0-.07.18.65c0-.11,0-.21,0-.32l-.17.65a2.26,2.26,0,0,0,.19-1l-.17.65,0,0-.77.59.06,0-1.58-.91c.1.25.19.49.31.73l-.18-.65c0,.16.09-.28,0,0l.33-.56,0,0,.57-.33h-.08a1.29,1.29,0,0,0,.68,2.49,1.41,1.41,0,0,0,1.08-1.15,1.67,1.67,0,0,0,0-.83c-.14-.35-.17-.41-.08-.19l-.09-.23a1.32,1.32,0,0,0-1.59-.9,1.47,1.47,0,0,0-1,1.57l.17-.65a1.68,1.68,0,0,0,.55,2.25,1.32,1.32,0,0,0,1.76-.46A1.3,1.3,0,0,0,367.83,114.39Z"/><path class="cls-7" d="M378,118.05a1.54,1.54,0,0,0-.73-1l.64,1.11c0-.35.07-.71.08-1.07l-1.94,1.11c-.15-.09-.14-.22-.25-.34l0,.1c0-.12,0-.11,0,0l.18-.65c.25-.43-.26.5-.27.52a1.34,1.34,0,0,0,0,.44c0,.38,0,.46.05.24l.38-.91-.08.08.91-.38h-.07l.91.37-.05-.06.33.57a.61.61,0,0,1-.05-.18,1.29,1.29,0,0,0-1.59-.9,1.32,1.32,0,0,0-.9,1.58,1.42,1.42,0,0,0,1.6,1.17,1.37,1.37,0,0,0,1.19-1.35c0-.07-.07-.67-.06-.33l-.17.65c-.16.29,0,0,.11-.18a1.61,1.61,0,0,0,.18-.52,2.3,2.3,0,0,0-.06-.94,2.07,2.07,0,0,0-.95-1.24,1.3,1.3,0,0,0-1.94,1.11c0,.36-.05.72-.08,1.07a1.26,1.26,0,0,0,.64,1.12l.06,0-.47-.46-.05-.13A1.29,1.29,0,0,0,378,118.05Z"/><path class="cls-7" d="M380.17,118.72c.15.09.3.16.46.24l1.3-2.23a9.11,9.11,0,0,1-1.43-.72l.46.47,0-.09.18.65v-.15l-.18.66.06-.1-.77.59h-.61a20.14,20.14,0,0,0,2.93.88l-.57-2.16c-.17.17.21,0,.2,0a3.16,3.16,0,0,1-.37-.12l.3,2.36a.21.21,0,0,1,.21-.09,1.29,1.29,0,0,0,.92-1.42,1.32,1.32,0,0,0-1.26-1.12,2.26,2.26,0,0,0-.52,0l-.25,0c-.2,0-.11,0,.29,0-1.47-.79-2.77,1.44-1.31,2.23a2,2,0,0,0,1,.29,4.91,4.91,0,0,1,.75,0l-.35-2.53a3.12,3.12,0,0,0-.82.35,1.31,1.31,0,0,0,.31,2.36,2.42,2.42,0,0,0,2.68-.57,1.3,1.3,0,0,0-.57-2.16,14.5,14.5,0,0,1-2-.58,2.32,2.32,0,0,0-2-.15,1.56,1.56,0,0,0-.49,2.09c.36.6,1.29.91,1.9,1.18a1.34,1.34,0,0,0,1.76-.46,1.31,1.31,0,0,0-.46-1.77c-.15-.08-.31-.15-.45-.24A1.29,1.29,0,0,0,380.17,118.72Z"/><path class="cls-7" d="M376.81,106.48h.06l-.95-1.24c0,.18,0,.36,0,.55l.64-1.12a2.9,2.9,0,0,0-.65.45l2.2.91a7.2,7.2,0,0,0,0-1.14l-1.63,1.25.07,0-.57-.33c-.26-.29.13.21.18.26a1.53,1.53,0,0,0,.65.38,1.29,1.29,0,1,0,.69-2.49l-.06,0,.57.33c.26.32-.12-.19-.17-.25a1.78,1.78,0,0,0-.68-.39,1.3,1.3,0,0,0-1.63,1.24,7.2,7.2,0,0,1,0,1.14,1.28,1.28,0,0,0,.79,1.18,1.33,1.33,0,0,0,1.41-.26c0,.06,0,0,.13,0a1.27,1.27,0,0,0,.64-1.11c0-.19,0-.37,0-.55a1.28,1.28,0,0,0-.94-1.24l-.06,0a1.34,1.34,0,0,0-1.59.91A1.31,1.31,0,0,0,376.81,106.48Z"/><path class="cls-7" d="M376.27,113.29a2.27,2.27,0,0,0,1,0l-1.46-1.89c-.16.28-.32.57-.49.85l2.41.65a2.55,2.55,0,0,0-.14-.73l-.24-.43.17.65v-.1l-.64,1.11.43-.24c1.45-.81.15-3-1.3-2.23l-.43.24a1.26,1.26,0,0,0-.64,1.12,2,2,0,0,0,.19.75l0,.08c.29.41.28.34,0-.22a1.3,1.3,0,0,0,2.4.65c.16-.28.33-.56.49-.85a1.31,1.31,0,0,0-1.46-1.89l-.14,0h.69l-.14,0a1.34,1.34,0,0,0-1.59.9A1.31,1.31,0,0,0,376.27,113.29Z"/><path class="cls-7" d="M378.06,113.44c.15-.35.3-.7.44-1l-2.53-.34c0,.14,0,.29,0,.44l.37-.92a2.64,2.64,0,0,0-.64.84l-.31.66,2.35.31c0-.14,0-.17,0-.1l-.38.91.52-.49c1.21-1.14-.61-3-1.82-1.82a2.76,2.76,0,0,0-.79.91,1.85,1.85,0,0,0,0,1.27c.32,1,1.84,1.38,2.35.31.12-.24.28-.68.37-.8s.43-.4.52-.74a2.28,2.28,0,0,0,0-.78,1.3,1.3,0,0,0-2.54-.35c-.06.15-.11.28-.18.44a1.33,1.33,0,0,0,.46,1.76A1.31,1.31,0,0,0,378.06,113.44Z"/><path class="cls-7" d="M373.86,116.92c0-.16.08-.2,0,0l-.34.56.07,0-.57.33c-.28.06.17,0,.19,0L372,116.17l0,.1,1.24-1a1.58,1.58,0,0,0-1.82,1.67l2.2-.91-.07-.07c-1.21-1.13-3,.69-1.82,1.82l.07.07a1.3,1.3,0,0,0,2.2-.91,1,1,0,0,1,0-.24l-.17.65-.12.14-.57.33c-.38.11-.09,0,.09,0a1.33,1.33,0,0,0,1.24-1l0-.1c.33-.8-.5-1.62-1.25-1.63a1.87,1.87,0,0,0-1.48.41,1.75,1.75,0,0,0-.45,1.29,1.3,1.3,0,0,0,1.29,1.29A1.31,1.31,0,0,0,373.86,116.92Z"/><path class="cls-7" d="M378,117a2.53,2.53,0,0,1,0-.28l-.95,1.25a.81.81,0,0,1,.2,0A1.31,1.31,0,0,0,378.4,116a1.72,1.72,0,0,0-.59-.58l.46.46,0-.09.17.65c-.1-.83-.29-1.76-1.28-1.93l.95,1.24v-.31l-.38.91h0l-.91.38a1.74,1.74,0,0,0,1.68-1.92l-.18.65,0-.06-2.35-.31a5.85,5.85,0,0,0,.09,1.21,2.1,2.1,0,0,0,.13.26c.35.57.42.3.19-.82q-.5.55.24,0l-.22,0a1.31,1.31,0,0,0-.91,1.59,1.33,1.33,0,0,0,1.59.9,2.11,2.11,0,0,0,1.47-1.13,1.61,1.61,0,0,0,.23-1.07,1.67,1.67,0,0,0-.19-.57c0-.08-.34-.52-.23-.32l.17.65a9.47,9.47,0,0,0-.08-1.4,1.29,1.29,0,0,0-2.35-.3,1.5,1.5,0,0,0-.22.85c-.05.5.19.24.74-.78l-.17,0a1.44,1.44,0,0,0-.95,1.56,1.29,1.29,0,0,0,.94,1.24q.22,0-.12-.06l-.46-.46,0,.05c-.07-.17-.1-.21-.07-.1s0,.3.05.36a1.58,1.58,0,0,0,.71.91l-.46-.47.05.08,1.11-1.94a3.28,3.28,0,0,0-.88.12,1.31,1.31,0,0,0-.95,1.24,2.72,2.72,0,0,1,0,.28,1.3,1.3,0,0,0,1.29,1.28A1.31,1.31,0,0,0,378,117Z"/><path class="cls-7" d="M377,128.25h-1.22l1.24,1.63.05-.11-.6.77c-.62,0-.8.06-.52.11l.24.05.47.1a1.33,1.33,0,0,0,1.59-.9,1.31,1.31,0,0,0-.91-1.59,6.08,6.08,0,0,0-1.34-.24,1.58,1.58,0,0,0-1.47,1.12c-.33.8.5,1.62,1.25,1.63l1.22,0A1.29,1.29,0,0,0,377,128.25Z"/><path class="cls-7" d="M371.89,122.1c.13,0,.11.1-.05,0l-.46-.46-.05-.09v-.59l.59-.77-.05,0,1-.13c-.18,0-.37,0-.56-.06l.65.17-.09,0,.64,1.11c0-.21,0-.23,0,0a1.32,1.32,0,0,0-.91-1.58,1.3,1.3,0,0,0-1.58.9,4.53,4.53,0,0,0-.08.73,1.28,1.28,0,0,0,.64,1.12,2.18,2.18,0,0,0,.74.22q.27,0-.12,0l.34,0a1.34,1.34,0,0,0,1.3-1,1.63,1.63,0,0,0-1.24-2,1.29,1.29,0,0,0-.68,2.49Z"/><path class="cls-7" d="M374,119.17l0-.17-.33.57.05-.06-.91.37c-.54,0-.74-.28-.62-.71a.63.63,0,0,1,0-.43l2.21.91a2,2,0,0,0-.46-1.27,1.48,1.48,0,0,0-.39-.31c-.11-.06-.94-.21-.49-.15l.57.33-.06,0,.34.57,0-.1v.69l0-.19a1.29,1.29,0,0,0-2.49-.68,1.52,1.52,0,0,0,1.47,2l-.65-.18-.13-.1-.33-.56c0,.12.05.12,0,0a1.31,1.31,0,0,0,2.2.91,1.86,1.86,0,0,0,.08-2.68,1.53,1.53,0,0,0-2.67.61A1.29,1.29,0,0,0,374,119.17Z"/><path class="cls-7" d="M362.68,128.52a4,4,0,0,0,.55-.68l-2,.26a2,2,0,0,0,1.5.64,1.3,1.3,0,0,0,1.24-1l0-.11-.33.57,0-.05-1.25.33.05,0-.77-.6.14-.94.57-.34c.29-.06-.18,0-.23,0a2.13,2.13,0,0,0-.5.18,5.84,5.84,0,0,0-.64.47l.57-.33-.08,0,1,.13,0,0,.46.47c.09.37.12.45.12.24v-.26a1.29,1.29,0,0,0-2.58,0,1.82,1.82,0,0,0,.72,1.79,1.37,1.37,0,0,0,1.1.12c.18-.05.56-.21.62-.37s.07-.06,0,0a.36.36,0,0,1-.29.1s.36,0,.44-.07a1.46,1.46,0,0,0,.61-.36,1.68,1.68,0,0,0-.6-2.76,1.24,1.24,0,0,0-1.25.33,1.78,1.78,0,0,0-.4.74l1.24-1,.33.12a1.31,1.31,0,0,0-2,.26c-.19.29.11-.1-.14.15A1.29,1.29,0,0,0,362.68,128.52Z"/><path class="cls-7" d="M363.34,121.3l0,0,.46.46c-.42-.63-1-1.1-1.82-.75a1.35,1.35,0,0,0-.8,1.07,1.31,1.31,0,0,0,0,.59c0,.1.18.65.08.2l.13-1,0,0,.46-.46-.08,0,1.57.2-.09-.09.33.57,0,.42h-2.23a1.39,1.39,0,0,0,.66.61l.25.1c.41.06.46.06.13,0l-.77-.6c-.09-.49-.14-.6-.15-.31a1.3,1.3,0,0,0,1.29,1.29,1.32,1.32,0,0,0,1.29-1.29,1.62,1.62,0,0,0-.21-1,1.31,1.31,0,0,0-.77-.59l-.05,0c-.4,0-.46-.06-.17,0l.77.59,0-.08a1.3,1.3,0,0,0-2.23,0,1.81,1.81,0,0,0,.19,2.22,1.38,1.38,0,0,0,2.29-.83,1.61,1.61,0,0,0,0-.58l-.13-.31.05.1-.13,1,0-.07-1.11.64h.06l-.91-.37c-.2-.17-.15-.18-.06,0a1.29,1.29,0,0,0,.52.49,1.32,1.32,0,0,0,1.76-.46A1.31,1.31,0,0,0,363.34,121.3Z"/><path class="cls-7" d="M361.35,126.51c.11.39,0-.06,0-.11l1.11-.64a1.51,1.51,0,0,0-.3,0l1.11,1.94c.14-.29.27-.59.41-.89a1.32,1.32,0,0,0-.46-1.76,1.3,1.3,0,0,0-1.77.46c-.14.3-.26.6-.41.89-.39.79.07,2.05,1.12,1.94a2.07,2.07,0,0,0,.95-.19,1.53,1.53,0,0,0,.6-.71,2.27,2.27,0,0,0,.1-1.62A1.29,1.29,0,0,0,361.35,126.51Z"/><path class="cls-7" d="M362.6,128.35h-.87l1.29,1.29a2.4,2.4,0,0,0-.17-.76,1.17,1.17,0,0,0-.27-.42c.05.77.14,1,.25.64l-.33.57.08-.08-1.56.21c-.14-.14-.13-.13,0,0a.82.82,0,0,0,.25.16,1.6,1.6,0,0,0,.6.18,1.73,1.73,0,0,0,.64,0c.06,0,.63-.24.3-.16l-1-.13,0,0-.46-.47c-.09-.15-.12-.6-.13-.18v.46a1.29,1.29,0,0,0,2.58,0,2.59,2.59,0,0,0-.33-1.71,1.49,1.49,0,0,0-2-.2l.65-.17c.5.29.62.34.34.14a.49.49,0,0,0-.21-.14,1.35,1.35,0,0,0-1.56.2,1.79,1.79,0,0,0,0,2.52l-.34-.57,0-.08a1.33,1.33,0,0,0,1.29,1.29h.87A1.29,1.29,0,0,0,362.6,128.35Z"/><path class="cls-7" d="M377.33,107.64l.07-.07-2.2-.91c0,.43,0,.86,0,1.28l1.63-1.24-.1,0,.77.59c.07.27.09.29.07.06a.08.08,0,0,0,0,.07,1.29,1.29,0,0,0-2.23-1.3,2.48,2.48,0,0,0-.33,1.55,1.67,1.67,0,0,0,1.13,1.56c.8.33,1.63-.5,1.63-1.25,0-.42,0-.85,0-1.28a1.3,1.3,0,0,0-2.2-.91l-.07.07C374.38,107,376.2,108.86,377.33,107.64Z"/><path class="cls-7" d="M377.26,104.77l0,0-2.21-.91,0,.22a1.3,1.3,0,0,0,1.29,1.28h.12l-1.11-.63.12.2-.13-1a2.81,2.81,0,0,1-.08.31h2.49a2.26,2.26,0,0,0-.35-.9l.17.65v-.11a1.29,1.29,0,0,0-2.58,0,1.65,1.65,0,0,0,.2.81c0,.06,0,0,0,0a2.36,2.36,0,0,1,0,.28,1.29,1.29,0,0,0,1.25.94,1.31,1.31,0,0,0,1.24-.94,1.78,1.78,0,0,0-.11-1.41,1.38,1.38,0,0,0-1.3-.73l1.29,1.29,0-.22a1.29,1.29,0,0,0-2.2-.91l0,0a1.29,1.29,0,0,0,1.83,1.82Z"/><path class="cls-7" d="M379.08,105.85c-.06.25,0,.21.13-.13l1.56-.2a1.87,1.87,0,0,1-.29-.2l.59,1.46c0-.06,0-.12.05-.18a1.3,1.3,0,0,0-2.15-1.26l-.13.12,1.56-.2,0,0,.26,2,.16-.15-2.15-1.25,0,0c-.33,1.19,1.29,2.25,2.16,1.25a.56.56,0,0,0-.21.06l-1-.13.07,0-.59-.77,0-.17a1.29,1.29,0,0,0,2.58,0,1.43,1.43,0,0,0-1-1.46,1.63,1.63,0,0,0-1.61.61l2.15,1.26v0A1.3,1.3,0,0,0,379,105.3l-.17.15a1.31,1.31,0,0,0,.26,2l0,0a1.29,1.29,0,0,0,1.56-.2l.13-.13-2.16-1.25a1.21,1.21,0,0,1-.05.18,1.35,1.35,0,0,0,.6,1.46l.29.2a1.31,1.31,0,0,0,1.56-.2,1.92,1.92,0,0,0,.54-1,1.33,1.33,0,0,0-.91-1.58A1.29,1.29,0,0,0,379.08,105.85Z"/><path class="cls-7" d="M393.28,130.35c-.49-.07-1-.15-1.49-.2v2.58c.16,0,.32,0,.48,0,0,0-.19-.11,0,0,1.42.87,2.71-1.36,1.3-2.23a2.81,2.81,0,0,0-1.8-.33,1.33,1.33,0,0,0-1.29,1.29,1.31,1.31,0,0,0,1.29,1.29l.81.11a1.33,1.33,0,0,0,1.58-.9A1.31,1.31,0,0,0,393.28,130.35Z"/><path class="cls-7" d="M417.92,134.66l-.18,0,.65.18a4.38,4.38,0,0,0-1.71-.6l-.54-.08c-.21-.06-.41-.2-.63-.24s.07.06,0,0l-.65,2.4,1,.11c.9.08,1.37-.89,1.24-1.64,0-.16,0-.19,0-.07l-1.94,1.12c.73.37,1.43.78,2.13,1.2a1.29,1.29,0,0,0,1.3-2.23c-.7-.42-1.4-.83-2.13-1.2a1.3,1.3,0,0,0-1.94,1.11c0,.26.06.51.1.76l1.25-1.63-1-.1c-1.28-.14-1.75,1.84-.65,2.4a6.34,6.34,0,0,0,1.65.52,5,5,0,0,1,.87.18,3.45,3.45,0,0,0,1.15.37,1.29,1.29,0,0,0,0-2.58Z"/><path class="cls-7" d="M386.47,136.51a23.88,23.88,0,0,1,4.31.08,1.3,1.3,0,0,0,1.29-1.29l0-.18-1.29,1.29,1-.13L390.1,135l0,.36a1.32,1.32,0,0,0,.94,1.25c1.78.38,3.64.56,5.45.81l.34-2.53a28.36,28.36,0,0,1-5.82-.4c-1.29-.2-3-.09-4.24-.55-1.55-.59-2.23,1.91-.69,2.49,1.33.5,3.25.43,4.68.63a30.08,30.08,0,0,0,6.07.4c1.36-.07,1.86-2.32.34-2.53-1.8-.25-3.66-.42-5.44-.81l.94,1.24,0-.36a1.32,1.32,0,0,0-1.63-1.24l-.3,0c-.62.07-1.37.53-1.28,1.29l0,.18,1.29-1.29a23.88,23.88,0,0,0-4.31-.08C384.82,134.05,384.81,136.63,386.47,136.51Z"/><path class="cls-7" d="M379.36,136.27l-.11-.08.38.91,0,0-.9.9h-.6c1.29.34,2.64,0,3.94.28l-.31-2.36c-.71.53-2.16.16-2.94,0-1.62-.34-2.31,2.15-.69,2.49,1.45.3,3.63.7,4.93-.26.81-.61.88-2.1-.31-2.36a10.49,10.49,0,0,0-2.5-.23,11.59,11.59,0,0,0-2.2,0,1.24,1.24,0,0,0-.9.9,1.54,1.54,0,0,0,.41,1.64,1.32,1.32,0,0,0,1.83,0A1.3,1.3,0,0,0,379.36,136.27Z"/><path class="cls-7" d="M381.2,147.49l-.08.12-1.11.64c-.33,0-.16,0,0,0l.15.06-.07,0,.09.05q-.17-.13,0,0c-.05-.18.1.24.1.24l1.46-1.89a4.56,4.56,0,0,1-1.14-.53l.59.77,0-.06v.68l0-.12a1.29,1.29,0,0,0-2.49-.68c-.38,1.52,1.23,2,2.34,2.42a1.28,1.28,0,0,0,1.36-.46,1.36,1.36,0,0,0,.1-1.43,2.67,2.67,0,0,0-1.12-1.25,3.12,3.12,0,0,0-1.38-.42,1.29,1.29,0,0,0-1.12.64,1.76,1.76,0,0,0-.18.5,1.32,1.32,0,0,0,.9,1.58A1.3,1.3,0,0,0,381.2,147.49Z"/><path class="cls-7" d="M380.73,148.82l0-.07-1.46.59c-.16,0-.26-.18-.34-.31s-.1-.35-.12-.08l1.94-1.12-.49-.34.47.47.08.56a1.33,1.33,0,0,0-.9-1.59,1.31,1.31,0,0,0-1.59.9,1.79,1.79,0,0,0,.14,1.38,3.13,3.13,0,0,0,1,.85c.86.6,1.87-.22,1.94-1.11a2,2,0,0,0-1.43-2.1,1.36,1.36,0,0,0-1.46.6l-.05.07a1.31,1.31,0,0,0,.46,1.77A1.32,1.32,0,0,0,380.73,148.82Z"/><path class="cls-7" d="M376.91,146.88l-.14,0,.9.9c-.22-.7-.43-1.39-.59-2.1l-1.89,1.45c-.15-.14-.14-.14,0,0a.77.77,0,0,0,.29.17l-.59-.77a11.51,11.51,0,0,0,.73,1.55l-.18-.65c0,.28,0,.56,0,.84l1.63-1.24H377l.77.59a1.64,1.64,0,0,0-.57-.57,1.29,1.29,0,1,0-1.3,2.22l.06.05-.46-.47a1.37,1.37,0,0,0,.88.68,1.31,1.31,0,0,0,1.63-1.25,7.88,7.88,0,0,0,0-.84,2.68,2.68,0,0,0-.42-1.1c-.11-.21-.19-.43-.29-.64a1.52,1.52,0,0,0-.53-.62c.18.13-.21-.12-.31-.16a1.3,1.3,0,0,0-1.89,1.45c.15.72.37,1.41.58,2.11a1.28,1.28,0,0,0,.9.9l.15,0a1.32,1.32,0,0,0,1.58-.9A1.29,1.29,0,0,0,376.91,146.88Z"/><path class="cls-7" d="M375.42,149.1c.09.27,0,0,0,.24L378,149c0-.21-.05-.26,0-.13a1.64,1.64,0,0,0,0-.45c-.13-.34-.17-.42-.11-.23l-.08-.26-1.89,1.46a1.13,1.13,0,0,1-.46-.63,1.29,1.29,0,0,0,2.58,0,1.76,1.76,0,0,0-.82-1.6,1.31,1.31,0,0,0-1.9,1.46,2.48,2.48,0,0,0,.32.79l-.18-.65a4.81,4.81,0,0,0,.11.92,1.29,1.29,0,0,0,2.53-.34,2.37,2.37,0,0,0-.1-.92,1.33,1.33,0,0,0-1.59-.91A1.31,1.31,0,0,0,375.42,149.1Z"/><path class="cls-7" d="M375.66,150.11l0,0,2.36,1v0l-1.24,1h0a1.31,1.31,0,0,0,1.12-1.94v0l.13,1a5.25,5.25,0,0,0,.07-1.05l-2.2.91,0-1.09a1.33,1.33,0,0,0,0,1.82,1.3,1.3,0,0,0,1.83,0,2,2,0,0,0,.6-1.3,1.81,1.81,0,0,0-.58-1.25,1.31,1.31,0,0,0-2.21.91,2.68,2.68,0,0,0,.16,1.38l1.11-1.94h0a1.31,1.31,0,0,0-1.24.95v0a1.29,1.29,0,0,0,2.36,1l0,0a1.29,1.29,0,0,0-2.23-1.3Z"/><path class="cls-7" d="M377.11,152.8c0-.4-.2.34-.07.15a1.29,1.29,0,0,0,.22-.7,3.3,3.3,0,0,0-.13-.89l-.33,1.26c.09-.09.1-.09,0,0l.27-.14-1.89-.77a1.4,1.4,0,0,1,.09.29c0,.28.05.22,0-.19l.33-.57a1.87,1.87,0,0,0-.45.72,1.45,1.45,0,0,0-.06.41c0-.19.05.77.06.3l.38-.92-.07.08.91-.38h-.09l1.11.64c.23.36-.18-.45-.11-.32a1.4,1.4,0,0,0-.25-.35A1.49,1.49,0,0,0,376,151a1.38,1.38,0,0,0-1.19.69,1.23,1.23,0,0,0-.21.7c0,.24.1-.21,0,.11a1.3,1.3,0,0,0,.9,1.58,1.32,1.32,0,0,0,1.59-.9,2.32,2.32,0,0,0,.11-.79L377,153l.07-.1-1.11.64-.42-.11-.46-.47c-.15-.25,0,.17,0,.17a1.64,1.64,0,0,0,.32.5,1.43,1.43,0,0,0,1.34.34,1.47,1.47,0,0,0,.91-1.95v.68c0-.09-.49.94,0,.09a1.53,1.53,0,0,0,.2-.72,3,3,0,0,0-.2-1.06,1.32,1.32,0,0,0-1.9-.77,5.68,5.68,0,0,0-.83.55,1.26,1.26,0,0,0-.34,1.26c-.1-.29,0,.11,0,.2l.17-.65a1.88,1.88,0,0,0-.32,1.2A1.29,1.29,0,0,0,377.11,152.8Z"/><path class="cls-7" d="M373.35,151.08c0-.17.08-.29,0-.07l-.33.57.06-.06-.57.33c-.14,0,.36,0,.34,0l-.91-.38.08.11.92-2.2a2.45,2.45,0,0,0-1.34.17,1.67,1.67,0,0,0-.75,1.61,1.53,1.53,0,0,0,1.1,1.44,1.59,1.59,0,0,0,.57,0l.48,0c.08,0,.43.06.19,0l-.57-.34,0,0-.33-.57v.08l.13-1,0,.05.46-.46,0,0h1.3a2.39,2.39,0,0,0-1.1-.33h-.31s-.42,0-.23,0l.57.33.09.11.18.66a.71.71,0,0,1,0-.25,1.29,1.29,0,0,0-2.58,0,1.57,1.57,0,0,0,1.52,1.71,3.53,3.53,0,0,0,.46,0c.07,0,.47,0,.21,0s.44.16.55.16a1.52,1.52,0,0,0,.69-.19,1.42,1.42,0,0,0,0-2.41,2.11,2.11,0,0,0-1.08-.2c-.19,0-.4,0-.58,0s-.11-.12.34.15l.46.46a.64.64,0,0,1,0,.68l-.47.47c-.38.26-.64.09-.33.13a2.94,2.94,0,0,0,.42,0,1.28,1.28,0,0,0,1.18-.79,1.36,1.36,0,0,0-.27-1.41,2.07,2.07,0,0,0-2.18-.36,1.65,1.65,0,0,0-.9,1.65A1.29,1.29,0,0,0,373.35,151.08Z"/><path class="cls-7" d="M369.6,146.22v-.12l-.18.65,0-.07-.46.46.06,0-.65.18c.21,0,.42,0,.63-.08h-.69l.07,0-.57-.33.05.06-.33-.57c.06.15.08.31.13.47l.9-1.59c-.26,0,.19,0,.23,0l.57.33.17.28a1.29,1.29,0,0,0-2.49.68,1.74,1.74,0,0,0,2.21,1.2,1.31,1.31,0,0,0,.9-1.59,3.8,3.8,0,0,0-.27-.78,1.5,1.5,0,0,0-1.4-.69c-.51,0,.25,0-.08,0a1.58,1.58,0,0,0-.71.2,1.41,1.41,0,0,0-.69,1.32,1.29,1.29,0,1,0,2.57,0Z"/><path class="cls-7" d="M362.93,135.11l0,0-.18.65a2,2,0,0,0,.25-1.37l-2.4.65h0a1.28,1.28,0,0,0,1.61.53,1.31,1.31,0,0,0,.74-1.53c0,.26-.29.36-.43.45-.61.33-.26.19.06.2a1.29,1.29,0,0,0,1.11-1.94,1.61,1.61,0,0,0-.58-.58l.46.46,0-.09.17.65,0-.15-1.29,1.29h.41l-1.25-1.63a.45.45,0,0,1,.12-.21c-.25.28-.28.34-.08.17s.26-.17,0-.07a1.32,1.32,0,0,0-.93,1.42,1.28,1.28,0,0,0,1.27,1.12c-.25,0-1.09-1.14-.8-.4.15.39.27-.84.07-.5a1.5,1.5,0,0,0-.21.71.86.86,0,0,0,0,.42q0,.19,0-.06l.38-.91-.07.07.91-.38h-.07l1.11.64c.06.18.07.21,0,.09a1.43,1.43,0,0,0-.08-.22,1.66,1.66,0,0,0-.32-.52,1.53,1.53,0,0,0-1.06-.47,1.4,1.4,0,0,0-1.11.52,1.33,1.33,0,0,0-.3.53l-.05.35v.07a1.3,1.3,0,0,0,.9,1.58,1.32,1.32,0,0,0,1.59-.9A3.14,3.14,0,0,0,363,135l-.18.65.08-.1-1.12.64-.16,0-.57-.34c-.24-.24-.24-.35-.09,0a1.77,1.77,0,0,0,.31.49,1.39,1.39,0,0,0,2.24-.48,1.24,1.24,0,0,0,.12-.6l0-.34c-.05-.17-.06-.14,0,.08l-.18.65a2.11,2.11,0,0,0,.32-.91,2.52,2.52,0,0,0-.14-.82A1.6,1.6,0,0,0,362,132.6l.34,2.53a2.87,2.87,0,0,0,1.12-.59,2.71,2.71,0,0,0,.65-1.1,1.29,1.29,0,0,0-1.24-1.63h-.41a1.28,1.28,0,0,0-1.28,1.29,1.61,1.61,0,0,0,.77,1.4l-.46-.46.05.07,1.11-1.94a2,2,0,0,0-1.78.66,2.3,2.3,0,0,0-.33,2l2.35-1h0a1.29,1.29,0,0,0-2.4.65l.06.5.18-.65a1.81,1.81,0,0,0-.25,1.5,1.29,1.29,0,0,0,1.58.9A1.32,1.32,0,0,0,362.93,135.11Z"/><path class="cls-7" d="M362.18,134v-.58a1.31,1.31,0,0,0-1.29-1.29l-2.2,0c-.84,0-1.67.14-1.95,1.07a1.75,1.75,0,0,0,.69,2,2.1,2.1,0,0,0,1.08.19c.15,0,.31,0,.46,0s.7,0,.31,0l-.65-.18.08,0-.59-.77,0,.12v-.69l0,.08,1.24-.94h-.05l.65.18a2.45,2.45,0,0,0-.91-.27,2,2,0,0,1-.77-.05l.77.6q.1.57.12.21a2.26,2.26,0,0,1,0-.26l-.18.65.05-.1-.47.47.08-.05-.65.17a20.43,20.43,0,0,1,2.71,0l-.65-.18-.1-.1-.34-.57v-.11a1.29,1.29,0,0,0,2.48.69,1.68,1.68,0,0,0-1.62-2.32c-.48,0-.95,0-1.42,0a3.83,3.83,0,0,0-1.55.11,1.9,1.9,0,0,0-.89,2.28c.36,1.22,1.55,1,2.5,1.13l-.65-.17a2,2,0,0,0,.88.25,1.34,1.34,0,0,0,1.25-1,1.49,1.49,0,0,0-1-1.83,2.22,2.22,0,0,0-.45,0c-.09,0-.52,0-.21,0-.28,0-.56,0-.85,0l.66.18.12.1.34.57a1,1,0,0,0,0,.17l-.33.57.06-.06-.57.33c-.39.12.16,0,.28,0h.77l1.43,0-1.29-1.28V134A1.29,1.29,0,0,0,362.18,134Z"/><path class="cls-7" d="M360.8,135.35c-.56,0-.7,0-.41.08v-2.49c.1,0,.07,0-.09,0a3.85,3.85,0,0,0-.49.07,1.3,1.3,0,0,0-.91,1.58,1.32,1.32,0,0,0,1.59.9c-.09,0-.06,0,.1,0s.33,0,.49-.06a1.31,1.31,0,0,0,.95-1.25,1.33,1.33,0,0,0-.95-1.24,1.73,1.73,0,0,0-1.58.19,1.33,1.33,0,0,0-.47,1.76A1.31,1.31,0,0,0,360.8,135.35Z"/><path class="cls-7" d="M377.15,118.35a.37.37,0,0,1,0,.34A.44.44,0,0,1,377.15,118.35Z"/><path class="cls-7" d="M375.91,118.69v-.34h2.48v.34a1.29,1.29,0,1,0-2.48-.68,1.81,1.81,0,0,0,0,1,1.3,1.3,0,0,0,2.48,0,1.65,1.65,0,0,0,0-1C377.91,116.42,375.42,117.1,375.91,118.69Z"/><path class="cls-7" d="M377.39,111.14c.07-.12.14-.24.2-.36A.35.35,0,0,1,377.39,111.14Z"/><path class="cls-7" d="M378.51,111.79l.19-.36-2.4-.65v-.12l.33-.57.11-.07a1.29,1.29,0,0,0,1.3,2.23,1.7,1.7,0,0,0,.84-1.47,1.3,1.3,0,0,0-2.4-.66l-.2.37C375.48,111.94,377.71,113.25,378.51,111.79Z"/><path class="cls-7" d="M376.53,105.89a3.09,3.09,0,0,1,.07-1h0a2.19,2.19,0,0,0,0,.27Z"/><path class="cls-7" d="M377.82,105.89c0-.15,0-.29,0-.44,0-.31,0-.08-.11.13l-.46.47,0,0-1.9-1.45c-.07.43-.11.87-.14,1.31a1.3,1.3,0,0,0,1.29,1.28,1.31,1.31,0,0,0,1.29-1.28c0-.15,0-.3,0-.44s0-.39,0-.19a1.3,1.3,0,0,0-1.89-1.45c-.75.33-.77,1.38-.74,2.08a1.32,1.32,0,0,0,1.29,1.28A1.3,1.3,0,0,0,377.82,105.89Z"/><path class="cls-7" d="M362.89,122.47h0c0-.17-.05-.31.08-.39A.37.37,0,0,1,362.89,122.47Z"/><path class="cls-7" d="M362.24,121.35l0,0,1.94,1.11c0-.17,0-.16,0,0l-.33.57.06-.07-2.15-.57,0,.14v-.69l0-.07a1.32,1.32,0,0,0,.47,1.77,1.3,1.3,0,0,0,1.76-.46,1.82,1.82,0,0,0,.19-1.37,1.31,1.31,0,0,0-2.16-.57,1.56,1.56,0,0,0-.46,1.3c.06.87,1.09,1.76,1.94,1.12l0,0a1.34,1.34,0,0,0,.46-1.77A1.3,1.3,0,0,0,362.24,121.35Z"/><path class="cls-7" d="M361.68,120.66l0,0h-.05A.13.13,0,0,1,361.68,120.66Z"/><path class="cls-7" d="M360.56,121.31l0,0,.77-1.89h0l1.63,1.24v-.06a1.29,1.29,0,0,0-2.58,0v.06A1.3,1.3,0,0,0,362,122h.05a1.29,1.29,0,0,0,.77-1.89l0,0a1.32,1.32,0,0,0-1.76-.47A1.31,1.31,0,0,0,360.56,121.31Z"/><path class="cls-7" d="M376.61,152.48l.05,0c0,.05,0,.09,0,.13s0,.17-.05.15A1.49,1.49,0,0,1,376.61,152.48Z"/><path class="cls-7" d="M377.26,153.59l.05,0-1.9-.77q0-.26,0-.09l.95-1.24-.05,0,1.59.9q0,.35,0,.09a1.31,1.31,0,0,0-1.29-1.29,1.3,1.3,0,0,0-1.29,1.29,3,3,0,0,0,.06.59,1.29,1.29,0,0,0,1.59.9h0a1.35,1.35,0,0,0,.94-1.25,3.05,3.05,0,0,0-.06-.6c-.13-.9-1.24-1.08-1.9-.77l0,0a1.29,1.29,0,0,0,1.3,2.23Z"/><path class="cls-7" d="M362.48,135.5a.5.5,0,0,1,0-.36C362.54,135.23,362.51,135.33,362.48,135.5Z"/><path class="cls-7" d="M363.72,135.16v.32h-2.49v-.32a1.31,1.31,0,0,0,.9,1.58,1.29,1.29,0,0,0,1.58-.9,1.87,1.87,0,0,0,0-1.05,1.35,1.35,0,0,0-1.25-.94,1.32,1.32,0,0,0-1.24.94,2,2,0,0,0,0,1.05A1.29,1.29,0,0,0,363.72,135.16Z"/><path class="cls-7" d="M391.43,129.78h0Z"/><path class="cls-7" d="M391.43,131.07h.06v-2.58h-.09l.35,2.54h0a1.29,1.29,0,0,0-.69-2.49h0a1.29,1.29,0,0,0,.34,2.53h.09a1.29,1.29,0,0,0,0-2.58h-.06a1.3,1.3,0,0,0-1.29,1.29A1.31,1.31,0,0,0,391.43,131.07Z"/><path class="cls-7" d="M422.49,138.94a1.14,1.14,0,0,1,.31.16Z"/><path class="cls-7" d="M421.84,140.05a1.3,1.3,0,0,1,.31.16l1.3-2.22-.31-.17a1.33,1.33,0,0,0-1.77.47,1.3,1.3,0,0,0,.47,1.76l.31.16a1.29,1.29,0,0,0,1.3-2.22,1.17,1.17,0,0,0-.31-.17,1.34,1.34,0,0,0-1.77.47A1.3,1.3,0,0,0,421.84,140.05Z"/><path class="cls-7" d="M412.18,133l-1.11-.22A2,2,0,0,1,412.18,133Z"/><path class="cls-7" d="M412.52,131.75l-1.11-.23V134c-.17,0-.23,0,0,.07l.45.16a1.29,1.29,0,1,0,.68-2.49,3,3,0,0,0-1.79-.23,1.3,1.3,0,0,0,0,2.49l1.11.23a1.33,1.33,0,0,0,1.59-.9A1.31,1.31,0,0,0,412.52,131.75Z"/></g></g></svg>
