<svg id="walk" xmlns="http://www.w3.org/2000/svg" width="2800" height="500" viewBox="0 0 2800 500"><defs><style>.cls-1{fill:#51301a;}.cls-2{fill:#291706;}.cls-3{fill:#8b6448;}.cls-4{fill:#fff;}.cls-5{fill:none;stroke:#291706;stroke-miterlimit:10;stroke-width:2.92px;}</style></defs><title>abespriteudenfarver</title><path class="cls-1" d="M225.29,397.49c-3.75-13.87-8.41-23.24-17.21-34.42-4.27-5.42-11.4-9-17.87-12.35-1.85-1-5.07-2.36-6.67-4-2,2.1-2.51,5.1-4.61,7.07-3.14,2.94-6.26,4.54-10.05,6.93-7.87,4.95-16.63,9.77-24.07,15.61,2.35.55,5.72,1.36,7.65,2.59a77.78,77.78,0,0,0,29.12,11.36c3.75.7,4.08,1.65,4.76,5.59,2,11.38,6.17,22.46,10.88,33.25,1.7,3.91.19,8.14-.06,12.21,10.34-3.47,20.65-6.91,30.66-11.4A93.28,93.28,0,0,0,225.29,397.49Z"/><path class="cls-1" d="M53.53,306.67c0,.32,0,.63,0,.95,0,.06,0,.13,0,.21-1.25,18.5,25.82,22.26,29.68,4.12.24-1.15.44-2.38.59-3.71a12.76,12.76,0,0,1,.28-1.62c.85-3.72,12.93-28.32,17.42-37.39a16.06,16.06,0,0,1,3.69-4.85c7.65-6.77,33.57-34.21,28.92-35.88h0s-1.52-.86-3.56-2.31a15.09,15.09,0,0,0-16.1-1c-11.57,6.41-31.2,16.93-41.83,31.89C63.3,271.51,57.23,288.24,53.53,306.67Z"/><circle class="cls-2" cx="79.31" cy="141.91" r="43.03"/><path class="cls-2" d="M113.57,67.42c7-3.5,13.93-7.1,20.56-11.25,4.45-2.78,8.93-5.6,11.78-10.2.91-1.47,1.4-1.23,2.39-.21,2.46,2.54,3.12,5.7,3.15,9.19,7.06-4.31,11.22-10.26,12-18.44.06-.66-.15-1.74.67-1.88.54-.1,1.32.52,1.82,1,3.15,3,4.23,6.95,4.78,11.09a46,46,0,0,1,.21,9.14c4.65-2.57,8-5.84,10-10.49a58.69,58.69,0,0,0,2.67-9.29A25.93,25.93,0,0,1,185.45,30c5.66,6.23,10.13,12.79,10.26,21.44.1,6.63-2.44,12.43-5.84,17.91-.9,1.44-.7,2,.65,2.94-1.74,3.21-3.33,6.35-4.72,9.51-.55-.15-1.09.1-1.78.9a27.07,27.07,0,0,1-9,6.39c-8.93,4.29-18.53,5.87-28.28,6.39a138.34,138.34,0,0,1-48.57-6.34,3.17,3.17,0,0,0-.9-.17c-1.33-2-2.72-4-4.13-5.94A67.2,67.2,0,0,1,113.57,67.42Z"/><path class="cls-2" d="M99.07,232.68c13.76-22.64,34.9-36.33,56.26-33.84,33.85,3.94,56.68,46.76,51,95.63s-37.75,85.29-71.6,81.35c-19.28-2.24-35-17.11-43.85-38.5a33,33,0,0,1-2-10.64c.16-61.28,6-87.64,10.24-94"/><path class="cls-2" d="M77.82,182.2A7.73,7.73,0,0,1,84,187.84a8.44,8.44,0,0,1,1.14,1.65c3.07,5.89,5,12.38,9.33,17.49,3.78,4.39,8.39,7.5,13.32,10.46a4.77,4.77,0,0,1,1.89,1.59c2.61,1.76,3,9.23,2.12,12,17.37,10.12,38.25,10.22,58.9,6,46.84-9.52,76.55-57.83,66.37-107.89s-56.4-82.93-103.24-73.4S57.23,113.61,67.41,163.67a99.29,99.29,0,0,0,5,16.83"/><path class="cls-1" d="M253.33,421.56c-2.89-6.12-9.09-7.3-15-4.74a55.56,55.56,0,0,0-5.48,3.29c-1.89,1.12-4.17,2.62-6.24,3.61-.14-.6-1.15-.31-1.29-.92a114.32,114.32,0,0,1-27.08,12.14,33,33,0,0,1-1.11,3.41c-2.1,7.5,2.09,12.31,9.75,13.11a19.53,19.53,0,0,0,4,0c14.21-2.81,25.56-7.82,37.47-15.3C254.1,432.48,256.22,427.68,253.33,421.56Z"/><ellipse class="cls-3" cx="185.25" cy="281.62" rx="18.43" ry="55.95"/><path class="cls-2" d="M152.66,394.37A55.85,55.85,0,0,0,149.81,369c-.85-2.32-2.57-6.39-2.23-7.52-3.05-.69-4.55.62-7.6-.06-4.53-1-8.75-2.91-13.23-4.08-9.31-2.45-5.56,1.39-15.27,1,1,1.38-6.1-5.1-5.72-3.34,1.86,8.6-2.7,21.56-.61,30.11.72,3,.55,4.41-3,5.25a80.91,80.91,0,0,0-27.78,13.08,26.64,26.64,0,0,1-8.11,4.26C74.72,413.88,80.86,423,87,431.49a99.64,99.64,0,0,0,36.22-5.33C139,421,150.72,412.3,152.66,394.37Z"/><path class="cls-2" d="M229.79,279.74c.28-.15.56-.29.85-.42l.23-.1c16.8-7.78,7.13-33.31-10.62-28-1.12.33-2.3.75-3.53,1.25-.51.2-1,.38-1.56.53-3.68,1-31.06,2.19-41.17,2.59a15.82,15.82,0,0,1-6-.93c-9.59-3.47-46.1-13.12-45.34-8.24h0s0,1.75-.33,4.24c-.7,5.79,2.58,10.62,6.84,14.6,9.13,8.56,25,25.91,48.22,24.5C194.46,291,211.83,285.31,229.79,279.74Z"/><ellipse class="cls-3" cx="178.58" cy="136.06" rx="33.64" ry="42.5"/><ellipse class="cls-3" cx="203.87" cy="135.66" rx="32.68" ry="43.63"/><ellipse class="cls-3" cx="191.96" cy="175.31" rx="29.99" ry="37.42"/><ellipse class="cls-3" cx="68.91" cy="144.94" rx="17.66" ry="28.69"/><path class="cls-2" d="M98.73,455.73c5.24-3.4,3.19-7.51-.73-13.17-1.22-1.77-2.54-3.47-3.82-5.19l-4.55-6.13,1.43.1c-7.62-8-15.69-15.6-22.24-24.36a17.55,17.55,0,0,1-3.59.14c-8.32-.47-13.79,9.63-9,16.87,7.6,11.44,14.43,21,23,31.74.81,1,2.06.83,3.24.81,2.16,0,4.52,0,6.48,0C91.57,456.51,96.64,457.09,98.73,455.73Z"/><circle class="cls-4" cx="219.52" cy="137.74" r="14.59"/><circle cx="220.73" cy="138.96" r="12.16"/><ellipse class="cls-4" cx="224.99" cy="136.52" rx="3.04" ry="6.08"/><ellipse class="cls-4" cx="219.52" cy="144.43" rx="3.65" ry="1.82"/><circle class="cls-4" cx="185.47" cy="139.36" r="16.21"/><circle cx="186.82" cy="140.71" r="13.51"/><ellipse class="cls-4" cx="191.55" cy="138.01" rx="3.38" ry="6.76"/><ellipse class="cls-4" cx="185.47" cy="146.79" rx="4.05" ry="2.03"/><path class="cls-5" d="M215.48,178.1c-13.69.43-27.89,1.29-33-5.43"/><path class="cls-1" d="M567,404.11c-1.14-14.33-4-24.39-10.6-37-3.19-6.11-9.55-10.95-15.29-15.42-1.65-1.28-4.56-3.26-5.81-5.2-2.35,1.7-3.41,4.55-5.84,6.11-3.63,2.31-7,3.3-11.15,4.95-8.65,3.43-18.14,6.55-26.53,10.92,2.22,1,5.38,2.4,7.05,4A77.73,77.73,0,0,0,525.32,389c3.56,1.37,3.71,2.37,3.66,6.36-.15,11.55,1.93,23.22,4.57,34.69,1,4.15-1.3,8-2.29,12,10.79-1.51,21.56-3,32.23-5.56A93.68,93.68,0,0,0,567,404.11Z"/><path class="cls-1" d="M397,296.85c-.08.31-.16.61-.25.91,0,.07-.05.13-.07.21-5.39,17.74,20.12,27.52,28,10.73.5-1.07,1-2.22,1.42-3.48a13.5,13.5,0,0,1,.63-1.52c1.68-3.43,19-24.65,25.43-32.47a15.88,15.88,0,0,1,4.7-3.89c9-4.87,40.44-25.73,36.29-28.41h0s-1.29-1.18-2.95-3.06a15.1,15.1,0,0,0-15.46-4.59c-12.72,3.62-34.22,9.43-48,21.59C414.45,264.81,404.75,279.73,397,296.85Z"/><circle class="cls-2" cx="429.31" cy="141.91" r="43.03"/><path class="cls-2" d="M463.57,67.42c7-3.5,13.93-7.1,20.56-11.25,4.45-2.78,8.93-5.6,11.78-10.2.91-1.47,1.4-1.23,2.39-.21,2.46,2.54,3.12,5.7,3.15,9.19,7.06-4.31,11.22-10.26,12-18.44.06-.66-.15-1.74.67-1.88.54-.1,1.32.52,1.82,1,3.15,3,4.23,6.95,4.78,11.09a46,46,0,0,1,.21,9.14c4.65-2.57,8-5.84,10-10.49a58.69,58.69,0,0,0,2.67-9.29A25.93,25.93,0,0,1,535.45,30c5.66,6.23,10.13,12.79,10.26,21.44.1,6.63-2.44,12.43-5.84,17.91-.9,1.44-.7,2,.65,2.94-1.74,3.21-3.33,6.35-4.72,9.51-.55-.15-1.09.1-1.78.9a27.07,27.07,0,0,1-9,6.39c-8.93,4.29-18.53,5.87-28.28,6.39a138.34,138.34,0,0,1-48.57-6.34,3.17,3.17,0,0,0-.9-.17c-1.33-2-2.72-4-4.13-5.94A67.2,67.2,0,0,1,463.57,67.42Z"/><path class="cls-2" d="M449.07,232.68c13.76-22.64,34.9-36.33,56.26-33.84,33.85,3.94,56.68,46.76,51,95.63s-37.75,85.29-71.6,81.35c-19.28-2.24-35-17.11-43.85-38.5a33,33,0,0,1-2-10.64c.16-61.28,5.95-87.64,10.24-94"/><path class="cls-2" d="M427.82,182.2a7.73,7.73,0,0,1,6.13,5.64,8.44,8.44,0,0,1,1.14,1.65c3.07,5.89,5,12.38,9.33,17.49,3.78,4.39,8.39,7.5,13.32,10.46a4.77,4.77,0,0,1,1.89,1.59c2.61,1.76,3,9.23,2.12,12,17.37,10.12,38.25,10.22,58.9,6,46.84-9.52,76.55-57.83,66.37-107.89s-56.4-82.93-103.24-73.4-76.55,57.83-66.37,107.89a99.29,99.29,0,0,0,5,16.83"/><path class="cls-1" d="M590.26,443.27c-1.91-5.34-8-6.51-13.56-7.17a31.34,31.34,0,0,0-5.82.21c-2,.17-4.54.53-6.62.65-.13-.62-.86-.69-1-1.31-10,1.29-20.13,2.64-30.21,2.84-.53,1.2-1.46,1.83-2,3-3.39,7.11-1.09,11.85,6,15.26a11.83,11.83,0,0,0,3.7,1c14.59.05,33.16,1.85,45.29-3.33C591.92,451.91,592.17,448.61,590.26,443.27Z"/><ellipse class="cls-3" cx="535.25" cy="281.62" rx="18.43" ry="55.95"/><path class="cls-2" d="M495.22,394.24a55.81,55.81,0,0,0,1.34-25.53c-.46-2.43-1.49-6.73-1-7.79-2.91-1.17-4.6-.13-7.49-1.3-4.31-1.74-8.16-4.3-12.39-6.19-8.78-3.93-5.71.47-15.22-1.55.72,1.52-5.18-6-5.09-4.23.42,8.79-6.2,20.83-5.54,29.6.23,3.05-.18,4.44-3.77,4.7a80.84,80.84,0,0,0-29.54,8.36,26.69,26.69,0,0,1-8.7,2.88c7.27,7.55,11.83,17.59,16.46,26.92a99.59,99.59,0,0,0,36.6.67C477.36,418.27,490.37,411.61,495.22,394.24Z"/><path class="cls-2" d="M581.13,275.84c.27-.17.53-.33.81-.48l.22-.12c16.13-9.09,4.46-33.77-12.81-27.09q-1.64.63-3.42,1.53a14.31,14.31,0,0,1-1.51.65c-3.58,1.33-30.79,4.66-40.84,5.85a15.75,15.75,0,0,1-6.07-.44c-9.83-2.7-47-9.41-45.86-4.61h0a41.88,41.88,0,0,1,0,4.25c-.23,5.83,3.43,10.38,8,14,9.77,7.8,26.94,23.83,50,20.58C546.8,289.86,563.67,282.82,581.13,275.84Z"/><ellipse class="cls-3" cx="528.58" cy="136.06" rx="33.64" ry="42.5"/><ellipse class="cls-3" cx="553.87" cy="135.66" rx="32.68" ry="43.63"/><ellipse class="cls-3" cx="541.96" cy="175.31" rx="29.99" ry="37.42"/><ellipse class="cls-3" cx="418.91" cy="144.94" rx="17.66" ry="28.69"/><path class="cls-2" d="M442.74,440c2.43-5.68-1.56-8.1-4.95-12.28-1.06-1.3-2.33-2.83-3.57-4.44s-3-4-4.28-5.74c.44,0,.92,0,1.38.05-7.35-8-14.67-16-21.48-24.55-1.22.35-2.38-.12-3.68.2-8.47,2.12-13.22,8.18-8.46,16.86a106.94,106.94,0,0,0,29.79,34.3,10.48,10.48,0,0,0,3.82,1.49,5.81,5.81,0,0,0,5.38-.93C438.72,443.37,441.76,442.27,442.74,440Z"/><circle class="cls-4" cx="569.52" cy="137.74" r="14.59"/><circle cx="570.73" cy="138.96" r="12.16"/><ellipse class="cls-4" cx="574.99" cy="136.52" rx="3.04" ry="6.08"/><ellipse class="cls-4" cx="569.52" cy="144.43" rx="3.65" ry="1.82"/><circle class="cls-4" cx="535.47" cy="139.36" r="16.21"/><circle cx="536.82" cy="140.71" r="13.51"/><ellipse class="cls-4" cx="541.55" cy="138.01" rx="3.38" ry="6.76"/><ellipse class="cls-4" cx="535.47" cy="146.79" rx="4.05" ry="2.03"/><path class="cls-5" d="M565.48,178.1c-13.69.43-27.89,1.29-33-5.43"/><path class="cls-1" d="M877.43,388.44c2.82-8.24,2.41-17.1,1.48-25.67-.27-2.46-1.56-5.33-.85-7.79-2.44-.87-5.08-.44-7.52-1.39-3.63-1.4-9.15-4.81-12.18-6.09-6.28-2.65-9.25-.53-15.33-1.74.43.92-4.76-5.85-4.9-3.93-.67,9.39-5,19.74-5.06,29.35,0,3.34-.51,4.39-3.59,4.7-8.92.89-16.84,2.13-25.39,5.07a33,33,0,0,1-8.87,2c6.65,8.82,6.69,20,10.72,30.15,12.32,2.58,24.69,3.66,37.17,1.67C860.34,412,871.63,405.43,877.43,388.44Z"/><path class="cls-1" d="M797.79,321c.13.29.25.58.36.88l.07.21c6.47,17.37,32.69,9.66,28.75-8.45-.25-1.15-.57-2.36-1-3.63a14.29,14.29,0,0,1-.42-1.59c-.75-3.74.15-31.13.52-41.24a15.59,15.59,0,0,1,1.38-5.94c4.18-9.32,16.53-45,11.61-44.6h0s-1.74-.16-4.2-.64a15.1,15.1,0,0,0-15.08,5.72c-7.91,10.6-21.48,28.26-25,46.26C792.25,284.91,793.59,302.65,797.79,321Z"/><circle class="cls-2" cx="779.31" cy="141.91" r="43.03"/><path class="cls-2" d="M813.57,67.42c7-3.5,13.93-7.1,20.56-11.25,4.45-2.78,8.93-5.6,11.78-10.2.91-1.47,1.4-1.23,2.39-.21,2.46,2.54,3.12,5.7,3.15,9.19,7.06-4.31,11.22-10.26,12-18.44.06-.66-.15-1.74.67-1.88.54-.1,1.32.52,1.82,1,3.15,3,4.23,6.95,4.78,11.09a46,46,0,0,1,.21,9.14c4.65-2.57,8-5.84,10-10.49a58.69,58.69,0,0,0,2.67-9.29A25.93,25.93,0,0,1,885.45,30c5.66,6.23,10.13,12.79,10.26,21.44.1,6.63-2.44,12.43-5.84,17.91-.9,1.44-.7,2,.65,2.94-1.74,3.21-3.33,6.35-4.72,9.51-.55-.15-1.09.1-1.78.9a27.07,27.07,0,0,1-9,6.39c-8.93,4.29-18.53,5.87-28.28,6.39a138.34,138.34,0,0,1-48.57-6.34,3.17,3.17,0,0,0-.9-.17c-1.33-2-2.72-4-4.13-5.94A67.2,67.2,0,0,1,813.57,67.42Z"/><path class="cls-2" d="M799.07,232.68c13.76-22.64,34.9-36.33,56.26-33.84,33.85,3.94,56.68,46.76,51,95.63s-37.75,85.29-71.6,81.35c-19.28-2.24-35-17.11-43.85-38.5a33,33,0,0,1-2-10.64c.16-61.28,5.95-87.64,10.24-94"/><path class="cls-2" d="M777.82,182.2a7.73,7.73,0,0,1,6.13,5.64,8.44,8.44,0,0,1,1.14,1.65c3.07,5.89,4.95,12.38,9.33,17.49,3.78,4.39,8.39,7.5,13.32,10.46a4.77,4.77,0,0,1,1.89,1.59c2.61,1.76,3,9.23,2.12,12,17.37,10.12,38.25,10.22,58.9,6,46.84-9.52,76.55-57.83,66.37-107.89s-56.4-82.93-103.24-73.4-76.55,57.83-66.37,107.89a99.29,99.29,0,0,0,5,16.83"/><ellipse class="cls-3" cx="885.25" cy="281.62" rx="18.43" ry="55.95"/><path class="cls-2" d="M890.59,323.7c.3.1.6.2.89.32l.24.09c17.26,6.68,28.9-18,12.77-27.1-1-.58-2.14-1.14-3.36-1.68-.5-.22-1-.47-1.47-.74-3.29-1.93-23.16-20.82-30.47-27.81a15.92,15.92,0,0,1-3.51-5c-4.17-9.31-22.61-42.27-25.59-38.33h0s-1.28,1.19-3.28,2.71c-4.65,3.52-5.84,9.23-5.75,15.07.2,12.5-1.27,35.95,15.91,51.69C858,306.11,874.11,314.66,890.59,323.7Z"/><ellipse class="cls-3" cx="878.58" cy="136.06" rx="33.64" ry="42.5"/><ellipse class="cls-3" cx="903.87" cy="135.66" rx="32.68" ry="43.63"/><ellipse class="cls-3" cx="891.96" cy="175.31" rx="29.99" ry="37.42"/><ellipse class="cls-3" cx="768.91" cy="144.94" rx="17.66" ry="28.69"/><path class="cls-1" d="M819.75,438.75c3.68-5,1.6-8.2.62-13.81a55.75,55.75,0,0,0-1.35-6c-.66-2.29-1.56-6.23-2.12-8.85a4.84,4.84,0,0,1,1.19.66c-6.65-9.88-11.73-15.21-16.94-26.73-1.23.06-2.35-.79-3.62-.64-8.31,1-14.08,4.69-12.08,13.94,3.16,14.61,10.7,27.4,17.31,40.79.62,1.26,2.66,2.54,3.69,3.28a5.79,5.79,0,0,0,5.77.86C814.71,441.23,818.29,440.74,819.75,438.75Z"/><circle class="cls-4" cx="919.52" cy="137.74" r="14.59"/><circle cx="920.73" cy="138.96" r="12.16"/><ellipse class="cls-4" cx="924.99" cy="136.52" rx="3.04" ry="6.08"/><ellipse class="cls-4" cx="919.52" cy="144.43" rx="3.65" ry="1.82"/><circle class="cls-4" cx="885.47" cy="139.36" r="16.21"/><circle cx="886.82" cy="140.71" r="13.51"/><ellipse class="cls-4" cx="891.55" cy="138.01" rx="3.38" ry="6.76"/><ellipse class="cls-4" cx="885.47" cy="146.79" rx="4.05" ry="2.03"/><path class="cls-5" d="M915.48,178.1c-13.69.43-27.89,1.29-33-5.43"/><path class="cls-2" d="M862.15,421.83A102.05,102.05,0,0,0,866.28,383c-.51-6.85-4.87-13.55-8.2-19.89-1-1.81-2.85-4.6-3.31-6.81-2.79.72-4.91,2.8-7.76,3.31-4.24.75-7.87.52-12.33.47-9.27-.09-19.12-.45-28.49.2a30.67,30.67,0,0,1,4.89,6.15c5,9.72,11.15,17.57,18.38,25.44,2.51,2.74,2.33,3.83,1,7.44-3.84,10.42-6.52,22.14-8.58,33.09-.75,4-2.7,6.63-4.49,10,9.86,2.91,19.55,5.91,29.75,7.72C853,441.54,859.33,431.54,862.15,421.83Z"/><path class="cls-2" d="M877.26,442.27c-1.91-5.34-8-6.51-13.56-7.17a31.34,31.34,0,0,0-5.82.21c-2,.17-4.54.53-6.62.65-.13-.62-.86-.69-1-1.31-10,1.29-20.13,2.64-30.21,2.84-.53,1.2-1.46,1.83-2,3-3.39,7.11-1.09,11.85,6,15.26a11.83,11.83,0,0,0,3.7,1c14.59.05,33.16,1.85,45.29-3.33C878.92,450.91,879.17,447.61,877.26,442.27Z"/><path class="cls-1" d="M1184.56,423.68a135.79,135.79,0,0,0,15.49-35.51c1.82-6.47.16-14.15-.57-21.12-.21-2-1-5.17-.7-7.35-2.88-.23-5.48.93-8.38.52-4.3-.61-8-1.92-12.26-3.3-8.92-2.86-18.26-6-27.48-8.19a29.08,29.08,0,0,1,2.94,7.11c1.81,10.22,6.49,19.65,6.59,29.69,0,3.49-.9,4.38-1.41,7.73-1.47,9.7-9.69,20.16-14.72,28.86-1.83,3.15-4.61,5.58-7.22,8.11,8.53,5.73,16.89,11.51,26.07,16.26C1170.87,440.08,1179.46,432.2,1184.56,423.68Z"/><path class="cls-1" d="M1264.8,314.19c.31.06.62.13.92.21l.21.06c18,4.6,26.6-21.33,9.47-28.43-1.08-.45-2.26-.88-3.53-1.27a13.6,13.6,0,0,1-1.55-.56c-3.51-1.52-25.48-17.89-33.58-24a15.91,15.91,0,0,1-4.09-4.52c-5.26-8.75-27.5-39.25-30-35h0s-1.13,1.35-2.93,3.09a15.08,15.08,0,0,0-3.9,15.65c4.19,12.55,10.94,33.76,23.7,47C1232,298.17,1247.35,307.19,1264.8,314.19Z"/><circle class="cls-2" cx="1129.31" cy="141.91" r="43.03"/><path class="cls-2" d="M1163.57,67.42c7-3.5,13.93-7.1,20.56-11.25,4.45-2.78,8.93-5.6,11.78-10.2.91-1.47,1.4-1.23,2.39-.21,2.46,2.54,3.12,5.7,3.15,9.19,7.06-4.31,11.22-10.26,12-18.44.06-.66-.15-1.74.67-1.88.54-.1,1.32.52,1.82,1,3.15,3,4.23,6.95,4.78,11.09a46,46,0,0,1,.21,9.14c4.65-2.57,8-5.84,10-10.49a58.69,58.69,0,0,0,2.67-9.29,25.93,25.93,0,0,1,1.91-6.09c5.66,6.23,10.13,12.79,10.26,21.44.1,6.63-2.44,12.43-5.84,17.91-.9,1.44-.7,2,.65,2.94-1.74,3.21-3.33,6.35-4.72,9.51-.55-.15-1.09.1-1.78.9a27.07,27.07,0,0,1-9,6.39c-8.93,4.29-18.53,5.87-28.28,6.39a138.34,138.34,0,0,1-48.57-6.34,3.17,3.17,0,0,0-.9-.17c-1.33-2-2.72-4-4.13-5.94A67.2,67.2,0,0,1,1163.57,67.42Z"/><path class="cls-2" d="M1149.07,232.68c13.76-22.64,34.9-36.33,56.26-33.84,33.85,3.94,56.68,46.76,51,95.63s-37.75,85.29-71.6,81.35c-19.28-2.24-35-17.11-43.85-38.5a33,33,0,0,1-2-10.64c.16-61.28,6-87.64,10.24-94"/><path class="cls-2" d="M1127.82,182.2a7.73,7.73,0,0,1,6.13,5.64,8.44,8.44,0,0,1,1.14,1.65c3.07,5.89,5,12.38,9.33,17.49,3.78,4.39,8.39,7.5,13.32,10.46a4.77,4.77,0,0,1,1.89,1.59c2.61,1.76,3,9.23,2.12,12,17.37,10.12,38.25,10.22,58.9,6,46.84-9.52,76.55-57.83,66.37-107.89s-56.4-82.93-103.24-73.4-76.55,57.83-66.37,107.89a99.29,99.29,0,0,0,5,16.83"/><path class="cls-2" d="M1272.25,437.25c2.25-6.31-2.64-10.25-8.14-12.74-1.71-.78-4.52-1.2-6.74-2s-5.45-1.88-7.81-2.8c.11-.64-.57-.94-.41-1.57-10.08-1.55-19.9-3-29.7-5.94-.86,1-1.92,1.32-2.85,2.28-5.42,5.62-5,10.78.61,16.24a14.08,14.08,0,0,0,3.19,2.1c12.52,4.92,25.67,7.33,38.52,9.65C1265.2,443.59,1270,443.55,1272.25,437.25Z"/><ellipse class="cls-3" cx="1235.25" cy="281.62" rx="18.43" ry="55.95"/><path class="cls-2" d="M1263,390.39c7-14.24,8.21-26.25-2.18-40.25-5-6.79-19.45-10.44-27.76-13.61-2.39-.9-4.58-1.5-6.57-2.86-1.89,2.45-2.75,5.1-4.7,7.56-2.92,3.68-6.32,6.26-9.76,9.79a158.58,158.58,0,0,0-19.08,24.62,49.4,49.4,0,0,1,7.62.1c9.87,1.21,19.59,1.72,29-.08,3.26-.62,4-.17,3.41,2.95-1.68,9-6,17.71-9,26.68-1.09,3.26-4.27,6.47-6.08,9.48,10.64,2.32,21.42,3.6,32.28,5.24C1253.67,409.38,1258.05,400.49,1263,390.39Z"/><path class="cls-2" d="M1118.58,331.74c.1.3.2.6.28.91,0,.07,0,.15.07.24,5.08,17.8,31.8,12.18,29.32-6.16-.16-1.17-.38-2.39-.69-3.69-.12-.53-.22-1.08-.29-1.62-.45-3.79,2.64-31,3.81-41.08a15.69,15.69,0,0,1,1.84-5.8c4.91-8.94,20.08-43.52,15.14-43.53h0s-1.72-.29-4.14-1c-5.61-1.58-10.88.92-15.48,4.51-9.86,7.69-29.45,20.66-31.65,43.86C1112.92,295.1,1115.85,313.14,1118.58,331.74Z"/><ellipse class="cls-3" cx="1228.58" cy="136.06" rx="33.64" ry="42.5"/><ellipse class="cls-3" cx="1253.87" cy="135.66" rx="32.68" ry="43.63"/><ellipse class="cls-3" cx="1241.96" cy="175.31" rx="29.99" ry="37.42"/><ellipse class="cls-3" cx="1118.91" cy="144.94" rx="17.66" ry="28.69"/><circle class="cls-4" cx="1269.52" cy="137.74" r="14.59"/><circle cx="1270.73" cy="138.96" r="12.16"/><ellipse class="cls-4" cx="1274.99" cy="136.52" rx="3.04" ry="6.08"/><ellipse class="cls-4" cx="1269.52" cy="144.43" rx="3.65" ry="1.82"/><circle class="cls-4" cx="1235.47" cy="139.36" r="16.21"/><circle cx="1236.82" cy="140.71" r="13.51"/><ellipse class="cls-4" cx="1241.55" cy="138.01" rx="3.38" ry="6.76"/><ellipse class="cls-4" cx="1235.47" cy="146.79" rx="4.05" ry="2.03"/><path class="cls-5" d="M1265.48,178.1c-13.69.43-27.89,1.29-33-5.43"/><path class="cls-1" d="M1192.13,449.05c.23-6.74-5.06-7.93-9.8-10.7-1.47-.86-3.82-1.13-5.7-1.67s-4.37-1-6.34-1.51a14.84,14.84,0,0,1-.52-1.55c-10-1.89-20-3.63-29.91-6.24-.78,1-2.1,1.29-2.83,2.36-4.3,6.27-3.88,10.47,1.23,16.36a8,8,0,0,0,3.22,2c22,7.52,24,9.75,40.67,9.09C1190.32,456.86,1191.91,455.78,1192.13,449.05Z"/><path class="cls-2" d="M1645.44,426.19c-.35-6.69-6.38-8.44-12.42-8.62-1.88-.06-4.63.64-7,.74s-5.76.37-8.29.43c-.15-.63-.89-.65-1-1.29-9.9,2.46-19.5,4.95-29.69,6-.43,1.23-1.27,2-1.76,3.21-2.83,7.26-.49,11.88,6.83,14.74a13.94,13.94,0,0,0,3.75.7c13.45-.29,26.52-3.13,39.26-5.95C1641.39,434.75,1645.8,432.87,1645.44,426.19Z"/><path class="cls-2" d="M1624,396.77c-2.14-13.61-4.55-22.25-11.74-34.87-3.48-6.12-12.58-14.88-19.61-18.9a33.92,33.92,0,0,1-5.92-3.83c-2.42,2.07-3.89,4.51-6.3,6.66-3.58,3.2-7.4,5.4-11.31,8.56a149.07,149.07,0,0,0-22.06,22.77,47.19,47.19,0,0,1,7.66.6c9.38,1.65,19,2.36,26.26,8.15,2.53,2,2.84,3.26,3.75,5.84,2.62,7.45,4.86,14.25,6,22.33.41,2.92-2.52,7-3.86,9.75,10.93,1,21.83,2,32.88,2C1622.37,416.45,1625.51,406.41,1624,396.77Z"/><path class="cls-1" d="M1528.56,421.68a135.79,135.79,0,0,0,15.49-35.51c1.82-6.47.16-14.15-.57-21.12-.21-2-1-5.17-.7-7.35-2.88-.23-5.48.93-8.38.52-4.3-.61-8-1.92-12.26-3.3-8.92-2.86-18.26-6-27.48-8.19a29.08,29.08,0,0,1,2.94,7.11c1.81,10.22,6.49,19.65,6.59,29.69,0,3.49-.9,4.38-1.41,7.73-1.47,9.7-9.69,20.16-14.72,28.86-1.83,3.15-4.61,5.58-7.22,8.11,8.53,5.73,16.89,11.51,26.07,16.26C1514.87,438.08,1523.46,430.2,1528.56,421.68Z"/><path class="cls-1" d="M1627,306.55c.32,0,.63-.06,1-.07h.22c18.51-.93,19.08-28.25.62-30-1.17-.11-2.42-.16-3.76-.16a12.78,12.78,0,0,1-1.64-.08c-3.8-.41-29.63-9.53-39.17-12.93a16,16,0,0,1-5.25-3.11c-7.61-6.79-37.9-29.33-39-24.52h0s-.68,1.61-1.88,3.81a15.08,15.08,0,0,0,.91,16.1c7.72,10.75,20.46,29,36.55,37.82C1590.92,301,1608.24,305,1627,306.55Z"/><circle class="cls-2" cx="1479.31" cy="143.91" r="43.03"/><path class="cls-2" d="M1513.57,69.42c7-3.5,13.93-7.1,20.56-11.25,4.45-2.78,8.93-5.6,11.78-10.2.91-1.47,1.4-1.23,2.39-.21,2.46,2.54,3.12,5.7,3.15,9.19,7.06-4.31,11.22-10.26,12-18.44.06-.66-.15-1.74.67-1.88.54-.1,1.32.52,1.82,1,3.15,3,4.23,6.95,4.78,11.09a46,46,0,0,1,.21,9.14c4.65-2.57,8-5.84,10-10.49a58.69,58.69,0,0,0,2.67-9.29,25.93,25.93,0,0,1,1.91-6.09c5.66,6.23,10.13,12.79,10.26,21.44.1,6.63-2.44,12.43-5.84,17.91-.9,1.44-.7,2,.65,2.94-1.74,3.21-3.33,6.35-4.72,9.51-.55-.15-1.09.1-1.78.9a27.07,27.07,0,0,1-9,6.39c-8.93,4.29-18.53,5.87-28.28,6.39a138.34,138.34,0,0,1-48.57-6.34,3.17,3.17,0,0,0-.9-.17c-1.33-2-2.72-4-4.13-5.94A67.2,67.2,0,0,1,1513.57,69.42Z"/><path class="cls-2" d="M1499.07,234.68c13.76-22.64,34.9-36.33,56.26-33.84,33.85,3.94,56.68,46.76,51,95.63s-37.75,85.29-71.6,81.35c-19.28-2.24-35-17.11-43.85-38.5a33,33,0,0,1-2-10.64c.16-61.28,6-87.64,10.24-94"/><path class="cls-2" d="M1477.82,184.2a7.73,7.73,0,0,1,6.13,5.64,8.44,8.44,0,0,1,1.14,1.65c3.07,5.89,5,12.38,9.33,17.49,3.78,4.39,8.39,7.5,13.32,10.46a4.77,4.77,0,0,1,1.89,1.59c2.61,1.76,3,9.23,2.12,12,17.37,10.12,38.25,10.22,58.9,6,46.84-9.52,76.55-57.83,66.37-107.89s-56.4-82.93-103.24-73.4-76.55,57.83-66.37,107.89a99.29,99.29,0,0,0,5,16.83"/><ellipse class="cls-3" cx="1585.25" cy="283.62" rx="18.43" ry="55.95"/><path class="cls-2" d="M1454.36,315.77c0,.32,0,.63,0,1,0,.07,0,.16,0,.25-1,18.49,26.07,21.93,29.73,3.78.23-1.15.42-2.39.55-3.71a14.94,14.94,0,0,1,.26-1.63c.81-3.73,12.65-28.45,17-37.57a15.82,15.82,0,0,1,3.64-4.87c7.57-6.84,33.22-34.56,28.56-36.18h0s-1.53-.84-3.59-2.28c-4.78-3.33-10.59-2.7-16.11-.81-11.83,4-34.59,9.89-44.26,31.09C1461,279.3,1457.87,297.3,1454.36,315.77Z"/><ellipse class="cls-3" cx="1578.58" cy="138.06" rx="33.64" ry="42.5"/><ellipse class="cls-3" cx="1603.87" cy="137.66" rx="32.68" ry="43.63"/><ellipse class="cls-3" cx="1591.96" cy="177.31" rx="29.99" ry="37.42"/><ellipse class="cls-3" cx="1468.91" cy="146.94" rx="17.66" ry="28.69"/><circle class="cls-4" cx="1619.52" cy="139.74" r="14.59"/><circle cx="1620.73" cy="140.96" r="12.16"/><ellipse class="cls-4" cx="1624.99" cy="138.52" rx="3.04" ry="6.08"/><ellipse class="cls-4" cx="1619.52" cy="146.43" rx="3.65" ry="1.82"/><circle class="cls-4" cx="1585.47" cy="141.36" r="16.21"/><circle cx="1586.82" cy="142.71" r="13.51"/><ellipse class="cls-4" cx="1591.55" cy="140.01" rx="3.38" ry="6.76"/><ellipse class="cls-4" cx="1585.47" cy="148.79" rx="4.05" ry="2.03"/><path class="cls-5" d="M1615.48,180.1c-13.69.43-27.89,1.29-33-5.43"/><path class="cls-1" d="M1534.57,449.72c-1.19-7.18-4.93-7.5-10.56-10.25a52.19,52.19,0,0,0-5.52-2c-1.92-.68-4.15-1.26-6.14-1.88-.15-.54-.4-1-.5-1.58-10-2.21-20-4.15-30-6.65-.77,1-2.15,1.3-2.81,2.39-3.88,6.37-3.44,10.48,1.25,16.39a8.93,8.93,0,0,0,3.12,1.95c13.52,4.4,26.82,11.32,41.32,11.54C1531.84,459.73,1535.77,456.9,1534.57,449.72Z"/><path class="cls-1" d="M1895.22,393.24a55.81,55.81,0,0,0,1.34-25.53c-.46-2.43-1.49-6.73-1-7.79-2.91-1.17-4.6-.13-7.49-1.3-4.31-1.74-8.16-4.3-12.39-6.19-8.78-3.93-5.71.47-15.22-1.55.72,1.52-5.18-6-5.09-4.23.42,8.79-6.2,20.83-5.54,29.6.23,3.05-.18,4.44-3.77,4.7a80.84,80.84,0,0,0-29.54,8.36,26.69,26.69,0,0,1-8.7,2.88c7.27,7.55,11.83,17.59,16.46,26.92a99.59,99.59,0,0,0,36.6.67C1877.36,417.27,1890.37,410.61,1895.22,393.24Z"/><path class="cls-1" d="M1842.74,439c2.43-5.68-1.56-8.1-5-12.28-1.06-1.3-2.33-2.83-3.57-4.44s-3-4-4.28-5.74c.44,0,.92,0,1.38.05-7.35-8-14.67-16-21.48-24.55-1.22.35-2.38-.12-3.68.2-8.47,2.12-13.22,8.18-8.46,16.86a106.94,106.94,0,0,0,29.79,34.3,10.48,10.48,0,0,0,3.82,1.49,5.81,5.81,0,0,0,5.38-.93C1838.72,442.37,1841.76,441.27,1842.74,439Z"/><path class="cls-2" d="M1967,403.11c-1.14-14.33-4-24.39-10.6-37-3.19-6.11-9.55-10.95-15.29-15.42-1.65-1.28-4.56-3.26-5.81-5.2-2.35,1.7-3.41,4.55-5.84,6.11-3.63,2.31-7,3.3-11.15,4.95-8.65,3.43-18.14,6.55-26.53,10.92,2.22,1,5.38,2.4,7,4A77.73,77.73,0,0,0,1925.32,388c3.56,1.37,3.71,2.37,3.66,6.36-.15,11.55,1.93,23.22,4.57,34.69,1,4.15-1.3,8-2.29,12,10.79-1.51,21.56-3,32.23-5.56A93.68,93.68,0,0,0,1967,403.11Z"/><path class="cls-1" d="M1963.92,331.07c.3.1.59.21.89.33l.2.08c17.24,6.83,29.07-17.81,13-27-1-.58-2.14-1.15-3.35-1.7a14.62,14.62,0,0,1-1.47-.76c-3.28-1.94-23-20.95-30.28-28a15.82,15.82,0,0,1-3.49-5c-4.12-9.35-22.34-42.41-25.35-38.49h0s-1.28,1.19-3.29,2.69a15.09,15.09,0,0,0-5.84,15c2.57,13,6.6,34.87,17.6,49.56C1933.42,311,1947.49,321.93,1963.92,331.07Z"/><circle class="cls-2" cx="1829.31" cy="140.91" r="43.03"/><path class="cls-2" d="M1863.57,66.42c7-3.5,13.93-7.1,20.56-11.25,4.45-2.78,8.93-5.6,11.78-10.2.91-1.47,1.4-1.23,2.39-.21,2.46,2.54,3.12,5.7,3.15,9.19,7.06-4.31,11.22-10.26,12-18.44.06-.66-.15-1.74.67-1.88.54-.1,1.32.52,1.82,1,3.15,3,4.23,6.95,4.78,11.09a46,46,0,0,1,.21,9.14c4.65-2.57,8-5.84,10-10.49a58.69,58.69,0,0,0,2.67-9.29,25.93,25.93,0,0,1,1.91-6.09c5.66,6.23,10.13,12.79,10.26,21.44.1,6.63-2.44,12.43-5.84,17.91-.9,1.44-.7,2,.65,2.94-1.74,3.21-3.33,6.35-4.72,9.51-.55-.15-1.09.1-1.78.9a27.07,27.07,0,0,1-9,6.39c-8.93,4.29-18.53,5.87-28.28,6.39a138.34,138.34,0,0,1-48.57-6.34,3.17,3.17,0,0,0-.9-.17c-1.33-2-2.72-4-4.13-5.94A67.2,67.2,0,0,1,1863.57,66.42Z"/><path class="cls-2" d="M1849.07,231.68c13.76-22.64,34.9-36.33,56.26-33.84,33.85,3.94,56.68,46.76,51,95.63s-37.75,85.29-71.6,81.35c-19.28-2.24-35-17.11-43.85-38.5a33,33,0,0,1-2-10.64c.16-61.28,6-87.64,10.24-94"/><path class="cls-2" d="M1827.82,181.2a7.73,7.73,0,0,1,6.13,5.64,8.44,8.44,0,0,1,1.14,1.65c3.07,5.89,5,12.38,9.33,17.49,3.78,4.39,8.39,7.5,13.32,10.46a4.77,4.77,0,0,1,1.89,1.59c2.61,1.76,3,9.23,2.12,12,17.37,10.12,38.25,10.22,58.9,6,46.84-9.52,76.55-57.83,66.37-107.89s-56.4-82.93-103.24-73.4-76.55,57.83-66.37,107.89a99.29,99.29,0,0,0,5,16.83"/><path class="cls-2" d="M1990.26,442.27c-1.91-5.34-8-6.51-13.56-7.17a31.34,31.34,0,0,0-5.82.21c-2,.17-4.54.53-6.62.65-.13-.62-.86-.69-1-1.31-10,1.29-20.13,2.64-30.21,2.84-.53,1.2-1.46,1.83-2,3-3.39,7.11-1.09,11.85,6,15.26a11.83,11.83,0,0,0,3.7,1c14.59.05,33.16,1.85,45.29-3.33C1991.92,450.91,1992.17,447.61,1990.26,442.27Z"/><ellipse class="cls-3" cx="1935.25" cy="280.62" rx="18.43" ry="55.95"/><path class="cls-2" d="M1806.09,323.82c.07.31.14.61.19.93,0,.07,0,.15,0,.24,3.22,18.24,30.37,15.41,29.8-3.09a36.55,36.55,0,0,0-.3-3.74,15.07,15.07,0,0,1-.12-1.64c-.06-3.82,5.83-30.59,8-40.47a15.72,15.72,0,0,1,2.43-5.58c5.81-8.38,24.47-41.21,19.56-41.73h0s-1.68-.47-4-1.4c-5.42-2.16-10.93-.21-15.87,2.88-10.6,6.64-31.42,17.51-36,40.36C1804.25,286.79,1805.3,305,1806.09,323.82Z"/><ellipse class="cls-3" cx="1928.58" cy="135.06" rx="33.64" ry="42.5"/><ellipse class="cls-3" cx="1953.87" cy="134.66" rx="32.68" ry="43.63"/><ellipse class="cls-3" cx="1941.96" cy="174.31" rx="29.99" ry="37.42"/><ellipse class="cls-3" cx="1818.91" cy="143.94" rx="17.66" ry="28.69"/><circle class="cls-4" cx="1969.52" cy="136.74" r="14.59"/><circle cx="1970.73" cy="137.96" r="12.16"/><ellipse class="cls-4" cx="1974.99" cy="135.52" rx="3.04" ry="6.08"/><ellipse class="cls-4" cx="1969.52" cy="143.43" rx="3.65" ry="1.82"/><circle class="cls-4" cx="1935.47" cy="138.36" r="16.21"/><circle cx="1936.82" cy="139.71" r="13.51"/><ellipse class="cls-4" cx="1941.55" cy="137.01" rx="3.38" ry="6.76"/><ellipse class="cls-4" cx="1935.47" cy="145.79" rx="4.05" ry="2.03"/><path class="cls-5" d="M1965.48,177.1c-13.69.43-27.89,1.29-33-5.43"/><path class="cls-1" d="M2262.15,421.83a102.05,102.05,0,0,0,4.13-38.87c-.51-6.85-4.87-13.55-8.2-19.89-1-1.81-2.85-4.6-3.31-6.81-2.79.72-4.91,2.8-7.76,3.31-4.24.75-7.87.52-12.33.47-9.27-.09-19.12-.45-28.49.2a30.67,30.67,0,0,1,4.89,6.15c5,9.72,11.15,17.57,18.38,25.44,2.51,2.74,2.33,3.83,1,7.44-3.84,10.42-6.52,22.14-8.58,33.09-.75,4-2.7,6.63-4.49,10,9.86,2.91,19.55,5.91,29.75,7.72C2253,441.54,2259.33,431.54,2262.15,421.83Z"/><path class="cls-1" d="M2277.26,442.27c-1.91-5.34-8-6.51-13.56-7.17a31.34,31.34,0,0,0-5.82.21c-2,.17-4.54.53-6.62.65-.13-.62-.86-.69-1-1.31-10,1.29-20.13,2.64-30.21,2.84-.53,1.2-1.46,1.83-2,3-3.39,7.11-1.09,11.85,5.95,15.26a11.83,11.83,0,0,0,3.7,1c14.59.05,33.16,1.85,45.29-3.33C2278.92,450.91,2279.17,447.61,2277.26,442.27Z"/><path class="cls-1" d="M2197.79,321c.13.29.25.58.36.88l.07.21c6.47,17.37,32.69,9.66,28.75-8.45-.25-1.15-.57-2.36-1-3.63a14.29,14.29,0,0,1-.42-1.59c-.75-3.74.15-31.13.52-41.24a15.59,15.59,0,0,1,1.38-5.94c4.18-9.32,16.53-45,11.61-44.6h0s-1.74-.16-4.2-.64a15.1,15.1,0,0,0-15.08,5.72c-7.91,10.6-21.48,28.26-25,46.26C2192.25,284.91,2193.59,302.65,2197.79,321Z"/><circle class="cls-2" cx="2179.31" cy="141.91" r="43.03"/><path class="cls-2" d="M2213.57,67.42c7-3.5,13.93-7.1,20.56-11.25,4.45-2.78,8.93-5.6,11.78-10.2.91-1.47,1.4-1.23,2.39-.21,2.46,2.54,3.12,5.7,3.15,9.19,7.06-4.31,11.22-10.26,12-18.44.06-.66-.15-1.74.67-1.88.54-.1,1.32.52,1.82,1,3.15,3,4.23,6.95,4.78,11.09a46,46,0,0,1,.21,9.14c4.65-2.57,8-5.84,10-10.49a58.69,58.69,0,0,0,2.67-9.29,25.93,25.93,0,0,1,1.91-6.09c5.66,6.23,10.13,12.79,10.26,21.44.1,6.63-2.44,12.43-5.84,17.91-.9,1.44-.7,2,.65,2.94-1.74,3.21-3.33,6.35-4.72,9.51-.55-.15-1.09.1-1.78.9a27.07,27.07,0,0,1-9,6.39c-8.93,4.29-18.53,5.87-28.28,6.39a138.34,138.34,0,0,1-48.57-6.34,3.17,3.17,0,0,0-.9-.17c-1.33-2-2.72-4-4.13-5.94A67.2,67.2,0,0,1,2213.57,67.42Z"/><path class="cls-2" d="M2199.07,232.68c13.76-22.64,34.9-36.33,56.26-33.84,33.85,3.94,56.68,46.76,51,95.63s-37.75,85.29-71.6,81.35c-19.28-2.24-35-17.11-43.85-38.5a33,33,0,0,1-2-10.64c.16-61.28,6-87.64,10.24-94"/><path class="cls-2" d="M2177.82,182.2a7.73,7.73,0,0,1,6.13,5.64,8.44,8.44,0,0,1,1.14,1.65c3.07,5.89,4.95,12.38,9.33,17.49,3.78,4.39,8.39,7.5,13.32,10.46a4.77,4.77,0,0,1,1.89,1.59c2.61,1.76,3,9.23,2.12,12,17.37,10.12,38.25,10.22,58.9,6,46.84-9.52,76.55-57.83,66.37-107.89s-56.4-82.93-103.24-73.4-76.55,57.83-66.37,107.89a99.29,99.29,0,0,0,5,16.83"/><ellipse class="cls-3" cx="2285.25" cy="281.62" rx="18.43" ry="55.95"/><path class="cls-2" d="M2290.59,323.7c.3.1.6.2.89.32l.24.09c17.26,6.68,28.9-18,12.77-27.1-1-.58-2.14-1.14-3.36-1.68-.5-.22-1-.47-1.47-.74-3.29-1.93-23.16-20.82-30.47-27.81a15.92,15.92,0,0,1-3.51-5c-4.17-9.31-22.61-42.27-25.59-38.33h0s-1.28,1.19-3.28,2.71c-4.65,3.52-5.84,9.23-5.75,15.07.2,12.5-1.27,35.95,15.91,51.69C2258,306.11,2274.11,314.66,2290.59,323.7Z"/><ellipse class="cls-3" cx="2278.58" cy="136.06" rx="33.64" ry="42.5"/><ellipse class="cls-3" cx="2303.87" cy="135.66" rx="32.68" ry="43.63"/><ellipse class="cls-3" cx="2291.96" cy="175.31" rx="29.99" ry="37.42"/><ellipse class="cls-3" cx="2168.91" cy="144.94" rx="17.66" ry="28.69"/><circle class="cls-4" cx="2319.52" cy="137.74" r="14.59"/><circle cx="2320.73" cy="138.96" r="12.16"/><ellipse class="cls-4" cx="2324.99" cy="136.52" rx="3.04" ry="6.08"/><ellipse class="cls-4" cx="2319.52" cy="144.43" rx="3.65" ry="1.82"/><circle class="cls-4" cx="2285.47" cy="139.36" r="16.21"/><circle cx="2286.82" cy="140.71" r="13.51"/><ellipse class="cls-4" cx="2291.55" cy="138.01" rx="3.38" ry="6.76"/><ellipse class="cls-4" cx="2285.47" cy="146.79" rx="4.05" ry="2.03"/><path class="cls-5" d="M2315.48,178.1c-13.69.43-27.89,1.29-33-5.43"/><path class="cls-2" d="M2277.43,388.44c2.82-8.24,2.41-17.1,1.48-25.67-.27-2.46-1.56-5.33-.85-7.79-2.44-.87-5.08-.44-7.52-1.39-3.63-1.4-9.15-4.81-12.18-6.09-6.28-2.65-9.25-.53-15.33-1.74.43.92-4.76-5.85-4.9-3.93-.67,9.39-5,19.74-5.06,29.35,0,3.34-.51,4.39-3.59,4.7-8.92.89-16.84,2.13-25.39,5.07a33,33,0,0,1-8.87,2c6.65,8.82,6.69,20,10.72,30.15,12.32,2.58,24.69,3.66,37.17,1.67C2260.34,412,2271.63,405.43,2277.43,388.44Z"/><path class="cls-2" d="M2219.75,438.75c3.68-5,1.6-8.2.62-13.81a55.75,55.75,0,0,0-1.35-6c-.66-2.29-1.56-6.23-2.12-8.85a4.84,4.84,0,0,1,1.19.66c-6.65-9.88-11.73-15.21-16.94-26.73-1.23.06-2.35-.79-3.62-.64-8.31,1-14.08,4.69-12.08,13.94,3.16,14.61,10.7,27.4,17.31,40.79.62,1.26,2.66,2.54,3.69,3.28a5.79,5.79,0,0,0,5.77.86C2214.71,441.23,2218.29,440.74,2219.75,438.75Z"/><path class="cls-1" d="M2673.25,437.25c2.25-6.31-2.64-10.25-8.14-12.74-1.71-.78-4.52-1.2-6.74-2s-5.45-1.88-7.81-2.8c.11-.64-.57-.94-.41-1.57-10.08-1.55-19.9-3-29.7-5.94-.86,1-1.92,1.32-2.85,2.28-5.42,5.62-5,10.78.61,16.24a14.08,14.08,0,0,0,3.19,2.1c12.52,4.92,25.67,7.33,38.52,9.65C2666.2,443.59,2671,443.55,2673.25,437.25Z"/><path class="cls-1" d="M2664,390.39c7-14.24,8.21-26.25-2.18-40.25-5-6.79-19.45-10.44-27.76-13.61-2.39-.9-4.58-1.5-6.57-2.86-1.89,2.45-2.75,5.1-4.7,7.56-2.92,3.68-6.32,6.26-9.76,9.79a158.58,158.58,0,0,0-19.08,24.62,49.4,49.4,0,0,1,7.62.1c9.87,1.21,19.59,1.72,29-.08,3.26-.62,4-.17,3.41,2.95-1.68,9-6,17.71-9,26.68-1.09,3.26-4.27,6.47-6.08,9.48,10.64,2.32,21.42,3.6,32.28,5.24C2654.67,409.38,2659.05,400.49,2664,390.39Z"/><path class="cls-2" d="M2585.56,423.68a135.79,135.79,0,0,0,15.49-35.51c1.82-6.47.16-14.15-.57-21.12-.21-2-1-5.17-.7-7.35-2.88-.23-5.48.93-8.38.52-4.3-.61-8-1.92-12.26-3.3-8.92-2.86-18.26-6-27.48-8.19a29.08,29.08,0,0,1,2.94,7.11c1.81,10.22,6.49,19.65,6.59,29.69,0,3.49-.9,4.38-1.41,7.73-1.47,9.7-9.69,20.16-14.72,28.86-1.83,3.15-4.61,5.58-7.22,8.11,8.53,5.73,16.89,11.51,26.07,16.26C2571.87,440.08,2580.46,432.2,2585.56,423.68Z"/><path class="cls-1" d="M2509.52,306.88c0,.32,0,.63,0,.95v.22c-.18,18.54,27.06,20.73,29.87,2.41.17-1.16.3-2.41.38-3.74a15,15,0,0,1,.18-1.64c.63-3.76,11.28-29,15.25-38.32a15.75,15.75,0,0,1,3.41-5.05c7.24-7.2,31.55-36.08,26.82-37.48h0s-1.58-.77-3.7-2.11a15.09,15.09,0,0,0-16.13-.05c-11.18,7.06-30.17,18.69-39.93,34.23C2517.25,271.22,2512.15,288.27,2509.52,306.88Z"/><circle class="cls-2" cx="2530.31" cy="141.91" r="43.03"/><path class="cls-2" d="M2564.57,67.42c7-3.5,13.93-7.1,20.56-11.25,4.45-2.78,8.93-5.6,11.78-10.2.91-1.47,1.4-1.23,2.39-.21,2.46,2.54,3.12,5.7,3.15,9.19,7.06-4.31,11.22-10.26,12-18.44.06-.66-.15-1.74.67-1.88.54-.1,1.32.52,1.82,1,3.15,3,4.23,6.95,4.78,11.09a46,46,0,0,1,.21,9.14c4.65-2.57,8-5.84,10-10.49a58.69,58.69,0,0,0,2.67-9.29,25.93,25.93,0,0,1,1.91-6.09c5.66,6.23,10.13,12.79,10.26,21.44.1,6.63-2.44,12.43-5.84,17.91-.9,1.44-.7,2,.65,2.94-1.74,3.21-3.33,6.35-4.72,9.51-.55-.15-1.09.1-1.78.9a27.07,27.07,0,0,1-9,6.39c-8.93,4.29-18.53,5.87-28.28,6.39a138.34,138.34,0,0,1-48.57-6.34,3.17,3.17,0,0,0-.9-.17c-1.33-2-2.72-4-4.13-5.94A67.2,67.2,0,0,1,2564.57,67.42Z"/><path class="cls-2" d="M2550.07,232.68c13.76-22.64,34.9-36.33,56.26-33.84,33.85,3.94,56.68,46.76,51,95.63s-37.75,85.29-71.6,81.35c-19.28-2.24-35-17.11-43.85-38.5a33,33,0,0,1-2-10.64c.16-61.28,6-87.64,10.24-94"/><path class="cls-2" d="M2528.82,182.2a7.73,7.73,0,0,1,6.13,5.64,8.44,8.44,0,0,1,1.14,1.65c3.07,5.89,4.95,12.38,9.33,17.49,3.78,4.39,8.39,7.5,13.32,10.46a4.77,4.77,0,0,1,1.89,1.59c2.61,1.76,3,9.23,2.12,12,17.37,10.12,38.25,10.22,58.9,6,46.84-9.52,76.55-57.83,66.37-107.89s-56.4-82.93-103.24-73.4-76.55,57.83-66.37,107.89a99.29,99.29,0,0,0,5,16.83"/><ellipse class="cls-3" cx="2636.25" cy="281.62" rx="18.43" ry="55.95"/><path class="cls-2" d="M2661.37,329.93c.32.05.63.11,1,.18l.24.06c18.42,4.1,26.94-23.65,9.36-30.45a37.74,37.74,0,0,0-3.63-1.19,14.87,14.87,0,0,1-1.59-.54c-3.6-1.46-26.27-17.88-34.63-24a15.78,15.78,0,0,1-4.22-4.61c-5.48-9-28.58-40.39-31.08-35.78h0s-1.14,1.47-3,3.38c-4.25,4.45-4.69,10.63-3.82,16.7,1.86,13,3.48,37.78,23,51.37C2625.9,317,2643.43,323.23,2661.37,329.93Z"/><ellipse class="cls-3" cx="2629.58" cy="136.06" rx="33.64" ry="42.5"/><ellipse class="cls-3" cx="2654.87" cy="135.66" rx="32.68" ry="43.63"/><ellipse class="cls-3" cx="2642.96" cy="175.31" rx="29.99" ry="37.42"/><ellipse class="cls-3" cx="2519.91" cy="144.94" rx="17.66" ry="28.69"/><circle class="cls-4" cx="2670.52" cy="137.74" r="14.59"/><circle cx="2671.73" cy="138.96" r="12.16"/><ellipse class="cls-4" cx="2675.99" cy="136.52" rx="3.04" ry="6.08"/><ellipse class="cls-4" cx="2670.52" cy="144.43" rx="3.65" ry="1.82"/><circle class="cls-4" cx="2636.47" cy="139.36" r="16.21"/><circle cx="2637.82" cy="140.71" r="13.51"/><ellipse class="cls-4" cx="2642.55" cy="138.01" rx="3.38" ry="6.76"/><ellipse class="cls-4" cx="2636.47" cy="146.79" rx="4.05" ry="2.03"/><path class="cls-5" d="M2666.48,178.1c-13.69.43-27.89,1.29-33-5.43"/><path class="cls-2" d="M2593.13,449.05c.23-6.74-5.06-7.93-9.8-10.7-1.47-.86-3.82-1.13-5.7-1.67s-4.37-1-6.34-1.51a14.84,14.84,0,0,1-.52-1.55c-10-1.89-20-3.63-29.91-6.24-.78,1-2.1,1.29-2.83,2.36-4.3,6.27-3.88,10.47,1.23,16.36a8,8,0,0,0,3.22,2c22,7.52,24,9.75,40.67,9.09C2591.32,456.86,2592.91,455.78,2593.13,449.05Z"/></svg>
