<svg xmlns="http://www.w3.org/2000/svg" viewBox="0 0 474.18 653.39"><defs><style>.cls-1{fill:#291706;}.cls-2,.cls-4{fill:none;stroke-miterlimit:10;stroke-width:1.84px;}.cls-2{stroke:#8b6448;}.cls-3{fill:#8b6448;}.cls-4{stroke:#291706;}.cls-5{fill:#fff;}</style></defs><title>gorilla</title><g id="krop"><path class="cls-1" d="M105.29,88.17c1.53-10.25,4.89-20,7.08-30.06a9.08,9.08,0,0,1,2.85-5c30-26.12,90.6-61.72,163.44-51.28a8.62,8.62,0,0,1,5,2.49,4.42,4.42,0,0,1,1.37,4.43,11.11,11.11,0,0,0,7.28,13.9c17.28,5.5,35.82,13.58,14.18,18.14,0,0-3.68,3.68,3.68,5.52,0,0,32.65,6.53,46.24,28.38a9.09,9.09,0,0,1-7.66,13.94h-1.27A4.69,4.69,0,0,0,343,94.44c2,8.43,5.9,27.1,11.32,62.3A21.73,21.73,0,0,0,368.57,174l13.51,4.73a16.17,16.17,0,0,1,10.84,16.42,130.78,130.78,0,0,1-15.51,52.12,21.75,21.75,0,0,0,.87,22.11l46,71.43s23.48,38.51,36.89,69.9c0,0,11.93,25.21,10.22,84.24L474,618.63s0,25.76-38.64,29.44-97.53,3.68-97.53,3.68-13.78,0-21.79-15.36a9,9,0,0,0-8-4.88H281.72a8.74,8.74,0,0,1-2.1-.25c-4.53-1.08-20.82-6.13-22.71-23.1a10.68,10.68,0,0,1-.05-1.13v-18A9.06,9.06,0,0,0,247.8,580H227.28a9.06,9.06,0,0,0-9.07,9.06v13.81a8.53,8.53,0,0,1-.27,2.19c-1.33,5.2-8,26.24-27.33,24.62H166.22a9.12,9.12,0,0,0-8.46,5.83c-2.28,5.72-7.72,13.93-20.51,16.25-19.16,3.49-86.12.38-93.23,0-.42,0-.84,0-1.26,0-38-1.87-41.68-31.31-41.68-31.31-1.95-10.7-1.32-59-.3-102.07,0,0,5.41-99,18.5-123.92A185.35,185.35,0,0,1,35.8,365a7.31,7.31,0,0,0,.43-.7c3-5.45,39.91-72.24,55.28-89.46a31.3,31.3,0,0,0,7.37-15.55c3-17.39,7.87-50,5.25-65.77,0,0-2.06-29.8-4.27-59.26" transform="translate(0.19)"/><path class="cls-2" d="M159.33,629.67c0-5.29-1.69-32.55-39.08-57.49a37.09,37.09,0,0,0-6.16-3.49c-1.09-.45-2.6-1.72-2.6-5.26l-1.84-92v-3.68" transform="translate(0.19)"/><path class="cls-2" d="M313.9,630.59c0-5.25,1.67-30.48,38.24-55.09a40.37,40.37,0,0,1,7-4c1.08-.46,2.61-1.72,2.61-5.27l1.84-92V470.5" transform="translate(0.19)"/><path class="cls-3" d="M150.36,280.93c8.49,10.09,44.57,43.78,135.94,24.88,0,0,35-1.84,71.77-71.77a105.69,105.69,0,0,0,10.52-33.87,6.13,6.13,0,0,0-4.14-6.59c-11.86-4-47.39-12.77-118.26-5.58-.24,0-.47.05-.71.09-4.58.7-54.34,8.11-80.41,4.32a3.77,3.77,0,0,0-4.33,3.3c-1.67,15.18-7.72,69-11.28,80.36A5.13,5.13,0,0,0,150.36,280.93Z" transform="translate(0.19)"/><path class="cls-3" d="M161.78,176.48c1.29-9.9,4-36.88,1.47-76.87a5.09,5.09,0,0,1,3.11-5C179,89.31,225.14,72.87,267,92.81a5.16,5.16,0,0,0,5.1-.32c6.5-4.33,25.84-14.52,48.92-1.4a5.17,5.17,0,0,1,2.55,3.5c2.6,13.41,16.12,82.41,14.28,84.25s-62.4-7.34-99.22,1.8l-.29.06c-2.84.48-48.07,7.94-72.74,1.39A5.13,5.13,0,0,1,161.78,176.48Z" transform="translate(0.19)"/><path class="cls-3" d="M120.69,410.69S98.61,521.1,159.33,543.18c0,0,64.4,38.65,130.65,11.05,0,0,58.88-11.05,64.4-64.41l1.84-68.08s3.69-44.17-69.92-55.21S135.41,364.69,120.69,410.69Z" transform="translate(0.19)"/><path class="cls-4" d="M237.49,483.38s14.73,5.52,9.21,12.88a28.33,28.33,0,0,1-5,5.28,8,8,0,0,1-6.92,1.41l-1.92-.48a6.21,6.21,0,0,1-4-3.24l-1.28-2.55a4.5,4.5,0,0,1,.35-4.65c1.41-2,3.65-4.25,5.88-3.13,3.68,1.84,7.37,1.84,7.37,5.52s-5.53,3.68-5.53,3.68" transform="translate(0.19)"/><circle class="cls-5" cx="286.35" cy="138.22" r="19.46"/><circle cx="287.97" cy="139.84" r="16.22"/><ellipse class="cls-5" cx="293.65" cy="136.59" rx="4.05" ry="8.11"/><ellipse class="cls-5" cx="286.35" cy="147.13" rx="4.86" ry="2.43"/><circle class="cls-5" cx="240.62" cy="138.22" r="19.46"/><circle cx="242.24" cy="139.84" r="16.22"/><ellipse class="cls-5" cx="247.92" cy="136.59" rx="4.05" ry="8.11"/><ellipse class="cls-5" cx="240.62" cy="147.13" rx="4.86" ry="2.43"/></g></svg>
