<svg id="walk" xmlns="http://www.w3.org/2000/svg" width="2450" height="500" viewBox="0 0 2450 500"><defs><style>.cls-1{fill:#51301a;}.cls-2{fill:#8b6448;}.cls-3{fill:#291706;}.cls-4{fill:#fff;}</style></defs><title>Gorillaspriteudenfarver</title><path class="cls-1" d="M215.69,372.79c-5.46,2.49-9.47,6.44-15.37,8,.7,7.76,1.32,15.29,2.11,22.81.21,2-1.18,2.65-2.23,3.7-4.75,4.76-7.79,12.7-3.54,19.65l29,0c4.46-.09,4.9-4.26,5.56-6.5,4.19-14.23,8.84-28.43,9.25-43.48.09-3.43.31-6.86.31-10.29a3.78,3.78,0,0,1,1.07-3c-6.91,2.13-13,5.82-19.6,8.63C220.24,373.3,217.71,372.29,215.69,372.79Z"/><path class="cls-2" d="M171.53,387.65s23.27-1.54,25.46-9l.72-9.51s1.46-6.16-27.64-7.71-59.65-.25-65.47,6.17c0,0-3.08,5.45-.54,10.51a10.58,10.58,0,0,0,3.29,3.79c2.55,1.89,6.51,3.43,12.53,4.21C119.88,386.11,145.34,391.5,171.53,387.65Z"/><path class="cls-3" d="M221.66,367c.39.14,7.19,7.18,7.33,7.47.37.8,0,2,0,2.84-.47,13.54,2.27,26.16,9.86,37.61,2.72,4.1,1.25,7.6-1.56,11.66-.87,1.25-3.34,3.09-2.8,5.05a8.42,8.42,0,0,0,4.64,5.63h34s6.37-1.08,7.51-5c3.49-12.07,4.52-24.39,1.24-36.53-3.07-11.34-6.64-22.54-9-34-.91-4.35-2.9-16.5-3.38-20.95C252.89,343.64,223.76,348.76,221.66,367Z"/><path class="cls-1" d="M84,369.91c1.86,2.89,5.5,27,6.94,29.95h.24A110.59,110.59,0,0,1,97,414.81c2,6.34,3.52,12.88,3.3,19.61-.1,2.83,1,3.42,3.56,3.39,10.82-.14,21.64,0,32.45-.1,4.45,0,5.31-1.52,3.88-5.84-.92-2.8-1.85-5.91-4.09-7.57-6.32-4.68-6.36-11-6-17.84.19-3.54.25-5.45,1-6.64h.37c.29-.31,7.48-8.47,7.95-8.69C124,392.79,97.42,378.28,84,369.91Z"/><path class="cls-3" d="M302.41,270.48l0-.05a1.33,1.33,0,0,1,0,.4,25.45,25.45,0,0,1-3,8.71C289,297.54,279,298,279,298c-26,4.87-36.21-3.81-38.62-6.4a1.21,1.21,0,0,1-.26-1.25c1-2.94,2.73-16.77,3.2-20.68a1.07,1.07,0,0,1,1.24-.85c7.4,1,21.54-.93,22.84-1.11l.21,0c20.14-1.85,30.23.4,33.6,1.43a1.71,1.71,0,0,1,.87.6,2.48,2.48,0,0,0-1.38-1.64l-8.13-2.85a5.52,5.52,0,0,1-3.64-4.4c-.09-.59-.18-1.16-.27-1.72-2.31,0-14.21-1.67-21.69.38h-.07c-.63.12-10.7,1.94-16.19.34a1.24,1.24,0,0,1-.84-1.37,111.93,111.93,0,0,0,.32-18.81,1.27,1.27,0,0,1,.69-1.23c2.82-1.29,13.09-5.31,22.4-.43a1.07,1.07,0,0,0,1.14-.08,9.4,9.4,0,0,1,10.76-.41,2.72,2.72,0,0,1,2.56-1.81H290a1.09,1.09,0,0,0,1.06-1.36c-2.91-10.52-17.78-13.5-17.78-13.5-2.59-.65-1.3-1.94-1.3-1.94,8.66-1.82-1-5.25-7.45-7.11a1.88,1.88,0,0,1-.77-3.19c1.74-1.51,0-2.77-.62-3.15a1,1,0,0,0-.41-.15c-37.37-5.68-65.69,23.3-65.05,26.52.42,2.08,1.64,18.37,2.45,29.7-.37,0-.74.07-1.12.08-8.85.34-14.83,4.82-19.2,12.49a73.68,73.68,0,0,1-15.51,18.39c-5.67,5-12.72,5.78-19.85,3.82-9.6-2.63-19.43-4-29.2-5.55-4.4-.72-8.49.5-12.28,2.76a82.4,82.4,0,0,0-28.81,28.73,29.07,29.07,0,0,1-1.76,2.37q-1.08,2.14-2.14,4.29A109.06,109.06,0,0,0,61,360.36a37.19,37.19,0,0,1,9.88,1c12,3.74,24.41,7.83,33.21,16.74-2.54-5.06.54-10.51.54-10.51,5.82-6.42,36.37-7.71,65.47-6.17s27.64,7.71,27.64,7.71l-.72,9.51c-2.19,7.46-25.46,9-25.46,9-26.19,3.85-51.65-1.54-51.65-1.54-6-.78-10-2.32-12.53-4.21.64.85,1.26,1.72,1.84,2.64l0-.14c1.58,2,3,4.07,4.34,6.13,13.38,8.36,31.16,9.59,46.55,7.93a26.66,26.66,0,0,1,5.12-1.38c3-.63,6-1.37,8.93-2.29s5.72-2.1,9.07-3.35v.15c5.9-1.56,9.91-5.51,15.37-8,2-.5,4.55.51,6.57-.5,6.56-2.81,12.69-6.5,19.6-8.63a3.64,3.64,0,0,1,2.17-.79,3.16,3.16,0,0,1,1.27.12c2.1-18.23,25.93-22.4,42.49-25.3,0-.39-.09-.76-.13-1.15-.79-2.41-.38-4.88-.35-7.34-.39-4.42-.81-8.85-1.16-13.28l-5.75-12.83,17.34-10.2.07,0,7-4.88C297.79,293.7,305.63,277.44,302.41,270.48Z"/><path class="cls-2" d="M301.22,269.13c-3.37-1-13.46-3.28-33.6-1.43l-.21,0c-1.3.18-15.44,2.09-22.84,1.11a1.07,1.07,0,0,0-1.24.85c-.47,3.91-2.19,17.74-3.2,20.68a1.21,1.21,0,0,0,.26,1.25c2.41,2.59,12.66,11.27,38.62,6.4,0,0,9.94-.47,20.4-18.47a25.45,25.45,0,0,0,3-8.71,1.33,1.33,0,0,0,0-.4,1.45,1.45,0,0,0-.3-.7A1.71,1.71,0,0,0,301.22,269.13Z"/><path class="cls-2" d="M274.43,237.93a1.07,1.07,0,0,1-1.14.08c-9.31-4.88-19.58-.86-22.4.43a1.27,1.27,0,0,0-.69,1.23,111.93,111.93,0,0,1-.32,18.81,1.24,1.24,0,0,0,.84,1.37c5.49,1.6,15.56-.22,16.19-.34H267c7.48-2.05,19.38-.35,21.69-.38.22,0,.36,0,.39-.06.41-.45-2.6-17.33-3.18-20.62a1.24,1.24,0,0,0-.56-.85l-.13-.07A9.4,9.4,0,0,0,274.43,237.93ZM261.3,256.17a7.78,7.78,0,1,1,7.78-7.78A7.78,7.78,0,0,1,261.3,256.17Zm18.28,0a7.78,7.78,0,1,1,7.77-7.78A7.78,7.78,0,0,1,279.58,256.17Z"/><path class="cls-4" d="M279.58,240.61a7.78,7.78,0,1,0,7.77,7.78A7.78,7.78,0,0,0,279.58,240.61Zm.64,14.91a6.48,6.48,0,1,1,6.49-6.48A6.48,6.48,0,0,1,280.22,255.52Z"/><path d="M280.22,242.56a6.48,6.48,0,1,0,6.49,6.48A6.48,6.48,0,0,0,280.22,242.56Zm-.64,10.37c-1.08,0-1.95-.44-1.95-1s.87-1,1.95-1,1.94.44,1.94,1S280.65,252.93,279.58,252.93Zm2.91-2c-.89,0-1.62-1.45-1.62-3.24s.73-3.24,1.62-3.24,1.62,1.45,1.62,3.24S283.39,251,282.49,251Z"/><path class="cls-4" d="M282.49,244.5c-.89,0-1.62,1.45-1.62,3.24s.73,3.24,1.62,3.24,1.62-1.45,1.62-3.24S283.39,244.5,282.49,244.5Z"/><path class="cls-4" d="M279.58,251c-1.08,0-1.95.44-1.95,1s.87,1,1.95,1,1.94-.44,1.94-1S280.65,251,279.58,251Z"/><path class="cls-4" d="M261.3,240.61a7.78,7.78,0,1,0,7.78,7.78A7.78,7.78,0,0,0,261.3,240.61Zm.65,14.91a6.48,6.48,0,1,1,6.48-6.48A6.48,6.48,0,0,1,262,255.52Z"/><path d="M262,242.56a6.48,6.48,0,1,0,6.48,6.48A6.48,6.48,0,0,0,262,242.56Zm-.65,10.37c-1.07,0-1.95-.44-1.95-1s.88-1,1.95-1,1.94.44,1.94,1S262.37,252.93,261.3,252.93Zm2.92-2c-.9,0-1.62-1.45-1.62-3.24s.72-3.24,1.62-3.24,1.62,1.45,1.62,3.24S265.11,251,264.22,251Z"/><path class="cls-4" d="M264.22,244.5c-.9,0-1.62,1.45-1.62,3.24s.72,3.24,1.62,3.24,1.62-1.45,1.62-3.24S265.11,244.5,264.22,244.5Z"/><ellipse class="cls-4" cx="261.3" cy="251.96" rx="1.94" ry="0.97"/><path class="cls-3" d="M70.93,360.6a36.8,36.8,0,0,0-9.89-1c-.18,1.43-.33,2.87-.44,4.33-.46,6.06-3.25,10.58-8.18,14.09a44.81,44.81,0,0,0-11.78,12.07c-1.29,2-2.85,4.15-3.14,6.38-1.27,9.66-3.87,19.08-5.27,28.68-1.16,8,2.74,11.74,10.91,11.76,9.76,0,19.53,0,29.3,0l9.35.25c1.48-2.6,0-7-1.26-8a6,6,0,0,1-4.12-2.23c-4.32-3.61-4.63-6.34-1-10.72,4.1-4.91,9.41-8.48,14.43-12.35,4.07-3.14,8.19-6.23,12.18-9.47,3.16-2.56,24.4-32.06,25.32-37.43C118.78,343.32,85.55,365.14,70.93,360.6Z"/><g id="Layer_2" data-name="Layer 2"><path class="cls-2" d="M521.56,387.63s23.28-1.55,25.46-9l.73-9.51s1.45-6.17-27.65-7.71-59.65-.25-65.46,6.17c0,0-3.09,5.44-.55,10.51a10.68,10.68,0,0,0,3.29,3.79c2.56,1.88,6.51,3.43,12.53,4.2C469.91,386.08,495.37,391.48,521.56,387.63Z"/><path class="cls-2" d="M651.25,269.11c-3.37-1-13.46-3.29-33.6-1.44l-.2,0c-1.31.18-15.44,2.08-22.85,1.11a1.05,1.05,0,0,0-1.23.85c-.48,3.9-2.2,17.74-3.21,20.68a1.23,1.23,0,0,0,.26,1.25c2.41,2.59,12.66,11.26,38.63,6.4,0,0,9.93-.47,20.39-18.47a25.55,25.55,0,0,0,3-8.71,1.78,1.78,0,0,0,0-.4,1.47,1.47,0,0,0-.3-.7A1.74,1.74,0,0,0,651.25,269.11Z"/><path class="cls-2" d="M624.46,237.91a1.07,1.07,0,0,1-1.14.08c-9.31-4.88-19.58-.86-22.39.42a1.28,1.28,0,0,0-.7,1.24,112,112,0,0,1-.32,18.81,1.24,1.24,0,0,0,.84,1.37c5.49,1.6,15.56-.22,16.19-.34H617c7.49-2.05,19.38-.35,21.69-.39a.75.75,0,0,0,.4-.06c.4-.45-2.6-17.33-3.18-20.61a1.29,1.29,0,0,0-.57-.85l-.13-.08A9.41,9.41,0,0,0,624.46,237.91Zm-13.13,18.24a7.78,7.78,0,1,1,7.78-7.78A7.78,7.78,0,0,1,611.33,256.15Zm18.28,0a7.78,7.78,0,1,1,7.78-7.78A7.78,7.78,0,0,1,629.61,256.15Z"/><path class="cls-4" d="M629.61,240.59a7.78,7.78,0,1,0,7.78,7.78A7.78,7.78,0,0,0,629.61,240.59Zm.65,14.91a6.48,6.48,0,1,1,6.48-6.48A6.49,6.49,0,0,1,630.26,255.5Z"/><path d="M630.26,242.54a6.48,6.48,0,1,0,6.48,6.48A6.49,6.49,0,0,0,630.26,242.54Zm-.65,10.37c-1.08,0-2-.44-2-1s.87-1,2-1,1.94.44,1.94,1S630.68,252.91,629.61,252.91Zm2.91-1.95c-.89,0-1.62-1.45-1.62-3.24s.73-3.24,1.62-3.24,1.62,1.45,1.62,3.24S633.42,251,632.52,251Z"/><path class="cls-4" d="M632.52,244.48c-.89,0-1.62,1.45-1.62,3.24s.73,3.24,1.62,3.24,1.62-1.45,1.62-3.24S633.42,244.48,632.52,244.48Z"/><path class="cls-4" d="M629.61,251c-1.08,0-2,.44-2,1s.87,1,2,1,1.94-.44,1.94-1S630.68,251,629.61,251Z"/><path class="cls-4" d="M611.33,240.59a7.78,7.78,0,1,0,7.78,7.78A7.78,7.78,0,0,0,611.33,240.59ZM612,255.5a6.48,6.48,0,1,1,6.48-6.48A6.48,6.48,0,0,1,612,255.5Z"/><path d="M612,242.54a6.48,6.48,0,1,0,6.48,6.48A6.48,6.48,0,0,0,612,242.54Zm-.65,10.37c-1.07,0-1.94-.44-1.94-1s.87-1,1.94-1,1.95.44,1.95,1S612.4,252.91,611.33,252.91Zm2.92-1.95c-.9,0-1.62-1.45-1.62-3.24s.72-3.24,1.62-3.24,1.62,1.45,1.62,3.24S615.14,251,614.25,251Z"/><path class="cls-4" d="M614.25,244.48c-.9,0-1.62,1.45-1.62,3.24s.72,3.24,1.62,3.24,1.62-1.45,1.62-3.24S615.14,244.48,614.25,244.48Z"/><ellipse class="cls-4" cx="611.33" cy="251.93" rx="1.94" ry="0.97"/><path class="cls-1" d="M414.57,348a27.83,27.83,0,0,1-2.54,9c.07.11.06-.17.15.15-4.61,9.79,4.5,36.3,5.58,46.16,1.34,12.29,4.11,19.74,4.28,29.61.07,4.15.85,3.64,3.49,3.91,11,1.1,22,.43,32.86.52,4.44,0,5.23-1.33,3.9-5.95-.86-3-.85-5-3.89-8.75-8.52-10.62-2.35-30.61.47-43.26,1.45-6.54,3-19.28,2.81-17.85,0,.12.21.16.26.24.17.25.37.4.54.64C460.2,361.58,436.56,374.75,414.57,348Z"/><path class="cls-3" d="M389.72,411c-1.16,8,2.74,11.73,10.9,11.75,9.77,0,19.54,0,29.3,0l9.36.24c1.48-2.59,0-7-1.26-8a6.07,6.07,0,0,1-4.13-2.24c-4.31-3.6-4.62-6.33-1-10.71,4.1-4.92,9.4-8.48,14.42-12.35,4.08-3.15,8.2-6.23,12.19-9.47,3.16-2.57,26.17-23.54,27.09-28.9-8.59-13.59-43.59-.3-58.21-4.84a36.81,36.81,0,0,0-9.89-1c-.18,1.43-.33,2.87-.44,4.32-.47,6.06,1.29,1.75-3.63,5.26"/><path class="cls-1" d="M586.28,361.44c-5.47,2.48-9.47,6.43-15.37,8,.7,7.76,1.32,15.29,2.11,22.8.21,2-1.19,2.66-2.23,3.7-4.75,4.76-7.8,12.71-3.54,19.65l29,0c4.47-.1,4.91-4.26,5.57-6.51,4.19-14.22,8.84-28.42,9.24-43.48.09-3.43.31-6.85.32-10.28a3.77,3.77,0,0,1,1.07-3c-6.91,2.13-13,5.81-19.61,8.62C590.82,361.94,588.3,360.93,586.28,361.44Z"/><path class="cls-3" d="M652.45,270.45l0,0a1.78,1.78,0,0,1,0,.4,25.55,25.55,0,0,1-3,8.71C639,297.52,629.05,298,629.05,298c-26,4.86-36.22-3.81-38.63-6.4a1.23,1.23,0,0,1-.26-1.25c1-2.94,2.73-16.78,3.21-20.68a1.05,1.05,0,0,1,1.23-.85c7.41,1,21.54-.93,22.85-1.11l.2,0c20.14-1.85,30.23.41,33.6,1.44a1.74,1.74,0,0,1,.88.6,2.57,2.57,0,0,0-1.39-1.65l-8.13-2.84a5.53,5.53,0,0,1-3.64-4.4c-.09-.59-.18-1.16-.27-1.73-2.31,0-14.2-1.66-21.69.39h-.07c-.63.12-10.7,1.94-16.19.34a1.24,1.24,0,0,1-.84-1.37,112,112,0,0,0,.32-18.81,1.28,1.28,0,0,1,.7-1.24c2.81-1.28,13.08-5.3,22.39-.42a1.07,1.07,0,0,0,1.14-.08,9.41,9.41,0,0,1,10.76-.42,2.72,2.72,0,0,1,2.56-1.8H640a1.09,1.09,0,0,0,1.07-1.36c-2.91-10.53-17.79-13.5-17.79-13.5-2.59-.65-1.3-1.94-1.3-1.94,8.66-1.82-1-5.25-7.44-7.12a1.87,1.87,0,0,1-.78-3.18c1.74-1.51,0-2.77-.61-3.15a1.06,1.06,0,0,0-.42-.15c-37.37-5.68-65.69,23.3-65,26.52.42,2.08,1.64,18.37,2.46,29.7-.38,0-.75.07-1.13.08-8.85.34-14.83,4.82-19.2,12.49a73.45,73.45,0,0,1-15.51,18.38c-5.67,5-12.71,5.79-19.85,3.83-9.6-2.63-19.42-4-29.2-5.56-4.4-.71-8.49.51-12.28,2.77a82.48,82.48,0,0,0-28.81,28.73c-.51.84-1.17,1.58-1.76,2.37l-2.14,4.29A109.09,109.09,0,0,0,411,360.33a37.18,37.18,0,0,1,9.88,1c12,3.74,24.41,7.83,33.21,16.74-2.54-5.07.55-10.51.55-10.51,5.81-6.42,36.37-7.71,65.46-6.17s27.65,7.71,27.65,7.71l-.73,9.51c-2.18,7.45-25.46,9-25.46,9-26.19,3.85-51.65-1.55-51.65-1.55-6-.77-10-2.32-12.53-4.2.64.84,1.26,1.72,1.84,2.64l0-.14c1.58,2,3,4.07,4.35,6.13,13.37,8.36,31.15,9.59,46.54,7.93a26.14,26.14,0,0,1,5.12-1.38c3-.64,6-1.37,8.93-2.29s5.72-2.1,9.07-3.35v.15c5.9-1.57,9.91-5.51,15.37-8,2-.5,4.55.51,6.57-.5,6.57-2.82,12.7-6.5,19.6-8.63a3.65,3.65,0,0,1,2.18-.79,3.1,3.1,0,0,1,1.26.12c2.11-18.23,25.93-22.4,42.49-25.31,0-.38-.09-.76-.13-1.14-.79-2.41-.38-4.88-.35-7.34-.39-4.43-.81-8.85-1.16-13.28l-5.75-12.83,17.34-10.2.07-.05,7-4.88C647.82,293.67,655.66,277.42,652.45,270.45Z"/><path class="cls-3" d="M577.92,372.3a1.29,1.29,0,0,1,.78.67c.36.81,0,2-.05,2.9-.47,13.78,2.28,26.62,9.87,38.28,2.72,4.17,1.24,7.74-1.57,11.87-.87,1.27-3.34,3.15-2.79,5.14a8.54,8.54,0,0,0,4.63,5.74h34s6.38-1.11,7.51-5.12c3.5-12.29,4.53-24.83,1.24-37.19-3.06-11.54-6.63-22.94-9-34.62-.9-4.43-1.63-8.9-2.11-13.43C603.86,349.5,580,353.75,577.92,372.3Z"/></g><g id="Layer_3" data-name="Layer 3"><path class="cls-2" d="M871.47,387.59s23.28-1.54,25.46-9l.73-9.51s1.46-6.17-27.64-7.71-59.65-.26-65.47,6.17c0,0-3.08,5.44-.55,10.51a10.72,10.72,0,0,0,3.3,3.79c2.55,1.88,6.51,3.43,12.53,4.2C819.83,386.05,845.29,391.45,871.47,387.59Z"/><path class="cls-1" d="M764.7,346.32c-.75,2.58-1.6,5-2.59,7.58-.05.12.16.18,0,.54-3.84,11.21-2.88,24.52-5.92,35.73-3.79,14-10.89,29.56-12.57,42.55-.71,5.46.36,5.29,2.85,5.23,10.34-.27,19.62-.52,29.68.05,4.14.24,5.76-2.52,3.72-6.65-1.32-2.68-3-4.34-.72-8.4,6.46-11.4,13.6-26.53,20-37.66,3.32-5.76,4.5-8.27,7.64-13.24.27-.41-.11.32.18.29a5,5,0,0,1,1,0C787,366.24,778.68,364.2,764.7,346.32Z"/><path class="cls-3" d="M1002.36,270.42l0,0a1.28,1.28,0,0,1,0,.39,25.55,25.55,0,0,1-3,8.72C988.9,297.48,979,298,979,298c-26,4.86-36.21-3.81-38.63-6.4a1.24,1.24,0,0,1-.25-1.26c1-2.93,2.73-16.77,3.2-20.67a1.06,1.06,0,0,1,1.23-.85c7.41,1,21.55-.93,22.85-1.11l.21,0c20.13-1.85,30.23.4,33.6,1.44a1.81,1.81,0,0,1,.87.59,2.51,2.51,0,0,0-1.38-1.64l-8.13-2.84a5.54,5.54,0,0,1-3.65-4.4c-.09-.59-.17-1.16-.26-1.73-2.31,0-14.21-1.66-21.7.38l-.06,0c-.63.12-10.7,1.94-16.19.34a1.26,1.26,0,0,1-.85-1.37,110.44,110.44,0,0,0,.33-18.81,1.27,1.27,0,0,1,.69-1.24c2.81-1.28,13.09-5.3,22.4-.42a1.07,1.07,0,0,0,1.13-.08,9.4,9.4,0,0,1,10.76-.42,2.73,2.73,0,0,1,2.57-1.8H990a1.09,1.09,0,0,0,1.06-1.37c-2.91-10.52-17.79-13.49-17.79-13.49-2.58-.65-1.29-1.94-1.29-1.94,8.66-1.83-1-5.25-7.45-7.12a1.88,1.88,0,0,1-.78-3.18c1.74-1.51,0-2.77-.61-3.15a1,1,0,0,0-.41-.15c-37.37-5.68-65.69,23.29-65,26.52.42,2.08,1.64,18.37,2.45,29.7l-1.13.08c-8.85.33-14.82,4.82-19.19,12.49a73.28,73.28,0,0,1-15.52,18.38c-5.66,5-12.71,5.79-19.85,3.83-9.59-2.63-19.42-4-29.2-5.56-4.39-.71-8.48.51-12.27,2.76A82.62,82.62,0,0,0,774.1,322.2a28.35,28.35,0,0,1-1.75,2.37q-1.08,2.15-2.14,4.29a109.11,109.11,0,0,0-9.3,31.44,37.21,37.21,0,0,1,9.89,1c12,3.74,24.41,7.83,33.2,16.74-2.53-5.07.55-10.51.55-10.51,5.82-6.43,36.37-7.71,65.47-6.17s27.64,7.71,27.64,7.71l-.73,9.51c-2.18,7.45-25.46,9-25.46,9-26.18,3.86-51.64-1.54-51.64-1.54-6-.77-10-2.32-12.53-4.2.64.84,1.26,1.72,1.84,2.64l0-.15c1.58,2,3,4.08,4.34,6.13,13.38,8.37,31.16,9.6,46.54,7.94a26.29,26.29,0,0,1,5.13-1.38c3-.64,6-1.38,8.92-2.29s5.73-2.1,9.08-3.35v.15c5.9-1.57,9.9-5.51,15.37-8,2-.5,4.55.51,6.57-.5,6.56-2.82,12.69-6.5,19.6-8.63a3.62,3.62,0,0,1,2.17-.79,3.18,3.18,0,0,1,1.27.12c2.1-18.23,24.45-22,41-24.92,0-.38,0-.82,0-1.21-.79-2.41,1-5.21,1-7.66-.39-4.43-.81-8.85-1.16-13.29l-5.76-12.82,17.34-10.2.08-.05,7-4.88C997.74,293.64,1005.58,277.38,1002.36,270.42Z"/><path class="cls-2" d="M1001.17,269.08c-3.37-1-13.47-3.29-33.6-1.44l-.21,0c-1.3.18-15.44,2.08-22.85,1.11a1.06,1.06,0,0,0-1.23.85c-.47,3.9-2.19,17.74-3.2,20.67a1.24,1.24,0,0,0,.25,1.26c2.42,2.59,12.67,11.26,38.63,6.4,0,0,9.94-.48,20.4-18.47a25.55,25.55,0,0,0,3-8.72,1.28,1.28,0,0,0,0-.39,1.45,1.45,0,0,0-.3-.71A1.81,1.81,0,0,0,1001.17,269.08Z"/><path class="cls-2" d="M974.37,237.88a1.07,1.07,0,0,1-1.13.08c-9.31-4.88-19.59-.86-22.4.42a1.27,1.27,0,0,0-.69,1.24,110.44,110.44,0,0,1-.33,18.81,1.26,1.26,0,0,0,.85,1.37c5.49,1.6,15.56-.22,16.19-.34l.06,0c7.49-2,19.39-.34,21.7-.38.22,0,.36,0,.39-.06.41-.45-2.6-17.33-3.18-20.61a1.26,1.26,0,0,0-.57-.86l-.13-.07A9.4,9.4,0,0,0,974.37,237.88Zm-13.12,18.24a7.78,7.78,0,1,1,7.77-7.78A7.78,7.78,0,0,1,961.25,256.12Zm18.27,0a7.78,7.78,0,1,1,7.78-7.78A7.78,7.78,0,0,1,979.52,256.12Z"/><path class="cls-4" d="M979.52,240.56a7.78,7.78,0,1,0,7.78,7.78A7.77,7.77,0,0,0,979.52,240.56Zm.65,14.91a6.49,6.49,0,1,1,6.48-6.48A6.48,6.48,0,0,1,980.17,255.47Z"/><path d="M980.17,242.5a6.49,6.49,0,1,0,6.48,6.49A6.49,6.49,0,0,0,980.17,242.5Zm-.65,10.37c-1.07,0-1.94-.43-1.94-1s.87-1,1.94-1,2,.44,2,1S980.6,252.87,979.52,252.87Zm2.92-1.94c-.89,0-1.62-1.45-1.62-3.24s.73-3.24,1.62-3.24,1.62,1.45,1.62,3.24S983.34,250.93,982.44,250.93Z"/><path class="cls-4" d="M982.44,244.45c-.89,0-1.62,1.45-1.62,3.24s.73,3.24,1.62,3.24,1.62-1.45,1.62-3.24S983.34,244.45,982.44,244.45Z"/><path class="cls-4" d="M979.52,250.93c-1.07,0-1.94.44-1.94,1s.87,1,1.94,1,2-.43,2-1S980.6,250.93,979.52,250.93Z"/><path class="cls-4" d="M961.25,240.56a7.78,7.78,0,1,0,7.77,7.78A7.78,7.78,0,0,0,961.25,240.56Zm.65,14.91a6.49,6.49,0,1,1,6.48-6.48A6.49,6.49,0,0,1,961.9,255.47Z"/><path d="M961.9,242.5a6.49,6.49,0,1,0,6.48,6.49A6.5,6.5,0,0,0,961.9,242.5Zm-.65,10.37c-1.08,0-2-.43-2-1s.87-1,2-1,1.94.44,1.94,1S962.32,252.87,961.25,252.87Zm2.91-1.94c-.89,0-1.62-1.45-1.62-3.24s.73-3.24,1.62-3.24,1.62,1.45,1.62,3.24S965.06,250.93,964.16,250.93Z"/><path class="cls-4" d="M964.16,244.45c-.89,0-1.62,1.45-1.62,3.24s.73,3.24,1.62,3.24,1.62-1.45,1.62-3.24S965.06,244.45,964.16,244.45Z"/><ellipse class="cls-4" cx="961.25" cy="251.9" rx="1.94" ry="0.97"/><path class="cls-3" d="M795.35,346.67a36.8,36.8,0,0,0-9.89-1c-.18,1.43-5.13-11-5.24-9.54-.47,6.07-7.16,7.91-12.09,11.42-4.62,3.29-6,20.72-9.06,25.51-1.29,2,3.14,7.25,2.85,9.48-1.27,9.66-3.87,19.07-5.27,28.68-1.16,8,2.74,11.74,10.9,11.76,9.77,0,19.54,0,29.3,0l9.36.25c1.48-2.6,0-7-1.26-8a6,6,0,0,1-4.13-2.24c-4.31-3.6-4.62-6.33-1-10.71,4.1-4.92,9.4-8.48,14.42-12.35,4.08-3.14,8.2-6.23,12.19-9.47,3.16-2.56,16.54-21.84,17.46-27.2C835.34,339.61,810,351.2,795.35,346.67Z"/><path class="cls-1" d="M940.36,360.59c-.89,7.5.35,16.14-5.6,21.71,4.56,7.77,5.64,17.54,5.91,26.36.08,2.35-1.28,3.71-2.51,5.4-5.62,7.68-9.07,13.86-6.85,23.54a178.09,178.09,0,0,0,29.9.3c5.64-.46,4.77-3.46,5.88-7.86,7-28,3.53-50.61,3.62-78,0-6.24-.9-7.5-1.26-12.43a5,5,0,0,1,.41-3.15c-9.08,4.29-18.22,8.9-24.91,16.4A23.59,23.59,0,0,0,940.36,360.59Z"/><path class="cls-3" d="M907.4,363.61a1.15,1.15,0,0,1,.5.79,8.17,8.17,0,0,1-.65,2.76c-3.33,13.13-3.78,25.95.06,38.54,1.38,4.51-.61,7.65-3.84,11.09-1,1.07-3.45,2.4-3.42,4.41.07,4.49,2.64,6.36,2.64,6.36L931,433.87s5.55.12,7.36-3.51c5.53-11.14,9.06-23,9-35.43-.1-11.63-.64-23.23-.14-34.87.19-4.42.53-8.84,1.11-13.27C933.89,346.55,913.11,346.21,907.4,363.61Z"/></g><g id="Layer_4" data-name="Layer 4"><path class="cls-1" d="M1292.9,372.55c-4.18,5.45-8.11,11-13.81,15,1.77,8.72,3.1,17.92,4.21,26.58.29,2.3-.89,2.54-2.08,3.79-5.47,5.71-7.19,12.57-3.65,19.81,8.82-1.08,20.64,0,28.87-.25,5.07-.17,5-2.84,6-6.67,6.74-24.35,7.72-49.89,7.13-75-.14-5.71-.4-11.44-2.94-15.81-1-1.72-.58-1.26-.51-2.76-8.33,7.53-11.25,19.76-16.62,29.34C1297.85,369.67,1295.25,370.33,1292.9,372.55Z"/><path class="cls-2" d="M1221.31,387.69s23.28-1.54,25.46-9l.73-9.51s1.46-6.17-27.64-7.71-59.65-.26-65.47,6.17c0,0-3.08,5.44-.55,10.51a10.57,10.57,0,0,0,3.29,3.78c2.56,1.89,6.52,3.44,12.54,4.21C1169.67,386.15,1195.13,391.55,1221.31,387.69Z"/><path class="cls-3" d="M1280.38,340.47a1.12,1.12,0,0,1,.49.8c.13.84-.47,2-.68,2.76-3.48,13.09-4.07,25.9-.37,38.53,1.33,4.53-.69,7.65-4,11.05-1,1.05-3.48,2.36-3.47,4.37,0,4.49,2.57,6.39,2.57,6.39l28.28,6.62s5.55.19,7.39-3.42c5.66-11.08,9.32-22.87,9.36-35.33,0-11.64-.38-23.23.25-34.87.24-4.42-6.93-9.2-6.31-13.63C1299.5,323.35,1286.29,323.14,1280.38,340.47Z"/><path class="cls-1" d="M1123.3,338.94c-1.93,2.86-5.89,2-8.1,4.73-.11.14-.93.33-1,.68-3.83,10.84-3.51,24.81-6.37,35.3-3.57,13.09-9.46,26.2-10.28,38.37-.34,5.12.53,4.4,2.9,5,9.86,2.41,17.22,4.31,27.17,4.78,4.09.19,5.81-2.49,3.78-6.68-1.31-2.72-3-4.3-.67-8.36,6.53-11.41,13.57-26.59,20-37.75,3.32-5.77,4.48-8.27,7.63-13.24.26-.42-.11.32.17.28a5.06,5.06,0,0,1,1,0C1139.61,356.4,1136,356,1123.3,338.94Z"/><path class="cls-3" d="M1352.2,270.52l0,0a1.27,1.27,0,0,1,0,.39,25.31,25.31,0,0,1-3,8.72c-10.45,18-20.39,18.47-20.39,18.47-26,4.86-36.21-3.81-38.63-6.41a1.22,1.22,0,0,1-.25-1.25c1-2.93,2.73-16.77,3.2-20.68a1.06,1.06,0,0,1,1.23-.84c7.41,1,21.55-.94,22.85-1.12l.2,0c20.14-1.85,30.24.4,33.61,1.44a1.74,1.74,0,0,1,.87.59,2.53,2.53,0,0,0-1.38-1.64l-8.13-2.85a5.53,5.53,0,0,1-3.65-4.39c-.09-.59-.18-1.16-.26-1.73-2.32,0-14.21-1.66-21.7.38l-.06,0c-.64.11-10.7,1.94-16.19.34a1.27,1.27,0,0,1-.85-1.38,111.39,111.39,0,0,0,.33-18.8,1.27,1.27,0,0,1,.69-1.24c2.81-1.28,13.09-5.31,22.4-.43a1,1,0,0,0,1.13-.08,9.4,9.4,0,0,1,10.76-.41,2.74,2.74,0,0,1,2.57-1.81h2.25a1.09,1.09,0,0,0,1.06-1.36c-2.91-10.52-17.79-13.5-17.79-13.5-2.58-.64-1.29-1.93-1.29-1.93,8.66-1.83-1-5.26-7.45-7.12a1.88,1.88,0,0,1-.78-3.18c1.74-1.51,0-2.78-.61-3.16a1.17,1.17,0,0,0-.41-.14c-37.37-5.68-65.7,23.29-65,26.52.42,2.08,1.64,18.37,2.45,29.7l-1.13.08c-8.85.33-14.82,4.81-19.19,12.48a73.33,73.33,0,0,1-15.52,18.39c-5.66,5-12.71,5.79-19.85,3.83-9.6-2.64-19.42-4-29.2-5.56-4.39-.72-8.48.51-12.27,2.76a82.45,82.45,0,0,0-28.82,28.74c-.5.84-1.17,1.58-1.75,2.37-.72,1.43-1.43,2.86-2.15,4.28a109.56,109.56,0,0,0-9.29,31.45,36.8,36.8,0,0,1,9.89,1c12,3.74,24.41,7.83,33.2,16.74-2.53-5.07.55-10.51.55-10.51,5.82-6.43,36.37-7.71,65.47-6.17s27.64,7.71,27.64,7.71l-.73,9.51c-2.18,7.45-25.46,9-25.46,9-26.18,3.86-51.64-1.54-51.64-1.54-6-.77-10-2.32-12.54-4.21.65.85,1.26,1.73,1.85,2.65l0-.15c1.58,2,3,4.07,4.34,6.13,13.38,8.37,31.15,9.59,46.54,7.94a26.29,26.29,0,0,1,5.13-1.38c3-.64,6-1.38,8.92-2.3s5.73-2.1,9.08-3.35v.16c5.9-1.57,9.9-5.52,15.37-8,2-.51,4.54.5,6.56-.51,6.57-2.81,12.7-6.49,19.61-8.62a3.5,3.5,0,0,1,2.17-.79,3.32,3.32,0,0,1,1.26.11c2.11-18.22,24.46-22,41-24.91,0-.38,0-.83,0-1.21-.79-2.41,1-5.21,1-7.66-.39-4.43-.81-8.86-1.16-13.29l-5.76-12.82,17.34-10.2.08-.05,7-4.88C1347.58,293.74,1355.42,277.48,1352.2,270.52Z"/><path class="cls-2" d="M1351,269.18c-3.37-1-13.47-3.29-33.61-1.44l-.2,0c-1.3.18-15.44,2.09-22.85,1.12a1.06,1.06,0,0,0-1.23.84c-.47,3.91-2.19,17.75-3.2,20.68a1.22,1.22,0,0,0,.25,1.25c2.42,2.6,12.67,11.27,38.63,6.41,0,0,9.94-.48,20.39-18.47a25.31,25.31,0,0,0,3-8.72,1.27,1.27,0,0,0,0-.39,1.55,1.55,0,0,0-.3-.71A1.74,1.74,0,0,0,1351,269.18Z"/><path class="cls-2" d="M1324.21,238a1,1,0,0,1-1.13.08c-9.31-4.88-19.59-.85-22.4.43a1.27,1.27,0,0,0-.69,1.24,111.39,111.39,0,0,1-.33,18.8,1.27,1.27,0,0,0,.85,1.38c5.49,1.6,15.55-.23,16.19-.34l.06,0c7.49-2,19.38-.35,21.7-.38a.71.71,0,0,0,.39-.06c.41-.45-2.6-17.33-3.18-20.61a1.24,1.24,0,0,0-.57-.86l-.13-.07A9.4,9.4,0,0,0,1324.21,238Zm-13.12,18.24a7.78,7.78,0,1,1,7.77-7.77A7.77,7.77,0,0,1,1311.09,256.21Zm18.27,0a7.78,7.78,0,1,1,7.78-7.77A7.77,7.77,0,0,1,1329.36,256.21Z"/><path class="cls-4" d="M1329.36,240.66a7.78,7.78,0,1,0,7.78,7.78A7.77,7.77,0,0,0,1329.36,240.66Zm.65,14.9a6.48,6.48,0,1,1,6.48-6.48A6.48,6.48,0,0,1,1330,255.56Z"/><path d="M1330,242.6a6.48,6.48,0,1,0,6.48,6.48A6.48,6.48,0,0,0,1330,242.6Zm-.65,10.37c-1.07,0-1.94-.43-1.94-1s.87-1,1.94-1,2,.43,2,1S1330.44,253,1329.36,253Zm2.92-1.94c-.9,0-1.62-1.45-1.62-3.24s.72-3.24,1.62-3.24,1.62,1.45,1.62,3.24S1333.17,251,1332.28,251Z"/><path class="cls-4" d="M1332.28,244.55c-.9,0-1.62,1.45-1.62,3.24s.72,3.24,1.62,3.24,1.62-1.45,1.62-3.24S1333.17,244.55,1332.28,244.55Z"/><path class="cls-4" d="M1329.36,251c-1.07,0-1.94.43-1.94,1s.87,1,1.94,1,2-.43,2-1S1330.44,251,1329.36,251Z"/><path class="cls-4" d="M1311.09,240.66a7.78,7.78,0,1,0,7.77,7.78A7.78,7.78,0,0,0,1311.09,240.66Zm.64,14.9a6.48,6.48,0,1,1,6.49-6.48A6.48,6.48,0,0,1,1311.73,255.56Z"/><path d="M1311.73,242.6a6.48,6.48,0,1,0,6.49,6.48A6.48,6.48,0,0,0,1311.73,242.6Zm-.64,10.37c-1.08,0-1.95-.43-1.95-1s.87-1,1.95-1,1.94.43,1.94,1S1312.16,253,1311.09,253ZM1314,251c-.89,0-1.62-1.45-1.62-3.24s.73-3.24,1.62-3.24,1.62,1.45,1.62,3.24S1314.9,251,1314,251Z"/><path class="cls-4" d="M1314,244.55c-.89,0-1.62,1.45-1.62,3.24s.73,3.24,1.62,3.24,1.62-1.45,1.62-3.24S1314.9,244.55,1314,244.55Z"/><ellipse class="cls-4" cx="1311.09" cy="252" rx="1.94" ry="0.97"/><path class="cls-3" d="M1126.06,351.45a52.51,52.51,0,0,0-5.62,9.12c1.19,1.11,2,1.95,3.3,3.08a65.48,65.48,0,0,1,14.34,17.4,80.75,80.75,0,0,0,9.45,14.79c1.62,2,3.43,2.76,4.92,4.54,6.45,7.71-2.2,15.7-3.14,24.24-.78,7.11,2.45,11.37,10.4,11.83,9.52.56,20.06.51,30.13.09,2.41-.1,6.53.18,9.17.12.88-3.26-.06-5.84-2.14-8.38a9.51,9.51,0,0,1-4.53-2.7c-2.93-4.95-6.28-6.31-4.33-12.85,2.18-7.35,4.78-9.66,2.74-18.9-1.65-7.5-5.66-18.73-8.5-26.42-2.25-6.08-3.69-11.15-6.77-16.6C1157.91,344.78,1143.45,344.69,1126.06,351.45Z"/></g><g id="Layer_5" data-name="Layer 5"><path class="cls-1" d="M1464.82,346.09c1.17,4,2.1,8,2.87,12.11l.23.05a196.08,196.08,0,0,1,2.08,24c.37,10,.43,21.63-.85,30.94-.55,3.91.18,4.86,2.85,5.25,11.14,1.6,21.31,2.66,32.48,4,4.59.54,5.31-2.74,4.7-7.45-.39-3-.73-8-2.64-11.06-5.36-8.67-3.56-19.3-2-28.25.83-4.63.86-6.13,2.56-9.88.09.08.25.19.35.12a5.22,5.22,0,0,1,1.31-.89C1492.44,363.52,1476.73,357.47,1464.82,346.09Z"/><path class="cls-1" d="M1623.2,366.78c-4.77,2.44-10,3.34-14.94,5.34,1.17,13.12,4.19,27.22,6,39.82.49,3.35-1,2.61-2,4.15-4.52,7-6.38,12.52-4.32,20.54,9.8.39,20.69,0,29.6.33,5.48.2,4.72-3.08,5.74-6.62,6.43-22.47,6.16-44.24,3.34-66.58-.65-5.09-1-5.71-1.61-9.81-.24-1.6.15-1.09.57-2.42-6.65,3.27-11.68,7.62-16.73,12.93C1627.27,366.14,1625.26,366.09,1623.2,366.78Z"/><path class="cls-2" d="M1571.58,387.58s23.28-1.54,25.46-9l.73-9.51s1.45-6.17-27.64-7.71-59.65-.26-65.47,6.17c0,0-3.08,5.44-.55,10.51a10.57,10.57,0,0,0,3.29,3.78c2.56,1.89,6.52,3.44,12.54,4.21C1519.94,386,1545.4,391.44,1571.58,387.58Z"/><path class="cls-3" d="M1702.47,270.41l0-.05a1.34,1.34,0,0,1,0,.4,25.31,25.31,0,0,1-3,8.72c-10.45,18-20.39,18.46-20.39,18.46-26,4.87-36.22-3.8-38.63-6.4a1.25,1.25,0,0,1-.26-1.25c1-2.93,2.74-16.77,3.21-20.68a1.06,1.06,0,0,1,1.23-.85c7.41,1,21.55-.93,22.85-1.11l.2,0c20.14-1.85,30.24.4,33.61,1.44a1.74,1.74,0,0,1,.87.59,2.53,2.53,0,0,0-1.38-1.64l-8.14-2.85a5.54,5.54,0,0,1-3.64-4.39c-.09-.59-.18-1.16-.26-1.73-2.32,0-14.21-1.66-21.7.38l-.06,0c-.63.11-10.7,1.94-16.2.33a1.26,1.26,0,0,1-.84-1.37,111.39,111.39,0,0,0,.33-18.8,1.26,1.26,0,0,1,.69-1.24c2.81-1.28,13.08-5.3,22.39-.43a1.09,1.09,0,0,0,1.14-.07,9.39,9.39,0,0,1,10.76-.42,2.72,2.72,0,0,1,2.56-1.81h2.26a1.09,1.09,0,0,0,1-1.38c-2.92-10.51-17.78-13.48-17.78-13.48-2.58-.64-1.29-1.94-1.29-1.94,8.65-1.82-1-5.25-7.44-7.11a1.88,1.88,0,0,1-.79-3.18c1.74-1.52,0-2.78-.61-3.16a1.5,1.5,0,0,0-.42-.15c-37.37-5.67-65.69,23.3-65,26.53.41,2.08,1.63,18.37,2.45,29.7-.38,0-.75.06-1.13.07-8.85.34-14.82,4.82-19.2,12.49a73.29,73.29,0,0,1-15.51,18.39c-5.66,5-12.71,5.79-19.85,3.83-9.6-2.64-19.42-4-29.2-5.56-4.39-.72-8.49.51-12.27,2.76a82.45,82.45,0,0,0-28.82,28.74c-.5.83-1.17,1.58-1.76,2.37q-1.07,2.15-2.14,4.28a86.15,86.15,0,0,0-6.08,21.26,16.5,16.5,0,0,0,5.94,15.55c8.23,6.69,20.2,18,22.17,18.35,12,3.73,3-14.86,11.77-5.95-2.53-5.07.55-10.51.55-10.51,5.82-6.43,36.37-7.71,65.47-6.17s27.64,7.71,27.64,7.71l-.73,9.51c-2.18,7.45-25.46,9-25.46,9-26.18,3.86-51.64-1.54-51.64-1.54-6-.77-10-2.32-12.54-4.21.64.85,1.26,1.72,1.85,2.65,0-.05,0-.1,0-.15,1.59,2,3,4.07,4.35,6.13,13.38,8.37,31.15,9.59,46.54,7.94a26.29,26.29,0,0,1,5.13-1.38c3-.64,6-1.38,8.92-2.3s5.73-2.1,9.07-3.35l0,.16c5.9-1.57,9.9-5.52,15.37-8,2-.51,4.54.5,6.56-.51,6.57-2.81,12.7-6.49,19.61-8.62a3.5,3.5,0,0,1,2.17-.79c.54,0,11.5-5,11.82-4.86,2.1-18.23,15.38-17.43,31.94-20.33l.17-.35c-1.19-2.66-.68-5.41-.65-8.13-.39-4.43-.81-8.86-1.16-13.29l-5.76-12.82,17.34-10.2.07-.05,7-4.88C1697.84,293.63,1705.69,277.37,1702.47,270.41Z"/><path class="cls-2" d="M1701.28,269.07c-3.37-1-13.47-3.29-33.61-1.44l-.2,0c-1.3.18-15.44,2.09-22.85,1.11a1.06,1.06,0,0,0-1.23.85c-.47,3.91-2.19,17.75-3.21,20.68a1.25,1.25,0,0,0,.26,1.25c2.41,2.6,12.67,11.27,38.63,6.4,0,0,9.94-.47,20.39-18.46a25.31,25.31,0,0,0,3-8.72,1.34,1.34,0,0,0,0-.4,1.56,1.56,0,0,0-.3-.7A1.74,1.74,0,0,0,1701.28,269.07Z"/><path class="cls-2" d="M1674.48,237.86a1,1,0,0,1-1.13.08c-9.31-4.88-19.59-.85-22.4.43a1.26,1.26,0,0,0-.69,1.24,111.39,111.39,0,0,1-.33,18.8,1.26,1.26,0,0,0,.84,1.37c5.5,1.61,15.56-.22,16.2-.33l.06,0c7.49-2,19.38-.35,21.7-.38a.73.73,0,0,0,.39-.06c.41-.45-2.6-17.33-3.18-20.61a1.25,1.25,0,0,0-.57-.86l-.13-.07A9.4,9.4,0,0,0,1674.48,237.86Zm-13.13,18.24a7.78,7.78,0,1,1,7.78-7.77A7.77,7.77,0,0,1,1661.35,256.1Zm18.28,0a7.78,7.78,0,1,1,7.78-7.77A7.78,7.78,0,0,1,1679.63,256.1Z"/><path class="cls-4" d="M1679.63,240.55a7.78,7.78,0,1,0,7.78,7.78A7.78,7.78,0,0,0,1679.63,240.55Zm.65,14.9a6.48,6.48,0,1,1,6.48-6.48A6.48,6.48,0,0,1,1680.28,255.45Z"/><path d="M1680.28,242.49a6.48,6.48,0,1,0,6.48,6.48A6.48,6.48,0,0,0,1680.28,242.49Zm-.65,10.37c-1.07,0-1.94-.43-1.94-1s.87-1,1.94-1,1.95.43,1.95,1S1680.71,252.86,1679.63,252.86Zm2.92-1.94c-.9,0-1.62-1.45-1.62-3.24s.72-3.24,1.62-3.24,1.62,1.45,1.62,3.24S1683.44,250.92,1682.55,250.92Z"/><path class="cls-4" d="M1682.55,244.44c-.9,0-1.62,1.45-1.62,3.24s.72,3.24,1.62,3.24,1.62-1.45,1.62-3.24S1683.44,244.44,1682.55,244.44Z"/><path class="cls-4" d="M1679.63,250.92c-1.07,0-1.94.43-1.94,1s.87,1,1.94,1,1.95-.43,1.95-1S1680.71,250.92,1679.63,250.92Z"/><path class="cls-4" d="M1661.35,240.55a7.78,7.78,0,1,0,7.78,7.78A7.77,7.77,0,0,0,1661.35,240.55Zm.65,14.9a6.48,6.48,0,1,1,6.48-6.48A6.48,6.48,0,0,1,1662,255.45Z"/><path d="M1662,242.49a6.48,6.48,0,1,0,6.48,6.48A6.48,6.48,0,0,0,1662,242.49Zm-.65,10.37c-1.07,0-1.94-.43-1.94-1s.87-1,1.94-1,2,.43,2,1S1662.43,252.86,1661.35,252.86Zm2.92-1.94c-.89,0-1.62-1.45-1.62-3.24s.73-3.24,1.62-3.24,1.62,1.45,1.62,3.24S1665.17,250.92,1664.27,250.92Z"/><path class="cls-4" d="M1664.27,244.44c-.89,0-1.62,1.45-1.62,3.24s.73,3.24,1.62,3.24,1.62-1.45,1.62-3.24S1665.17,244.44,1664.27,244.44Z"/><ellipse class="cls-4" cx="1661.35" cy="251.89" rx="1.94" ry="0.97"/><path class="cls-3" d="M1625,340.62a1.34,1.34,0,0,1,.49.94c.23,1.07-.4,3,0,3.95,5.76,14.75,9.91,30.24,17.78,43.42,2.82,4.73,1.66,7.65-.15,12.16-.55,1.39-2.31,3.72-1.83,5.05,1.06,3,1.91,4.24,4.45,5.54,7-1.06,21.66-1.28,27-2.45s5.55-1.59,6.39-5.69c2.6-12.57.92-25.2-2.92-37.68-3.58-11.64-7.38-23.33-9.84-35.31-.94-4.54-1.68-8.73-2.28-13.27C1648.23,321,1632.22,322.55,1625,340.62Z"/><path class="cls-3" d="M1475.59,341.43c-2.15,2.9-3.26,10.57-4.79,13.85,1.18,1.1-2.52-6.29-4-7.19-4-2.45-4.36,21.63,4.48,32,4.26,5,5.56,10.08,9.45,14.78,1.62,2,3.43,2.77,4.92,4.55,6.45,7.71-2.2,15.69-3.14,24.23-.78,7.11,2.44,11.38,10.4,11.84,9.52.56,20.06.51,30.13.08,2.41-.1,6.53.18,9.17.13.88-3.27-.06-5.84-2.14-8.39a9.43,9.43,0,0,1-4.53-2.7c-2.93-4.95-6.28-6.3-4.33-12.85,2.18-7.34,4.78-9.65,2.74-18.9-1.65-7.5-5.66-18.72-8.5-26.42-2.25-6.08-3.69-11.14-6.77-16.59C1491.12,343.84,1493,334.67,1475.59,341.43Z"/></g><g id="Layer_6" data-name="Layer 6"><path class="cls-1" d="M1837.64,354.64c1.52,3.87,2.8,7.81,3.93,11.81l.24,0a199.67,199.67,0,0,1,4.18,23.71c1.26,9.9,2.35,21.5,1.89,30.89-.2,3.95.61,4.83,3.31,5,11.23.61,21.45.77,32.7,1.11,4.62.13,5-3.2,4-7.83-.66-3-1.43-7.89-3.61-10.79-6.11-8.16-5.26-18.91-4.46-28,.41-4.68.32-6.18,1.67-10.06.1.07.27.17.36.08a5.73,5.73,0,0,1,1.23-1C1866.7,369.56,1850.51,364.92,1837.64,354.64Z"/><path class="cls-1" d="M1955.05,367.9c-4.77,2.43-10,3.34-14.94,5.33,1.17,13.13,4.19,27.23,6,39.83.49,3.34-1,2.61-2,4.14-4.52,7-6.39,12.52-4.33,20.54,9.81.4,20.7,0,29.6.33,5.48.21,4.73-3.07,5.74-6.61,6.44-22.48,6.17-44.25,3.34-66.59-.64-5.09-1-5.71-1.6-9.8-.24-1.61.15-1.1.57-2.42-6.65,3.26-11.68,7.61-16.74,12.92C1959.12,367.25,1957.1,367.2,1955.05,367.9Z"/><path class="cls-2" d="M1921.51,387.77s23.27-1.54,25.46-9l.72-9.51s1.46-6.16-27.64-7.71-59.65-.25-65.47,6.17c0,0-3.08,5.45-.54,10.51a10.58,10.58,0,0,0,3.29,3.79c2.55,1.89,6.51,3.43,12.53,4.21C1869.86,386.23,1895.32,391.62,1921.51,387.77Z"/><path class="cls-3" d="M2052.39,270.6l0-.05a1.33,1.33,0,0,1,0,.4,25.55,25.55,0,0,1-3,8.71c-10.46,18-20.4,18.47-20.4,18.47-26,4.87-36.21-3.81-38.62-6.4a1.21,1.21,0,0,1-.26-1.25c1-2.94,2.73-16.77,3.2-20.68a1.07,1.07,0,0,1,1.24-.85c7.4,1,21.54-.93,22.84-1.11l.21,0c20.14-1.85,30.23.4,33.6,1.43a1.71,1.71,0,0,1,.87.6,2.48,2.48,0,0,0-1.38-1.64l-8.13-2.85a5.52,5.52,0,0,1-3.64-4.4c-.09-.59-.18-1.16-.27-1.72-2.31,0-14.21-1.67-21.69.38h-.07c-.63.12-10.7,1.94-16.19.34a1.24,1.24,0,0,1-.84-1.37,111.93,111.93,0,0,0,.32-18.81,1.27,1.27,0,0,1,.69-1.23c2.82-1.29,13.09-5.31,22.4-.43a1.07,1.07,0,0,0,1.14-.08,9.41,9.41,0,0,1,10.76-.42,2.72,2.72,0,0,1,2.56-1.8H2040a1.09,1.09,0,0,0,1.06-1.36c-2.91-10.52-17.78-13.5-17.78-13.5-2.59-.65-1.3-1.94-1.3-1.94,8.66-1.82-1-5.25-7.45-7.11a1.88,1.88,0,0,1-.77-3.19c1.74-1.51,0-2.77-.62-3.15a1,1,0,0,0-.41-.15c-37.37-5.68-65.69,23.3-65,26.52.42,2.08,1.64,18.37,2.45,29.7-.37,0-.74.07-1.12.08-8.85.34-14.83,4.82-19.2,12.49a73.68,73.68,0,0,1-15.51,18.39c-5.67,5-12.72,5.78-19.85,3.82-9.6-2.63-19.43-4-29.2-5.55-4.4-.72-8.49.5-12.28,2.76a82.4,82.4,0,0,0-28.81,28.73,29.07,29.07,0,0,1-1.76,2.37q-1.08,2.14-2.14,4.29c-4.57,10.08,6,32.42,4.64,43.36,3.44-.27-4.77-1.12-2-.55,12,3.74,22.31-2.52,31.11,6.39-2.54-5.06.54-10.51.54-10.51,5.82-6.42,36.37-7.71,65.47-6.17s27.64,7.71,27.64,7.71l-.72,9.51c-2.19,7.46-25.46,9-25.46,9-26.19,3.85-51.65-1.54-51.65-1.54-6-.78-10-2.32-12.53-4.21.64.85,1.26,1.72,1.84,2.64l0-.14c1.58,2,3,4.07,4.34,6.13,13.38,8.36,31.16,9.59,46.55,7.93a25.93,25.93,0,0,1,5.12-1.38c3-.63,6-1.37,8.93-2.29s5.72-2.1,9.07-3.35v.15c5.9-1.56,9.91-5.51,15.37-8,2-.5,4.55.51,6.57-.5,6.56-2.81,12.69-6.5,19.6-8.63a3.64,3.64,0,0,1,2.17-.79,3.16,3.16,0,0,1,1.27.12c2.1-18.23,25.93-22.4,42.49-25.3,0-.39-.09-.76-.13-1.15-.79-2.41-.38-4.88-.35-7.34-.39-4.43-.81-8.85-1.16-13.28L2013.3,314l17.34-10.2.07-.05,7-4.87C2047.77,293.82,2055.61,277.56,2052.39,270.6Z"/><path class="cls-2" d="M2051.2,269.25c-3.37-1-13.46-3.28-33.6-1.43l-.21,0c-1.3.18-15.44,2.09-22.84,1.11a1.07,1.07,0,0,0-1.24.85c-.47,3.91-2.19,17.74-3.2,20.68a1.21,1.21,0,0,0,.26,1.25c2.41,2.59,12.66,11.27,38.62,6.4,0,0,9.94-.47,20.4-18.47a25.55,25.55,0,0,0,3-8.71,1.33,1.33,0,0,0,0-.4,1.45,1.45,0,0,0-.3-.7A1.71,1.71,0,0,0,2051.2,269.25Z"/><path class="cls-2" d="M2024.41,238.05a1.07,1.07,0,0,1-1.14.08c-9.31-4.88-19.58-.86-22.4.43a1.27,1.27,0,0,0-.69,1.23,111.93,111.93,0,0,1-.32,18.81,1.24,1.24,0,0,0,.84,1.37c5.49,1.6,15.56-.22,16.19-.34h.07c7.48-2.05,19.38-.35,21.69-.38.22,0,.36,0,.39-.06.41-.45-2.6-17.33-3.18-20.62a1.24,1.24,0,0,0-.56-.85l-.13-.08A9.41,9.41,0,0,0,2024.41,238.05Zm-13.13,18.24a7.78,7.78,0,1,1,7.78-7.78A7.78,7.78,0,0,1,2011.28,256.29Zm18.28,0a7.78,7.78,0,1,1,7.77-7.78A7.78,7.78,0,0,1,2029.56,256.29Z"/><path class="cls-4" d="M2029.56,240.73a7.78,7.78,0,1,0,7.77,7.78A7.78,7.78,0,0,0,2029.56,240.73Zm.64,14.91a6.48,6.48,0,1,1,6.48-6.48A6.48,6.48,0,0,1,2030.2,255.64Z"/><path d="M2030.2,242.68a6.48,6.48,0,1,0,6.48,6.48A6.48,6.48,0,0,0,2030.2,242.68Zm-.64,10.37c-1.08,0-2-.44-2-1s.87-1,2-1,1.94.44,1.94,1S2030.63,253.05,2029.56,253.05Zm2.91-2c-.89,0-1.62-1.45-1.62-3.24s.73-3.24,1.62-3.24,1.62,1.45,1.62,3.24S2033.37,251.1,2032.47,251.1Z"/><path class="cls-4" d="M2032.47,244.62c-.89,0-1.62,1.45-1.62,3.24s.73,3.24,1.62,3.24,1.62-1.45,1.62-3.24S2033.37,244.62,2032.47,244.62Z"/><path class="cls-4" d="M2029.56,251.1c-1.08,0-2,.44-2,1s.87,1,2,1,1.94-.44,1.94-1S2030.63,251.1,2029.56,251.1Z"/><path class="cls-4" d="M2011.28,240.73a7.78,7.78,0,1,0,7.78,7.78A7.78,7.78,0,0,0,2011.28,240.73Zm.65,14.91a6.48,6.48,0,1,1,6.48-6.48A6.48,6.48,0,0,1,2011.93,255.64Z"/><path d="M2011.93,242.68a6.48,6.48,0,1,0,6.48,6.48A6.48,6.48,0,0,0,2011.93,242.68Zm-.65,10.37c-1.07,0-2-.44-2-1s.88-1,2-1,1.94.44,1.94,1S2012.35,253.05,2011.28,253.05Zm2.92-2c-.9,0-1.62-1.45-1.62-3.24s.72-3.24,1.62-3.24,1.62,1.45,1.62,3.24S2015.09,251.1,2014.2,251.1Z"/><path class="cls-4" d="M2014.2,244.62c-.9,0-1.62,1.45-1.62,3.24s.72,3.24,1.62,3.24,1.62-1.45,1.62-3.24S2015.09,244.62,2014.2,244.62Z"/><ellipse class="cls-4" cx="2011.28" cy="252.08" rx="1.94" ry="0.97"/><path class="cls-3" d="M1967,342.81a1.42,1.42,0,0,1,.54,1c.19,1.17-.38,2.95,0,4a209.65,209.65,0,0,0,27,47.25c4,5.32,2.79,8.11.48,13.33-.72,1.62-2.29,3.81-1.86,5.18,1,3.05,1.73,3.87,4.55,5.37,10-1.11,29.17-.53,37.09-.6s8-.71,8.37-5.68c1.15-15.25-6.09-30.08-12.42-43.43-5.91-12.45-12.42-24.23-16.41-37.11-1.51-4.88-2.42-8.59-3.53-13.38C1993.25,323.79,1977.71,326.89,1967,342.81Z"/><path class="cls-3" d="M1835.52,360.48a36.84,36.84,0,0,0-9.89-1c-.17,1.44-.32,2.88-.43,4.33-.44,6.07-3.21,10.59-8.13,14.12a44.91,44.91,0,0,0-11.73,12.11c-1.29,2-2.84,4.16-3.13,6.4-1.23,9.66-3.8,19.09-5.16,28.7-1.13,8,2.78,11.72,10.94,11.72,9.77,0,19.54-.07,29.3-.11l9.36.22c1.47-2.6,0-7-1.29-8a6,6,0,0,1-4.13-2.22c-4.33-3.59-4.65-6.32-1-10.71,4.09-4.93,9.38-8.52,14.39-12.41,4.06-3.15,8.17-6.25,12.15-9.51,3.15-2.57,20.07-29.07,21-34.44C1879.09,346.1,1850.16,365,1835.52,360.48Z"/></g><g id="Layer_7" data-name="Layer 7"><path class="cls-2" d="M2270.26,387.45s23.28-1.54,25.46-9l.73-9.51s1.46-6.17-27.64-7.71-59.65-.26-65.47,6.17c0,0-3.08,5.44-.55,10.5a10.55,10.55,0,0,0,3.3,3.79c2.55,1.89,6.51,3.44,12.53,4.21C2218.62,385.91,2244.08,391.31,2270.26,387.45Z"/><path class="cls-3" d="M2401.15,270.28l0,0a1.34,1.34,0,0,1,0,.4,25.55,25.55,0,0,1-3,8.72c-10.46,18-20.4,18.46-20.4,18.46-26,4.87-36.21-3.8-38.63-6.4a1.22,1.22,0,0,1-.25-1.25c1-2.93,2.73-16.77,3.2-20.68a1.06,1.06,0,0,1,1.23-.85c7.41,1,21.55-.93,22.85-1.11l.21,0c20.13-1.85,30.23.4,33.6,1.44a1.74,1.74,0,0,1,.87.59,2.51,2.51,0,0,0-1.38-1.64l-8.13-2.85a5.53,5.53,0,0,1-3.65-4.39c-.09-.59-.17-1.16-.26-1.73-2.31,0-14.21-1.66-21.7.38l-.06,0c-.63.11-10.7,1.94-16.19.33a1.25,1.25,0,0,1-.85-1.37,110.26,110.26,0,0,0,.33-18.8,1.26,1.26,0,0,1,.69-1.24c2.81-1.28,13.09-5.31,22.4-.43a1,1,0,0,0,1.13-.08,9.4,9.4,0,0,1,10.76-.41,2.73,2.73,0,0,1,2.57-1.81h2.25a1.09,1.09,0,0,0,1.06-1.36c-2.91-10.52-17.79-13.5-17.79-13.5-2.58-.64-1.29-1.94-1.29-1.94,8.66-1.82-1-5.25-7.45-7.11a1.88,1.88,0,0,1-.78-3.18c1.74-1.52,0-2.78-.61-3.16a1.11,1.11,0,0,0-.41-.14c-37.37-5.68-65.69,23.29-65,26.52.42,2.08,1.64,18.37,2.45,29.7-.37,0-.74.06-1.13.07-8.85.34-14.82,4.82-19.19,12.49A73.33,73.33,0,0,1,2263,292.29c-5.66,5-12.71,5.79-19.85,3.83-9.59-2.64-19.42-4-29.2-5.56-4.39-.72-8.48.51-12.27,2.76a82.53,82.53,0,0,0-28.82,28.74c-.5.83-1.16,1.58-1.75,2.37l-2.14,4.28c-4.57,10.09-9.76,30.34-11.14,41.28,3.44-.27,11,1,13.83,1.53,12,3.74,22.31-2.51,31.1,6.39-2.53-5.06.55-10.5.55-10.5,5.82-6.43,36.37-7.71,65.47-6.17s27.64,7.71,27.64,7.71l-.73,9.51c-2.18,7.45-25.46,9-25.46,9-26.18,3.86-51.64-1.54-51.64-1.54-6-.77-10-2.32-12.53-4.21.64.85,1.26,1.72,1.84,2.65l0-.15c1.58,2,3,4.07,4.34,6.13,13.38,8.37,31.16,9.59,46.54,7.94a26.29,26.29,0,0,1,5.13-1.38c3-.64,6-1.38,8.92-2.3s5.73-2.1,9.08-3.35v.16c5.9-1.57,9.9-5.52,15.37-8,2-.51,4.55.5,6.57-.51,6.56-2.81,12.69-6.49,19.6-8.62a3.5,3.5,0,0,1,2.17-.79,3.4,3.4,0,0,1,1.27.11c2.1-18.22,25.93-22.4,42.49-25.3,0-.38-.1-.76-.13-1.14-.79-2.42-.38-4.89-.35-7.34-.39-4.43-.81-8.86-1.16-13.29l-5.76-12.82,17.34-10.2.08-.05,7-4.88C2396.53,293.5,2404.37,277.24,2401.15,270.28Z"/><path class="cls-2" d="M2400,268.94c-3.37-1-13.47-3.29-33.6-1.44l-.21,0c-1.3.18-15.44,2.09-22.85,1.11a1.06,1.06,0,0,0-1.23.85c-.47,3.91-2.19,17.75-3.2,20.68a1.22,1.22,0,0,0,.25,1.25c2.42,2.6,12.67,11.27,38.63,6.4,0,0,9.94-.47,20.4-18.46a25.55,25.55,0,0,0,3-8.72,1.34,1.34,0,0,0,0-.4,1.45,1.45,0,0,0-.3-.7A1.74,1.74,0,0,0,2400,268.94Z"/><path class="cls-2" d="M2373.16,237.73a1,1,0,0,1-1.13.08c-9.31-4.88-19.59-.85-22.4.43a1.26,1.26,0,0,0-.69,1.24,110.26,110.26,0,0,1-.33,18.8,1.25,1.25,0,0,0,.85,1.37c5.49,1.61,15.56-.22,16.19-.33l.06,0c7.49-2,19.39-.35,21.7-.38.22,0,.36,0,.39-.06.41-.45-2.6-17.33-3.18-20.61a1.22,1.22,0,0,0-.57-.86l-.13-.07A9.4,9.4,0,0,0,2373.16,237.73ZM2360,256a7.78,7.78,0,1,1,7.77-7.78A7.78,7.78,0,0,1,2360,256Zm18.27,0a7.78,7.78,0,1,1,7.78-7.78A7.77,7.77,0,0,1,2378.31,256Z"/><path class="cls-4" d="M2378.31,240.42a7.78,7.78,0,1,0,7.78,7.77A7.77,7.77,0,0,0,2378.31,240.42Zm.65,14.9a6.48,6.48,0,1,1,6.48-6.48A6.48,6.48,0,0,1,2379,255.32Z"/><path d="M2379,242.36a6.48,6.48,0,1,0,6.48,6.48A6.48,6.48,0,0,0,2379,242.36Zm-.65,10.37c-1.07,0-1.94-.43-1.94-1s.87-1,1.94-1,2,.43,2,1S2379.39,252.73,2378.31,252.73Zm2.92-1.94c-.89,0-1.62-1.45-1.62-3.24s.73-3.24,1.62-3.24,1.62,1.45,1.62,3.24S2382.13,250.79,2381.23,250.79Z"/><path class="cls-4" d="M2381.23,244.31c-.89,0-1.62,1.45-1.62,3.24s.73,3.24,1.62,3.24,1.62-1.45,1.62-3.24S2382.13,244.31,2381.23,244.31Z"/><path class="cls-4" d="M2378.31,250.79c-1.07,0-1.94.43-1.94,1s.87,1,1.94,1,2-.43,2-1S2379.39,250.79,2378.31,250.79Z"/><path class="cls-4" d="M2360,240.42a7.78,7.78,0,1,0,7.77,7.77A7.77,7.77,0,0,0,2360,240.42Zm.65,14.9a6.48,6.48,0,1,1,6.48-6.48A6.49,6.49,0,0,1,2360.69,255.32Z"/><path d="M2360.69,242.36a6.48,6.48,0,1,0,6.48,6.48A6.49,6.49,0,0,0,2360.69,242.36Zm-.65,10.37c-1.08,0-1.95-.43-1.95-1s.87-1,1.95-1,1.94.43,1.94,1S2361.11,252.73,2360,252.73Zm2.91-1.94c-.89,0-1.62-1.45-1.62-3.24s.73-3.24,1.62-3.24,1.62,1.45,1.62,3.24S2363.85,250.79,2363,250.79Z"/><path class="cls-4" d="M2363,244.31c-.89,0-1.62,1.45-1.62,3.24s.73,3.24,1.62,3.24,1.62-1.45,1.62-3.24S2363.85,244.31,2363,244.31Z"/><ellipse class="cls-4" cx="2360.04" cy="251.76" rx="1.94" ry="0.97"/><path class="cls-1" d="M2318.76,370.52c-5.36,1.13-11,1-16.42,1.18-2.45,12.82.6,28.55,1.87,40.82.34,3.26-1,2.65-2.09,4.17-4.87,6.93-6.85,13.33-3.24,21.17,8.93-.45,20.3.41,28.63.08,5.12-.21,4.8-3.8,5.81-6.8,6.42-19.06,9.2-38.72,9.57-58.34.09-4.47-.34-7.27-.59-11.17a3.08,3.08,0,0,1,.75-2.7c-7,2.73-12.18,7-18.12,11.37C2323.06,371.68,2320.78,370.54,2318.76,370.52Z"/><path class="cls-2" d="M2270.38,387.77s23.28-1.54,25.46-9l.73-9.51s1.45-6.17-27.65-7.71-59.65-.26-65.46,6.17c0,0-3.09,5.44-.55,10.51a10.57,10.57,0,0,0,3.29,3.78c2.56,1.89,6.51,3.44,12.53,4.21C2218.73,386.23,2244.19,391.63,2270.38,387.77Z"/><path class="cls-1" d="M2213.3,390.73a84.06,84.06,0,0,1,4.93,8.75h.24a110.54,110.54,0,0,1,5.79,14.94c2,6.34,3.53,12.88,3.3,19.61-.09,2.83,1,3.42,3.57,3.39,10.81-.14,21.63,0,32.45-.1,4.45,0,5.3-1.52,3.88-5.84-.93-2.8-1.85-5.91-4.1-7.58-6.31-4.68-6.36-11-6-17.83.2-3.54.25-5.45,1-6.64h.37a3.64,3.64,0,0,1,1.14-.78C2244.45,400.32,2226.68,399.09,2213.3,390.73Z"/><path class="cls-3" d="M2401.27,270.6l0-.05a1.78,1.78,0,0,1,0,.4,25.55,25.55,0,0,1-3,8.72c-10.46,18-20.39,18.46-20.39,18.46-26,4.87-36.22-3.8-38.63-6.4a1.23,1.23,0,0,1-.26-1.25c1-2.93,2.73-16.77,3.21-20.68a1.05,1.05,0,0,1,1.23-.85c7.41,1,21.54-.93,22.85-1.11l.2,0c20.14-1.85,30.23.4,33.6,1.44a1.73,1.73,0,0,1,.88.59,2.55,2.55,0,0,0-1.39-1.64l-8.13-2.85a5.52,5.52,0,0,1-3.64-4.39c-.09-.59-.18-1.16-.27-1.73-2.31,0-14.2-1.66-21.69.38l-.07,0c-.63.11-10.7,1.94-16.19.33a1.24,1.24,0,0,1-.84-1.37,111.84,111.84,0,0,0,.32-18.8,1.26,1.26,0,0,1,.7-1.24c2.81-1.28,13.08-5.31,22.39-.43a1,1,0,0,0,1.14-.08,9.4,9.4,0,0,1,10.76-.41,2.72,2.72,0,0,1,2.56-1.81h2.25a1.09,1.09,0,0,0,1.07-1.36C2387,224,2372.13,221,2372.13,221c-2.59-.64-1.3-1.94-1.3-1.94,8.66-1.82-1-5.25-7.44-7.11a1.87,1.87,0,0,1-.78-3.18c1.74-1.52,0-2.78-.61-3.16a1.23,1.23,0,0,0-.42-.14c-37.37-5.68-65.69,23.29-65,26.52.42,2.08,1.64,18.37,2.46,29.7l-1.13.08c-8.85.33-14.83,4.81-19.2,12.48a73.5,73.5,0,0,1-15.51,18.39c-5.67,5-12.71,5.79-19.85,3.83-9.6-2.64-19.42-4-29.2-5.56-4.4-.72-8.49.51-12.28,2.76A82.51,82.51,0,0,0,2173,322.38c-.51.83-1.17,1.58-1.76,2.37l-2.14,4.28a109.24,109.24,0,0,0-9.29,31.45,36.77,36.77,0,0,1,9.88,1c12,3.73,24.41,7.83,33.21,16.74-2.54-5.07.55-10.51.55-10.51,5.81-6.43,36.37-7.71,65.46-6.17s27.65,7.71,27.65,7.71l-.73,9.51c-2.18,7.45-25.46,9-25.46,9-26.19,3.86-51.65-1.54-51.65-1.54-6-.77-10-2.32-12.53-4.21.64.85,1.26,1.72,1.84,2.65l0-.15c1.58,2,3,4.07,4.35,6.13,13.37,8.37,31.15,9.59,46.54,7.94a26.14,26.14,0,0,1,5.12-1.38c3-.64,6-1.38,8.93-2.3s5.72-2.1,9.07-3.35v.16c5.9-1.57,9.91-5.52,15.37-8,2-.51,4.55.5,6.57-.51,6.57-2.81,12.7-6.49,19.6-8.62a3.53,3.53,0,0,1,2.18-.79,3.32,3.32,0,0,1,1.26.11c2.11-18.22,25.93-22.39,42.49-25.3,0-.38-.09-.76-.13-1.14-.79-2.42-.38-4.89-.35-7.34-.39-4.43-.81-8.86-1.16-13.29L2362.17,314l17.34-10.2.07-.05,7-4.88C2396.64,293.82,2404.48,277.56,2401.27,270.6Z"/><path class="cls-2" d="M2400.07,269.26c-3.37-1-13.46-3.29-33.6-1.44l-.2,0c-1.31.18-15.44,2.09-22.85,1.11a1.05,1.05,0,0,0-1.23.85c-.48,3.91-2.2,17.75-3.21,20.68a1.23,1.23,0,0,0,.26,1.25c2.41,2.6,12.66,11.27,38.63,6.4,0,0,9.93-.47,20.39-18.46a25.55,25.55,0,0,0,3-8.72,1.78,1.78,0,0,0,0-.4,1.56,1.56,0,0,0-.3-.7A1.73,1.73,0,0,0,2400.07,269.26Z"/><path class="cls-2" d="M2373.28,238.05a1,1,0,0,1-1.14.08c-9.31-4.88-19.58-.85-22.39.43a1.26,1.26,0,0,0-.7,1.24,111.84,111.84,0,0,1-.32,18.8,1.24,1.24,0,0,0,.84,1.37c5.49,1.61,15.56-.22,16.19-.33l.07,0c7.49-2,19.38-.35,21.69-.38a.75.75,0,0,0,.4-.06c.4-.45-2.6-17.33-3.18-20.61a1.28,1.28,0,0,0-.57-.86l-.13-.07A9.4,9.4,0,0,0,2373.28,238.05Zm-13.13,18.24a7.78,7.78,0,1,1,7.78-7.77A7.78,7.78,0,0,1,2360.15,256.29Zm18.28,0a7.78,7.78,0,1,1,7.78-7.77A7.77,7.77,0,0,1,2378.43,256.29Z"/><path class="cls-4" d="M2378.43,240.74a7.78,7.78,0,1,0,7.78,7.78A7.78,7.78,0,0,0,2378.43,240.74Zm.65,14.9a6.48,6.48,0,1,1,6.48-6.48A6.49,6.49,0,0,1,2379.08,255.64Z"/><path d="M2379.08,242.68a6.48,6.48,0,1,0,6.48,6.48A6.49,6.49,0,0,0,2379.08,242.68Zm-.65,10.37c-1.08,0-1.95-.43-1.95-1s.87-1,1.95-1,1.94.43,1.94,1S2379.5,253.05,2378.43,253.05Zm2.91-1.94c-.89,0-1.62-1.45-1.62-3.24s.73-3.24,1.62-3.24,1.62,1.45,1.62,3.24S2382.24,251.11,2381.34,251.11Z"/><path class="cls-4" d="M2381.34,244.63c-.89,0-1.62,1.45-1.62,3.24s.73,3.24,1.62,3.24,1.62-1.45,1.62-3.24S2382.24,244.63,2381.34,244.63Z"/><path class="cls-4" d="M2378.43,251.11c-1.08,0-1.95.43-1.95,1s.87,1,1.95,1,1.94-.43,1.94-1S2379.5,251.11,2378.43,251.11Z"/><path class="cls-4" d="M2360.15,240.74a7.78,7.78,0,1,0,7.78,7.78A7.78,7.78,0,0,0,2360.15,240.74Zm.65,14.9a6.48,6.48,0,1,1,6.48-6.48A6.48,6.48,0,0,1,2360.8,255.64Z"/><path d="M2360.8,242.68a6.48,6.48,0,1,0,6.48,6.48A6.48,6.48,0,0,0,2360.8,242.68Zm-.65,10.37c-1.07,0-1.94-.43-1.94-1s.87-1,1.94-1,1.95.43,1.95,1S2361.22,253.05,2360.15,253.05Zm2.92-1.94c-.9,0-1.62-1.45-1.62-3.24s.72-3.24,1.62-3.24,1.62,1.45,1.62,3.24S2364,251.11,2363.07,251.11Z"/><path class="cls-4" d="M2363.07,244.63c-.9,0-1.62,1.45-1.62,3.24s.72,3.24,1.62,3.24,1.62-1.45,1.62-3.24S2364,244.63,2363.07,244.63Z"/><ellipse class="cls-4" cx="2360.15" cy="252.08" rx="1.94" ry="0.97"/><path class="cls-3" d="M2169.78,360.72a37.18,37.18,0,0,0-9.88-1c-.18,1.44-.33,2.88-.45,4.33-.46,6.06-3.25,10.58-8.17,14.09a45,45,0,0,0-11.79,12.07c-1.29,2-2.85,4.15-3.14,6.38-1.27,9.67-3.87,19.08-5.26,28.68-1.17,8,2.73,11.74,10.9,11.76,9.76,0,19.53,0,29.3,0l9.36.25c1.48-2.6,0-7-1.27-8a6,6,0,0,1-4.12-2.23c-4.31-3.61-4.63-6.33-1-10.71,4.11-4.92,9.41-8.48,14.43-12.36,4.07-3.14,8.19-6.22,12.19-9.47,3.15-2.56,27.05-32.46,28-37.82C2220.29,343,2184.4,365.26,2169.78,360.72Z"/><path class="cls-3" d="M2323,361.66a1.43,1.43,0,0,1,.54,1c.19,1.18-.38,2.95.05,4a209.8,209.8,0,0,0,26.95,47.24c4,5.32,2.79,8.11.48,13.34-.72,1.61-2.29,3.81-1.86,5.17,1,3.06,1.73,3.87,4.55,5.38,10-1.11,29.17-.54,37.09-.61s8-.7,8.37-5.67c1.15-15.26-6.09-30.09-12.42-43.43-5.91-12.46-12.42-24.24-16.41-37.11-1.51-4.88-2.42-8.6-3.53-13.39C2349.29,342.65,2333.74,345.74,2323,361.66Z"/></g></svg>
