<svg xmlns="http://www.w3.org/2000/svg" width="1400" height="500" viewBox="0 0 1400 500"><defs><style>.cls-1{fill:#291706;}.cls-19,.cls-2,.cls-4{fill:none;stroke-miterlimit:10;}.cls-2{stroke:#8b6448;}.cls-2,.cls-4{stroke-width:0.68px;}.cls-3{fill:#8b6448;}.cls-19,.cls-4{stroke:#291706;}.cls-5{fill:#fff;}.cls-6{fill:#070606;}.cls-7{fill:#8b6160;}.cls-8{fill:#c2746d;}.cls-9{fill:#40261c;}.cls-10{fill:#fdfdfd;}.cls-11{fill:#8a5d5c;}.cls-12{fill:#fcfdfd;}.cls-13{fill:#82524b;}.cls-14{fill:#c0c7d2;}.cls-15{fill:#fbfbfb;}.cls-16{fill:#a5645e;}.cls-17{fill:#e5c5c4;}.cls-18{fill:#0a0a09;}</style></defs><title>Gorillaspriteudenfarver</title><g id="spis"><path class="cls-1" d="M476.32,228.8c.56-3.78,1.8-7.37,2.6-11.08A3.35,3.35,0,0,1,480,215.9c11.06-9.63,33.38-22.75,60.22-18.9a3.12,3.12,0,0,1,1.86.92,1.6,1.6,0,0,1,.51,1.63,4.09,4.09,0,0,0,2.68,5.12c6.37,2,13.2,5,5.23,6.68,0,0-1.36,1.36,1.35,2,0,0,12,2.4,17,10.46a3.34,3.34,0,0,1-2.82,5.13h-.47a1.73,1.73,0,0,0-1.68,2.13c.73,3.11,2.18,10,4.17,23a8,8,0,0,0,5.27,6.34l5,1.75a5.94,5.94,0,0,1,4,6,48.19,48.19,0,0,1-5.72,19.21,8,8,0,0,0,.32,8.14l17,26.32s8.65,14.19,13.59,25.76c0,0,4.4,9.29,3.77,31.05l.94,45.59s0,9.49-14.24,10.85S562,436.48,562,436.48s-5.08,0-8-5.66a3.36,3.36,0,0,0-3-1.8h-9.69a3.31,3.31,0,0,1-.77-.09c-1.67-.4-7.67-2.26-8.37-8.51,0-.14,0-.28,0-.42v-6.62a3.34,3.34,0,0,0-3.34-3.34h-7.56a3.33,3.33,0,0,0-3.34,3.34v5.08a3.1,3.1,0,0,1-.1.81c-.49,1.92-2.93,9.67-10.07,9.08h-9a3.36,3.36,0,0,0-3.12,2.14,9.52,9.52,0,0,1-7.56,6c-7.06,1.29-31.73.14-34.35,0h-.47c-14-.69-15.36-11.54-15.36-11.54-.71-3.94-.48-21.72-.11-37.61,0,0,2-36.48,6.82-45.66a68.37,68.37,0,0,1,6.09-10.85l.16-.26c1.11-2,14.71-26.62,20.37-33a11.48,11.48,0,0,0,2.71-5.73c1.11-6.41,2.9-18.43,1.94-24.23,0,0-.76-11-1.57-21.84"/><path class="cls-2" d="M496.23,428.35c0-2-.62-12-14.4-21.19a14.57,14.57,0,0,0-2.27-1.29c-.4-.16-1-.63-1-1.94l-.68-33.9v-1.36"/><path class="cls-2" d="M553.19,428.68c0-1.93.61-11.23,14.09-20.3a15.43,15.43,0,0,1,2.58-1.49c.4-.16,1-.63,1-1.94l.68-33.9v-1.36"/><path class="cls-3" d="M492.93,299.83C496.05,303.55,509.35,316,543,309c0,0,12.88-.68,26.44-26.45a38.63,38.63,0,0,0,3.88-12.48,2.25,2.25,0,0,0-1.52-2.43c-4.37-1.48-17.47-4.7-43.58-2.05l-.26,0c-1.69.26-20,3-29.63,1.59a1.39,1.39,0,0,0-1.6,1.22c-.61,5.59-2.85,25.41-4.16,29.61A1.89,1.89,0,0,0,492.93,299.83Z"/><path class="cls-3" d="M497.13,261.34a152.11,152.11,0,0,0,.54-28.32,1.89,1.89,0,0,1,1.15-1.87c4.65-1.93,21.66-8,37.08-.64a1.89,1.89,0,0,0,1.88-.12,16.8,16.8,0,0,1,18-.51,1.89,1.89,0,0,1,.94,1.29c1,4.94,5.94,30.36,5.27,31s-23-2.7-36.57.67l-.1,0c-1.05.17-17.72,2.92-26.81.51A1.9,1.9,0,0,1,497.13,261.34Z"/><path class="cls-3" d="M482,347.65s-8.14,40.69,14.24,48.82c0,0,23.73,14.24,48.14,4.07,0,0,21.7-4.07,23.74-23.73l.68-25.09s1.35-16.27-25.77-20.34S487.41,330.7,482,347.65Z"/><path class="cls-4" d="M525,374.44s5.43,2,3.39,4.74a10.14,10.14,0,0,1-1.82,1.95,3,3,0,0,1-2.55.52l-.71-.18a2.29,2.29,0,0,1-1.49-1.19l-.47-.94a1.69,1.69,0,0,1,.13-1.72c.52-.72,1.34-1.56,2.17-1.15,1.35.68,2.71.68,2.71,2s-2,1.35-2,1.35"/><circle class="cls-5" cx="542.97" cy="247.24" r="7.17"/><circle cx="543.57" cy="247.84" r="5.98"/><ellipse class="cls-5" cx="545.66" cy="246.64" rx="1.49" ry="2.99"/><ellipse class="cls-5" cx="542.97" cy="250.53" rx="1.79" ry="0.9"/><circle class="cls-5" cx="526.12" cy="247.24" r="7.17"/><circle cx="526.71" cy="247.84" r="5.98"/><ellipse class="cls-5" cx="528.81" cy="246.64" rx="1.49" ry="2.99"/><ellipse class="cls-5" cx="526.12" cy="250.53" rx="1.79" ry="0.9"/><path class="cls-6" d="M552.59,307.67a6.8,6.8,0,0,0-2.91,0H539.61c0-.1-.15-.12-.29-.12l-5.4-.25a109.16,109.16,0,0,1-21.64-3c-5.19-1.34-9.8-3.24-13.39-6.07a19.14,19.14,0,0,1-4.94-6c-1.55-2.83-2.89-5.67-2.54-8.73a52.15,52.15,0,0,1,1.42-7.46c1.72-6.48,6.82-11.68,14.73-15.73a21.4,21.4,0,0,1,11.09-2.37c6.69.31,13.41.18,20.09.71,4.13.33,8.31.3,12.47.32,3.13,0,6.26.06,9.37.33a5.06,5.06,0,0,1,2.16.63,50.33,50.33,0,0,1,5,3.49c.3.22.19.4,0,.62a32.28,32.28,0,0,0-4.28,9.39c-.9,3.47-.26,6.66,3.37,9.49,2.64,2.06,5.46,4,8.31,5.94a4.74,4.74,0,0,0,2.6,1,1.08,1.08,0,0,1,1.09.66,5.83,5.83,0,0,0,2.39,2.6,15.76,15.76,0,0,1,2.74,2.34c1.87,1.89,2,3.83.36,5.81a15.13,15.13,0,0,1-5.22,3.73,11,11,0,0,1-3.39,1.28,159.69,159.69,0,0,1-19,1.38c-.35,0-.77-.12-1.07.12Zm-50.75-16.11c1.09,0,2.18.09,3.28.11a3.15,3.15,0,0,1,2,.52c.31.26.57.16.86,0,.72-.48,1.49-.93,2.17-1.43a1.69,1.69,0,0,1,1.59-.24c2.53.67,5.09,1.3,7.62,2a2.26,2.26,0,0,0,1.54,0,15.44,15.44,0,0,1,6.6-.81,3.48,3.48,0,0,1,1,.21l6.79,2.11a2.63,2.63,0,0,0,1.55.07c1.39-.33,2.85-.55,4.19-.95a12.71,12.71,0,0,1,5.82,0c.9.15,1.77.37,2.66.56A7.76,7.76,0,0,0,551,294a3.21,3.21,0,0,0,1.17.24l5.27-1,.09,0A10.56,10.56,0,0,1,565,294c1,.46,1.09.43,1.77-.3l1.52-1.65a.87.87,0,0,0,.14-.08c1-1.42,2.66-2.09,5.09-1.94.68,0,.85-.12.31-.49-1.84-1.25-3.7-2.5-5.48-3.79-2.51-1.82-4.92-3.71-6.2-6.05a8.12,8.12,0,0,1-.55-5.26c.1-.74.3-1.48.45-2.2-.09,0-.17-.07-.19-.06-1.77.7-2.9-.24-4.12-.74a3.74,3.74,0,0,0-2.84-.22c-2.52.87-4.76.21-7-.53a19.76,19.76,0,0,1,3.7.39,1.2,1.2,0,0,0,.8-.09c.44-.18.92-.31,1.32-.51a3.77,3.77,0,0,1,3,0,11.28,11.28,0,0,1,2.07.8c1.18.67,2.23.28,3.33-.06.34-.1.34-.3.4-.47a32.49,32.49,0,0,1,3.3-6.59.36.36,0,0,0-.07-.56,16.76,16.76,0,0,0-4.81-2.68,8.46,8.46,0,0,0-2.55-.19l-6.76-.45c-.24,0-.52-.07-.7.1h-.14a4.25,4.25,0,0,0-2.32-.32c-4.08-.09-8.15-.33-12.23-.42a7.41,7.41,0,0,0-2.53,0c-1.56-.1-3.12-.19-4.67-.3a5.23,5.23,0,0,0-1.25,0,32.58,32.58,0,0,0-5.5-.1l-.76-.11c-4.87-.45-9.42-.09-13.26,2.15a6.27,6.27,0,0,1-1.07.53c-.52.17-.3.38-.21.6a26.1,26.1,0,0,0-8.57,6.29c-.44.54-.17.62.54.73,1.19.18,2.36.4,3.53.6a5.91,5.91,0,0,1-3.84-.37.87.87,0,0,0-1.15.26,16.22,16.22,0,0,0-3.1,6.27,54.73,54.73,0,0,0-1.3,6.61,6.84,6.84,0,0,0,.22,3.61,3.67,3.67,0,0,0,.61,2.23,7.09,7.09,0,0,0,1.09,2.25c.06.15.12.31.17.47.1.37.34.47.78.16a2.67,2.67,0,0,0,.78,1.45c1.72,1.85,3.49,3.68,5.24,5.52a1.69,1.69,0,0,0,.29.21,26,26,0,0,0,2.58-2l1.15-.84a3.62,3.62,0,0,1-.21,1.18c-.43.76.06,1.26.86,1.75s1.36.89,2,1.33a.94.94,0,0,0,.1.1c2.22,1.59,2.22,1.64,5.5,1.54a5.88,5.88,0,0,0,3-1.15c.75-.48,1.29-1.09,2.09-1.54a6.86,6.86,0,0,0,2.37.92l8.37,2.79c.93.31,2.59-.19,2.89-.84.17-.36.34-.72.5-1.08.06-.14.07-.33.28-.37,1.28-.24,1.08-1,1.29-1.57.12-.32.26-.63.4-1a8.17,8.17,0,0,1,.85,2.31,1.85,1.85,0,0,0,1.44,1.2c1.54.75,3,1.55,4.64,2.23a17.38,17.38,0,0,0,3.91.6c.13,0,.36-.15.51-.25q1.9-1.25,3.8-2.5A6.75,6.75,0,0,0,552,300.1c.36-.4.68-.8,1-1.2l1,.35a15.25,15.25,0,0,1,3.68,2l-.22.14c-1.24-.64-2.5-1.25-3.72-1.91-.46-.25-.72-.3-.89.15-.77,2.11-3.1,3.51-5.41,4.9a3.61,3.61,0,0,1-3.84.07c-2.56-1.17-5.11-2.34-7.63-3.54-.64-.3-.93-.34-1.26.22a3.52,3.52,0,0,1-2.29,2,6.76,6.76,0,0,1-2.87.22c-2.44-.33-4.22-1.39-6.2-2.24q-1.45-.61-2.85-1.29c-.44-.21-.8-.27-1.1.08-1.11,1.25-3.06,1.8-4.9,2.44a1.12,1.12,0,0,1-.44.12c-1.42-.27-3.05-.2-4.2-.94-1.59-1-3.11-2.06-4.69-3.08-.39-.25-.79-.6-1.41-.12-.8.62-.88.81-.15,1.23a42.49,42.49,0,0,0,10.91,3.95,102,102,0,0,0,15.59,2.29c8.09.63,16.21.66,24.34.57,5.06-.06,10.11-.22,15.13-.72,1.94-.19,3.87-.43,5.8-.64a4.49,4.49,0,0,0,1.28-.43c2.85-1.24,5.44-2.63,6.75-4.77a3.26,3.26,0,0,0-1.49-4.54c0,.07,0,.15,0,.19.86.84.37,1.59-.3,2.38s-1.55,1.92-2.45,2.84-1.35.94-2.78.45c-1.63-.55-3.28-1.07-4.89-1.65-.61-.21-.87-.17-1.06.27a7.59,7.59,0,0,1-3.39,3.64,3.44,3.44,0,0,1-2.28.49,11,11,0,0,1-5.1-1.48l.37,0a15.25,15.25,0,0,0,3.35,1.06,4.77,4.77,0,0,0,4.18-.89c1.28-1.23,2.41-2.51,2.53-4.05A3.34,3.34,0,0,0,570,298c.45-.08.51.22.52.33.06.63.77.88,1.47,1.15,1.73.64,3.63,1,5.43,1.57a.59.59,0,0,0,.64-.13,5.67,5.67,0,0,0,1.43-1.47,6.35,6.35,0,0,1,2.12-2.84c.26-.17.16-.33,0-.51-1.16-1.85-2.3-3.71-3.46-5.56a3.72,3.72,0,0,0-3-.4,3.9,3.9,0,0,1-2.66.43,1.73,1.73,0,0,0-1.33.34,11.11,11.11,0,0,0-3.37,3.09c-.34.49-.77.95-1.19,1.46a6.31,6.31,0,0,0-2.66-1.34,10.22,10.22,0,0,0-6-.44,31.45,31.45,0,0,0-4.33.8c-.79.31-1.28.66-1.33,1.26-.4.05.09.54-.55.48-.14-1.13-1.07-1.86-2.83-2.16s-3.57-.55-5.34-.84a3,3,0,0,0-1.13,0l-3.68.74a9.36,9.36,0,0,0-4.16,1.51c.24-.94-.55-1.18-1.39-1.44-1.56-.48-3.1-1-4.63-1.53a9,9,0,0,0-1.83-.33,13.19,13.19,0,0,0-5.49.89c-.55.16-.92.37-1.05.74l-.78,1.15-.37.53a1.21,1.21,0,0,1,.06-1c.35-1.16.17-1.43-1.49-1.88-2.16-.59-4.4-1-6.63-1.49a.72.72,0,0,0-.78.19c-.3.3-.62.58-.93.87-.88.57-1.34,1.36-2.29,1.88a4.24,4.24,0,0,1,0-.62c.08-.93-.57-1.4-2.06-1.51-1.06-.07-2.11-.17-3.17-.26Zm79.9,3.68,0,0s0,0,0,0l0,0Z"/><path class="cls-7" d="M552.59,307.67a6.8,6.8,0,0,0-2.91,0Z"/><path class="cls-8" d="M499.35,291.33a2.39,2.39,0,0,0-2.05-.82c-.63,0-1,.07-1.13.46l-1.07-.12A7.09,7.09,0,0,1,494,288.6c.56-.56.45-1.22.65-1.84.5-1.56.94-3.14,1.44-4.71s2.13-2.21,4.27-2.61a23.09,23.09,0,0,1,12.21,1.25,3.4,3.4,0,0,0,.87.27.77.77,0,0,0,.59.24l.1.05-.09-.06c0-.23-.28-.26-.56-.26-.18-.48-1-.55-1.37-.87.81-1.7,3-2.3,5.32-2.74a39.29,39.29,0,0,1,8.61-.36,38.1,38.1,0,0,1,6.68.8c.26.06.55.26.87.05a26.38,26.38,0,0,1,7.95,2.93,18.46,18.46,0,0,1,8.51,10.12c-.36.29-.17.64-.17.95a4.24,4.24,0,0,1-.41,1.83c-.89-.19-1.76-.41-2.66-.56a12.71,12.71,0,0,0-5.82,0c-1.34.4-2.8.62-4.19.95a2.63,2.63,0,0,1-1.55-.07l-6.79-2.11a3.48,3.48,0,0,0-1-.21,15.44,15.44,0,0,0-6.6.81,2.26,2.26,0,0,1-1.54,0c-2.53-.67-5.09-1.3-7.62-2a1.69,1.69,0,0,0-1.59.24c-.68.5-1.45.95-2.17,1.43-.29.2-.55.3-.86,0a3.15,3.15,0,0,0-2-.52c-1.1,0-2.19-.07-3.28-.11Zm9.88-7.58c-.1.2.11.31.32.41.84.38,1.18.9,1,1.57-.12.49.37.77,1,.94a2.17,2.17,0,0,0,1.8-.08.77.77,0,0,0,.32-1.15,5.66,5.66,0,0,0-3.82-1.87C509.62,283.58,509.33,283.54,509.23,283.75Zm-4.53-.92a1.35,1.35,0,0,0,1.11-.52c.19-.33-.19-.49-.48-.69a1.11,1.11,0,0,0-1.06,0,7.09,7.09,0,0,1-3.46.25,4.09,4.09,0,0,0-1.05,0c-.56.11-1.07.24-.88.72s.79.49,1.39.39.9-.22,1.36-.31a2.49,2.49,0,0,1,.49,0C503.11,282.65,503.88,282.91,504.7,282.83Z"/><path class="cls-9" d="M502.57,270a5.91,5.91,0,0,1-3.84-.37.87.87,0,0,0-1.15.26,16.22,16.22,0,0,0-3.1,6.27,54.73,54.73,0,0,0-1.3,6.61,6.84,6.84,0,0,0,.22,3.61c.14-.05.25-.11.29-.23.33-1.14.6-2.29,1-3.43a4.35,4.35,0,0,1,1.57-2.64,12.76,12.76,0,0,1,5.93-1.62c1.84-.18,3.7-.27,5.54-.4a23.82,23.82,0,0,0,5.27-1.36,34.78,34.78,0,0,1,11.81-1.1,54.34,54.34,0,0,1,9.79,1.58,28.64,28.64,0,0,1,8.23,3.3,20.26,20.26,0,0,1,5.72,5.16c.19.25.27.57.73.71a5.14,5.14,0,0,0,.8-.62,3.14,3.14,0,0,1,2.71-.77,31.69,31.69,0,0,0,3.37.1,1.83,1.83,0,0,1,1.42.4,3.1,3.1,0,0,0,2.34.63,3.61,3.61,0,0,1,2.12.19,2.75,2.75,0,0,0,2.59.22,1.2,1.2,0,0,1,1.42.26c.42.45,1,.84,1.43,1.26a1,1,0,0,0,.86.32,3.12,3.12,0,0,1,2.35.62,3.3,3.3,0,0,0,1.6.53,1.83,1.83,0,0,1,1.24.5c.68,0,.85-.12.31-.49-1.84-1.25-3.7-2.5-5.48-3.79-2.51-1.82-4.92-3.71-6.2-6.05a8.12,8.12,0,0,1-.55-5.26c.1-.74.3-1.48.45-2.2-.09,0-.17-.07-.19-.06-1.77.7-2.9-.24-4.12-.74a3.74,3.74,0,0,0-2.84-.22c-2.52.87-4.76.21-7-.53l-.06,0-.32-.14h0a9.15,9.15,0,0,0-5.6.13,10,10,0,0,1-1,.26,2.59,2.59,0,0,1-.75.07c-2.11-.12-4.22-.25-6.33-.33a22,22,0,0,1-6.3-1,1.92,1.92,0,0,0-.86,0,17.24,17.24,0,0,0-4.23.7c-.83.31-1.77.52-2.58.85a4.34,4.34,0,0,1-3.79.1c-.23-.1-.54-.14-.79-.22a22.22,22.22,0,0,0-9.38-1.42c-.19,0-.39,0-.58,0C504.42,269.65,503.59,270.13,502.57,270Z"/><path class="cls-10" d="M526.75,269.65a1.92,1.92,0,0,1,.86,0c2.39.08,4.76-.13,7.13-.24a4.67,4.67,0,0,1,1.9.07,12.55,12.55,0,0,0,7.81.26l.56-.1a1.35,1.35,0,0,1,.82.09c.57.27,1.16.52,1.74.78h0l.32.14.06,0a19.76,19.76,0,0,1,3.7.39,1.2,1.2,0,0,0,.8-.09c.44-.18.92-.31,1.32-.51a3.77,3.77,0,0,1,3,0,11.28,11.28,0,0,1,2.07.8c1.18.67,2.23.28,3.33-.06.34-.1.34-.3.4-.47a32.49,32.49,0,0,1,3.3-6.59.36.36,0,0,0-.07-.56,16.76,16.76,0,0,0-4.81-2.68,8.46,8.46,0,0,0-2.55-.19l-2.25,2.86c-.73-1.95-2.54-2.9-5.21-3.21h-.14l-.86,0c-1.61,0-2.08.23-2.45,1.26-.07.2-.08.4-.49.5a3.86,3.86,0,0,0-.32-.56c-.37-.45-.53-1.06-1.47-1.18a14.13,14.13,0,0,0-6.35.41c-.54.18-.73.06-.9-.26s-.53-.51-1.13-.56c-1-.09-2.07-.25-3.11-.38-1.56-.1-3.12-.19-4.67-.3a5.23,5.23,0,0,0-1.25,0c-1,.65-1.89,1.4-2.91,2.1.28-1-.6-1.52-1.8-1.88-.28-.09-.63-.11-.79-.32l-.76-.11a32.24,32.24,0,0,1-3.82.26c-2.55.07-4.86.36-6.62,1.77-1,.83-1.79,1.65-1.8,2.73V265h-.22l-2.08-2.65a26.1,26.1,0,0,0-8.57,6.29c-.44.54-.17.62.54.73,1.19.18,2.36.4,3.53.6,1,.14,1.85-.34,2.83-.34a1.41,1.41,0,0,1,.78-.21c1.72-.11,2.55-.68,2.44-1.81,0-.06.05-.12.13-.25a3.36,3.36,0,0,1,.09.5c0,.54.31.83,1.13,1.05,2.47.66,4.89,1.38,7.31,2.1a2.11,2.11,0,0,0,1.36,0c1.27-.41,2.6-.74,3.82-1.19A8.9,8.9,0,0,1,526.75,269.65Z"/><path class="cls-11" d="M557.41,301.41c-1.24-.64-2.5-1.25-3.72-1.91-.46-.25-.72-.3-.89.15-.77,2.11-3.1,3.51-5.41,4.9a3.61,3.61,0,0,1-3.84.07c-2.56-1.17-5.11-2.34-7.63-3.54-.64-.3-.93-.34-1.26.22a3.52,3.52,0,0,1-2.29,2,6.76,6.76,0,0,1-2.87.22c-2.44-.33-4.22-1.39-6.2-2.24q-1.45-.61-2.85-1.29c-.44-.21-.8-.27-1.1.08-1.11,1.25-3.06,1.8-4.9,2.44a1.12,1.12,0,0,1-.44.12c-1.42-.27-3.05-.2-4.2-.94-1.59-1-3.11-2.06-4.69-3.08-.39-.25-.79-.6-1.41-.12-.8.62-.88.81-.15,1.23a42.49,42.49,0,0,0,10.91,3.95,102,102,0,0,0,15.59,2.29c8.09.63,16.21.66,24.34.57,5.06-.06,10.11-.22,15.13-.72,1.94-.19,3.87-.43,5.8-.64a4.49,4.49,0,0,0,1.28-.43c2.85-1.24,5.44-2.63,6.75-4.77a3.26,3.26,0,0,0-1.49-4.54c0,.07,0,.15,0,.19.86.84.37,1.59-.3,2.38s-1.55,1.92-2.45,2.84-1.35.94-2.78.45c-1.63-.55-3.28-1.07-4.89-1.65-.61-.21-.87-.17-1.06.27a7.59,7.59,0,0,1-3.39,3.64,3.44,3.44,0,0,1-2.28.49,11,11,0,0,1-5.1-1.48c-.43-.24-1.14-.3-1.19-.78h0C557.89,301.86,557.68,301.6,557.41,301.41Z"/><path class="cls-10" d="M551.83,296.23c-.14-1.13-1.07-1.86-2.83-2.16s-3.57-.55-5.34-.84a3,3,0,0,0-1.13,0l-3.68.74a9.36,9.36,0,0,0-4.16,1.51c.24-.94-.55-1.18-1.39-1.44-1.56-.48-3.1-1-4.63-1.53a9,9,0,0,0-1.83-.33,13.19,13.19,0,0,0-5.49.89c-.55.16-.92.37-1.05.74.9.2,1,.74,1.09,1.22a25.46,25.46,0,0,1,.72,3.2c.07.53.48,1.14-.28,1.64l8.37,2.79c.93.31,2.59-.19,2.89-.84.17-.36.34-.72.5-1.08.06-.14.07-.33.28-.37,1.28-.24,1.08-1,1.29-1.57.12-.32.26-.63.4-1,0-.62,0-1.24,0-1.86,0-.32,0-.79.54-.83s.47.45.56.71a33,33,0,0,1,1.18,5.49c1.54.75,3,1.55,4.64,2.23a17.38,17.38,0,0,0,3.91.6c.13,0,.36-.15.51-.25q1.9-1.25,3.8-2.5A6.75,6.75,0,0,0,552,300.1c.36-.4.68-.8,1-1.2A22.15,22.15,0,0,1,551.83,296.23Z"/><path class="cls-10" d="M554,299.25a15.25,15.25,0,0,1,3.68,2,1.68,1.68,0,0,1,.78.48h0a6.26,6.26,0,0,1,1.56.75,15.25,15.25,0,0,0,3.35,1.06,4.77,4.77,0,0,0,4.18-.89c1.28-1.23,2.41-2.51,2.53-4.05A3.34,3.34,0,0,0,570,298a10.29,10.29,0,0,1-2.86-2.26l0-.05,0,.05c2.23.33,4.65,2.17,4.86,3.74,1.73.64,3.63,1,5.43,1.57a.59.59,0,0,0,.64-.13,5.67,5.67,0,0,0,1.43-1.47,6.35,6.35,0,0,1,2.12-2.84c.26-.17.16-.33,0-.51-1.16-1.85-2.3-3.71-3.46-5.56a3.72,3.72,0,0,0-3-.4,3.9,3.9,0,0,1-2.66.43,1.73,1.73,0,0,0-1.33.34,11.11,11.11,0,0,0-3.37,3.09c-.34.49-.77.95-1.19,1.46a6.31,6.31,0,0,0-2.66-1.34,10.22,10.22,0,0,0-6-.44,31.45,31.45,0,0,0-4.33.8c-.79.31-1.28.66-1.33,1.26.66.06.62.45.71.71C553.42,297.39,553.67,298.32,554,299.25Z"/><path class="cls-12" d="M508.78,300.05a.94.94,0,0,0,.1.1c2.22,1.59,2.22,1.64,5.5,1.54a5.88,5.88,0,0,0,3-1.15c.75-.48,1.29-1.09,2.09-1.54a6.34,6.34,0,0,1,0-3c.07-.32.43-.63.07-1l-.37.53a1.21,1.21,0,0,1,.06-1c.35-1.16.17-1.43-1.49-1.88-2.16-.59-4.4-1-6.63-1.49a.72.72,0,0,0-.78.19c-.3.3-.62.58-.93.87.16.34.36.67.49,1,.47,1.29.92,2.57.36,3.93A23.65,23.65,0,0,1,508.78,300.05Z"/><path class="cls-12" d="M573.54,290a1.83,1.83,0,0,0-1.24-.5,3.3,3.3,0,0,1-1.6-.53,3.12,3.12,0,0,0-2.35-.62,1,1,0,0,1-.86-.32c-.48-.42-1-.81-1.43-1.26a1.2,1.2,0,0,0-1.42-.26,2.75,2.75,0,0,1-2.59-.22,3.61,3.61,0,0,0-2.12-.19,3.1,3.1,0,0,1-2.34-.63,1.83,1.83,0,0,0-1.42-.4,31.69,31.69,0,0,1-3.37-.1,3.14,3.14,0,0,0-2.71.77,5.14,5.14,0,0,1-.8.62,10.78,10.78,0,0,0,1.18,2.25,7.81,7.81,0,0,0,5.31-.1,1.14,1.14,0,0,1,1.19.15,4,4,0,0,0,3,.72c.61,0,1.23,0,1.84,0a1.45,1.45,0,0,1,1.33.47,4.79,4.79,0,0,0,3,1.61c.73.15,1.43.38,2.14.57a.87.87,0,0,0,.14-.08C569.44,290.5,571.11,289.83,573.54,290Z"/><path class="cls-13" d="M550.47,288.59a10.78,10.78,0,0,1-1.18-2.25c-.46-.14-.54-.46-.73-.71a20.26,20.26,0,0,0-5.72-5.16,28.64,28.64,0,0,0-8.23-3.3,54.34,54.34,0,0,0-9.79-1.58,34.78,34.78,0,0,0-11.81,1.1,23.82,23.82,0,0,1-5.27,1.36c-1.84.13-3.7.22-5.54.4a12.76,12.76,0,0,0-5.93,1.62,4.35,4.35,0,0,0-1.57,2.64c-.41,1.14-.68,2.29-1,3.43,0,.12-.15.18-.29.23a3.67,3.67,0,0,0,.61,2.23c.56-.56.45-1.22.65-1.84.5-1.56.94-3.14,1.44-4.71s2.13-2.21,4.27-2.61a23.09,23.09,0,0,1,12.21,1.25,3.4,3.4,0,0,0,.87.27l0,0c-.18-.48-1-.55-1.37-.87-1.21-.49-2.51-.85-3.82-1.25a22.17,22.17,0,0,0,4.62-1.27,31.58,31.58,0,0,1,9.32-1.32,34.41,34.41,0,0,1,4.86.33,38,38,0,0,1,6.5,1.26,26.38,26.38,0,0,1,7.95,2.93,18.46,18.46,0,0,1,8.51,10.12,13.73,13.73,0,0,1,1,3.12,3.21,3.21,0,0,0,1.17.24l-.38-1.87A31.93,31.93,0,0,0,550.47,288.59Z"/><path class="cls-14" d="M550.47,288.59a31.93,31.93,0,0,1,1.35,3.76,13.22,13.22,0,0,1,5.65.84l.09,0A10.56,10.56,0,0,1,565,294c1,.46,1.09.43,1.77-.3l1.52-1.65c-.71-.19-1.41-.42-2.14-.57a4.79,4.79,0,0,1-3-1.61,1.45,1.45,0,0,0-1.33-.47c-.61,0-1.23,0-1.84,0a4,4,0,0,1-3-.72,1.14,1.14,0,0,0-1.19-.15A7.81,7.81,0,0,1,550.47,288.59Z"/><path class="cls-14" d="M496.05,291.48a2.67,2.67,0,0,0,.78,1.45c1.72,1.85,3.49,3.68,5.24,5.52a1.69,1.69,0,0,0,.29.21,26,26,0,0,0,2.58-2,.8.8,0,0,1-.44-.32,22.56,22.56,0,0,0-6.33-4.78c-.16-.09-.24-.19-.22-.33-.86-.53-1.37-.06-1.91.29Z"/><path class="cls-14" d="M508.78,300.05a23.65,23.65,0,0,0,1.45-2.89c.56-1.36.11-2.64-.36-3.93-.13-.34-.33-.67-.49-1-.88.57-1.34,1.36-2.29,1.88l-1,1.69a3.62,3.62,0,0,1-.21,1.18c-.43.76.06,1.26.86,1.75S508.1,299.61,508.78,300.05Z"/><path class="cls-15" d="M506.09,295.79l1-1.69a4.24,4.24,0,0,1,0-.62c.08-.93-.57-1.4-2.06-1.51-1.06-.07-2.11-.17-3.17-.26a14,14,0,0,1-2.51-.23,10.22,10.22,0,0,1-1.38-.28c0,.14.06.24.22.33a22.56,22.56,0,0,1,6.33,4.78.8.8,0,0,0,.44.32Z"/><path class="cls-7" d="M507.07,262.37l2.08,2.65h.22v-1.17c0-1.08.76-1.9,1.8-2.73,1.76-1.41,4.07-1.7,6.62-1.77a32.24,32.24,0,0,0,3.82-.26c-4.87-.45-9.42-.09-13.26,2.15a6.27,6.27,0,0,1-1.07.53C506.76,261.94,507,262.15,507.07,262.37Z"/><path class="cls-14" d="M519.52,295c.36.33,0,.64-.07,1a6.34,6.34,0,0,0,0,3,6.86,6.86,0,0,0,2.37.92c.76-.5.35-1.11.28-1.64a25.46,25.46,0,0,0-.72-3.2c-.13-.48-.19-1-1.09-1.22Z"/><path class="cls-11" d="M533.79,259.6c1,.13,2.07.29,3.11.38.6,0,1,.22,1.13.56s.36.44.9.26a14.13,14.13,0,0,1,6.35-.41c.94.12,1.1.73,1.47,1.18a3.86,3.86,0,0,1,.32.56c.41-.1.42-.3.49-.5.37-1,.84-1.26,2.45-1.26l.86,0a4.25,4.25,0,0,0-2.32-.32c-4.08-.09-8.15-.33-12.23-.42A7.41,7.41,0,0,0,533.79,259.6Z"/><path class="cls-11" d="M551,260.34c2.67.31,4.48,1.26,5.21,3.21l2.25-2.86-6.76-.45C551.47,260.22,551.19,260.17,551,260.34Z"/><path class="cls-14" d="M537.85,301.41a33,33,0,0,0-1.18-5.49c-.09-.26-.11-.74-.56-.71s-.52.51-.54.83c0,.62,0,1.24,0,1.86a8.17,8.17,0,0,1,.85,2.31A1.85,1.85,0,0,0,537.85,301.41Z"/><path class="cls-11" d="M557.47,293.19a13.22,13.22,0,0,0-5.65-.84l.38,1.87Z"/><path class="cls-7" d="M522.37,259.2c.16.21.51.23.79.32,1.2.36,2.08.85,1.8,1.88,1-.7,1.89-1.45,2.91-2.1A32.58,32.58,0,0,0,522.37,259.2Z"/><path class="cls-14" d="M572,299.49c-.21-1.57-2.63-3.41-4.86-3.74h0A10.29,10.29,0,0,0,570,298c.45-.08.51.22.52.33C570.56,299,571.27,299.22,572,299.49Z"/><path class="cls-14" d="M554,299.25c-.28-.93-.53-1.86-.86-2.79-.09-.26-.05-.65-.71-.71-.4.05.09.54-.55.48A22.15,22.15,0,0,0,553,298.9Z"/><path class="cls-16" d="M551,294a13.73,13.73,0,0,0-1-3.12c-.36.29-.17.64-.17.95a4.24,4.24,0,0,1-.41,1.83A7.76,7.76,0,0,0,551,294Z"/><path class="cls-11" d="M496.17,291l-1.07-.12c.06.15.12.31.17.47.1.37.34.47.78.16h0C495.89,291.3,496.13,291.15,496.17,291Z"/><path class="cls-9" d="M499.33,291.48a14,14,0,0,0,2.51.23v-.15l-2.49-.23Z"/><path class="cls-9" d="M560,302.51a6.26,6.26,0,0,0-1.56-.75c.05.48.76.54,1.19.78Z"/><path class="cls-9" d="M558.41,301.75a1.68,1.68,0,0,0-.78-.48l-.22.14C557.68,301.6,557.89,301.86,558.41,301.75Z"/><path class="cls-11" d="M581.69,295.2l0,0,0,0s0,0,0,0Z"/><path class="cls-16" d="M533.6,277.81a38,38,0,0,0-6.5-1.26,34.41,34.41,0,0,0-4.86-.33,31.58,31.58,0,0,0-9.32,1.32,22.17,22.17,0,0,1-4.62,1.27c1.31.4,2.61.76,3.82,1.25.81-1.7,3-2.3,5.32-2.74a39.29,39.29,0,0,1,8.61-.36,38.1,38.1,0,0,1,6.68.8C533,277.82,533.28,278,533.6,277.81Z"/><path class="cls-17" d="M509.87,283.57c-.25,0-.54,0-.64.18s.11.31.32.41c.84.38,1.18.9,1,1.57-.12.49.37.77,1,.94a2.17,2.17,0,0,0,1.8-.08.77.77,0,0,0,.32-1.15A5.66,5.66,0,0,0,509.87,283.57Z"/><path class="cls-17" d="M502.12,282.71c1-.06,1.76.2,2.58.12a1.35,1.35,0,0,0,1.11-.52c.19-.33-.19-.49-.48-.69a1.11,1.11,0,0,0-1.06,0,7.09,7.09,0,0,1-3.46.25,4.09,4.09,0,0,0-1.05,0c-.56.11-1.07.24-.88.72s.79.49,1.39.39.9-.22,1.36-.31A2.49,2.49,0,0,1,502.12,282.71Z"/><path class="cls-6" d="M499.33,291.48l0-.15a2.39,2.39,0,0,0-2.05-.82c-.63,0-1,.07-1.13.46,0,.18-.28.33-.13.52.54-.35,1-.82,1.91-.29A10.22,10.22,0,0,0,499.33,291.48Z"/><path class="cls-13" d="M513.45,281a.77.77,0,0,0,.59.24h0c0-.23-.28-.26-.56-.26Z"/><path class="cls-13" d="M514,281.2l.1.05-.09-.06Z"/><path class="cls-6" d="M547.57,270.53c-.58-.26-1.17-.51-1.74-.78a1.35,1.35,0,0,0-.82-.09l-.56.1a12.55,12.55,0,0,1-7.81-.26,4.67,4.67,0,0,0-1.9-.07c-2.37.11-4.74.32-7.13.24a22,22,0,0,0,6.3,1c2.11.08,4.22.21,6.33.33a2.59,2.59,0,0,0,.75-.07,10,10,0,0,0,1-.26A9.15,9.15,0,0,1,547.57,270.53Z"/><path class="cls-18" d="M526.75,269.65a8.9,8.9,0,0,0-4.29.19c-1.22.45-2.55.78-3.82,1.19a2.11,2.11,0,0,1-1.36,0c-2.42-.72-4.84-1.44-7.31-2.1-.82-.22-1.17-.51-1.13-1.05a3.36,3.36,0,0,0-.09-.5c-.08.13-.14.19-.13.25.11,1.13-.72,1.7-2.44,1.81a1.41,1.41,0,0,0-.78.21c.19,0,.39,0,.58,0a22.22,22.22,0,0,1,9.38,1.42c.25.08.56.12.79.22a4.34,4.34,0,0,0,3.79-.1c.81-.33,1.75-.54,2.58-.85A17.24,17.24,0,0,1,526.75,269.65Z"/><path class="cls-6" d="M547.87,270.66l-.32-.14Z"/><path class="cls-14" d="M567.11,295.75l0-.05,0,.05Z"/><path class="cls-1" d="M127.11,227.52c.56-3.78,1.8-7.37,2.6-11.08a3.32,3.32,0,0,1,1.06-1.82c11.06-9.63,33.38-22.75,60.22-18.9a3.12,3.12,0,0,1,1.86.92,1.62,1.62,0,0,1,.51,1.63,4.09,4.09,0,0,0,2.68,5.12c6.37,2,13.2,5,5.23,6.68,0,0-1.36,1.36,1.35,2,0,0,12,2.4,17,10.46a3.34,3.34,0,0,1-2.82,5.13h-.47a1.73,1.73,0,0,0-1.68,2.13c.73,3.11,2.18,10,4.17,23a8,8,0,0,0,5.27,6.34l5,1.74a6,6,0,0,1,4,6.06,48.11,48.11,0,0,1-5.72,19.2,8,8,0,0,0,.32,8.15l17,26.32s8.65,14.19,13.59,25.76c0,0,4.39,9.29,3.76,31l1,45.6s0,9.49-14.24,10.85-35.94,1.35-35.94,1.35-5.07,0-8-5.66a3.36,3.36,0,0,0-3-1.8h-9.69a3.31,3.31,0,0,1-.77-.09c-1.67-.4-7.67-2.26-8.37-8.51a3,3,0,0,1,0-.42v-6.63a3.34,3.34,0,0,0-3.34-3.33h-7.56a3.33,3.33,0,0,0-3.34,3.33v5.09a3.1,3.1,0,0,1-.1.81c-.49,1.92-2.94,9.67-10.07,9.07h-9a3.36,3.36,0,0,0-3.12,2.15,9.54,9.54,0,0,1-7.56,6c-7.06,1.29-31.73.14-34.35,0-.16,0-.31,0-.47,0-14-.69-15.36-11.54-15.36-11.54-.71-3.94-.48-21.72-.11-37.61,0,0,2-36.48,6.82-45.66a68.37,68.37,0,0,1,6.09-10.85l.16-.26c1.1-2,14.71-26.62,20.37-33a11.48,11.48,0,0,0,2.71-5.73c1.11-6.41,2.9-18.43,1.94-24.24,0,0-.76-11-1.58-21.83"/><path class="cls-2" d="M147,427.06c0-1.95-.62-12-14.4-21.18a14.57,14.57,0,0,0-2.27-1.29c-.4-.16-1-.63-1-1.94l-.68-33.9v-1.36"/><path class="cls-2" d="M204,427.4c0-1.93.61-11.23,14.09-20.3a15.43,15.43,0,0,1,2.58-1.49c.4-.17,1-.63,1-1.94l.68-33.91v-1.35"/><path class="cls-3" d="M143.72,298.55c3.12,3.72,16.42,16.14,50.09,9.17,0,0,12.88-.68,26.44-26.45a38.92,38.92,0,0,0,3.88-12.48,2.26,2.26,0,0,0-1.52-2.43c-4.37-1.48-17.47-4.7-43.58-2.05l-.27,0c-1.68.26-20,3-29.62,1.59a1.39,1.39,0,0,0-1.6,1.22c-.61,5.59-2.85,25.41-4.16,29.61A1.9,1.9,0,0,0,143.72,298.55Z"/><path class="cls-3" d="M147.92,260.06a152.23,152.23,0,0,0,.54-28.33,1.89,1.89,0,0,1,1.15-1.86c4.65-1.93,21.66-8,37.07-.64a1.91,1.91,0,0,0,1.88-.12,16.82,16.82,0,0,1,18-.51,1.89,1.89,0,0,1,.94,1.28c1,5,5.94,30.37,5.26,31.05s-23-2.7-36.56.66l-.1,0c-1,.17-17.72,2.92-26.81.51A1.9,1.9,0,0,1,147.92,260.06Z"/><path class="cls-3" d="M132.78,346.37s-8.14,40.69,14.24,48.82c0,0,23.73,14.24,48.14,4.07,0,0,21.7-4.07,23.74-23.73l.68-25.09s1.35-16.28-25.77-20.34S138.2,329.42,132.78,346.37Z"/><path class="cls-4" d="M175.82,373.16s5.43,2,3.39,4.74a10.46,10.46,0,0,1-1.82,2,3,3,0,0,1-2.55.52l-.71-.18a2.29,2.29,0,0,1-1.49-1.19l-.47-.94a1.66,1.66,0,0,1,.13-1.72c.52-.72,1.34-1.56,2.17-1.15,1.35.68,2.71.68,2.71,2s-2,1.36-2,1.36"/><circle class="cls-5" cx="193.76" cy="245.96" r="7.17"/><circle cx="194.36" cy="246.56" r="5.98"/><ellipse class="cls-5" cx="196.45" cy="245.36" rx="1.49" ry="2.99"/><ellipse class="cls-5" cx="193.76" cy="249.25" rx="1.79" ry="0.9"/><circle class="cls-5" cx="176.91" cy="245.96" r="7.17"/><circle cx="177.5" cy="246.56" r="5.98"/><ellipse class="cls-5" cx="179.6" cy="245.36" rx="1.49" ry="2.99"/><ellipse class="cls-5" cx="176.91" cy="249.25" rx="1.79" ry="0.9"/><g id="Layer_19" data-name="Layer 19"><path class="cls-1" d="M1178,228.08c.56-3.77,1.8-7.37,2.61-11.07a3.33,3.33,0,0,1,1.05-1.83c11.06-9.63,33.38-22.75,60.23-18.9a3.2,3.2,0,0,1,1.86.92,1.62,1.62,0,0,1,.5,1.63,4.11,4.11,0,0,0,2.69,5.13c6.36,2,13.2,5,5.22,6.68,0,0-1.35,1.35,1.36,2,0,0,12,2.41,17,10.46a3.35,3.35,0,0,1-2.82,5.14h-.47a1.72,1.72,0,0,0-1.68,2.12c.73,3.11,2.17,10,4.17,23a8,8,0,0,0,5.26,6.35l5,1.74a6,6,0,0,1,4,6.05,48.05,48.05,0,0,1-5.71,19.21,8,8,0,0,0,.32,8.15l17,26.32s8.65,14.19,13.59,25.76c0,0,4.4,9.29,3.77,31l.95,45.59s0,9.49-14.24,10.85-35.94,1.36-35.94,1.36-5.08,0-8-5.67a3.33,3.33,0,0,0-3-1.79H1243a3.39,3.39,0,0,1-.78-.09c-1.67-.4-7.67-2.26-8.37-8.52,0-.14,0-.28,0-.41v-6.63a3.34,3.34,0,0,0-3.34-3.34h-7.56a3.35,3.35,0,0,0-3.34,3.34v5.09a3.21,3.21,0,0,1-.1.81c-.49,1.91-2.93,9.66-10.07,9.07h-9a3.38,3.38,0,0,0-3.12,2.15,9.52,9.52,0,0,1-7.55,6c-7.06,1.28-31.74.13-34.36,0h-.46c-14-.69-15.36-11.54-15.36-11.54-.72-3.94-.49-21.73-.11-37.61,0,0,2-36.49,6.81-45.67a68.81,68.81,0,0,1,6.09-10.85,2.26,2.26,0,0,0,.16-.26c1.11-2,14.71-26.62,20.37-33a11.54,11.54,0,0,0,2.72-5.73c1.1-6.41,2.9-18.43,1.93-24.24,0,0-.76-11-1.57-21.84"/><path class="cls-2" d="M1197.89,427.63c0-1.95-.62-12-14.4-21.18a12.41,12.41,0,0,0-2.27-1.29c-.4-.17-1-.64-1-1.94l-.67-33.91V368"/><path class="cls-2" d="M1254.85,428c0-1.94.62-11.23,14.1-20.3a14.68,14.68,0,0,1,2.57-1.49c.4-.17,1-.64,1-1.94l.68-33.91V369"/><path class="cls-3" d="M1194.59,293.39c3.13,3.71,16.42,16.13,50.09,9.16,0,0,12.89-.67,26.45-26.44a38.92,38.92,0,0,0,3.88-12.48,2.26,2.26,0,0,0-1.53-2.43c-4.37-1.48-17.46-4.71-43.58-2.06l-.26,0c-1.69.26-20,3-29.63,1.6a1.38,1.38,0,0,0-1.6,1.21c-.61,5.6-2.84,25.41-4.15,29.61A1.89,1.89,0,0,0,1194.59,293.39Z"/><path class="cls-3" d="M1198.8,260.63a153.22,153.22,0,0,0,.54-28.33,1.88,1.88,0,0,1,1.14-1.86c4.66-1.94,21.67-8,37.08-.64a1.91,1.91,0,0,0,1.88-.12,16.81,16.81,0,0,1,18-.52,1.94,1.94,0,0,1,.94,1.29c1,4.94,5.94,30.37,5.26,31.05s-23-2.71-36.56.66l-.11,0c-1,.18-17.72,2.93-26.81.51A1.87,1.87,0,0,1,1198.8,260.63Z"/><path class="cls-3" d="M1183.65,346.94s-8.13,40.68,14.24,48.82c0,0,23.74,14.24,48.15,4.07,0,0,21.7-4.07,23.73-23.74l.68-25.09s1.36-16.27-25.77-20.34S1189.08,330,1183.65,346.94Z"/><path class="cls-4" d="M1226.7,373.72s5.42,2,3.39,4.75a10.34,10.34,0,0,1-1.83,1.94,3,3,0,0,1-2.55.52l-.7-.17a2.25,2.25,0,0,1-1.49-1.2l-.47-.94a1.65,1.65,0,0,1,.12-1.71c.52-.73,1.35-1.57,2.17-1.15,1.36.67,2.71.67,2.71,2s-2,1.36-2,1.36"/><circle class="cls-5" cx="1244.63" cy="246.53" r="7.17"/><circle cx="1245.23" cy="247.12" r="5.98"/><ellipse class="cls-5" cx="1247.32" cy="245.93" rx="1.49" ry="2.99"/><ellipse class="cls-5" cx="1244.63" cy="249.81" rx="1.79" ry="0.9"/><circle class="cls-5" cx="1227.78" cy="246.53" r="7.17"/><circle cx="1228.38" cy="247.12" r="5.98"/><ellipse class="cls-5" cx="1230.47" cy="245.93" rx="1.49" ry="2.99"/><ellipse class="cls-5" cx="1227.78" cy="249.81" rx="1.79" ry="0.9"/><path class="cls-19" d="M1218.48,273.29s26.94,3.24,31.37-1"/><line class="cls-19" x1="1247.81" y1="269.03" x2="1252.07" y2="275.34"/><path class="cls-1" d="M1178.09,228.22c.56-3.78,1.8-7.38,2.61-11.08a3.3,3.3,0,0,1,1-1.83c11.06-9.63,33.38-22.74,60.22-18.9a3.2,3.2,0,0,1,1.87.92,1.62,1.62,0,0,1,.5,1.63,4.1,4.1,0,0,0,2.69,5.13c6.36,2,13.2,5,5.22,6.68,0,0-1.36,1.36,1.36,2,0,0,12,2.41,17,10.47a3.34,3.34,0,0,1-2.82,5.13h-.46a1.74,1.74,0,0,0-1.69,2.13c.73,3.1,2.18,10,4.17,23a8,8,0,0,0,5.27,6.34l5,1.74a6,6,0,0,1,4,6.05,48.22,48.22,0,0,1-5.71,19.21,8,8,0,0,0,.32,8.15l17,26.32s8.65,14.19,13.59,25.76c0,0,4.4,9.29,3.77,31l1,45.59s0,9.5-14.24,10.85-35.94,1.36-35.94,1.36-5.08,0-8-5.66a3.34,3.34,0,0,0-3-1.8h-9.69a3.31,3.31,0,0,1-.77-.09c-1.67-.4-7.67-2.26-8.37-8.52,0-.13,0-.27,0-.41v-6.63a3.34,3.34,0,0,0-3.34-3.34H1223a3.35,3.35,0,0,0-3.34,3.34v5.09a3.15,3.15,0,0,1-.1.81c-.49,1.91-2.93,9.67-10.07,9.07h-9a3.36,3.36,0,0,0-3.12,2.15,9.54,9.54,0,0,1-7.56,6c-7,1.28-31.73.14-34.35,0-.15,0-.31,0-.46,0-14-.69-15.36-11.54-15.36-11.54-.72-3.94-.49-21.73-.11-37.61,0,0,2-36.49,6.81-45.66a68.45,68.45,0,0,1,6.09-10.86,2.13,2.13,0,0,0,.16-.25c1.11-2,14.71-26.62,20.37-33a11.54,11.54,0,0,0,2.72-5.73c1.1-6.41,2.9-18.43,1.93-24.24,0,0-.76-11-1.57-21.84"/><path class="cls-2" d="M1198,427.76c0-1.95-.62-12-14.4-21.18a14.12,14.12,0,0,0-2.27-1.29c-.4-.17-1-.63-1-1.94l-.68-33.9v-1.36"/><path class="cls-2" d="M1255,428.1c0-1.93.62-11.23,14.1-20.3a14.68,14.68,0,0,1,2.57-1.49c.4-.17,1-.63,1-1.94l.68-33.91v-1.35"/><path class="cls-3" d="M1194.7,293.52c3.13,3.72,16.42,16.13,50.09,9.17,0,0,12.88-.68,26.45-26.45a38.77,38.77,0,0,0,3.87-12.48,2.25,2.25,0,0,0-1.52-2.43c-4.37-1.48-17.46-4.7-43.58-2.06l-.26,0c-1.69.25-20,3-29.63,1.59a1.4,1.4,0,0,0-1.6,1.22c-.61,5.59-2.84,25.4-4.16,29.61A1.9,1.9,0,0,0,1194.7,293.52Z"/><path class="cls-3" d="M1198.91,260.76a153.18,153.18,0,0,0,.54-28.33,1.87,1.87,0,0,1,1.14-1.86c4.66-1.93,21.66-8,37.08-.64a1.91,1.91,0,0,0,1.88-.12,16.79,16.79,0,0,1,18-.52,1.88,1.88,0,0,1,.94,1.29c1,4.94,6,30.37,5.27,31s-23-2.71-36.57.66l-.1,0c-1,.18-17.72,2.93-26.81.52A1.89,1.89,0,0,1,1198.91,260.76Z"/><path class="cls-3" d="M1183.76,347.07s-8.14,40.68,14.24,48.82c0,0,23.74,14.24,48.15,4.07,0,0,21.7-4.07,23.73-23.73l.68-25.09s1.35-16.28-25.77-20.35S1189.19,330.12,1183.76,347.07Z"/><path class="cls-4" d="M1226.81,373.85s5.42,2,3.39,4.75a10.34,10.34,0,0,1-1.83,1.94,3,3,0,0,1-2.55.53l-.71-.18a2.3,2.3,0,0,1-1.49-1.2l-.47-.94a1.67,1.67,0,0,1,.13-1.71c.52-.72,1.35-1.56,2.17-1.15,1.36.68,2.71.68,2.71,2s-2,1.36-2,1.36"/><circle class="cls-5" cx="1244.74" cy="246.66" r="7.17"/><circle cx="1245.34" cy="247.26" r="5.98"/><ellipse class="cls-5" cx="1247.43" cy="246.06" rx="1.49" ry="2.99"/><ellipse class="cls-5" cx="1244.74" cy="249.95" rx="1.79" ry="0.9"/><circle class="cls-5" cx="1227.89" cy="246.66" r="7.17"/><circle cx="1228.49" cy="247.26" r="5.98"/><ellipse class="cls-5" cx="1230.58" cy="246.06" rx="1.49" ry="2.99"/><ellipse class="cls-5" cx="1227.89" cy="249.95" rx="1.79" ry="0.9"/><path class="cls-19" d="M1252.18,273.43s-26.94,3.24-31.37-1"/><line class="cls-19" x1="1222.85" y1="269.16" x2="1218.59" y2="275.47"/></g><g id="Layer_18" data-name="Layer 18"><path class="cls-1" d="M827.69,228.27c.56-3.78,1.8-7.37,2.6-11.08a3.34,3.34,0,0,1,1.05-1.82c11.07-9.63,33.39-22.75,60.23-18.9a3.2,3.2,0,0,1,1.86.92,1.62,1.62,0,0,1,.51,1.63,4.09,4.09,0,0,0,2.68,5.12c6.37,2,13.2,5,5.23,6.69,0,0-1.36,1.35,1.35,2,0,0,12,2.41,17,10.46a3.35,3.35,0,0,1-2.82,5.14H917a1.72,1.72,0,0,0-1.68,2.12c.73,3.11,2.18,10,4.17,23a8,8,0,0,0,5.27,6.34l5,1.75a6,6,0,0,1,4,6.05A48.36,48.36,0,0,1,928,286.89a8,8,0,0,0,.32,8.15l17,26.32s8.66,14.19,13.6,25.75c0,0,4.39,9.3,3.76,31.05l.95,45.59s0,9.49-14.24,10.85S913.37,436,913.37,436s-5.07,0-8-5.66a3.32,3.32,0,0,0-3-1.79H892.7a3,3,0,0,1-.78-.1c-1.66-.39-7.66-2.25-8.36-8.51a3,3,0,0,1,0-.42v-6.62a3.34,3.34,0,0,0-3.34-3.34h-7.56a3.33,3.33,0,0,0-3.34,3.34v5.09a3.21,3.21,0,0,1-.1.81c-.49,1.91-2.94,9.66-10.07,9.07h-9A3.36,3.36,0,0,0,847,430a9.55,9.55,0,0,1-7.56,6c-7.06,1.29-31.73.14-34.36,0h-.46c-14-.68-15.36-11.53-15.36-11.53-.72-3.95-.48-21.73-.11-37.62,0,0,2-36.48,6.82-45.66a68.81,68.81,0,0,1,6.09-10.85l.16-.26c1.1-2,14.7-26.62,20.37-33a11.53,11.53,0,0,0,2.71-5.72c1.11-6.42,2.9-18.44,1.94-24.24,0,0-.76-11-1.58-21.84"/><path class="cls-2" d="M847.6,427.82c0-1.95-.62-12-14.4-21.19a13.75,13.75,0,0,0-2.27-1.28c-.4-.17-1-.64-1-1.94l-.68-33.91v-1.36"/><path class="cls-2" d="M904.56,428.16c0-1.94.61-11.23,14.09-20.31a15.73,15.73,0,0,1,2.58-1.49c.4-.16,1-.63,1-1.94l.68-33.9v-1.36"/><path class="cls-3" d="M844.29,293.57c3.13,3.72,16.43,16.14,50.1,9.17,0,0,12.88-.68,26.44-26.44a38.93,38.93,0,0,0,3.88-12.49,2.25,2.25,0,0,0-1.53-2.42c-4.37-1.49-17.46-4.71-43.57-2.06l-.27,0c-1.68.26-20,3-29.63,1.59a1.39,1.39,0,0,0-1.59,1.22c-.62,5.59-2.85,25.41-4.16,29.61A1.91,1.91,0,0,0,844.29,293.57Z"/><path class="cls-3" d="M848.5,260.81a152.11,152.11,0,0,0,.54-28.32,1.88,1.88,0,0,1,1.15-1.86c4.65-1.94,21.66-8,37.07-.65a1.89,1.89,0,0,0,1.88-.12,16.82,16.82,0,0,1,18-.51,1.89,1.89,0,0,1,.94,1.29c1,4.94,5.94,30.36,5.26,31s-23-2.7-36.56.67l-.11,0c-1.05.18-17.71,2.92-26.8.51A1.89,1.89,0,0,1,848.5,260.81Z"/><path class="cls-3" d="M833.36,347.12S825.22,387.81,847.6,396c0,0,23.73,14.24,48.14,4.07,0,0,21.7-4.07,23.74-23.74l.67-25.09s1.36-16.27-25.76-20.34S838.78,330.17,833.36,347.12Z"/><path class="cls-4" d="M876.4,373.91s5.43,2,3.39,4.75A10.35,10.35,0,0,1,878,380.6a3,3,0,0,1-2.55.52l-.71-.18a2.26,2.26,0,0,1-1.49-1.19l-.47-.94a1.65,1.65,0,0,1,.13-1.71c.52-.73,1.34-1.57,2.17-1.16,1.35.68,2.71.68,2.71,2s-2,1.35-2,1.35"/><circle class="cls-5" cx="894.34" cy="246.71" r="7.17"/><circle cx="894.93" cy="247.31" r="5.98"/><ellipse class="cls-5" cx="897.03" cy="246.12" rx="1.49" ry="2.99"/><ellipse class="cls-5" cx="894.34" cy="250" rx="1.79" ry="0.9"/><circle class="cls-5" cx="877.49" cy="246.71" r="7.17"/><circle cx="878.08" cy="247.31" r="5.98"/><ellipse class="cls-5" cx="880.17" cy="246.12" rx="1.49" ry="2.99"/><ellipse class="cls-5" cx="877.49" cy="250" rx="1.79" ry="0.9"/><path class="cls-19" d="M868.19,273.48s26.94,3.24,31.37-1"/><line class="cls-19" x1="897.51" y1="269.22" x2="901.78" y2="275.53"/></g></g></svg>
