<svg xmlns="http://www.w3.org/2000/svg" width="350" height="500" viewBox="0 0 350 500"><defs><style>.cls-1{fill:#291706;}.cls-2,.cls-4,.cls-5,.cls-6{fill:none;stroke-miterlimit:10;}.cls-2{stroke:#8b6448;}.cls-2,.cls-4{stroke-width:0.68px;}.cls-3{fill:#8b6448;}.cls-4,.cls-5,.cls-6{stroke:#291706;}.cls-6{stroke-width:1.41px;}.cls-7{fill:#d6995b;}.cls-8{fill:#d6985a;}.cls-9{fill:#dca167;}.cls-10{fill:#e9b584;}.cls-11{fill:#dea46c;}.cls-12{fill:#bf8558;}</style></defs><title>plaster</title><g id="plaster"><path class="cls-1" d="M126.49,229.71c.56-3.78,1.8-7.37,2.61-11.08a3.34,3.34,0,0,1,1.05-1.82c11.06-9.63,33.38-22.75,60.23-18.9a3.14,3.14,0,0,1,1.86.92,1.61,1.61,0,0,1,.5,1.63,4.09,4.09,0,0,0,2.69,5.12c6.36,2,13.2,5,5.22,6.68,0,0-1.35,1.36,1.36,2,0,0,12,2.4,17,10.46a3.35,3.35,0,0,1-2.82,5.13h-.47a1.72,1.72,0,0,0-1.68,2.13c.73,3.11,2.17,10,4.17,23a8,8,0,0,0,5.26,6.34l5,1.75a6,6,0,0,1,4,6.05,48.14,48.14,0,0,1-5.71,19.21,8,8,0,0,0,.32,8.14l17,26.32s8.65,14.19,13.59,25.76c0,0,4.4,9.29,3.77,31.05l.95,45.59s0,9.49-14.24,10.85-35.94,1.35-35.94,1.35-5.08,0-8-5.66a3.34,3.34,0,0,0-3-1.8h-9.68a3.39,3.39,0,0,1-.78-.09c-1.67-.4-7.67-2.26-8.37-8.51,0-.14,0-.28,0-.42v-6.62A3.33,3.33,0,0,0,179,411h-7.56a3.34,3.34,0,0,0-3.34,3.34v5.08a3.1,3.1,0,0,1-.1.81c-.49,1.92-2.93,9.67-10.07,9.08h-9a3.38,3.38,0,0,0-3.12,2.14,9.5,9.5,0,0,1-7.55,6c-7.06,1.29-31.74.14-34.36,0-.15,0-.31,0-.46,0-14-.68-15.36-11.53-15.36-11.53-.72-3.95-.49-21.73-.11-37.62,0,0,2-36.48,6.81-45.66a68.81,68.81,0,0,1,6.09-10.85l.16-.26c1.11-2,14.71-26.62,20.37-33a11.46,11.46,0,0,0,2.72-5.73c1.1-6.41,2.9-18.43,1.93-24.23,0,0-.76-11-1.57-21.84"/><path class="cls-2" d="M146.4,429.26c0-1.95-.62-12-14.4-21.19a13,13,0,0,0-2.27-1.28c-.4-.17-1-.64-1-2l-.67-33.9v-1.36"/><path class="cls-2" d="M203.36,429.6c0-1.94.62-11.24,14.1-20.31A15.34,15.34,0,0,1,220,407.8c.4-.16,1-.63,1-1.94l.68-33.9V370.6"/><path class="cls-3" d="M132.16,348.56S124,389.25,146.4,397.39c0,0,23.74,14.24,48.15,4.06,0,0,21.7-4.06,23.73-23.73l.68-25.09s1.36-16.27-25.77-20.34S137.59,331.61,132.16,348.56Z"/><path class="cls-4" d="M175.21,375.35s5.42,2,3.39,4.74a10.46,10.46,0,0,1-1.83,2,3,3,0,0,1-2.55.52l-.7-.18a2.27,2.27,0,0,1-1.49-1.19l-.47-.94a1.66,1.66,0,0,1,.12-1.72c.52-.72,1.35-1.56,2.17-1.15,1.36.68,2.71.68,2.71,2s-2,1.35-2,1.35"/><ellipse class="cls-1" cx="163.78" cy="245.91" rx="3.39" ry="3.2"/><ellipse class="cls-1" cx="193.08" cy="245.42" rx="3.39" ry="3.2"/><path class="cls-3" d="M228.41,266.23c-3.37-1-13.47-3.29-33.61-1.44l-.2,0c-1.3.18-15.44,2.09-22.85,1.12a1.05,1.05,0,0,0-1.23.85c-.47,3.9-2.19,17.74-3.21,20.67a1.25,1.25,0,0,0,.26,1.25c2.41,2.6,12.67,11.27,38.63,6.41,0,0,9.94-.48,20.39-18.47a25.31,25.31,0,0,0,3-8.72,1.27,1.27,0,0,0,0-.39,1.55,1.55,0,0,0-.3-.71A1.74,1.74,0,0,0,228.41,266.23Z"/><path class="cls-3" d="M201.61,235a1,1,0,0,1-1.13.08c-9.31-4.88-19.59-.85-22.4.43a1.27,1.27,0,0,0-.69,1.24,111.39,111.39,0,0,1-.33,18.8,1.27,1.27,0,0,0,.84,1.38c5.5,1.6,15.56-.23,16.2-.34l.06,0c7.49-2,19.38-.35,21.7-.38a.73.73,0,0,0,.39-.06c.41-.45-2.6-17.33-3.18-20.61a1.31,1.31,0,0,0-.57-.86l-.13-.07A9.4,9.4,0,0,0,201.61,235Zm-13.13,18.24a7.78,7.78,0,1,1,7.78-7.77A7.77,7.77,0,0,1,188.48,253.26Zm18.28,0a7.78,7.78,0,1,1,7.78-7.77A7.78,7.78,0,0,1,206.76,253.26Z"/><ellipse class="cls-3" cx="188.26" cy="245" rx="9.06" ry="9.17" transform="translate(-8.18 6.51) rotate(-1.94)"/><ellipse class="cls-3" cx="205.36" cy="245.47" rx="9.25" ry="8.73"/><path class="cls-5" d="M184.58,244.11s7.84-3.36,10.36,0"/><path class="cls-5" d="M201.92,244.21s7.84-3.36,10.36,0"/><path class="cls-3" d="M149.29,298.83c3.12,3.88,16.38,16.85,50,9.57,0,0,12.85-.71,26.38-27.62a42,42,0,0,0,3.87-13,2.38,2.38,0,0,0-1.53-2.54c-4.35-1.54-17.41-4.91-43.46-2.14l-.26,0c-1.68.27-20,3.12-29.55,1.66a1.41,1.41,0,0,0-1.59,1.28c-.61,5.83-2.84,26.53-4.15,30.92A2.08,2.08,0,0,0,149.29,298.83Z"/><path class="cls-3" d="M153.49,258.63a166.9,166.9,0,0,0,.54-29.58,2,2,0,0,1,1.14-1.94c4.64-2,21.61-8.35,37-.67a1.8,1.8,0,0,0,1.87-.13,16.16,16.16,0,0,1,18-.53,2,2,0,0,1,.94,1.34c1,5.16,5.93,31.71,5.25,32.42s-22.93-2.82-36.47.7l-.1,0c-1.05.18-17.67,3.05-26.74.53A2,2,0,0,1,153.49,258.63Z"/><path class="cls-6" d="M171,243.74s11.06-4.75,14.62,0"/><path class="cls-6" d="M195.45,243.88s11.07-4.74,14.62,0"/><path class="cls-7" d="M145.39,221.15l-.08.1-.09.09-.71.76s0,0,0,.05l0,0-.13.13-.1.1-.06.06-.09.09,0,0-.07.06,0,0-.07.07,0,0s0,0,0,.05h0l-.1.1-.09.07h0l-.16.13-.17.13-.15.11-.17.11-.16.11-.27.16-.18.09-.4.19-.44.14a2.36,2.36,0,0,1-.6.11l-.21,0h-.25l-.31,0a2.3,2.3,0,0,1-.43-.12,2.43,2.43,0,0,1-.37-.16l-.31-.19-.15-.11-.11-.09-.13-.1,0,0-.06-.05h0l-.36-.34-.12-.14a.27.27,0,0,1-.07-.08l-.1-.12-.18-.24-.17-.31a1,1,0,0,1-.09-.21,2.07,2.07,0,0,1-.13-.4,2.17,2.17,0,0,1,0-.25.88.88,0,0,1,0-.16,3.23,3.23,0,0,1,0-.44c0-.12,0-.24,0-.36s.05-.21.08-.32a2.41,2.41,0,0,1,.08-.25c0-.12.09-.24.14-.36s.08-.19.13-.29.13-.25.21-.37l.11-.19.07-.11a.83.83,0,0,0,.08-.12l.06-.08.06-.09.06-.08.08-.12h0l.1-.13h0l.11-.12,0,0,.14-.17.07-.08,0,0a.18.18,0,0,0,.05-.07l0,0,.09-.11a.18.18,0,0,1,0-.07.1.1,0,0,0,0-.05l0,0,.06-.07,0,0a.39.39,0,0,1,.08-.1l.05-.06,0,0,.07-.07v0l.08-.09s0-.05.06-.08l0,0,.07-.08s0,0,0,0l.07-.07h0a0,0,0,0,1,0,0,.13.13,0,0,1,0,.06.11.11,0,0,1,0,0,.24.24,0,0,1,0,.08s0,0,0,.06,0,0,0,.06l0,.09a.29.29,0,0,0,0,.09l.05.17,0,.07a.19.19,0,0,1,0,.07,1,1,0,0,0,0,.1l0,.09a.08.08,0,0,1,0,0,.36.36,0,0,0,0,.09.19.19,0,0,0,0,.08l0,.07.07.14h0a1.4,1.4,0,0,0,.09.17.25.25,0,0,0,0,.07l.08.16a.83.83,0,0,0,.08.12.57.57,0,0,0,.08.13v0l0,0a0,0,0,0,1,0,0s0,0,0,0l0,0,.05.07a.24.24,0,0,0,.06.08.1.1,0,0,0,0,.05.21.21,0,0,0,0,.06h0a.27.27,0,0,0,.07.08h0s0,0,0,0l.06.07h0s0,0,0,0l0,0,0,0,0,0,.06.07a0,0,0,0,1,0,0l0,0,.1.09,0,0,0,0,.15.14,0,0,0,0,.1.09,0,0,0,0,.06.05s0,0,0,0l0,0,0,0,0,0,0,0,0,0h0l0,0,0,0,0,0,0,0,.07,0h0l.05,0,.05,0,0,0,.05,0s0,0,0,0l.13.08h0l.09,0,.09,0,.09.05.13.07.12.05.11,0,.13.05h0s.05,0,.08,0,.23.09.36.12l.08,0,.1,0a.29.29,0,0,0,.1,0h.05l.34.07.07,0h.13l.1,0h.39a0,0,0,0,1,0,0v0Z"/><path class="cls-8" d="M151.24,214.24l0,0,0,0h-.06l0-.13a.32.32,0,0,0,0-.09.45.45,0,0,0,0-.11.14.14,0,0,0,0-.06v0a.65.65,0,0,1,0-.13s0-.07,0-.1,0-.09-.05-.13h0a.08.08,0,0,0,0,0l-.08-.21,0,0,0-.06-.07-.17h0l-.06-.13-.1-.17-.13-.23,0-.07,0,0-.08-.12-.1-.15L150,212l0,0s0,0-.06-.07l0,0v0l0,0,0,0s0,0,0,0a.27.27,0,0,0-.07-.08h0l0-.05,0,0,0,0,0,0,0,0,0,0-.06-.06,0,0,0,0-.22-.2,0,0,0,0-.11-.1,0,0-.05,0-.06,0,0,0-.06-.05h0l0,0,0,0s0,0,0,0,0,0,0,0h0l0,0,0,0,0,0h0l-.11-.07-.06,0h0l-.08-.05-.1-.06-.18-.1-.09-.05-.1,0-.12-.06h0l-.08,0-.14-.06-.13,0h0l0,0-.32-.11h0l-.1,0h0l-.13,0-.14,0-.11,0h-.11l-.1,0h-.1a1,1,0,0,0-.17,0h-.38s0,0,0,0h0s0,0,0,0l0,0,.06-.07.06-.07,0-.05.06-.07,0,0,.08-.08a.1.1,0,0,1,0-.05l0,0,.06-.07.05-.06,0,0,.13-.15.07-.09.05-.06,0-.05.1-.11.09-.11s0,0,0,0l0,0,.07-.07.05-.06,0,0,.09-.1.08-.1,0,0h0l0,0,.27-.29a1.5,1.5,0,0,0,.13-.11l.1-.08.11-.09.15-.11.22-.14.31-.16.29-.12.17-.06a3.31,3.31,0,0,1,.71-.14,2.66,2.66,0,0,1,.63,0,1.83,1.83,0,0,1,.4,0,3.14,3.14,0,0,1,.58.16,2.52,2.52,0,0,1,.34.15l.3.17.17.12.14.1.11.09,0,0,.05,0,.11.1.06.06v0a.86.86,0,0,1,.13.14l.09.1.15.19.13.2a2.79,2.79,0,0,1,.19.33c0,.1.09.2.13.3s.07.21.1.32l.06.28c0,.13,0,.25,0,.38s0,.23,0,.35a3.35,3.35,0,0,1-.08.54c0,.09,0,.18-.07.28a1.43,1.43,0,0,1-.09.27c0,.09-.07.18-.11.27s-.08.18-.13.27-.09.16-.14.24l-.09.15-.07.1-.1.17-.06.1s-.07.1-.1.16l-.06.1-.11.16a1,1,0,0,1-.11.17l-.07.12-.06.08,0,.07-.06.08a.61.61,0,0,0-.07.1l-.08.1-.05.06,0,.07s0,0,0,0l-.05.06s0,0,0,0l0,.06h0l-.09.11,0,0h0a.86.86,0,0,1-.07.1l0,0S151.23,214.22,151.24,214.24Z"/><path class="cls-9" d="M145.52,209.45s0,0,0,0h0s0,0,0,0h.38a1,1,0,0,1,.17,0h.1l.1,0h.11l.11,0,.14,0,.13,0h0l.1,0h0l.32.11,0,0h0l.13,0,.14.06.08,0h0l.12.06.1,0,.09.05.18.1.1.06.08.05h0l.06,0,.11.07h0l0,0,0,0,0,0h0s0,0,0,0,0,0,0,0l0,0,0,0h0l.06.05,0,0,.06,0,.05,0,0,0,.11.1,0,0,0,0,.22.2,0,0,0,0,.06.06,0,0,0,0,0,0,0,0,0,0,0,.05h0a.27.27,0,0,1,.07.08s0,0,0,0l0,0,0,0v0l0,0s0,.05.06.07l0,0,.08.1.1.15.08.12,0,0,0,.07.13.23.1.17.06.13h0l.07.17,0,.06,0,0,.08.21a.08.08,0,0,1,0,0h0s0,.09.05.13,0,.07,0,.1a.65.65,0,0,0,0,.13v0a.14.14,0,0,1,0,.06.45.45,0,0,1,0,.11.32.32,0,0,1,0,.09l0,.13h.06l-.06.09,0,0h0a1.13,1.13,0,0,1-.1.13l0,0,0,0-.05.07,0,0-.05.05a.05.05,0,0,1,0,0s0,0,0,.06l0,0-.05.05h0l-.1.12,0,0h0l-.1.12,0,0,0,0-.05.06s0,0,0,0l-.06.07,0,0,0,.06h0l-.11.13-.06.08,0,.06,0,0a.18.18,0,0,0-.05.07,0,0,0,0,0,0,0l-.06.07h0s-.07.1-.11.14l0,0,0,0-.13.16h0a.39.39,0,0,1-.08.1l0,0h0l-.13.16s0,0,0,0a.39.39,0,0,1-.08.1l-.05.06,0,0,0,.06,0,0-.08.08a1.34,1.34,0,0,1-.11.14,1.49,1.49,0,0,1-.12.14l0,0,0,0-.07.09a.1.1,0,0,0,0,.05l0,0-.07.09,0,0,0,0-.09.1,0,.06h0l-.09.11-.09.1,0,.05-.11.11,0,.07-.08.09,0,0,0,0,0,0-.11.12,0,0,0,0a1.29,1.29,0,0,0-.16.17h0l-.12.14-.08.08h0a1.12,1.12,0,0,1-.17.2l-.05.06-.06.07-.14.15,0,0,0,0-.2.21,0,0h0l-.06.07-.07.08-.07.07-.08.09a.27.27,0,0,1-.07.08l-.07.08-.14.15,0,.05,0,.06-.32.34,0,0v0a0,0,0,0,0,0,0H145l-.1,0h-.13l-.07,0-.34-.07h-.05a.29.29,0,0,1-.1,0l-.1,0-.08,0c-.13,0-.24-.08-.36-.12s-.06,0-.08,0h0l-.13-.05-.11,0-.12-.05-.13-.07-.09-.05-.09,0-.09,0h0l-.13-.08s0,0,0,0l-.05,0,0,0-.05,0-.05,0h0l-.07,0,0,0,0,0,0,0,0,0h0l0,0,0,0,0,0,0,0,0,0s0,0,0,0l-.06-.05,0,0,0,0-.1-.09,0,0,0,0-.15-.14,0,0,0,0-.1-.09,0,0a0,0,0,0,0,0,0l-.06-.07,0,0,0,0,0,0s0,0,0,0h0l-.06-.07s0,0,0,0h0a.27.27,0,0,1-.07-.08h0a.21.21,0,0,1,0-.06.1.1,0,0,1,0-.05.24.24,0,0,1-.06-.08l-.05-.07,0,0s0,0,0,0a0,0,0,0,0,0,0l0,0v0a.57.57,0,0,1-.08-.13.83.83,0,0,1-.08-.12l-.08-.16a.25.25,0,0,1,0-.07,1.4,1.4,0,0,1-.09-.17h0l-.07-.14,0-.07a.19.19,0,0,1,0-.08.36.36,0,0,1,0-.09.08.08,0,0,0,0,0l0-.09a1,1,0,0,1,0-.1.19.19,0,0,0,0-.07l0-.07-.05-.17a.29.29,0,0,1,0-.09l0-.09s0,0,0-.06,0,0,0-.06a.24.24,0,0,0,0-.08.11.11,0,0,0,0,0,.13.13,0,0,0,0-.06,0,0,0,0,0,0,0h0a1.47,1.47,0,0,1,.1-.13l0-.05,0,0a.76.76,0,0,0,.08-.11l.07-.07,0-.06,0,0,.07-.08,0,0,0,0h0l.09-.11.07-.08,0-.05,0,0,.09-.11.06-.08a.23.23,0,0,0,.07-.07v0l0,0a.58.58,0,0,0,.1-.12s0,0,.05,0l0,0,0,0a1.47,1.47,0,0,0,.1-.13l.07-.07.07-.08s0,0,0,0l.07-.09.06-.07.05-.06,0,0,0-.06.07-.08,0-.05.06-.08.07-.08.05-.05,0,0,.07-.08,0-.05.08-.09,0,0a0,0,0,0,1,0,0l.07-.08,0,0a0,0,0,0,1,0,0l.18-.2,0-.06,0,0,.07-.08,0-.05,0-.05a.24.24,0,0,0,.06-.08s0,0,0,0l.08-.09s0,0,0,0l0,0,.07-.08c0-.06.09-.11.13-.16l.11-.13.12-.13,0,0s0,0,0,0l.07-.08.12-.15a.69.69,0,0,0,.11-.13,2.09,2.09,0,0,0,.14-.17l.12-.13h0a.39.39,0,0,1,.08-.1l.06-.07v0l.15-.17,0-.05.05-.06,0,0,.06-.08,0-.05.05-.06.06-.07,0,0,.06-.08.05-.05,0,0,.07-.08,0-.05,0,0,.09-.1,0,0A.69.69,0,0,0,145,210l0,0,.1-.12.06-.07,0,0s0,0,0,0l.07-.08,0-.06s0,0,0,0a.69.69,0,0,0,.11-.13Zm-.73,10.16.07.06a0,0,0,0,1,0,0l.09.08.05,0,0,0a.94.94,0,0,1,.1.1l0,0,0,0,0,0,.06,0,.14,0a.49.49,0,0,0,.17,0h0l.05,0,.05,0s.06-.05.07-.08l0,0,.08-.08,0-.05,0,0,.09-.09s0,0,0,0l0,0,.07-.08,0,0a0,0,0,0,1,0,0l.08-.09,0,0s0,0,0,0l.08-.08,0,0,0,0a.94.94,0,0,0,.1-.1l0,0s0,0,0-.05l.07-.07s0,0,0-.06l0,0,.08-.09a.1.1,0,0,0,0,0,0,0,0,0,1,0,0l.08-.09a.09.09,0,0,0,0,0l0,0,.09-.1s0,0,0,0l0,0,.06-.07s0,0,0-.06l0,0,.07-.08,0,0s0,0,0,0l.08-.08s0,0,0,0l0,0,.09-.09,0,0,0,0,.09-.1,0,0s0,0,0,0l.09-.1,0,0,0-.05.07-.08s0,0,0,0,0,0,0,0l.09-.09,0,0,0,0,.08-.09a0,0,0,0,0,0,0l0,0,.08-.09,0,0,0-.05.07-.07,0-.05,0,0,.09-.09,0,0,0,0,.08-.09,0,0a.08.08,0,0,1,0,0l.08-.08,0,0,0-.05.07-.07s0,0,0-.05,0,0,0,0l.09-.09,0,0,0,0,.08-.09,0,0,0,0,.09-.09s0,0,0,0,0,0,0,0l.08-.09,0,0,0,0,0,0v0a.67.67,0,0,0,.06-.12.27.27,0,0,0,0-.09h0s0,0,0-.05a.09.09,0,0,1,0,0,.49.49,0,0,0,0-.11l-.06-.09-.2-.18,0,0,0,0-.11-.1,0,0s0,0,0,0l-.1-.09-.06,0,0,0-.1-.09-.05,0,0,0-.11-.1s0,0,0,0l0,0-.11-.1,0,0,0,0-.09-.09-.06,0,0,0-.09-.09s0,0-.05,0l0,0-.12-.1,0,0,0,0-.11-.1,0,0,0,0-.09-.09-.06,0,0,0-.09-.09-.05,0,0,0a.52.52,0,0,1-.11-.1l0,0,0,0-.11-.1,0,0,0,0-.09-.09,0,0,0,0-.1-.09,0,0,0,0-.1-.1,0,0,0,0-.11-.1,0,0-.05-.05-.07-.07-.06,0,0,0-.09-.09,0,0,0,0-.11-.1,0,0,0,0-.1-.1,0,0,0,0-.1-.1,0,0,0,0-.1-.1,0,0-.05,0,0,0a.37.37,0,0,0-.14-.07l-.14,0-.09,0h0a.33.33,0,0,0-.1.06h0l0,.06,0,0-.09.09,0,0,0,0-.08.09s0,0,0,0l0,0-.09.1,0,.05s0,0,0,0l-.09.09,0,0,0,0-.09.1,0,0,0,0-.09.1a.05.05,0,0,0,0,0l0,0-.09.09,0,0s0,0,0,0a.3.3,0,0,1-.08.08l0,.05,0,0-.09.09,0,0,0,0-.08.1,0,0,0,0-.08.09,0,.05,0,0-.08.09,0,0,0,0-.09.09s0,0,0,0l0,0-.09.09,0,0,0,0-.08.09,0,0,0,0-.08.09,0,0s0,0,0,0l-.09.1s0,0,0,0l0,0-.08.09s0,0,0,0,0,0,0,0l-.08.09a.1.1,0,0,0,0,0s0,0,0,0l-.08.09,0,0,0,0-.09.09,0,0a.05.05,0,0,1,0,0l-.09.09,0,0,0,0-.07.07s0,0,0,0l0,0-.08.08,0,0,0,0-.09.09s0,0,0,0l0,0-.08.09,0,0a.05.05,0,0,1,0,0l-.07.07,0,.05,0,0a.6.6,0,0,1-.08.08l0,.05v0l-.09.09s0,0,0,0l0,0s0,0-.05.05l0,0s0,0,0,0,0,0,0,0l0,.05a.59.59,0,0,0,0,.14.09.09,0,0,1,0,.05.36.36,0,0,0,0,.1l0,0a.35.35,0,0,0,.08.13l0,0h0l0,0,.12.11,0,0,0,0,.12.11,0,0,.06,0s0,0,0,0l.05.07a1.08,1.08,0,0,0,.08.19.75.75,0,0,0,.06.13h0l0,.07.09.18.08.13,0,.06a.83.83,0,0,0,.08.12.47.47,0,0,0,.06.09l0,0,.05.06a.43.43,0,0,1,0,.07s0,0,.05.06h0s0,0,0,0l0,0a.08.08,0,0,0,0,0h0l0,0,0,0,.05.06s0,0,0,0l0,0,.32.3s0,0,0,0a.1.1,0,0,1,.05,0l0,0,0,0,0,0,.05,0h0s0,0,0,0l.08,0,.09.07.07,0,.06,0,.09.05.09.06h0l.15.07.14.07.05,0,.09,0,.14,0,.08,0c.1,0,.19.07.29.09l.18.05h.07s0,0,.06,0Z"/><path class="cls-10" d="M151.24,214.24s0,0,0,0S151.25,214.24,151.24,214.24Z"/><path class="cls-10" d="M141.41,216.67l-.06,0,0,0-.12-.11,0,0,0,0-.12-.11,0,0h0l0,0a.35.35,0,0,1-.08-.13l0,0a.36.36,0,0,1,0-.1.09.09,0,0,0,0-.05.59.59,0,0,1,0-.14l0-.05s0,0,0,0,0,0,0,0l0,0s0,0,.05-.05l0,0s0,0,0,0l.09-.09v0l0-.05a.6.6,0,0,0,.08-.08l0,0,0-.05.07-.07a.05.05,0,0,0,0,0l0,0,.08-.09,0,0s0,0,0,0l.09-.09,0,0,0,0,.08-.08,0,0s0,0,0,0l.07-.07,0,0,0,0,.09-.09a.05.05,0,0,0,0,0l0,0,.09-.09,0,0,0,0,.08-.09s0,0,0,0a.1.1,0,0,1,0,0l.08-.09s0,0,0,0,0,0,0,0l.08-.09,0,0s0,0,0,0l.09-.1s0,0,0,0l0,0,.08-.09,0,0,0,0,.08-.09,0,0,0,0,.09-.09,0,0s0,0,0,0l.09-.09,0,0,0,0,.08-.09,0,0,0-.05.08-.09,0,0,0,0,.08-.1,0,0,0,0,.09-.09,0,0,0-.05a.3.3,0,0,0,.08-.08s0,0,0,0l0,0L144,212l0,0a.05.05,0,0,1,0,0l.09-.1,0,0,0,0,.09-.1,0,0,0,0,.09-.09s0,0,0,0l0-.05.09-.1,0,0s0,0,0,0l.08-.09,0,0,0,0,.09-.09,0,0,0-.06h0a.33.33,0,0,1,.1-.06h0l.09,0,.14,0a.37.37,0,0,1,.14.07l0,0,.05,0,0,0,.1.1,0,0,0,0,.1.1,0,0,0,0,.1.1,0,0,0,0,.11.1,0,0,0,0,.09.09,0,0,.06,0,.07.07.05.05,0,0,.11.1,0,0,0,0,.1.1,0,0,0,0,.1.09,0,0,0,0,.09.09,0,0,0,0,.11.1,0,0,0,0a.52.52,0,0,0,.11.1l0,0,.05,0,.09.09,0,0,.06,0,.09.09,0,0,0,0,.11.1,0,0,0,0,.12.1,0,0s0,0,.05,0l.09.09,0,0,.06,0,.09.09,0,0,0,0,.11.1,0,0s0,0,0,0l.11.1,0,0,.05,0,.1.09,0,0,.06,0,.1.09s0,0,0,0l0,0,.11.1,0,0,0,0,.2.18.06.09a.49.49,0,0,1,0,.11.09.09,0,0,0,0,0s0,0,0,.05h0a.27.27,0,0,1,0,.09.67.67,0,0,1-.06.12v0l0,0,0,0,0,0-.08.09s0,0,0,0,0,0,0,0l-.09.09,0,0,0,0-.08.09,0,0,0,0-.09.09s0,0,0,0,0,0,0,.05l-.07.07,0,.05,0,0-.08.08a.08.08,0,0,0,0,0l0,0-.08.09,0,0,0,0-.09.09,0,0,0,.05-.07.07,0,.05,0,0-.08.09,0,0a0,0,0,0,1,0,0l-.08.09,0,0,0,0-.09.09s0,0,0,0,0,0,0,0l-.07.08,0,.05,0,0-.09.1s0,0,0,0l0,0-.09.1,0,0,0,0-.09.09,0,0s0,0,0,0l-.08.08s0,0,0,0l0,0-.07.08,0,0s0,0,0,.06l-.06.07,0,0s0,0,0,0l-.09.1,0,0a.09.09,0,0,1,0,0l-.08.09a0,0,0,0,0,0,0,.1.1,0,0,1,0,0l-.08.09,0,0s0,0,0,.06l-.07.07s0,0,0,.05l0,0a.94.94,0,0,1-.1.1l0,0,0,0-.08.08s0,0,0,0l0,0-.08.09a0,0,0,0,0,0,0l0,0-.07.08,0,0s0,0,0,0l-.09.09,0,0,0,.05-.08.08,0,0s0,.05-.07.08l-.05,0-.05,0h0a.49.49,0,0,1-.17,0l-.14,0-.06,0,0,0,0,0,0,0a.94.94,0,0,0-.1-.1l0,0-.05,0-.09-.08a0,0,0,0,0,0,0l-.07-.06-.07-.06s0,0-.06-.05l0,0-.1-.09,0,0,0,0-.1-.1,0,0,0,0-.11-.1,0,0,0,0-.1-.09,0,0-.06,0-.08-.08-.05,0,0,0-.1-.1,0,0,0,0-.08-.07s0,0-.06-.05l0,0-.09-.08-.06,0,0,0-.09-.08-.06-.05,0,0-.1-.1,0,0-.05,0-.08-.08-.06,0,0,0-.1-.09-.05,0,0,0-.12-.1,0,0,0,0-.1-.1,0,0,0,0-.09-.09-.05,0,0,0-.1-.09a.1.1,0,0,0,0,0l0,0-.12-.11,0,0,0,0-.1-.1,0,0,0,0Zm.5-.61a.34.34,0,0,0,.14.09l.08,0h.14l.13,0,.09-.06,0,0v0l0-.06a.32.32,0,0,0,0-.17v-.06a.06.06,0,0,1,0,0,.4.4,0,0,0-.09-.17h0l0,0-.06-.05a.51.51,0,0,0-.17-.07h-.17a.46.46,0,0,0-.16.07.38.38,0,0,0-.09.12s0,0,0,0a.32.32,0,0,0,0,.17.11.11,0,0,1,0,0A.45.45,0,0,0,141.91,216.06Zm2.18-.17s0-.06.06-.09a.56.56,0,0,0,0-.12.5.5,0,0,0,0-.17v0a.53.53,0,0,0-.06-.1l0,0-.07-.07a.31.31,0,0,0-.1-.05l-.09,0s-.09,0-.13,0a.15.15,0,0,0-.09,0,.22.22,0,0,0-.11.05s0,0,0,0l0,0,0,0v0l0,0a.32.32,0,0,0,0,.17.07.07,0,0,0,0,0,.33.33,0,0,0,.07.16l0,.06a.21.21,0,0,0,.08.06h0l0,0,.13,0a.37.37,0,0,0,.35-.1Zm-.72-2.21s0,0-.06.07a.14.14,0,0,0,0,.06h0a.25.25,0,0,0,0,.12.42.42,0,0,0,.06.21l0,.07,0,0a.08.08,0,0,0,0,0l0,0,.13.07.12,0h.09a.3.3,0,0,0,.16-.08h0l0,0,0,0,0,0a.19.19,0,0,0,0-.08.34.34,0,0,0,0-.1.36.36,0,0,0,0-.1.31.31,0,0,0-.06-.13.27.27,0,0,0-.07-.08h0l-.07-.05,0,0a.45.45,0,0,0-.19-.05h0A.31.31,0,0,0,143.37,213.68Zm2.24,1.44a.23.23,0,0,0-.11-.08.28.28,0,0,0-.12,0,.38.38,0,0,0-.15,0l-.09,0-.06,0,0,0,0,0,0,.05a.49.49,0,0,0-.06.17v.12a.36.36,0,0,0,0,.11.18.18,0,0,0,.06.09h0a.05.05,0,0,0,0,0l.06,0,.07,0a.41.41,0,0,0,.19,0,.4.4,0,0,0,.15,0,.42.42,0,0,0,.14-.09l0-.06a.37.37,0,0,0,0-.11.56.56,0,0,0,0-.13.74.74,0,0,0,0-.14A.36.36,0,0,0,145.61,215.12Zm1.51-1.78-.05,0a.44.44,0,0,0-.19-.07h-.11a.31.31,0,0,0-.16.06.24.24,0,0,0-.08.06l0,0a.25.25,0,0,0,0,.07.77.77,0,0,0,0,.15.06.06,0,0,0,0,0,.35.35,0,0,0,0,.14l.06.08,0,0,0,0s0,0,0,0l.07,0a.39.39,0,0,0,.23.05h.1a.24.24,0,0,0,.12-.07.34.34,0,0,0,.09-.12.4.4,0,0,0,0-.15.37.37,0,0,0,0-.11A.49.49,0,0,0,147.12,213.34Zm-.3,3.84h0l.06,0,.11.05a.27.27,0,0,0,.12,0h.08a.24.24,0,0,0,.14-.05l0,0a.18.18,0,0,0,.05-.07h0a.08.08,0,0,0,0,0,.56.56,0,0,0,0-.12.41.41,0,0,0,0-.16s0,0,0,0l0-.07s0-.06-.07-.08l0,0a.26.26,0,0,0-.11-.07l-.06,0-.09,0H147l-.1,0-.06,0a.23.23,0,0,0-.07.07.53.53,0,0,0-.06.1.38.38,0,0,0,0,.15v0a.28.28,0,0,0,0,.13v0l.06.09ZM145.33,219a.27.27,0,0,0,.08.07l.07,0a.32.32,0,0,0,.14,0,.34.34,0,0,0,.14,0,.25.25,0,0,0,.12-.07h0v0l0,0,0-.05a.37.37,0,0,0,0-.14c0-.05,0-.09,0-.13h0a.3.3,0,0,1,0-.1l-.06-.08,0,0-.05,0,0,0a.66.66,0,0,0-.2-.06h-.1a.46.46,0,0,0-.16.07l-.09.1a.42.42,0,0,0,0,.15.21.21,0,0,0,0,.08.41.41,0,0,0,0,.18A.52.52,0,0,0,145.33,219Zm-1.17-1.51h0l0,0s0,0,0,0a.21.21,0,0,0,0-.11.17.17,0,0,0,0-.07.27.27,0,0,0,0-.09.56.56,0,0,0-.07-.16.27.27,0,0,0-.07-.08l0,0-.07-.05-.1,0a.18.18,0,0,0-.1,0h-.07a.25.25,0,0,0-.15.05.18.18,0,0,0-.07,0s0,0,0,.05a0,0,0,0,0,0,0l0,.06a.41.41,0,0,0,0,.16.28.28,0,0,0,0,.15.3.3,0,0,0,.09.13s0,0,.05,0l0,0a.27.27,0,0,0,.11.05.22.22,0,0,0,.11,0,.26.26,0,0,0,.15,0,.24.24,0,0,0,.12-.07Zm1-.19h0l0,0,0,0,.13,0a.44.44,0,0,0,.16,0l.13,0,0,0h0l0,0,0,0v0s0,0,0-.06a.08.08,0,0,0,0-.05.44.44,0,0,0,0-.1.59.59,0,0,0,0-.19l-.08-.12,0,0s-.05,0-.07-.06l-.12,0-.09,0h-.07l-.14,0-.05,0a.39.39,0,0,0-.08.1.34.34,0,0,0,0,.12.22.22,0,0,0,0,.08v0a.49.49,0,0,0,.05.16.1.1,0,0,1,0,.05l0,0Zm1.47-2.34a.24.24,0,0,0-.07.12h0a.21.21,0,0,0,0,.11v.08s0,0,0,0a.37.37,0,0,0,.07.14.21.21,0,0,0,0,.06l.07.06h0l.06,0a.34.34,0,0,0,.12,0,.38.38,0,0,0,.15,0,.14.14,0,0,0,.09,0,.25.25,0,0,0,.12-.08l0,0h0a.61.61,0,0,0,.05-.12.49.49,0,0,0,0-.17s0,0,0-.06l-.06-.11a.27.27,0,0,0-.07-.08.1.1,0,0,0-.05,0l-.08-.05a.42.42,0,0,0-.15,0h-.05a.28.28,0,0,0-.13,0h0a.14.14,0,0,0-.08.05Zm-1.11-2.48h0l0,0a0,0,0,0,0,0,0,.3.3,0,0,0,.05-.21s0,0,0-.06a.77.77,0,0,0-.07-.16s0,0,0,0l0,0,0,0a.1.1,0,0,1-.05,0h0l-.12,0a.41.41,0,0,0-.19,0l-.06,0a.24.24,0,0,0-.12.07l0,.05,0,0,0,.07a.2.2,0,0,0,0,.13v.06a.19.19,0,0,0,0,.07l0,.08s0,0,0,0a.38.38,0,0,0,.09.09.24.24,0,0,0,.08.06.35.35,0,0,0,.13,0h.15l.07,0a.24.24,0,0,0,.13-.09Zm.07,1.64a.26.26,0,0,0,.07-.1.76.76,0,0,0,0-.16h0v-.05a.06.06,0,0,1,0,0,.75.75,0,0,0-.06-.13l-.08-.09-.06,0a.34.34,0,0,0-.15-.07h-.24a.42.42,0,0,0-.12.08l0,0a.56.56,0,0,0-.05.08.36.36,0,0,0,0,.23.19.19,0,0,0,0,.1.3.3,0,0,0,0,.08l0,0a.16.16,0,0,0,.07.07l0,0a.46.46,0,0,0,.16.07h.15l.1,0a.28.28,0,0,0,.11-.08Zm3.26.76h0l0,0h0a.41.41,0,0,0-.17-.07h-.1l-.11,0-.08,0,0,0a.12.12,0,0,0-.06.06l0,0a.34.34,0,0,0,0,.14v0a.78.78,0,0,0,0,.16.14.14,0,0,1,0,.06.41.41,0,0,0,.1.13l0,0a.26.26,0,0,0,.13.08.29.29,0,0,0,.18,0h0a.33.33,0,0,0,.21-.11.21.21,0,0,0,0-.06.15.15,0,0,0,0-.09v0a.33.33,0,0,0,0-.1v-.06s0,0,0,0a.37.37,0,0,0-.05-.11l-.07-.09Z"/><path class="cls-11" d="M141.41,216.67l.07.07,0,0,0,0,.1.1,0,0,0,0,.12.11,0,0a.1.1,0,0,1,0,0l.1.09,0,0,.05,0,.09.09,0,0,0,0,.1.1,0,0,0,0,.12.1,0,0,.05,0,.1.09,0,0,.06,0,.08.08.05,0,0,0,.1.1,0,0,.06.05.09.08,0,0,.06,0,.09.08,0,0s0,0,.06.05l.08.07,0,0,0,0,.1.1,0,0,.05,0,.08.08.06,0,0,0,.1.09,0,0,0,0,.11.1,0,0,0,0,.1.1,0,0,0,0,.1.09,0,0s0,0,.06.05l.07.06h0s-.05,0-.06,0h-.07l-.18-.05c-.1,0-.19-.06-.29-.09l-.08,0-.14,0-.09,0-.05,0-.14-.07-.15-.07h0l-.09-.06-.09-.05-.06,0-.07,0-.09-.07-.08,0s0,0,0,0h0l-.05,0,0,0,0,0,0,0a.1.1,0,0,0-.05,0s0,0,0,0l-.32-.3,0,0s0,0,0,0l-.05-.06,0,0,0,0h0a.08.08,0,0,1,0,0l0,0s0,0,0,0h0s0,0-.05-.06a.43.43,0,0,0,0-.07l-.05-.06,0,0a.47.47,0,0,1-.06-.09.83.83,0,0,1-.08-.12l0-.06-.08-.13-.09-.18,0-.07h0a.75.75,0,0,1-.06-.13,1.08,1.08,0,0,1-.08-.19l-.05-.07S141.4,216.69,141.41,216.67Z"/><path class="cls-12" d="M141.91,216.06a.45.45,0,0,1-.14-.24.11.11,0,0,0,0,0,.32.32,0,0,1,0-.17s0,0,0,0a.38.38,0,0,1,.09-.12.46.46,0,0,1,.16-.07h.17a.51.51,0,0,1,.17.07l.06.05,0,0h0a.4.4,0,0,1,.09.17.06.06,0,0,0,0,0v.06a.32.32,0,0,1,0,.17l0,.06v0l0,0-.09.06-.13,0h-.14l-.08,0A.34.34,0,0,1,141.91,216.06Z"/><path class="cls-12" d="M144.09,215.89a.37.37,0,0,1-.35.1l-.13,0,0,0h0a.21.21,0,0,1-.08-.06l0-.06a.33.33,0,0,1-.07-.16.07.07,0,0,1,0,0,.32.32,0,0,1,0-.17l0,0v0l0,0,0,0s0,0,0,0a.22.22,0,0,1,.11-.05.15.15,0,0,1,.09,0s.08,0,.13,0l.09,0a.31.31,0,0,1,.1.05l.07.07,0,0a.53.53,0,0,1,.06.1v0a.5.5,0,0,1,0,.17.56.56,0,0,1,0,.12S144.12,215.87,144.09,215.89Z"/><path class="cls-12" d="M143.37,213.68a.31.31,0,0,1,.22-.11h0a.45.45,0,0,1,.19.05l0,0,.07.05h0a.27.27,0,0,1,.07.08.31.31,0,0,1,.06.13.36.36,0,0,1,0,.1.34.34,0,0,1,0,.1.19.19,0,0,1,0,.08l0,0,0,0,0,0h0a.3.3,0,0,1-.16.08h-.09l-.12,0-.13-.07,0,0a.08.08,0,0,1,0,0l0,0,0-.07a.42.42,0,0,1-.06-.21.25.25,0,0,1,0-.12h0a.14.14,0,0,1,0-.06S143.34,213.7,143.37,213.68Z"/><path class="cls-12" d="M145.61,215.12a.36.36,0,0,1,.11.14.74.74,0,0,1,0,.14.56.56,0,0,1,0,.13.37.37,0,0,1,0,.11l0,.06a.42.42,0,0,1-.14.09.4.4,0,0,1-.15,0,.41.41,0,0,1-.19,0l-.07,0-.06,0a.05.05,0,0,1,0,0h0a.18.18,0,0,1-.06-.09.36.36,0,0,1,0-.11v-.12a.49.49,0,0,1,.06-.17l0-.05,0,0,0,0,.06,0,.09,0a.38.38,0,0,1,.15,0,.28.28,0,0,1,.12,0A.23.23,0,0,1,145.61,215.12Z"/><path class="cls-12" d="M147.12,213.34a.49.49,0,0,1,.14.24.37.37,0,0,1,0,.11.4.4,0,0,1,0,.15.34.34,0,0,1-.09.12.24.24,0,0,1-.12.07h-.1a.39.39,0,0,1-.23-.05l-.07,0s0,0,0,0l0,0,0,0-.06-.08a.35.35,0,0,1,0-.14.06.06,0,0,1,0,0,.77.77,0,0,1,0-.15.25.25,0,0,1,0-.07l0,0a.24.24,0,0,1,.08-.06.31.31,0,0,1,.16-.06h.11a.44.44,0,0,1,.19.07Z"/><path class="cls-12" d="M146.82,217.18l0,0-.06-.09v0a.28.28,0,0,1,0-.13v0a.38.38,0,0,1,0-.15.53.53,0,0,1,.06-.1.23.23,0,0,1,.07-.07l.06,0,.1,0h.09l.09,0,.06,0a.26.26,0,0,1,.11.07l0,0s0,0,.07.08l0,.07s0,0,0,0a.41.41,0,0,1,0,.16.56.56,0,0,1,0,.12.08.08,0,0,1,0,0h0a.18.18,0,0,1-.05.07l0,0a.24.24,0,0,1-.14.05h-.08a.27.27,0,0,1-.12,0l-.11-.05-.06,0Z"/><path class="cls-12" d="M145.33,219a.52.52,0,0,1-.1-.11.41.41,0,0,1,0-.18.21.21,0,0,1,0-.08.42.42,0,0,1,0-.15l.09-.1a.46.46,0,0,1,.16-.07h.1a.66.66,0,0,1,.2.06l0,0,.05,0,0,0,.06.08a.3.3,0,0,0,0,.1h0s0,.08,0,.13a.37.37,0,0,1,0,.14l0,.05,0,0v0h0a.25.25,0,0,1-.12.07.34.34,0,0,1-.14,0,.32.32,0,0,1-.14,0l-.07,0A.27.27,0,0,1,145.33,219Z"/><path class="cls-12" d="M144.16,217.5l0,0a.24.24,0,0,1-.12.07.26.26,0,0,1-.15,0,.22.22,0,0,1-.11,0,.27.27,0,0,1-.11-.05l0,0s0,0-.05,0a.3.3,0,0,1-.09-.13.28.28,0,0,1,0-.15.41.41,0,0,1,0-.16l0-.06a0,0,0,0,1,0,0s0,0,0-.05a.18.18,0,0,1,.07,0,.25.25,0,0,1,.15-.05h.07a.18.18,0,0,1,.1,0l.1,0,.07.05,0,0a.27.27,0,0,1,.07.08.56.56,0,0,1,.07.16.27.27,0,0,1,0,.09.17.17,0,0,1,0,.07.21.21,0,0,1,0,.11s0,0,0,0l0,0Z"/><path class="cls-12" d="M145.16,217.31l0,0,0,0a.1.1,0,0,0,0-.05A.49.49,0,0,1,145,217v0a.22.22,0,0,1,0-.08.34.34,0,0,1,0-.12.39.39,0,0,1,.08-.1l.05,0,.14,0h.07l.09,0,.12,0s0,0,.07.06l0,0,.08.12a.59.59,0,0,1,0,.19.44.44,0,0,1,0,.1.08.08,0,0,1,0,.05s0,.05,0,.06v0l0,0,0,0h0l0,0-.13,0a.44.44,0,0,1-.16,0l-.13,0,0,0,0,0Z"/><path class="cls-12" d="M146.63,215l0,0a.14.14,0,0,1,.08-.05h0a.28.28,0,0,1,.13,0h.05a.42.42,0,0,1,.15,0l.08.05a.1.1,0,0,1,.05,0,.27.27,0,0,1,.07.08l.06.11s0,0,0,.06a.49.49,0,0,1,0,.17.61.61,0,0,1-.05.12h0l0,0a.25.25,0,0,1-.12.08.14.14,0,0,1-.09,0,.38.38,0,0,1-.15,0,.34.34,0,0,1-.12,0l-.06,0h0l-.07-.06a.21.21,0,0,1,0-.06.37.37,0,0,1-.07-.14s0,0,0,0v-.08a.21.21,0,0,1,0-.11h0A.24.24,0,0,1,146.63,215Z"/><path class="cls-12" d="M145.52,212.49h0a.24.24,0,0,1-.13.09l-.07,0h-.15a.35.35,0,0,1-.13,0,.24.24,0,0,1-.08-.06.38.38,0,0,1-.09-.09s0,0,0,0l0-.08a.19.19,0,0,1,0-.07v-.06a.2.2,0,0,1,0-.13l0-.07,0,0,0-.05a.24.24,0,0,1,.12-.07l.06,0a.41.41,0,0,1,.19,0l.12,0h0a.1.1,0,0,0,.05,0l0,0,0,0s0,0,0,0a.77.77,0,0,1,.07.16s0,0,0,.06a.3.3,0,0,1-.05.21,0,0,0,0,1,0,0l0,0Z"/><path class="cls-12" d="M145.59,214.13l0,0a.28.28,0,0,1-.11.08l-.1,0h-.15a.46.46,0,0,1-.16-.07l0,0a.16.16,0,0,1-.07-.07l0,0a.3.3,0,0,1,0-.08.19.19,0,0,1,0-.1.36.36,0,0,1,0-.23.56.56,0,0,1,.05-.08l0,0a.42.42,0,0,1,.12-.08h.24a.34.34,0,0,1,.15.07l.06,0,.08.09a.75.75,0,0,1,.06.13.06.06,0,0,0,0,0v.05h0a.76.76,0,0,1,0,.16A.26.26,0,0,1,145.59,214.13Z"/><path class="cls-12" d="M148.85,214.89h0l.07.09a.37.37,0,0,1,.05.11s0,0,0,0v.06a.33.33,0,0,1,0,.1v0a.15.15,0,0,1,0,.09.21.21,0,0,1,0,.06.33.33,0,0,1-.21.11h0a.29.29,0,0,1-.18,0,.26.26,0,0,1-.13-.08l0,0a.41.41,0,0,1-.1-.13.14.14,0,0,0,0-.06.78.78,0,0,1,0-.16v0a.34.34,0,0,1,0-.14l0,0a.12.12,0,0,1,.06-.06l0,0,.08,0,.11,0h.1a.41.41,0,0,1,.17.07h0l0,0Z"/></g></svg>
