<svg id="Layer_21" data-name="Layer 21" xmlns="http://www.w3.org/2000/svg" viewBox="0 0 350 500">
  <title>Gorillaspriteudenfarversit</title>
  <path d="M126.34,230.61c.56-3.78,1.8-7.38,2.6-11.08A3.38,3.38,0,0,1,130,217.7c11.06-9.63,33.38-22.74,60.22-18.9a3.17,3.17,0,0,1,1.86.92,1.62,1.62,0,0,1,.51,1.63,4.1,4.1,0,0,0,2.68,5.13c6.37,2,13.2,5,5.23,6.68,0,0-1.36,1.36,1.35,2,0,0,12,2.41,17,10.46a3.35,3.35,0,0,1-2.82,5.14h-.47a1.73,1.73,0,0,0-1.68,2.13c.73,3.1,2.18,10,4.17,23a8,8,0,0,0,5.27,6.34l5,1.74a6,6,0,0,1,4,6.05,48.1,48.1,0,0,1-5.72,19.21,8,8,0,0,0,.32,8.15l17,26.32s8.65,14.19,13.59,25.76c0,0,4.39,9.29,3.76,31l.95,45.59s0,9.5-14.24,10.85S212,438.29,212,438.29s-5.07,0-8-5.66a3.34,3.34,0,0,0-3-1.8h-9.69a3.31,3.31,0,0,1-.77-.09c-1.67-.4-7.67-2.26-8.37-8.52a2.82,2.82,0,0,1,0-.41v-6.63a3.35,3.35,0,0,0-3.34-3.34h-7.56a3.34,3.34,0,0,0-3.34,3.34v5.09a3.21,3.21,0,0,1-.1.81c-.49,1.91-2.94,9.67-10.07,9.07h-9a3.36,3.36,0,0,0-3.12,2.15,9.54,9.54,0,0,1-7.56,6c-7.06,1.28-31.73.14-34.35,0h-.47c-14-.69-15.36-11.54-15.36-11.54-.71-3.94-.48-21.73-.11-37.61,0,0,2-36.49,6.82-45.67a68.81,68.81,0,0,1,6.09-10.85,1.64,1.64,0,0,0,.16-.26c1.1-2,14.71-26.61,20.37-33a11.52,11.52,0,0,0,2.71-5.73c1.11-6.41,2.9-18.43,1.94-24.24,0,0-.76-11-1.58-21.84" fill="#291706"/>
  <path d="M146.25,430.15c0-1.95-.62-12-14.4-21.18a13.8,13.8,0,0,0-2.27-1.29c-.4-.17-1-.63-1-1.94l-.68-33.91v-1.35" fill="none" stroke="#8b6448" stroke-miterlimit="10" stroke-width="0.68"/>
  <path d="M203.21,430.49c0-1.93.61-11.23,14.09-20.3a14.77,14.77,0,0,1,2.58-1.49c.4-.17,1-.64,1-1.94l.68-33.91V371.5" fill="none" stroke="#8b6448" stroke-miterlimit="10" stroke-width="0.68"/>
  <path d="M132,349.46s-8.14,40.68,14.24,48.82c0,0,23.73,14.24,48.14,4.07,0,0,21.7-4.07,23.74-23.73l.68-25.09s1.35-16.28-25.77-20.35S137.43,332.5,132,349.46Z" fill="#8b6448"/>
  <path d="M175.05,376.24s5.43,2,3.39,4.75a10,10,0,0,1-1.82,1.94,2.92,2.92,0,0,1-2.55.52l-.71-.17a2.28,2.28,0,0,1-1.49-1.2l-.47-.94a1.65,1.65,0,0,1,.13-1.71c.52-.72,1.34-1.57,2.17-1.15,1.35.67,2.71.67,2.71,2s-2,1.36-2,1.36" fill="none" stroke="#291706" stroke-miterlimit="10" stroke-width="0.68"/>
  <ellipse cx="163.63" cy="246.81" rx="3.39" ry="3.2" fill="#291706"/>
  <ellipse cx="192.93" cy="246.31" rx="3.39" ry="3.2" fill="#291706"/>
  <path d="M228.25,267.12c-3.37-1-13.46-3.28-33.6-1.43l-.2,0c-1.31.18-15.44,2.08-22.85,1.11a1.07,1.07,0,0,0-1.24.85c-.47,3.9-2.19,17.74-3.2,20.68a1.21,1.21,0,0,0,.26,1.25c2.41,2.59,12.66,11.27,38.63,6.4,0,0,9.93-.47,20.39-18.47a25.55,25.55,0,0,0,3-8.71,1.33,1.33,0,0,0,0-.4,1.3,1.3,0,0,0-.3-.7A1.67,1.67,0,0,0,228.25,267.12Z" fill="#8b6448"/>
  <path d="M201.46,235.92a1.07,1.07,0,0,1-1.14.08c-9.31-4.88-19.58-.86-22.39.43a1.26,1.26,0,0,0-.7,1.23,112,112,0,0,1-.32,18.81,1.24,1.24,0,0,0,.84,1.37c5.49,1.6,15.56-.22,16.19-.34H194c7.49-2.05,19.38-.35,21.69-.38a1,1,0,0,0,.39-.06c.41-.45-2.6-17.34-3.18-20.62a1.24,1.24,0,0,0-.56-.85l-.13-.08A9.41,9.41,0,0,0,201.46,235.92Zm-13.13,18.24a7.78,7.78,0,1,1,7.78-7.78A7.78,7.78,0,0,1,188.33,254.16Zm18.28,0a7.78,7.78,0,1,1,7.77-7.78A7.78,7.78,0,0,1,206.61,254.16Z" fill="#8b6448"/>
  <ellipse cx="188.11" cy="245.89" rx="9.06" ry="9.17" transform="translate(-8.21 6.51) rotate(-1.94)" fill="#8b6448"/>
  <ellipse cx="205.2" cy="246.37" rx="9.25" ry="8.73" fill="#8b6448"/>
  <path d="M184.43,245s7.83-3.35,10.35,0" fill="none" stroke="#291706" stroke-miterlimit="10"/>
  <path d="M201.77,245.11s7.83-3.36,10.35,0" fill="none" stroke="#291706" stroke-miterlimit="10"/>
  <path d="M149.14,299.72c3.12,3.88,16.38,16.85,50,9.58,0,0,12.85-.71,26.37-27.62a41.7,41.7,0,0,0,3.87-13,2.37,2.37,0,0,0-1.52-2.54c-4.36-1.55-17.42-4.91-43.46-2.15l-.26,0c-1.69.27-20,3.12-29.55,1.66a1.41,1.41,0,0,0-1.6,1.27c-.61,5.84-2.84,26.53-4.14,30.92A2,2,0,0,0,149.14,299.72Z" fill="#8b6448"/>
  <path d="M153.34,259.53a167.35,167.35,0,0,0,.53-29.58A2,2,0,0,1,155,228c4.64-2,21.6-8.35,37-.68a1.82,1.82,0,0,0,1.88-.12,16.14,16.14,0,0,1,18-.54,2,2,0,0,1,.93,1.35c1,5.16,5.93,31.71,5.25,32.42s-22.93-2.83-36.46.69l-.11,0c-1,.19-17.67,3.06-26.73.54A2,2,0,0,1,153.34,259.53Z" fill="#8b6448"/>
  <path d="M170.8,244.63s11.07-4.74,14.63,0" fill="none" stroke="#291706" stroke-miterlimit="10" stroke-width="1.41"/>
  <path d="M195.29,244.78s11.07-4.75,14.63,0" fill="none" stroke="#291706" stroke-miterlimit="10" stroke-width="1.41"/>
  <path d="M200.88,235.5a10.51,10.51,0,1,0,10,10.5A10.23,10.23,0,0,0,200.88,235.5Zm.83,20.12a8.76,8.76,0,1,1,8.29-8.75A8.53,8.53,0,0,1,201.71,255.62Z" fill="#fff"/>
  <path d="M201.71,238.13a8.76,8.76,0,1,0,8.29,8.74A8.52,8.52,0,0,0,201.71,238.13Zm-.83,14c-1.37,0-2.48-.59-2.48-1.31s1.11-1.31,2.48-1.31,2.49.58,2.49,1.31S202.26,252.12,200.88,252.12Zm3.73-2.62c-1.14,0-2.07-2-2.07-4.38s.93-4.37,2.07-4.37,2.07,2,2.07,4.37S205.76,249.5,204.61,249.5Z"/>
  <path d="M204.61,240.75c-1.14,0-2.07,2-2.07,4.37s.93,4.38,2.07,4.38,2.07-2,2.07-4.38S205.76,240.75,204.61,240.75Z" fill="#fff"/>
  <path d="M200.88,249.5c-1.37,0-2.48.58-2.48,1.31s1.11,1.31,2.48,1.31,2.49-.59,2.49-1.31S202.26,249.5,200.88,249.5Z" fill="#fff"/>
  <path d="M177.52,235.5a10.51,10.51,0,1,0,9.94,10.5A10.23,10.23,0,0,0,177.52,235.5Zm.83,20.12a8.76,8.76,0,1,1,8.28-8.75A8.53,8.53,0,0,1,178.35,255.62Z" fill="#fff"/>
  <path d="M178.35,238.13a8.76,8.76,0,1,0,8.28,8.74A8.52,8.52,0,0,0,178.35,238.13Zm-.83,14c-1.38,0-2.49-.59-2.49-1.31s1.11-1.31,2.49-1.31,2.48.58,2.48,1.31S178.89,252.12,177.52,252.12Zm3.73-2.62c-1.15,0-2.08-2-2.08-4.38s.93-4.37,2.08-4.37,2.07,2,2.07,4.37S182.39,249.5,181.25,249.5Z"/>
  <path d="M181.25,240.75c-1.15,0-2.08,2-2.08,4.37s.93,4.38,2.08,4.38,2.07-2,2.07-4.38S182.39,240.75,181.25,240.75Z" fill="#fff"/>
  <ellipse cx="177.52" cy="250.81" rx="2.49" ry="1.31" fill="#fff"/>
</svg>
